%TF.GenerationSoftware,KiCad,Pcbnew,10.0.4*%
%TF.CreationDate,2026-07-27T21:32:22+02:00*%
%TF.ProjectId,pdb,7064622e-6b69-4636-9164-5f7063625858,rev?*%
%TF.SameCoordinates,Original*%
%TF.FileFunction,Soldermask,Top*%
%TF.FilePolarity,Negative*%
%FSLAX46Y46*%
G04 Gerber Fmt 4.6, Leading zero omitted, Abs format (unit mm)*
G04 Created by KiCad (PCBNEW 10.0.4) date 2026-07-27 21:32:22*
%MOMM*%
%LPD*%
G01*
G04 APERTURE LIST*
G04 Aperture macros list*
%AMRoundRect*
0 Rectangle with rounded corners*
0 $1 Rounding radius*
0 $2 $3 $4 $5 $6 $7 $8 $9 X,Y pos of 4 corners*
0 Add a 4 corners polygon primitive as box body*
4,1,4,$2,$3,$4,$5,$6,$7,$8,$9,$2,$3,0*
0 Add four circle primitives for the rounded corners*
1,1,$1+$1,$2,$3*
1,1,$1+$1,$4,$5*
1,1,$1+$1,$6,$7*
1,1,$1+$1,$8,$9*
0 Add four rect primitives between the rounded corners*
20,1,$1+$1,$2,$3,$4,$5,0*
20,1,$1+$1,$4,$5,$6,$7,0*
20,1,$1+$1,$6,$7,$8,$9,0*
20,1,$1+$1,$8,$9,$2,$3,0*%
%AMFreePoly0*
4,1,5,6.000000,-6.000000,-6.000000,-6.000000,-6.000000,6.000000,6.000000,6.000000,6.000000,-6.000000,6.000000,-6.000000,$1*%
G04 Aperture macros list end*
%ADD10C,0.150000*%
%ADD11C,0.300000*%
%ADD12C,0.400000*%
%ADD13C,0.100000*%
%ADD14C,4.000000*%
%ADD15RoundRect,0.250000X0.262500X0.450000X-0.262500X0.450000X-0.262500X-0.450000X0.262500X-0.450000X0*%
%ADD16R,1.500000X1.500000*%
%ADD17C,1.500000*%
%ADD18FreePoly0,0.000000*%
%ADD19R,5.500000X12.000000*%
%ADD20R,1.700000X1.700000*%
%ADD21C,1.700000*%
%ADD22RoundRect,0.250000X-0.337500X-0.475000X0.337500X-0.475000X0.337500X0.475000X-0.337500X0.475000X0*%
%ADD23RoundRect,0.250000X0.475000X-0.337500X0.475000X0.337500X-0.475000X0.337500X-0.475000X-0.337500X0*%
%ADD24RoundRect,0.250000X-0.262500X-0.450000X0.262500X-0.450000X0.262500X0.450000X-0.262500X0.450000X0*%
G04 APERTURE END LIST*
D10*
X177002200Y-166007200D02*
X285002200Y-166007200D01*
X285002200Y-198007200D01*
X177002200Y-198007200D01*
X177002200Y-166007200D01*
X10000000Y-10000000D02*
X287002200Y-10000000D01*
X287002200Y-200007200D01*
X10000000Y-200007200D01*
X10000000Y-10000000D01*
X12000000Y-12000000D02*
X285002200Y-12000000D01*
X285002200Y-198007200D01*
X12000000Y-198007200D01*
X12000000Y-12000000D01*
X60000000Y-12000000D02*
X60000000Y-10000000D01*
X110000000Y-12000000D02*
X110000000Y-10000000D01*
X160000000Y-12000000D02*
X160000000Y-10000000D01*
X210000000Y-12000000D02*
X210000000Y-10000000D01*
X260000000Y-12000000D02*
X260000000Y-10000000D01*
X36089160Y-11593604D02*
X35346303Y-11593604D01*
X35717731Y-11593604D02*
X35717731Y-10293604D01*
X35717731Y-10293604D02*
X35593922Y-10479319D01*
X35593922Y-10479319D02*
X35470112Y-10603128D01*
X35470112Y-10603128D02*
X35346303Y-10665033D01*
X85346303Y-10417414D02*
X85408207Y-10355509D01*
X85408207Y-10355509D02*
X85532017Y-10293604D01*
X85532017Y-10293604D02*
X85841541Y-10293604D01*
X85841541Y-10293604D02*
X85965350Y-10355509D01*
X85965350Y-10355509D02*
X86027255Y-10417414D01*
X86027255Y-10417414D02*
X86089160Y-10541223D01*
X86089160Y-10541223D02*
X86089160Y-10665033D01*
X86089160Y-10665033D02*
X86027255Y-10850747D01*
X86027255Y-10850747D02*
X85284398Y-11593604D01*
X85284398Y-11593604D02*
X86089160Y-11593604D01*
X135284398Y-10293604D02*
X136089160Y-10293604D01*
X136089160Y-10293604D02*
X135655826Y-10788842D01*
X135655826Y-10788842D02*
X135841541Y-10788842D01*
X135841541Y-10788842D02*
X135965350Y-10850747D01*
X135965350Y-10850747D02*
X136027255Y-10912652D01*
X136027255Y-10912652D02*
X136089160Y-11036461D01*
X136089160Y-11036461D02*
X136089160Y-11345985D01*
X136089160Y-11345985D02*
X136027255Y-11469795D01*
X136027255Y-11469795D02*
X135965350Y-11531700D01*
X135965350Y-11531700D02*
X135841541Y-11593604D01*
X135841541Y-11593604D02*
X135470112Y-11593604D01*
X135470112Y-11593604D02*
X135346303Y-11531700D01*
X135346303Y-11531700D02*
X135284398Y-11469795D01*
X185965350Y-10726938D02*
X185965350Y-11593604D01*
X185655826Y-10231700D02*
X185346303Y-11160271D01*
X185346303Y-11160271D02*
X186151064Y-11160271D01*
X236027255Y-10293604D02*
X235408207Y-10293604D01*
X235408207Y-10293604D02*
X235346303Y-10912652D01*
X235346303Y-10912652D02*
X235408207Y-10850747D01*
X235408207Y-10850747D02*
X235532017Y-10788842D01*
X235532017Y-10788842D02*
X235841541Y-10788842D01*
X235841541Y-10788842D02*
X235965350Y-10850747D01*
X235965350Y-10850747D02*
X236027255Y-10912652D01*
X236027255Y-10912652D02*
X236089160Y-11036461D01*
X236089160Y-11036461D02*
X236089160Y-11345985D01*
X236089160Y-11345985D02*
X236027255Y-11469795D01*
X236027255Y-11469795D02*
X235965350Y-11531700D01*
X235965350Y-11531700D02*
X235841541Y-11593604D01*
X235841541Y-11593604D02*
X235532017Y-11593604D01*
X235532017Y-11593604D02*
X235408207Y-11531700D01*
X235408207Y-11531700D02*
X235346303Y-11469795D01*
X285965350Y-10293604D02*
X285717731Y-10293604D01*
X285717731Y-10293604D02*
X285593922Y-10355509D01*
X285593922Y-10355509D02*
X285532017Y-10417414D01*
X285532017Y-10417414D02*
X285408207Y-10603128D01*
X285408207Y-10603128D02*
X285346303Y-10850747D01*
X285346303Y-10850747D02*
X285346303Y-11345985D01*
X285346303Y-11345985D02*
X285408207Y-11469795D01*
X285408207Y-11469795D02*
X285470112Y-11531700D01*
X285470112Y-11531700D02*
X285593922Y-11593604D01*
X285593922Y-11593604D02*
X285841541Y-11593604D01*
X285841541Y-11593604D02*
X285965350Y-11531700D01*
X285965350Y-11531700D02*
X286027255Y-11469795D01*
X286027255Y-11469795D02*
X286089160Y-11345985D01*
X286089160Y-11345985D02*
X286089160Y-11036461D01*
X286089160Y-11036461D02*
X286027255Y-10912652D01*
X286027255Y-10912652D02*
X285965350Y-10850747D01*
X285965350Y-10850747D02*
X285841541Y-10788842D01*
X285841541Y-10788842D02*
X285593922Y-10788842D01*
X285593922Y-10788842D02*
X285470112Y-10850747D01*
X285470112Y-10850747D02*
X285408207Y-10912652D01*
X285408207Y-10912652D02*
X285346303Y-11036461D01*
X60000000Y-198007200D02*
X60000000Y-200007200D01*
X110000000Y-198007200D02*
X110000000Y-200007200D01*
X160000000Y-198007200D02*
X160000000Y-200007200D01*
X210000000Y-198007200D02*
X210000000Y-200007200D01*
X260000000Y-198007200D02*
X260000000Y-200007200D01*
X36089160Y-199600804D02*
X35346303Y-199600804D01*
X35717731Y-199600804D02*
X35717731Y-198300804D01*
X35717731Y-198300804D02*
X35593922Y-198486519D01*
X35593922Y-198486519D02*
X35470112Y-198610328D01*
X35470112Y-198610328D02*
X35346303Y-198672233D01*
X85346303Y-198424614D02*
X85408207Y-198362709D01*
X85408207Y-198362709D02*
X85532017Y-198300804D01*
X85532017Y-198300804D02*
X85841541Y-198300804D01*
X85841541Y-198300804D02*
X85965350Y-198362709D01*
X85965350Y-198362709D02*
X86027255Y-198424614D01*
X86027255Y-198424614D02*
X86089160Y-198548423D01*
X86089160Y-198548423D02*
X86089160Y-198672233D01*
X86089160Y-198672233D02*
X86027255Y-198857947D01*
X86027255Y-198857947D02*
X85284398Y-199600804D01*
X85284398Y-199600804D02*
X86089160Y-199600804D01*
X135284398Y-198300804D02*
X136089160Y-198300804D01*
X136089160Y-198300804D02*
X135655826Y-198796042D01*
X135655826Y-198796042D02*
X135841541Y-198796042D01*
X135841541Y-198796042D02*
X135965350Y-198857947D01*
X135965350Y-198857947D02*
X136027255Y-198919852D01*
X136027255Y-198919852D02*
X136089160Y-199043661D01*
X136089160Y-199043661D02*
X136089160Y-199353185D01*
X136089160Y-199353185D02*
X136027255Y-199476995D01*
X136027255Y-199476995D02*
X135965350Y-199538900D01*
X135965350Y-199538900D02*
X135841541Y-199600804D01*
X135841541Y-199600804D02*
X135470112Y-199600804D01*
X135470112Y-199600804D02*
X135346303Y-199538900D01*
X135346303Y-199538900D02*
X135284398Y-199476995D01*
X185965350Y-198734138D02*
X185965350Y-199600804D01*
X185655826Y-198238900D02*
X185346303Y-199167471D01*
X185346303Y-199167471D02*
X186151064Y-199167471D01*
X236027255Y-198300804D02*
X235408207Y-198300804D01*
X235408207Y-198300804D02*
X235346303Y-198919852D01*
X235346303Y-198919852D02*
X235408207Y-198857947D01*
X235408207Y-198857947D02*
X235532017Y-198796042D01*
X235532017Y-198796042D02*
X235841541Y-198796042D01*
X235841541Y-198796042D02*
X235965350Y-198857947D01*
X235965350Y-198857947D02*
X236027255Y-198919852D01*
X236027255Y-198919852D02*
X236089160Y-199043661D01*
X236089160Y-199043661D02*
X236089160Y-199353185D01*
X236089160Y-199353185D02*
X236027255Y-199476995D01*
X236027255Y-199476995D02*
X235965350Y-199538900D01*
X235965350Y-199538900D02*
X235841541Y-199600804D01*
X235841541Y-199600804D02*
X235532017Y-199600804D01*
X235532017Y-199600804D02*
X235408207Y-199538900D01*
X235408207Y-199538900D02*
X235346303Y-199476995D01*
X285965350Y-198300804D02*
X285717731Y-198300804D01*
X285717731Y-198300804D02*
X285593922Y-198362709D01*
X285593922Y-198362709D02*
X285532017Y-198424614D01*
X285532017Y-198424614D02*
X285408207Y-198610328D01*
X285408207Y-198610328D02*
X285346303Y-198857947D01*
X285346303Y-198857947D02*
X285346303Y-199353185D01*
X285346303Y-199353185D02*
X285408207Y-199476995D01*
X285408207Y-199476995D02*
X285470112Y-199538900D01*
X285470112Y-199538900D02*
X285593922Y-199600804D01*
X285593922Y-199600804D02*
X285841541Y-199600804D01*
X285841541Y-199600804D02*
X285965350Y-199538900D01*
X285965350Y-199538900D02*
X286027255Y-199476995D01*
X286027255Y-199476995D02*
X286089160Y-199353185D01*
X286089160Y-199353185D02*
X286089160Y-199043661D01*
X286089160Y-199043661D02*
X286027255Y-198919852D01*
X286027255Y-198919852D02*
X285965350Y-198857947D01*
X285965350Y-198857947D02*
X285841541Y-198796042D01*
X285841541Y-198796042D02*
X285593922Y-198796042D01*
X285593922Y-198796042D02*
X285470112Y-198857947D01*
X285470112Y-198857947D02*
X285408207Y-198919852D01*
X285408207Y-198919852D02*
X285346303Y-199043661D01*
X10000000Y-60000000D02*
X12000000Y-60000000D01*
X10000000Y-110000000D02*
X12000000Y-110000000D01*
X10000000Y-160000000D02*
X12000000Y-160000000D01*
X10690476Y-35222176D02*
X11309523Y-35222176D01*
X10566666Y-35593604D02*
X10999999Y-34293604D01*
X10999999Y-34293604D02*
X11433333Y-35593604D01*
X11092857Y-84912652D02*
X11278571Y-84974557D01*
X11278571Y-84974557D02*
X11340476Y-85036461D01*
X11340476Y-85036461D02*
X11402380Y-85160271D01*
X11402380Y-85160271D02*
X11402380Y-85345985D01*
X11402380Y-85345985D02*
X11340476Y-85469795D01*
X11340476Y-85469795D02*
X11278571Y-85531700D01*
X11278571Y-85531700D02*
X11154761Y-85593604D01*
X11154761Y-85593604D02*
X10659523Y-85593604D01*
X10659523Y-85593604D02*
X10659523Y-84293604D01*
X10659523Y-84293604D02*
X11092857Y-84293604D01*
X11092857Y-84293604D02*
X11216666Y-84355509D01*
X11216666Y-84355509D02*
X11278571Y-84417414D01*
X11278571Y-84417414D02*
X11340476Y-84541223D01*
X11340476Y-84541223D02*
X11340476Y-84665033D01*
X11340476Y-84665033D02*
X11278571Y-84788842D01*
X11278571Y-84788842D02*
X11216666Y-84850747D01*
X11216666Y-84850747D02*
X11092857Y-84912652D01*
X11092857Y-84912652D02*
X10659523Y-84912652D01*
X11402380Y-135469795D02*
X11340476Y-135531700D01*
X11340476Y-135531700D02*
X11154761Y-135593604D01*
X11154761Y-135593604D02*
X11030952Y-135593604D01*
X11030952Y-135593604D02*
X10845238Y-135531700D01*
X10845238Y-135531700D02*
X10721428Y-135407890D01*
X10721428Y-135407890D02*
X10659523Y-135284080D01*
X10659523Y-135284080D02*
X10597619Y-135036461D01*
X10597619Y-135036461D02*
X10597619Y-134850747D01*
X10597619Y-134850747D02*
X10659523Y-134603128D01*
X10659523Y-134603128D02*
X10721428Y-134479319D01*
X10721428Y-134479319D02*
X10845238Y-134355509D01*
X10845238Y-134355509D02*
X11030952Y-134293604D01*
X11030952Y-134293604D02*
X11154761Y-134293604D01*
X11154761Y-134293604D02*
X11340476Y-134355509D01*
X11340476Y-134355509D02*
X11402380Y-134417414D01*
X10659523Y-185593604D02*
X10659523Y-184293604D01*
X10659523Y-184293604D02*
X10969047Y-184293604D01*
X10969047Y-184293604D02*
X11154761Y-184355509D01*
X11154761Y-184355509D02*
X11278571Y-184479319D01*
X11278571Y-184479319D02*
X11340476Y-184603128D01*
X11340476Y-184603128D02*
X11402380Y-184850747D01*
X11402380Y-184850747D02*
X11402380Y-185036461D01*
X11402380Y-185036461D02*
X11340476Y-185284080D01*
X11340476Y-185284080D02*
X11278571Y-185407890D01*
X11278571Y-185407890D02*
X11154761Y-185531700D01*
X11154761Y-185531700D02*
X10969047Y-185593604D01*
X10969047Y-185593604D02*
X10659523Y-185593604D01*
X287002200Y-60000000D02*
X285002200Y-60000000D01*
X287002200Y-110000000D02*
X285002200Y-110000000D01*
X287002200Y-160000000D02*
X285002200Y-160000000D01*
X285692676Y-35222176D02*
X286311723Y-35222176D01*
X285568866Y-35593604D02*
X286002199Y-34293604D01*
X286002199Y-34293604D02*
X286435533Y-35593604D01*
X286095057Y-84912652D02*
X286280771Y-84974557D01*
X286280771Y-84974557D02*
X286342676Y-85036461D01*
X286342676Y-85036461D02*
X286404580Y-85160271D01*
X286404580Y-85160271D02*
X286404580Y-85345985D01*
X286404580Y-85345985D02*
X286342676Y-85469795D01*
X286342676Y-85469795D02*
X286280771Y-85531700D01*
X286280771Y-85531700D02*
X286156961Y-85593604D01*
X286156961Y-85593604D02*
X285661723Y-85593604D01*
X285661723Y-85593604D02*
X285661723Y-84293604D01*
X285661723Y-84293604D02*
X286095057Y-84293604D01*
X286095057Y-84293604D02*
X286218866Y-84355509D01*
X286218866Y-84355509D02*
X286280771Y-84417414D01*
X286280771Y-84417414D02*
X286342676Y-84541223D01*
X286342676Y-84541223D02*
X286342676Y-84665033D01*
X286342676Y-84665033D02*
X286280771Y-84788842D01*
X286280771Y-84788842D02*
X286218866Y-84850747D01*
X286218866Y-84850747D02*
X286095057Y-84912652D01*
X286095057Y-84912652D02*
X285661723Y-84912652D01*
X286404580Y-135469795D02*
X286342676Y-135531700D01*
X286342676Y-135531700D02*
X286156961Y-135593604D01*
X286156961Y-135593604D02*
X286033152Y-135593604D01*
X286033152Y-135593604D02*
X285847438Y-135531700D01*
X285847438Y-135531700D02*
X285723628Y-135407890D01*
X285723628Y-135407890D02*
X285661723Y-135284080D01*
X285661723Y-135284080D02*
X285599819Y-135036461D01*
X285599819Y-135036461D02*
X285599819Y-134850747D01*
X285599819Y-134850747D02*
X285661723Y-134603128D01*
X285661723Y-134603128D02*
X285723628Y-134479319D01*
X285723628Y-134479319D02*
X285847438Y-134355509D01*
X285847438Y-134355509D02*
X286033152Y-134293604D01*
X286033152Y-134293604D02*
X286156961Y-134293604D01*
X286156961Y-134293604D02*
X286342676Y-134355509D01*
X286342676Y-134355509D02*
X286404580Y-134417414D01*
X285661723Y-185593604D02*
X285661723Y-184293604D01*
X285661723Y-184293604D02*
X285971247Y-184293604D01*
X285971247Y-184293604D02*
X286156961Y-184355509D01*
X286156961Y-184355509D02*
X286280771Y-184479319D01*
X286280771Y-184479319D02*
X286342676Y-184603128D01*
X286342676Y-184603128D02*
X286404580Y-184850747D01*
X286404580Y-184850747D02*
X286404580Y-185036461D01*
X286404580Y-185036461D02*
X286342676Y-185284080D01*
X286342676Y-185284080D02*
X286280771Y-185407890D01*
X286280771Y-185407890D02*
X286156961Y-185531700D01*
X286156961Y-185531700D02*
X285971247Y-185593604D01*
X285971247Y-185593604D02*
X285661723Y-185593604D01*
X200458026Y-193793328D02*
X200458026Y-192293328D01*
X200458026Y-192293328D02*
X200815169Y-192293328D01*
X200815169Y-192293328D02*
X201029455Y-192364757D01*
X201029455Y-192364757D02*
X201172312Y-192507614D01*
X201172312Y-192507614D02*
X201243741Y-192650471D01*
X201243741Y-192650471D02*
X201315169Y-192936185D01*
X201315169Y-192936185D02*
X201315169Y-193150471D01*
X201315169Y-193150471D02*
X201243741Y-193436185D01*
X201243741Y-193436185D02*
X201172312Y-193579042D01*
X201172312Y-193579042D02*
X201029455Y-193721900D01*
X201029455Y-193721900D02*
X200815169Y-193793328D01*
X200815169Y-193793328D02*
X200458026Y-193793328D01*
X202600884Y-193793328D02*
X202600884Y-193007614D01*
X202600884Y-193007614D02*
X202529455Y-192864757D01*
X202529455Y-192864757D02*
X202386598Y-192793328D01*
X202386598Y-192793328D02*
X202100884Y-192793328D01*
X202100884Y-192793328D02*
X201958026Y-192864757D01*
X202600884Y-193721900D02*
X202458026Y-193793328D01*
X202458026Y-193793328D02*
X202100884Y-193793328D01*
X202100884Y-193793328D02*
X201958026Y-193721900D01*
X201958026Y-193721900D02*
X201886598Y-193579042D01*
X201886598Y-193579042D02*
X201886598Y-193436185D01*
X201886598Y-193436185D02*
X201958026Y-193293328D01*
X201958026Y-193293328D02*
X202100884Y-193221900D01*
X202100884Y-193221900D02*
X202458026Y-193221900D01*
X202458026Y-193221900D02*
X202600884Y-193150471D01*
X203100884Y-192793328D02*
X203672312Y-192793328D01*
X203315169Y-192293328D02*
X203315169Y-193579042D01*
X203315169Y-193579042D02*
X203386598Y-193721900D01*
X203386598Y-193721900D02*
X203529455Y-193793328D01*
X203529455Y-193793328D02*
X203672312Y-193793328D01*
X204743741Y-193721900D02*
X204600884Y-193793328D01*
X204600884Y-193793328D02*
X204315170Y-193793328D01*
X204315170Y-193793328D02*
X204172312Y-193721900D01*
X204172312Y-193721900D02*
X204100884Y-193579042D01*
X204100884Y-193579042D02*
X204100884Y-193007614D01*
X204100884Y-193007614D02*
X204172312Y-192864757D01*
X204172312Y-192864757D02*
X204315170Y-192793328D01*
X204315170Y-192793328D02*
X204600884Y-192793328D01*
X204600884Y-192793328D02*
X204743741Y-192864757D01*
X204743741Y-192864757D02*
X204815170Y-193007614D01*
X204815170Y-193007614D02*
X204815170Y-193150471D01*
X204815170Y-193150471D02*
X204100884Y-193293328D01*
X205458026Y-193650471D02*
X205529455Y-193721900D01*
X205529455Y-193721900D02*
X205458026Y-193793328D01*
X205458026Y-193793328D02*
X205386598Y-193721900D01*
X205386598Y-193721900D02*
X205458026Y-193650471D01*
X205458026Y-193650471D02*
X205458026Y-193793328D01*
X205458026Y-192864757D02*
X205529455Y-192936185D01*
X205529455Y-192936185D02*
X205458026Y-193007614D01*
X205458026Y-193007614D02*
X205386598Y-192936185D01*
X205386598Y-192936185D02*
X205458026Y-192864757D01*
X205458026Y-192864757D02*
X205458026Y-193007614D01*
X177002200Y-194507200D02*
X285002200Y-194507200D01*
X178458026Y-196593328D02*
X178458026Y-195093328D01*
X179315169Y-196593328D02*
X178672312Y-195736185D01*
X179315169Y-195093328D02*
X178458026Y-195950471D01*
X179958026Y-196593328D02*
X179958026Y-195593328D01*
X179958026Y-195093328D02*
X179886598Y-195164757D01*
X179886598Y-195164757D02*
X179958026Y-195236185D01*
X179958026Y-195236185D02*
X180029455Y-195164757D01*
X180029455Y-195164757D02*
X179958026Y-195093328D01*
X179958026Y-195093328D02*
X179958026Y-195236185D01*
X181529455Y-196450471D02*
X181458027Y-196521900D01*
X181458027Y-196521900D02*
X181243741Y-196593328D01*
X181243741Y-196593328D02*
X181100884Y-196593328D01*
X181100884Y-196593328D02*
X180886598Y-196521900D01*
X180886598Y-196521900D02*
X180743741Y-196379042D01*
X180743741Y-196379042D02*
X180672312Y-196236185D01*
X180672312Y-196236185D02*
X180600884Y-195950471D01*
X180600884Y-195950471D02*
X180600884Y-195736185D01*
X180600884Y-195736185D02*
X180672312Y-195450471D01*
X180672312Y-195450471D02*
X180743741Y-195307614D01*
X180743741Y-195307614D02*
X180886598Y-195164757D01*
X180886598Y-195164757D02*
X181100884Y-195093328D01*
X181100884Y-195093328D02*
X181243741Y-195093328D01*
X181243741Y-195093328D02*
X181458027Y-195164757D01*
X181458027Y-195164757D02*
X181529455Y-195236185D01*
X182815170Y-196593328D02*
X182815170Y-195807614D01*
X182815170Y-195807614D02*
X182743741Y-195664757D01*
X182743741Y-195664757D02*
X182600884Y-195593328D01*
X182600884Y-195593328D02*
X182315170Y-195593328D01*
X182315170Y-195593328D02*
X182172312Y-195664757D01*
X182815170Y-196521900D02*
X182672312Y-196593328D01*
X182672312Y-196593328D02*
X182315170Y-196593328D01*
X182315170Y-196593328D02*
X182172312Y-196521900D01*
X182172312Y-196521900D02*
X182100884Y-196379042D01*
X182100884Y-196379042D02*
X182100884Y-196236185D01*
X182100884Y-196236185D02*
X182172312Y-196093328D01*
X182172312Y-196093328D02*
X182315170Y-196021900D01*
X182315170Y-196021900D02*
X182672312Y-196021900D01*
X182672312Y-196021900D02*
X182815170Y-195950471D01*
X184172313Y-196593328D02*
X184172313Y-195093328D01*
X184172313Y-196521900D02*
X184029455Y-196593328D01*
X184029455Y-196593328D02*
X183743741Y-196593328D01*
X183743741Y-196593328D02*
X183600884Y-196521900D01*
X183600884Y-196521900D02*
X183529455Y-196450471D01*
X183529455Y-196450471D02*
X183458027Y-196307614D01*
X183458027Y-196307614D02*
X183458027Y-195879042D01*
X183458027Y-195879042D02*
X183529455Y-195736185D01*
X183529455Y-195736185D02*
X183600884Y-195664757D01*
X183600884Y-195664757D02*
X183743741Y-195593328D01*
X183743741Y-195593328D02*
X184029455Y-195593328D01*
X184029455Y-195593328D02*
X184172313Y-195664757D01*
X186029455Y-195807614D02*
X186529455Y-195807614D01*
X186743741Y-196593328D02*
X186029455Y-196593328D01*
X186029455Y-196593328D02*
X186029455Y-195093328D01*
X186029455Y-195093328D02*
X186743741Y-195093328D01*
X187386598Y-196450471D02*
X187458027Y-196521900D01*
X187458027Y-196521900D02*
X187386598Y-196593328D01*
X187386598Y-196593328D02*
X187315170Y-196521900D01*
X187315170Y-196521900D02*
X187386598Y-196450471D01*
X187386598Y-196450471D02*
X187386598Y-196593328D01*
X188100884Y-196593328D02*
X188100884Y-195093328D01*
X188100884Y-195093328D02*
X188458027Y-195093328D01*
X188458027Y-195093328D02*
X188672313Y-195164757D01*
X188672313Y-195164757D02*
X188815170Y-195307614D01*
X188815170Y-195307614D02*
X188886599Y-195450471D01*
X188886599Y-195450471D02*
X188958027Y-195736185D01*
X188958027Y-195736185D02*
X188958027Y-195950471D01*
X188958027Y-195950471D02*
X188886599Y-196236185D01*
X188886599Y-196236185D02*
X188815170Y-196379042D01*
X188815170Y-196379042D02*
X188672313Y-196521900D01*
X188672313Y-196521900D02*
X188458027Y-196593328D01*
X188458027Y-196593328D02*
X188100884Y-196593328D01*
X189600884Y-196450471D02*
X189672313Y-196521900D01*
X189672313Y-196521900D02*
X189600884Y-196593328D01*
X189600884Y-196593328D02*
X189529456Y-196521900D01*
X189529456Y-196521900D02*
X189600884Y-196450471D01*
X189600884Y-196450471D02*
X189600884Y-196593328D01*
X190243742Y-196164757D02*
X190958028Y-196164757D01*
X190100885Y-196593328D02*
X190600885Y-195093328D01*
X190600885Y-195093328D02*
X191100885Y-196593328D01*
X191600884Y-196450471D02*
X191672313Y-196521900D01*
X191672313Y-196521900D02*
X191600884Y-196593328D01*
X191600884Y-196593328D02*
X191529456Y-196521900D01*
X191529456Y-196521900D02*
X191600884Y-196450471D01*
X191600884Y-196450471D02*
X191600884Y-196593328D01*
X194243742Y-196593328D02*
X193386599Y-196593328D01*
X193815170Y-196593328D02*
X193815170Y-195093328D01*
X193815170Y-195093328D02*
X193672313Y-195307614D01*
X193672313Y-195307614D02*
X193529456Y-195450471D01*
X193529456Y-195450471D02*
X193386599Y-195521900D01*
X195172313Y-195093328D02*
X195315170Y-195093328D01*
X195315170Y-195093328D02*
X195458027Y-195164757D01*
X195458027Y-195164757D02*
X195529456Y-195236185D01*
X195529456Y-195236185D02*
X195600884Y-195379042D01*
X195600884Y-195379042D02*
X195672313Y-195664757D01*
X195672313Y-195664757D02*
X195672313Y-196021900D01*
X195672313Y-196021900D02*
X195600884Y-196307614D01*
X195600884Y-196307614D02*
X195529456Y-196450471D01*
X195529456Y-196450471D02*
X195458027Y-196521900D01*
X195458027Y-196521900D02*
X195315170Y-196593328D01*
X195315170Y-196593328D02*
X195172313Y-196593328D01*
X195172313Y-196593328D02*
X195029456Y-196521900D01*
X195029456Y-196521900D02*
X194958027Y-196450471D01*
X194958027Y-196450471D02*
X194886598Y-196307614D01*
X194886598Y-196307614D02*
X194815170Y-196021900D01*
X194815170Y-196021900D02*
X194815170Y-195664757D01*
X194815170Y-195664757D02*
X194886598Y-195379042D01*
X194886598Y-195379042D02*
X194958027Y-195236185D01*
X194958027Y-195236185D02*
X195029456Y-195164757D01*
X195029456Y-195164757D02*
X195172313Y-195093328D01*
X196315169Y-196450471D02*
X196386598Y-196521900D01*
X196386598Y-196521900D02*
X196315169Y-196593328D01*
X196315169Y-196593328D02*
X196243741Y-196521900D01*
X196243741Y-196521900D02*
X196315169Y-196450471D01*
X196315169Y-196450471D02*
X196315169Y-196593328D01*
X197315170Y-195093328D02*
X197458027Y-195093328D01*
X197458027Y-195093328D02*
X197600884Y-195164757D01*
X197600884Y-195164757D02*
X197672313Y-195236185D01*
X197672313Y-195236185D02*
X197743741Y-195379042D01*
X197743741Y-195379042D02*
X197815170Y-195664757D01*
X197815170Y-195664757D02*
X197815170Y-196021900D01*
X197815170Y-196021900D02*
X197743741Y-196307614D01*
X197743741Y-196307614D02*
X197672313Y-196450471D01*
X197672313Y-196450471D02*
X197600884Y-196521900D01*
X197600884Y-196521900D02*
X197458027Y-196593328D01*
X197458027Y-196593328D02*
X197315170Y-196593328D01*
X197315170Y-196593328D02*
X197172313Y-196521900D01*
X197172313Y-196521900D02*
X197100884Y-196450471D01*
X197100884Y-196450471D02*
X197029455Y-196307614D01*
X197029455Y-196307614D02*
X196958027Y-196021900D01*
X196958027Y-196021900D02*
X196958027Y-195664757D01*
X196958027Y-195664757D02*
X197029455Y-195379042D01*
X197029455Y-195379042D02*
X197100884Y-195236185D01*
X197100884Y-195236185D02*
X197172313Y-195164757D01*
X197172313Y-195164757D02*
X197315170Y-195093328D01*
X198458026Y-196450471D02*
X198529455Y-196521900D01*
X198529455Y-196521900D02*
X198458026Y-196593328D01*
X198458026Y-196593328D02*
X198386598Y-196521900D01*
X198386598Y-196521900D02*
X198458026Y-196450471D01*
X198458026Y-196450471D02*
X198458026Y-196593328D01*
X199815170Y-195593328D02*
X199815170Y-196593328D01*
X199458027Y-195021900D02*
X199100884Y-196093328D01*
X199100884Y-196093328D02*
X200029455Y-196093328D01*
X177002200Y-191507200D02*
X285002200Y-191507200D01*
D11*
X264413853Y-193785528D02*
X263913853Y-193071242D01*
X263556710Y-193785528D02*
X263556710Y-192285528D01*
X263556710Y-192285528D02*
X264128139Y-192285528D01*
X264128139Y-192285528D02*
X264270996Y-192356957D01*
X264270996Y-192356957D02*
X264342425Y-192428385D01*
X264342425Y-192428385D02*
X264413853Y-192571242D01*
X264413853Y-192571242D02*
X264413853Y-192785528D01*
X264413853Y-192785528D02*
X264342425Y-192928385D01*
X264342425Y-192928385D02*
X264270996Y-192999814D01*
X264270996Y-192999814D02*
X264128139Y-193071242D01*
X264128139Y-193071242D02*
X263556710Y-193071242D01*
X265628139Y-193714100D02*
X265485282Y-193785528D01*
X265485282Y-193785528D02*
X265199568Y-193785528D01*
X265199568Y-193785528D02*
X265056710Y-193714100D01*
X265056710Y-193714100D02*
X264985282Y-193571242D01*
X264985282Y-193571242D02*
X264985282Y-192999814D01*
X264985282Y-192999814D02*
X265056710Y-192856957D01*
X265056710Y-192856957D02*
X265199568Y-192785528D01*
X265199568Y-192785528D02*
X265485282Y-192785528D01*
X265485282Y-192785528D02*
X265628139Y-192856957D01*
X265628139Y-192856957D02*
X265699568Y-192999814D01*
X265699568Y-192999814D02*
X265699568Y-193142671D01*
X265699568Y-193142671D02*
X264985282Y-193285528D01*
X266199567Y-192785528D02*
X266556710Y-193785528D01*
X266556710Y-193785528D02*
X266913853Y-192785528D01*
X267485281Y-193642671D02*
X267556710Y-193714100D01*
X267556710Y-193714100D02*
X267485281Y-193785528D01*
X267485281Y-193785528D02*
X267413853Y-193714100D01*
X267413853Y-193714100D02*
X267485281Y-193642671D01*
X267485281Y-193642671D02*
X267485281Y-193785528D01*
X267485281Y-192856957D02*
X267556710Y-192928385D01*
X267556710Y-192928385D02*
X267485281Y-192999814D01*
X267485281Y-192999814D02*
X267413853Y-192928385D01*
X267413853Y-192928385D02*
X267485281Y-192856957D01*
X267485281Y-192856957D02*
X267485281Y-192999814D01*
D10*
X178386598Y-193721900D02*
X178600884Y-193793328D01*
X178600884Y-193793328D02*
X178958026Y-193793328D01*
X178958026Y-193793328D02*
X179100884Y-193721900D01*
X179100884Y-193721900D02*
X179172312Y-193650471D01*
X179172312Y-193650471D02*
X179243741Y-193507614D01*
X179243741Y-193507614D02*
X179243741Y-193364757D01*
X179243741Y-193364757D02*
X179172312Y-193221900D01*
X179172312Y-193221900D02*
X179100884Y-193150471D01*
X179100884Y-193150471D02*
X178958026Y-193079042D01*
X178958026Y-193079042D02*
X178672312Y-193007614D01*
X178672312Y-193007614D02*
X178529455Y-192936185D01*
X178529455Y-192936185D02*
X178458026Y-192864757D01*
X178458026Y-192864757D02*
X178386598Y-192721900D01*
X178386598Y-192721900D02*
X178386598Y-192579042D01*
X178386598Y-192579042D02*
X178458026Y-192436185D01*
X178458026Y-192436185D02*
X178529455Y-192364757D01*
X178529455Y-192364757D02*
X178672312Y-192293328D01*
X178672312Y-192293328D02*
X179029455Y-192293328D01*
X179029455Y-192293328D02*
X179243741Y-192364757D01*
X179886597Y-193793328D02*
X179886597Y-192793328D01*
X179886597Y-192293328D02*
X179815169Y-192364757D01*
X179815169Y-192364757D02*
X179886597Y-192436185D01*
X179886597Y-192436185D02*
X179958026Y-192364757D01*
X179958026Y-192364757D02*
X179886597Y-192293328D01*
X179886597Y-192293328D02*
X179886597Y-192436185D01*
X180458026Y-192793328D02*
X181243741Y-192793328D01*
X181243741Y-192793328D02*
X180458026Y-193793328D01*
X180458026Y-193793328D02*
X181243741Y-193793328D01*
X182386598Y-193721900D02*
X182243741Y-193793328D01*
X182243741Y-193793328D02*
X181958027Y-193793328D01*
X181958027Y-193793328D02*
X181815169Y-193721900D01*
X181815169Y-193721900D02*
X181743741Y-193579042D01*
X181743741Y-193579042D02*
X181743741Y-193007614D01*
X181743741Y-193007614D02*
X181815169Y-192864757D01*
X181815169Y-192864757D02*
X181958027Y-192793328D01*
X181958027Y-192793328D02*
X182243741Y-192793328D01*
X182243741Y-192793328D02*
X182386598Y-192864757D01*
X182386598Y-192864757D02*
X182458027Y-193007614D01*
X182458027Y-193007614D02*
X182458027Y-193150471D01*
X182458027Y-193150471D02*
X181743741Y-193293328D01*
X183100883Y-193650471D02*
X183172312Y-193721900D01*
X183172312Y-193721900D02*
X183100883Y-193793328D01*
X183100883Y-193793328D02*
X183029455Y-193721900D01*
X183029455Y-193721900D02*
X183100883Y-193650471D01*
X183100883Y-193650471D02*
X183100883Y-193793328D01*
X183100883Y-192864757D02*
X183172312Y-192936185D01*
X183172312Y-192936185D02*
X183100883Y-193007614D01*
X183100883Y-193007614D02*
X183029455Y-192936185D01*
X183029455Y-192936185D02*
X183100883Y-192864757D01*
X183100883Y-192864757D02*
X183100883Y-193007614D01*
X184886598Y-193364757D02*
X185600884Y-193364757D01*
X184743741Y-193793328D02*
X185243741Y-192293328D01*
X185243741Y-192293328D02*
X185743741Y-193793328D01*
X186886598Y-192793328D02*
X186886598Y-193793328D01*
X186529455Y-192221900D02*
X186172312Y-193293328D01*
X186172312Y-193293328D02*
X187100883Y-193293328D01*
X263458026Y-196593328D02*
X263458026Y-195093328D01*
X264815170Y-196593328D02*
X264815170Y-195093328D01*
X264815170Y-196521900D02*
X264672312Y-196593328D01*
X264672312Y-196593328D02*
X264386598Y-196593328D01*
X264386598Y-196593328D02*
X264243741Y-196521900D01*
X264243741Y-196521900D02*
X264172312Y-196450471D01*
X264172312Y-196450471D02*
X264100884Y-196307614D01*
X264100884Y-196307614D02*
X264100884Y-195879042D01*
X264100884Y-195879042D02*
X264172312Y-195736185D01*
X264172312Y-195736185D02*
X264243741Y-195664757D01*
X264243741Y-195664757D02*
X264386598Y-195593328D01*
X264386598Y-195593328D02*
X264672312Y-195593328D01*
X264672312Y-195593328D02*
X264815170Y-195664757D01*
X265529455Y-196450471D02*
X265600884Y-196521900D01*
X265600884Y-196521900D02*
X265529455Y-196593328D01*
X265529455Y-196593328D02*
X265458027Y-196521900D01*
X265458027Y-196521900D02*
X265529455Y-196450471D01*
X265529455Y-196450471D02*
X265529455Y-196593328D01*
X265529455Y-195664757D02*
X265600884Y-195736185D01*
X265600884Y-195736185D02*
X265529455Y-195807614D01*
X265529455Y-195807614D02*
X265458027Y-195736185D01*
X265458027Y-195736185D02*
X265529455Y-195664757D01*
X265529455Y-195664757D02*
X265529455Y-195807614D01*
X267243741Y-195093328D02*
X268243741Y-195093328D01*
X268243741Y-195093328D02*
X267600884Y-196593328D01*
X269886598Y-195021900D02*
X268600884Y-196950471D01*
X270458027Y-196593328D02*
X270743741Y-196593328D01*
X270743741Y-196593328D02*
X270886598Y-196521900D01*
X270886598Y-196521900D02*
X270958027Y-196450471D01*
X270958027Y-196450471D02*
X271100884Y-196236185D01*
X271100884Y-196236185D02*
X271172313Y-195950471D01*
X271172313Y-195950471D02*
X271172313Y-195379042D01*
X271172313Y-195379042D02*
X271100884Y-195236185D01*
X271100884Y-195236185D02*
X271029456Y-195164757D01*
X271029456Y-195164757D02*
X270886598Y-195093328D01*
X270886598Y-195093328D02*
X270600884Y-195093328D01*
X270600884Y-195093328D02*
X270458027Y-195164757D01*
X270458027Y-195164757D02*
X270386598Y-195236185D01*
X270386598Y-195236185D02*
X270315170Y-195379042D01*
X270315170Y-195379042D02*
X270315170Y-195736185D01*
X270315170Y-195736185D02*
X270386598Y-195879042D01*
X270386598Y-195879042D02*
X270458027Y-195950471D01*
X270458027Y-195950471D02*
X270600884Y-196021900D01*
X270600884Y-196021900D02*
X270886598Y-196021900D01*
X270886598Y-196021900D02*
X271029456Y-195950471D01*
X271029456Y-195950471D02*
X271100884Y-195879042D01*
X271100884Y-195879042D02*
X271172313Y-195736185D01*
X177002200Y-187507200D02*
X285002200Y-187507200D01*
D12*
X178693928Y-188211638D02*
X179836785Y-188211638D01*
X179015357Y-190211638D02*
X179265357Y-188211638D01*
X180253452Y-190211638D02*
X180420119Y-188878304D01*
X180503452Y-188211638D02*
X180396309Y-188306876D01*
X180396309Y-188306876D02*
X180479643Y-188402114D01*
X180479643Y-188402114D02*
X180586786Y-188306876D01*
X180586786Y-188306876D02*
X180503452Y-188211638D01*
X180503452Y-188211638D02*
X180479643Y-188402114D01*
X181086786Y-188878304D02*
X181848690Y-188878304D01*
X181455833Y-188211638D02*
X181241548Y-189925923D01*
X181241548Y-189925923D02*
X181312976Y-190116400D01*
X181312976Y-190116400D02*
X181491548Y-190211638D01*
X181491548Y-190211638D02*
X181682024Y-190211638D01*
X182634405Y-190211638D02*
X182455833Y-190116400D01*
X182455833Y-190116400D02*
X182384405Y-189925923D01*
X182384405Y-189925923D02*
X182598690Y-188211638D01*
X184170119Y-190116400D02*
X183967738Y-190211638D01*
X183967738Y-190211638D02*
X183586785Y-190211638D01*
X183586785Y-190211638D02*
X183408214Y-190116400D01*
X183408214Y-190116400D02*
X183336785Y-189925923D01*
X183336785Y-189925923D02*
X183432024Y-189164019D01*
X183432024Y-189164019D02*
X183551071Y-188973542D01*
X183551071Y-188973542D02*
X183753452Y-188878304D01*
X183753452Y-188878304D02*
X184134404Y-188878304D01*
X184134404Y-188878304D02*
X184312976Y-188973542D01*
X184312976Y-188973542D02*
X184384404Y-189164019D01*
X184384404Y-189164019D02*
X184360595Y-189354495D01*
X184360595Y-189354495D02*
X183384404Y-189544971D01*
X185134405Y-190021161D02*
X185217738Y-190116400D01*
X185217738Y-190116400D02*
X185110595Y-190211638D01*
X185110595Y-190211638D02*
X185027262Y-190116400D01*
X185027262Y-190116400D02*
X185134405Y-190021161D01*
X185134405Y-190021161D02*
X185110595Y-190211638D01*
X185265357Y-188973542D02*
X185348690Y-189068780D01*
X185348690Y-189068780D02*
X185241548Y-189164019D01*
X185241548Y-189164019D02*
X185158214Y-189068780D01*
X185158214Y-189068780D02*
X185265357Y-188973542D01*
X185265357Y-188973542D02*
X185241548Y-189164019D01*
X187586786Y-190211638D02*
X187836786Y-188211638D01*
X187836786Y-188211638D02*
X188598691Y-188211638D01*
X188598691Y-188211638D02*
X188777262Y-188306876D01*
X188777262Y-188306876D02*
X188860596Y-188402114D01*
X188860596Y-188402114D02*
X188932024Y-188592590D01*
X188932024Y-188592590D02*
X188896310Y-188878304D01*
X188896310Y-188878304D02*
X188777262Y-189068780D01*
X188777262Y-189068780D02*
X188670120Y-189164019D01*
X188670120Y-189164019D02*
X188467739Y-189259257D01*
X188467739Y-189259257D02*
X187705834Y-189259257D01*
X189586786Y-190211638D02*
X189836786Y-188211638D01*
X189836786Y-188211638D02*
X190312977Y-188211638D01*
X190312977Y-188211638D02*
X190586786Y-188306876D01*
X190586786Y-188306876D02*
X190753453Y-188497352D01*
X190753453Y-188497352D02*
X190824881Y-188687828D01*
X190824881Y-188687828D02*
X190872501Y-189068780D01*
X190872501Y-189068780D02*
X190836786Y-189354495D01*
X190836786Y-189354495D02*
X190693929Y-189735447D01*
X190693929Y-189735447D02*
X190574881Y-189925923D01*
X190574881Y-189925923D02*
X190360596Y-190116400D01*
X190360596Y-190116400D02*
X190062977Y-190211638D01*
X190062977Y-190211638D02*
X189586786Y-190211638D01*
X192384405Y-189164019D02*
X192658215Y-189259257D01*
X192658215Y-189259257D02*
X192741548Y-189354495D01*
X192741548Y-189354495D02*
X192812977Y-189544971D01*
X192812977Y-189544971D02*
X192777262Y-189830685D01*
X192777262Y-189830685D02*
X192658215Y-190021161D01*
X192658215Y-190021161D02*
X192551072Y-190116400D01*
X192551072Y-190116400D02*
X192348691Y-190211638D01*
X192348691Y-190211638D02*
X191586786Y-190211638D01*
X191586786Y-190211638D02*
X191836786Y-188211638D01*
X191836786Y-188211638D02*
X192503453Y-188211638D01*
X192503453Y-188211638D02*
X192682024Y-188306876D01*
X192682024Y-188306876D02*
X192765358Y-188402114D01*
X192765358Y-188402114D02*
X192836786Y-188592590D01*
X192836786Y-188592590D02*
X192812977Y-188783066D01*
X192812977Y-188783066D02*
X192693929Y-188973542D01*
X192693929Y-188973542D02*
X192586786Y-189068780D01*
X192586786Y-189068780D02*
X192384405Y-189164019D01*
X192384405Y-189164019D02*
X191717739Y-189164019D01*
X193682024Y-189449733D02*
X195205834Y-189449733D01*
X196062976Y-190211638D02*
X196312976Y-188211638D01*
X196193929Y-189164019D02*
X197336786Y-189164019D01*
X197205833Y-190211638D02*
X197455833Y-188211638D01*
X198932024Y-190116400D02*
X198729643Y-190211638D01*
X198729643Y-190211638D02*
X198348690Y-190211638D01*
X198348690Y-190211638D02*
X198170119Y-190116400D01*
X198170119Y-190116400D02*
X198098690Y-189925923D01*
X198098690Y-189925923D02*
X198193929Y-189164019D01*
X198193929Y-189164019D02*
X198312976Y-188973542D01*
X198312976Y-188973542D02*
X198515357Y-188878304D01*
X198515357Y-188878304D02*
X198896309Y-188878304D01*
X198896309Y-188878304D02*
X199074881Y-188973542D01*
X199074881Y-188973542D02*
X199146309Y-189164019D01*
X199146309Y-189164019D02*
X199122500Y-189354495D01*
X199122500Y-189354495D02*
X198146309Y-189544971D01*
X199682024Y-190211638D02*
X200896310Y-188878304D01*
X199848691Y-188878304D02*
X200729643Y-190211638D01*
X202348691Y-190211638D02*
X202479643Y-189164019D01*
X202479643Y-189164019D02*
X202408215Y-188973542D01*
X202408215Y-188973542D02*
X202229643Y-188878304D01*
X202229643Y-188878304D02*
X201848691Y-188878304D01*
X201848691Y-188878304D02*
X201646310Y-188973542D01*
X202360596Y-190116400D02*
X202158215Y-190211638D01*
X202158215Y-190211638D02*
X201682024Y-190211638D01*
X201682024Y-190211638D02*
X201503453Y-190116400D01*
X201503453Y-190116400D02*
X201432024Y-189925923D01*
X201432024Y-189925923D02*
X201455834Y-189735447D01*
X201455834Y-189735447D02*
X201574882Y-189544971D01*
X201574882Y-189544971D02*
X201777263Y-189449733D01*
X201777263Y-189449733D02*
X202253453Y-189449733D01*
X202253453Y-189449733D02*
X202455834Y-189354495D01*
X203586787Y-190211638D02*
X203408215Y-190116400D01*
X203408215Y-190116400D02*
X203336787Y-189925923D01*
X203336787Y-189925923D02*
X203551072Y-188211638D01*
X204348691Y-190211638D02*
X204515358Y-188878304D01*
X204598691Y-188211638D02*
X204491548Y-188306876D01*
X204491548Y-188306876D02*
X204574882Y-188402114D01*
X204574882Y-188402114D02*
X204682025Y-188306876D01*
X204682025Y-188306876D02*
X204598691Y-188211638D01*
X204598691Y-188211638D02*
X204574882Y-188402114D01*
X205182025Y-188878304D02*
X205943929Y-188878304D01*
X205301072Y-190211638D02*
X205515358Y-188497352D01*
X205515358Y-188497352D02*
X205634406Y-188306876D01*
X205634406Y-188306876D02*
X205836787Y-188211638D01*
X205836787Y-188211638D02*
X206027263Y-188211638D01*
X206324882Y-188878304D02*
X207086786Y-188878304D01*
X206693929Y-188211638D02*
X206479644Y-189925923D01*
X206479644Y-189925923D02*
X206551072Y-190116400D01*
X206551072Y-190116400D02*
X206729644Y-190211638D01*
X206729644Y-190211638D02*
X206920120Y-190211638D01*
D10*
X178958026Y-185607614D02*
X178458026Y-185607614D01*
X178458026Y-186393328D02*
X178458026Y-184893328D01*
X178458026Y-184893328D02*
X179172312Y-184893328D01*
X179743740Y-186393328D02*
X179743740Y-185393328D01*
X179743740Y-184893328D02*
X179672312Y-184964757D01*
X179672312Y-184964757D02*
X179743740Y-185036185D01*
X179743740Y-185036185D02*
X179815169Y-184964757D01*
X179815169Y-184964757D02*
X179743740Y-184893328D01*
X179743740Y-184893328D02*
X179743740Y-185036185D01*
X180672312Y-186393328D02*
X180529455Y-186321900D01*
X180529455Y-186321900D02*
X180458026Y-186179042D01*
X180458026Y-186179042D02*
X180458026Y-184893328D01*
X181815169Y-186321900D02*
X181672312Y-186393328D01*
X181672312Y-186393328D02*
X181386598Y-186393328D01*
X181386598Y-186393328D02*
X181243740Y-186321900D01*
X181243740Y-186321900D02*
X181172312Y-186179042D01*
X181172312Y-186179042D02*
X181172312Y-185607614D01*
X181172312Y-185607614D02*
X181243740Y-185464757D01*
X181243740Y-185464757D02*
X181386598Y-185393328D01*
X181386598Y-185393328D02*
X181672312Y-185393328D01*
X181672312Y-185393328D02*
X181815169Y-185464757D01*
X181815169Y-185464757D02*
X181886598Y-185607614D01*
X181886598Y-185607614D02*
X181886598Y-185750471D01*
X181886598Y-185750471D02*
X181172312Y-185893328D01*
X182529454Y-186250471D02*
X182600883Y-186321900D01*
X182600883Y-186321900D02*
X182529454Y-186393328D01*
X182529454Y-186393328D02*
X182458026Y-186321900D01*
X182458026Y-186321900D02*
X182529454Y-186250471D01*
X182529454Y-186250471D02*
X182529454Y-186393328D01*
X182529454Y-185464757D02*
X182600883Y-185536185D01*
X182600883Y-185536185D02*
X182529454Y-185607614D01*
X182529454Y-185607614D02*
X182458026Y-185536185D01*
X182458026Y-185536185D02*
X182529454Y-185464757D01*
X182529454Y-185464757D02*
X182529454Y-185607614D01*
X184386597Y-185393328D02*
X184386597Y-186893328D01*
X184386597Y-185464757D02*
X184529455Y-185393328D01*
X184529455Y-185393328D02*
X184815169Y-185393328D01*
X184815169Y-185393328D02*
X184958026Y-185464757D01*
X184958026Y-185464757D02*
X185029455Y-185536185D01*
X185029455Y-185536185D02*
X185100883Y-185679042D01*
X185100883Y-185679042D02*
X185100883Y-186107614D01*
X185100883Y-186107614D02*
X185029455Y-186250471D01*
X185029455Y-186250471D02*
X184958026Y-186321900D01*
X184958026Y-186321900D02*
X184815169Y-186393328D01*
X184815169Y-186393328D02*
X184529455Y-186393328D01*
X184529455Y-186393328D02*
X184386597Y-186321900D01*
X186386598Y-186393328D02*
X186386598Y-184893328D01*
X186386598Y-186321900D02*
X186243740Y-186393328D01*
X186243740Y-186393328D02*
X185958026Y-186393328D01*
X185958026Y-186393328D02*
X185815169Y-186321900D01*
X185815169Y-186321900D02*
X185743740Y-186250471D01*
X185743740Y-186250471D02*
X185672312Y-186107614D01*
X185672312Y-186107614D02*
X185672312Y-185679042D01*
X185672312Y-185679042D02*
X185743740Y-185536185D01*
X185743740Y-185536185D02*
X185815169Y-185464757D01*
X185815169Y-185464757D02*
X185958026Y-185393328D01*
X185958026Y-185393328D02*
X186243740Y-185393328D01*
X186243740Y-185393328D02*
X186386598Y-185464757D01*
X187100883Y-186393328D02*
X187100883Y-184893328D01*
X187100883Y-185464757D02*
X187243741Y-185393328D01*
X187243741Y-185393328D02*
X187529455Y-185393328D01*
X187529455Y-185393328D02*
X187672312Y-185464757D01*
X187672312Y-185464757D02*
X187743741Y-185536185D01*
X187743741Y-185536185D02*
X187815169Y-185679042D01*
X187815169Y-185679042D02*
X187815169Y-186107614D01*
X187815169Y-186107614D02*
X187743741Y-186250471D01*
X187743741Y-186250471D02*
X187672312Y-186321900D01*
X187672312Y-186321900D02*
X187529455Y-186393328D01*
X187529455Y-186393328D02*
X187243741Y-186393328D01*
X187243741Y-186393328D02*
X187100883Y-186321900D01*
X188458026Y-186250471D02*
X188529455Y-186321900D01*
X188529455Y-186321900D02*
X188458026Y-186393328D01*
X188458026Y-186393328D02*
X188386598Y-186321900D01*
X188386598Y-186321900D02*
X188458026Y-186250471D01*
X188458026Y-186250471D02*
X188458026Y-186393328D01*
X189172312Y-186393328D02*
X189172312Y-184893328D01*
X189315170Y-185821900D02*
X189743741Y-186393328D01*
X189743741Y-185393328D02*
X189172312Y-185964757D01*
X190386598Y-186393328D02*
X190386598Y-185393328D01*
X190386598Y-184893328D02*
X190315170Y-184964757D01*
X190315170Y-184964757D02*
X190386598Y-185036185D01*
X190386598Y-185036185D02*
X190458027Y-184964757D01*
X190458027Y-184964757D02*
X190386598Y-184893328D01*
X190386598Y-184893328D02*
X190386598Y-185036185D01*
X191743742Y-186321900D02*
X191600884Y-186393328D01*
X191600884Y-186393328D02*
X191315170Y-186393328D01*
X191315170Y-186393328D02*
X191172313Y-186321900D01*
X191172313Y-186321900D02*
X191100884Y-186250471D01*
X191100884Y-186250471D02*
X191029456Y-186107614D01*
X191029456Y-186107614D02*
X191029456Y-185679042D01*
X191029456Y-185679042D02*
X191100884Y-185536185D01*
X191100884Y-185536185D02*
X191172313Y-185464757D01*
X191172313Y-185464757D02*
X191315170Y-185393328D01*
X191315170Y-185393328D02*
X191600884Y-185393328D01*
X191600884Y-185393328D02*
X191743742Y-185464757D01*
X193029456Y-186393328D02*
X193029456Y-185607614D01*
X193029456Y-185607614D02*
X192958027Y-185464757D01*
X192958027Y-185464757D02*
X192815170Y-185393328D01*
X192815170Y-185393328D02*
X192529456Y-185393328D01*
X192529456Y-185393328D02*
X192386598Y-185464757D01*
X193029456Y-186321900D02*
X192886598Y-186393328D01*
X192886598Y-186393328D02*
X192529456Y-186393328D01*
X192529456Y-186393328D02*
X192386598Y-186321900D01*
X192386598Y-186321900D02*
X192315170Y-186179042D01*
X192315170Y-186179042D02*
X192315170Y-186036185D01*
X192315170Y-186036185D02*
X192386598Y-185893328D01*
X192386598Y-185893328D02*
X192529456Y-185821900D01*
X192529456Y-185821900D02*
X192886598Y-185821900D01*
X192886598Y-185821900D02*
X193029456Y-185750471D01*
X194386599Y-186393328D02*
X194386599Y-184893328D01*
X194386599Y-186321900D02*
X194243741Y-186393328D01*
X194243741Y-186393328D02*
X193958027Y-186393328D01*
X193958027Y-186393328D02*
X193815170Y-186321900D01*
X193815170Y-186321900D02*
X193743741Y-186250471D01*
X193743741Y-186250471D02*
X193672313Y-186107614D01*
X193672313Y-186107614D02*
X193672313Y-185679042D01*
X193672313Y-185679042D02*
X193743741Y-185536185D01*
X193743741Y-185536185D02*
X193815170Y-185464757D01*
X193815170Y-185464757D02*
X193958027Y-185393328D01*
X193958027Y-185393328D02*
X194243741Y-185393328D01*
X194243741Y-185393328D02*
X194386599Y-185464757D01*
X194743742Y-186536185D02*
X195886599Y-186536185D01*
X196243741Y-185393328D02*
X196243741Y-186893328D01*
X196243741Y-185464757D02*
X196386599Y-185393328D01*
X196386599Y-185393328D02*
X196672313Y-185393328D01*
X196672313Y-185393328D02*
X196815170Y-185464757D01*
X196815170Y-185464757D02*
X196886599Y-185536185D01*
X196886599Y-185536185D02*
X196958027Y-185679042D01*
X196958027Y-185679042D02*
X196958027Y-186107614D01*
X196958027Y-186107614D02*
X196886599Y-186250471D01*
X196886599Y-186250471D02*
X196815170Y-186321900D01*
X196815170Y-186321900D02*
X196672313Y-186393328D01*
X196672313Y-186393328D02*
X196386599Y-186393328D01*
X196386599Y-186393328D02*
X196243741Y-186321900D01*
X198243742Y-186321900D02*
X198100884Y-186393328D01*
X198100884Y-186393328D02*
X197815170Y-186393328D01*
X197815170Y-186393328D02*
X197672313Y-186321900D01*
X197672313Y-186321900D02*
X197600884Y-186250471D01*
X197600884Y-186250471D02*
X197529456Y-186107614D01*
X197529456Y-186107614D02*
X197529456Y-185679042D01*
X197529456Y-185679042D02*
X197600884Y-185536185D01*
X197600884Y-185536185D02*
X197672313Y-185464757D01*
X197672313Y-185464757D02*
X197815170Y-185393328D01*
X197815170Y-185393328D02*
X198100884Y-185393328D01*
X198100884Y-185393328D02*
X198243742Y-185464757D01*
X198886598Y-186393328D02*
X198886598Y-184893328D01*
X198886598Y-185464757D02*
X199029456Y-185393328D01*
X199029456Y-185393328D02*
X199315170Y-185393328D01*
X199315170Y-185393328D02*
X199458027Y-185464757D01*
X199458027Y-185464757D02*
X199529456Y-185536185D01*
X199529456Y-185536185D02*
X199600884Y-185679042D01*
X199600884Y-185679042D02*
X199600884Y-186107614D01*
X199600884Y-186107614D02*
X199529456Y-186250471D01*
X199529456Y-186250471D02*
X199458027Y-186321900D01*
X199458027Y-186321900D02*
X199315170Y-186393328D01*
X199315170Y-186393328D02*
X199029456Y-186393328D01*
X199029456Y-186393328D02*
X198886598Y-186321900D01*
X177002200Y-181507200D02*
X285002200Y-181507200D01*
X178386598Y-183621900D02*
X178600884Y-183693328D01*
X178600884Y-183693328D02*
X178958026Y-183693328D01*
X178958026Y-183693328D02*
X179100884Y-183621900D01*
X179100884Y-183621900D02*
X179172312Y-183550471D01*
X179172312Y-183550471D02*
X179243741Y-183407614D01*
X179243741Y-183407614D02*
X179243741Y-183264757D01*
X179243741Y-183264757D02*
X179172312Y-183121900D01*
X179172312Y-183121900D02*
X179100884Y-183050471D01*
X179100884Y-183050471D02*
X178958026Y-182979042D01*
X178958026Y-182979042D02*
X178672312Y-182907614D01*
X178672312Y-182907614D02*
X178529455Y-182836185D01*
X178529455Y-182836185D02*
X178458026Y-182764757D01*
X178458026Y-182764757D02*
X178386598Y-182621900D01*
X178386598Y-182621900D02*
X178386598Y-182479042D01*
X178386598Y-182479042D02*
X178458026Y-182336185D01*
X178458026Y-182336185D02*
X178529455Y-182264757D01*
X178529455Y-182264757D02*
X178672312Y-182193328D01*
X178672312Y-182193328D02*
X179029455Y-182193328D01*
X179029455Y-182193328D02*
X179243741Y-182264757D01*
X179886597Y-183693328D02*
X179886597Y-182193328D01*
X180529455Y-183693328D02*
X180529455Y-182907614D01*
X180529455Y-182907614D02*
X180458026Y-182764757D01*
X180458026Y-182764757D02*
X180315169Y-182693328D01*
X180315169Y-182693328D02*
X180100883Y-182693328D01*
X180100883Y-182693328D02*
X179958026Y-182764757D01*
X179958026Y-182764757D02*
X179886597Y-182836185D01*
X181815169Y-183621900D02*
X181672312Y-183693328D01*
X181672312Y-183693328D02*
X181386598Y-183693328D01*
X181386598Y-183693328D02*
X181243740Y-183621900D01*
X181243740Y-183621900D02*
X181172312Y-183479042D01*
X181172312Y-183479042D02*
X181172312Y-182907614D01*
X181172312Y-182907614D02*
X181243740Y-182764757D01*
X181243740Y-182764757D02*
X181386598Y-182693328D01*
X181386598Y-182693328D02*
X181672312Y-182693328D01*
X181672312Y-182693328D02*
X181815169Y-182764757D01*
X181815169Y-182764757D02*
X181886598Y-182907614D01*
X181886598Y-182907614D02*
X181886598Y-183050471D01*
X181886598Y-183050471D02*
X181172312Y-183193328D01*
X183100883Y-183621900D02*
X182958026Y-183693328D01*
X182958026Y-183693328D02*
X182672312Y-183693328D01*
X182672312Y-183693328D02*
X182529454Y-183621900D01*
X182529454Y-183621900D02*
X182458026Y-183479042D01*
X182458026Y-183479042D02*
X182458026Y-182907614D01*
X182458026Y-182907614D02*
X182529454Y-182764757D01*
X182529454Y-182764757D02*
X182672312Y-182693328D01*
X182672312Y-182693328D02*
X182958026Y-182693328D01*
X182958026Y-182693328D02*
X183100883Y-182764757D01*
X183100883Y-182764757D02*
X183172312Y-182907614D01*
X183172312Y-182907614D02*
X183172312Y-183050471D01*
X183172312Y-183050471D02*
X182458026Y-183193328D01*
X183600883Y-182693328D02*
X184172311Y-182693328D01*
X183815168Y-182193328D02*
X183815168Y-183479042D01*
X183815168Y-183479042D02*
X183886597Y-183621900D01*
X183886597Y-183621900D02*
X184029454Y-183693328D01*
X184029454Y-183693328D02*
X184172311Y-183693328D01*
X184672311Y-183550471D02*
X184743740Y-183621900D01*
X184743740Y-183621900D02*
X184672311Y-183693328D01*
X184672311Y-183693328D02*
X184600883Y-183621900D01*
X184600883Y-183621900D02*
X184672311Y-183550471D01*
X184672311Y-183550471D02*
X184672311Y-183693328D01*
X184672311Y-182764757D02*
X184743740Y-182836185D01*
X184743740Y-182836185D02*
X184672311Y-182907614D01*
X184672311Y-182907614D02*
X184600883Y-182836185D01*
X184600883Y-182836185D02*
X184672311Y-182764757D01*
X184672311Y-182764757D02*
X184672311Y-182907614D01*
X197002200Y-191507200D02*
X197002200Y-194507200D01*
X261002200Y-191507200D02*
X261002200Y-198007200D01*
D13*
X55312500Y-50750000D02*
X56064835Y-49947509D01*
X56338412Y-49655694D02*
X56352091Y-49641103D01*
X56625667Y-49349289D02*
X57378002Y-48546798D01*
X57651579Y-48254983D02*
X57665257Y-48240392D01*
X57938834Y-47948577D02*
X58691169Y-47146086D01*
X58964746Y-46854271D02*
X58978424Y-46839681D01*
X59252001Y-46547866D02*
X60000000Y-45750000D01*
X60000000Y-45750000D02*
X61100000Y-45750000D01*
X61500000Y-45750000D02*
X61520000Y-45750000D01*
X61920000Y-45750000D02*
X63020000Y-45750000D01*
X63420000Y-45750000D02*
X63440000Y-45750000D01*
X63840000Y-45750000D02*
X64940000Y-45750000D01*
X65340000Y-45750000D02*
X65360000Y-45750000D01*
X65760000Y-45750000D02*
X66860000Y-45750000D01*
X67260000Y-45750000D02*
X67280000Y-45750000D01*
X67680000Y-45750000D02*
X68780000Y-45750000D01*
X69180000Y-45750000D02*
X69200000Y-45750000D01*
X69600000Y-45750000D02*
X70700000Y-45750000D01*
X71100000Y-45750000D02*
X71120000Y-45750000D01*
X71520000Y-45750000D02*
X72620000Y-45750000D01*
X73020000Y-45750000D02*
X73040000Y-45750000D01*
X73440000Y-45750000D02*
X74540000Y-45750000D01*
X74940000Y-45750000D02*
X74960000Y-45750000D01*
X75360000Y-45750000D02*
X76460000Y-45750000D01*
X76860000Y-45750000D02*
X76880000Y-45750000D01*
X77280000Y-45750000D02*
X78380000Y-45750000D01*
X78780000Y-45750000D02*
X78800000Y-45750000D01*
X79200000Y-45750000D02*
X80300000Y-45750000D01*
X80700000Y-45750000D02*
X80720000Y-45750000D01*
X81120000Y-45750000D02*
X82220000Y-45750000D01*
X82620000Y-45750000D02*
X82640000Y-45750000D01*
X83040000Y-45750000D02*
X83500000Y-45750000D01*
X83500000Y-45750000D02*
X84402996Y-46378171D01*
X84731358Y-46606597D02*
X84747776Y-46618018D01*
X85076138Y-46846444D02*
X85979134Y-47474615D01*
X86307496Y-47703041D02*
X86323914Y-47714462D01*
X86652276Y-47942888D02*
X87555272Y-48571059D01*
X87883634Y-48799484D02*
X87900052Y-48810906D01*
X88228414Y-49039331D02*
X89131410Y-49667502D01*
X89459772Y-49895928D02*
X89476190Y-49907349D01*
X89804552Y-50135775D02*
X90687500Y-50750000D01*
X90687500Y-50750000D02*
X89587500Y-50750000D01*
X89187500Y-50750000D02*
X89167500Y-50750000D01*
X88767500Y-50750000D02*
X87667500Y-50750000D01*
X87267500Y-50750000D02*
X87247500Y-50750000D01*
X86847500Y-50750000D02*
X85747500Y-50750000D01*
X85347500Y-50750000D02*
X85327500Y-50750000D01*
X84927500Y-50750000D02*
X83827500Y-50750000D01*
X83427500Y-50750000D02*
X83407500Y-50750000D01*
X83007500Y-50750000D02*
X81907500Y-50750000D01*
X81507500Y-50750000D02*
X81487500Y-50750000D01*
X81087500Y-50750000D02*
X79987500Y-50750000D01*
X79587500Y-50750000D02*
X79567500Y-50750000D01*
X79167500Y-50750000D02*
X78067500Y-50750000D01*
X77667500Y-50750000D02*
X77647500Y-50750000D01*
X77247500Y-50750000D02*
X76147500Y-50750000D01*
X75747500Y-50750000D02*
X75727500Y-50750000D01*
X75327500Y-50750000D02*
X74227500Y-50750000D01*
X73827500Y-50750000D02*
X73807500Y-50750000D01*
X73407500Y-50750000D02*
X72307500Y-50750000D01*
X71907500Y-50750000D02*
X71887500Y-50750000D01*
X71487500Y-50750000D02*
X70387500Y-50750000D01*
X69987500Y-50750000D02*
X69967500Y-50750000D01*
X69567500Y-50750000D02*
X68467500Y-50750000D01*
X68067500Y-50750000D02*
X68047500Y-50750000D01*
X67647500Y-50750000D02*
X66547500Y-50750000D01*
X66147500Y-50750000D02*
X66127500Y-50750000D01*
X65727500Y-50750000D02*
X64627500Y-50750000D01*
X64227500Y-50750000D02*
X64207500Y-50750000D01*
X63807500Y-50750000D02*
X62707500Y-50750000D01*
X62307500Y-50750000D02*
X62287500Y-50750000D01*
X61887500Y-50750000D02*
X60787500Y-50750000D01*
X60387500Y-50750000D02*
X60367500Y-50750000D01*
X59967500Y-50750000D02*
X58867500Y-50750000D01*
X58467500Y-50750000D02*
X58447500Y-50750000D01*
X58047500Y-50750000D02*
X56947500Y-50750000D01*
X56547500Y-50750000D02*
X56527500Y-50750000D01*
X56127500Y-50750000D02*
X55312500Y-50750000D01*
X54750000Y-50750000D02*
X54750038Y-50741273D01*
X54750038Y-50741273D02*
X54750152Y-50732548D01*
X54750152Y-50732548D02*
X54750343Y-50723823D01*
X54750343Y-50723823D02*
X54750609Y-50715101D01*
X54750609Y-50715101D02*
X54750952Y-50706381D01*
X54750952Y-50706381D02*
X54751370Y-50697664D01*
X54751370Y-50697664D02*
X54751865Y-50688951D01*
X54751865Y-50688951D02*
X54752436Y-50680244D01*
X54752436Y-50680244D02*
X54753083Y-50671541D01*
X54753083Y-50671541D02*
X54753805Y-50662844D01*
X54753805Y-50662844D02*
X54754604Y-50654154D01*
X54754604Y-50654154D02*
X54755478Y-50645472D01*
X54755478Y-50645472D02*
X54756428Y-50636797D01*
X54756428Y-50636797D02*
X54757454Y-50628131D01*
X54757454Y-50628131D02*
X54758555Y-50619474D01*
X54758555Y-50619474D02*
X54759732Y-50610827D01*
X54759732Y-50610827D02*
X54760984Y-50602191D01*
X54760984Y-50602191D02*
X54762312Y-50593566D01*
X54762312Y-50593566D02*
X54763714Y-50584952D01*
X54763714Y-50584952D02*
X54765192Y-50576352D01*
X54765192Y-50576352D02*
X54766745Y-50567764D01*
X54766745Y-50567764D02*
X54768373Y-50559191D01*
X54768373Y-50559191D02*
X54770075Y-50550632D01*
X54770075Y-50550632D02*
X54771852Y-50542088D01*
X54771852Y-50542088D02*
X54773704Y-50533560D01*
X54773704Y-50533560D02*
X54775630Y-50525049D01*
X54775630Y-50525049D02*
X54777630Y-50516555D01*
X54777630Y-50516555D02*
X54779704Y-50508078D01*
X54779704Y-50508078D02*
X54781852Y-50499620D01*
X54781852Y-50499620D02*
X54784074Y-50491181D01*
X54784074Y-50491181D02*
X54786370Y-50482762D01*
X54786370Y-50482762D02*
X54788738Y-50474363D01*
X54788738Y-50474363D02*
X54791180Y-50465985D01*
X54791180Y-50465985D02*
X54793695Y-50457628D01*
X54793695Y-50457628D02*
X54796283Y-50449294D01*
X54796283Y-50449294D02*
X54798943Y-50440983D01*
X54798943Y-50440983D02*
X54801676Y-50432695D01*
X54801676Y-50432695D02*
X54804481Y-50424432D01*
X54804481Y-50424432D02*
X54807359Y-50416193D01*
X54807359Y-50416193D02*
X54810307Y-50407980D01*
X54810307Y-50407980D02*
X54813328Y-50399793D01*
X54813328Y-50399793D02*
X54816420Y-50391632D01*
X54816420Y-50391632D02*
X54819582Y-50383499D01*
X54819582Y-50383499D02*
X54822816Y-50375393D01*
X54822816Y-50375393D02*
X54826120Y-50367317D01*
X54826120Y-50367317D02*
X54829495Y-50359269D01*
X54829495Y-50359269D02*
X54832940Y-50351251D01*
X54832940Y-50351251D02*
X54836455Y-50343263D01*
X54836455Y-50343263D02*
X54840039Y-50335307D01*
X54840039Y-50335307D02*
X54843692Y-50327382D01*
X54843692Y-50327382D02*
X54847415Y-50319489D01*
X54847415Y-50319489D02*
X54851206Y-50311629D01*
X54851206Y-50311629D02*
X54855066Y-50303802D01*
X54855066Y-50303802D02*
X54858993Y-50296010D01*
X54858993Y-50296010D02*
X54862989Y-50288251D01*
X54862989Y-50288251D02*
X54867052Y-50280528D01*
X54867052Y-50280528D02*
X54871183Y-50272841D01*
X54871183Y-50272841D02*
X54875380Y-50265190D01*
X54875380Y-50265190D02*
X54879644Y-50257576D01*
X54879644Y-50257576D02*
X54883975Y-50250000D01*
X54883975Y-50250000D02*
X54888371Y-50242462D01*
X54888371Y-50242462D02*
X54892833Y-50234962D01*
X54892833Y-50234962D02*
X54897360Y-50227501D01*
X54897360Y-50227501D02*
X54901952Y-50220081D01*
X54901952Y-50220081D02*
X54906609Y-50212700D01*
X54906609Y-50212700D02*
X54911329Y-50205361D01*
X54911329Y-50205361D02*
X54916114Y-50198063D01*
X54916114Y-50198063D02*
X54920962Y-50190807D01*
X54920962Y-50190807D02*
X54925874Y-50183594D01*
X54925874Y-50183594D02*
X54930848Y-50176424D01*
X54930848Y-50176424D02*
X54935884Y-50169297D01*
X54935884Y-50169297D02*
X54940983Y-50162215D01*
X54940983Y-50162215D02*
X54946143Y-50155177D01*
X54946143Y-50155177D02*
X54951364Y-50148185D01*
X54951364Y-50148185D02*
X54956647Y-50141239D01*
X54956647Y-50141239D02*
X54961989Y-50134339D01*
X54961989Y-50134339D02*
X54967392Y-50127485D01*
X54967392Y-50127485D02*
X54972854Y-50120680D01*
X54972854Y-50120680D02*
X54978375Y-50113922D01*
X54978375Y-50113922D02*
X54983956Y-50107212D01*
X54983956Y-50107212D02*
X54989594Y-50100552D01*
X54989594Y-50100552D02*
X54995290Y-50093941D01*
X54995290Y-50093941D02*
X55001044Y-50087380D01*
X55001044Y-50087380D02*
X55006855Y-50080869D01*
X55006855Y-50080869D02*
X55012723Y-50074410D01*
X55012723Y-50074410D02*
X55018646Y-50068002D01*
X55018646Y-50068002D02*
X55024626Y-50061645D01*
X55024626Y-50061645D02*
X55030660Y-50055342D01*
X55030660Y-50055342D02*
X55036750Y-50049091D01*
X55036750Y-50049091D02*
X55042893Y-50042893D01*
X55042893Y-50042893D02*
X55049091Y-50036750D01*
X55049091Y-50036750D02*
X55055342Y-50030660D01*
X55055342Y-50030660D02*
X55061645Y-50024626D01*
X55061645Y-50024626D02*
X55068002Y-50018646D01*
X55068002Y-50018646D02*
X55074410Y-50012723D01*
X55074410Y-50012723D02*
X55080869Y-50006855D01*
X55080869Y-50006855D02*
X55087380Y-50001044D01*
X55087380Y-50001044D02*
X55093941Y-49995290D01*
X55093941Y-49995290D02*
X55100552Y-49989594D01*
X55100552Y-49989594D02*
X55107212Y-49983956D01*
X55107212Y-49983956D02*
X55113922Y-49978375D01*
X55113922Y-49978375D02*
X55120680Y-49972854D01*
X55120680Y-49972854D02*
X55127485Y-49967392D01*
X55127485Y-49967392D02*
X55134339Y-49961989D01*
X55134339Y-49961989D02*
X55141239Y-49956647D01*
X55141239Y-49956647D02*
X55148185Y-49951364D01*
X55148185Y-49951364D02*
X55155177Y-49946143D01*
X55155177Y-49946143D02*
X55162215Y-49940983D01*
X55162215Y-49940983D02*
X55169297Y-49935884D01*
X55169297Y-49935884D02*
X55176424Y-49930848D01*
X55176424Y-49930848D02*
X55183594Y-49925874D01*
X55183594Y-49925874D02*
X55190807Y-49920962D01*
X55190807Y-49920962D02*
X55198063Y-49916114D01*
X55198063Y-49916114D02*
X55205361Y-49911329D01*
X55205361Y-49911329D02*
X55212700Y-49906609D01*
X55212700Y-49906609D02*
X55220081Y-49901952D01*
X55220081Y-49901952D02*
X55227501Y-49897360D01*
X55227501Y-49897360D02*
X55234962Y-49892833D01*
X55234962Y-49892833D02*
X55242462Y-49888371D01*
X55242462Y-49888371D02*
X55250000Y-49883975D01*
X55250000Y-49883975D02*
X55257576Y-49879644D01*
X55257576Y-49879644D02*
X55265190Y-49875380D01*
X55265190Y-49875380D02*
X55272841Y-49871183D01*
X55272841Y-49871183D02*
X55280528Y-49867052D01*
X55280528Y-49867052D02*
X55288251Y-49862989D01*
X55288251Y-49862989D02*
X55296010Y-49858993D01*
X55296010Y-49858993D02*
X55296404Y-49858793D01*
X55679263Y-49752505D02*
X55699226Y-49751290D01*
X55750000Y-49750000D02*
X56850000Y-49750000D01*
X57250000Y-49750000D02*
X57270000Y-49750000D01*
X57670000Y-49750000D02*
X58700000Y-49750000D01*
X58700000Y-49750000D02*
X58708727Y-49750038D01*
X58708727Y-49750038D02*
X58717452Y-49750152D01*
X58717452Y-49750152D02*
X58726177Y-49750343D01*
X58726177Y-49750343D02*
X58734899Y-49750609D01*
X58734899Y-49750609D02*
X58743619Y-49750952D01*
X58743619Y-49750952D02*
X58752336Y-49751370D01*
X58752336Y-49751370D02*
X58761049Y-49751865D01*
X58761049Y-49751865D02*
X58769756Y-49752436D01*
X58769756Y-49752436D02*
X58778459Y-49753083D01*
X58778459Y-49753083D02*
X58787156Y-49753805D01*
X58787156Y-49753805D02*
X58795846Y-49754604D01*
X58795846Y-49754604D02*
X58804528Y-49755478D01*
X58804528Y-49755478D02*
X58813203Y-49756428D01*
X58813203Y-49756428D02*
X58821869Y-49757454D01*
X58821869Y-49757454D02*
X58830526Y-49758555D01*
X58830526Y-49758555D02*
X58839173Y-49759732D01*
X58839173Y-49759732D02*
X58847809Y-49760984D01*
X58847809Y-49760984D02*
X58856434Y-49762312D01*
X58856434Y-49762312D02*
X58865048Y-49763714D01*
X58865048Y-49763714D02*
X58873648Y-49765192D01*
X58873648Y-49765192D02*
X58882236Y-49766745D01*
X58882236Y-49766745D02*
X58890809Y-49768373D01*
X58890809Y-49768373D02*
X58899368Y-49770075D01*
X58899368Y-49770075D02*
X58907912Y-49771852D01*
X58907912Y-49771852D02*
X58916440Y-49773704D01*
X58916440Y-49773704D02*
X58924951Y-49775630D01*
X58924951Y-49775630D02*
X58933445Y-49777630D01*
X58933445Y-49777630D02*
X58941922Y-49779704D01*
X58941922Y-49779704D02*
X58950380Y-49781852D01*
X58950380Y-49781852D02*
X58958819Y-49784074D01*
X58958819Y-49784074D02*
X58967238Y-49786370D01*
X58967238Y-49786370D02*
X58975637Y-49788738D01*
X58975637Y-49788738D02*
X58984015Y-49791180D01*
X58984015Y-49791180D02*
X58992372Y-49793695D01*
X58992372Y-49793695D02*
X59000706Y-49796283D01*
X59000706Y-49796283D02*
X59009017Y-49798943D01*
X59009017Y-49798943D02*
X59017305Y-49801676D01*
X59017305Y-49801676D02*
X59025568Y-49804481D01*
X59025568Y-49804481D02*
X59033807Y-49807359D01*
X59033807Y-49807359D02*
X59042020Y-49810307D01*
X59042020Y-49810307D02*
X59050207Y-49813328D01*
X59050207Y-49813328D02*
X59058368Y-49816420D01*
X59058368Y-49816420D02*
X59066501Y-49819582D01*
X59066501Y-49819582D02*
X59074607Y-49822816D01*
X59074607Y-49822816D02*
X59082683Y-49826120D01*
X59082683Y-49826120D02*
X59090731Y-49829495D01*
X59090731Y-49829495D02*
X59098749Y-49832940D01*
X59098749Y-49832940D02*
X59106737Y-49836455D01*
X59106737Y-49836455D02*
X59114693Y-49840039D01*
X59114693Y-49840039D02*
X59122618Y-49843692D01*
X59122618Y-49843692D02*
X59130511Y-49847415D01*
X59130511Y-49847415D02*
X59138371Y-49851206D01*
X59138371Y-49851206D02*
X59146198Y-49855066D01*
X59146198Y-49855066D02*
X59153990Y-49858993D01*
X59153990Y-49858993D02*
X59161749Y-49862989D01*
X59161749Y-49862989D02*
X59169472Y-49867052D01*
X59169472Y-49867052D02*
X59177159Y-49871183D01*
X59177159Y-49871183D02*
X59184810Y-49875380D01*
X59184810Y-49875380D02*
X59192424Y-49879644D01*
X59192424Y-49879644D02*
X59200000Y-49883975D01*
X59200000Y-49883975D02*
X59207538Y-49888371D01*
X59207538Y-49888371D02*
X59215038Y-49892833D01*
X59215038Y-49892833D02*
X59222499Y-49897360D01*
X59222499Y-49897360D02*
X59229919Y-49901952D01*
X59229919Y-49901952D02*
X59237300Y-49906609D01*
X59237300Y-49906609D02*
X59244639Y-49911329D01*
X59244639Y-49911329D02*
X59251937Y-49916114D01*
X59251937Y-49916114D02*
X59259193Y-49920962D01*
X59259193Y-49920962D02*
X59266406Y-49925874D01*
X59266406Y-49925874D02*
X59273576Y-49930848D01*
X59273576Y-49930848D02*
X59280703Y-49935884D01*
X59280703Y-49935884D02*
X59287785Y-49940983D01*
X59287785Y-49940983D02*
X59294823Y-49946143D01*
X59294823Y-49946143D02*
X59301815Y-49951364D01*
X59301815Y-49951364D02*
X59308761Y-49956647D01*
X59308761Y-49956647D02*
X59315661Y-49961989D01*
X59315661Y-49961989D02*
X59322515Y-49967392D01*
X59322515Y-49967392D02*
X59329320Y-49972854D01*
X59329320Y-49972854D02*
X59336078Y-49978375D01*
X59336078Y-49978375D02*
X59342788Y-49983956D01*
X59342788Y-49983956D02*
X59349448Y-49989594D01*
X59349448Y-49989594D02*
X59356059Y-49995290D01*
X59356059Y-49995290D02*
X59362620Y-50001044D01*
X59362620Y-50001044D02*
X59369131Y-50006855D01*
X59369131Y-50006855D02*
X59375590Y-50012723D01*
X59375590Y-50012723D02*
X59381998Y-50018646D01*
X59381998Y-50018646D02*
X59388355Y-50024626D01*
X59388355Y-50024626D02*
X59394658Y-50030660D01*
X59394658Y-50030660D02*
X59400909Y-50036750D01*
X59400909Y-50036750D02*
X59407107Y-50042893D01*
X59407107Y-50042893D02*
X59413250Y-50049091D01*
X59413250Y-50049091D02*
X59419340Y-50055342D01*
X59419340Y-50055342D02*
X59425374Y-50061645D01*
X59425374Y-50061645D02*
X59431354Y-50068002D01*
X59431354Y-50068002D02*
X59437277Y-50074410D01*
X59437277Y-50074410D02*
X59443145Y-50080869D01*
X59443145Y-50080869D02*
X59448956Y-50087380D01*
X59448956Y-50087380D02*
X59454710Y-50093941D01*
X59454710Y-50093941D02*
X59460406Y-50100552D01*
X59460406Y-50100552D02*
X59466044Y-50107212D01*
X59466044Y-50107212D02*
X59471625Y-50113922D01*
X59471625Y-50113922D02*
X59477146Y-50120680D01*
X59477146Y-50120680D02*
X59482608Y-50127485D01*
X59482608Y-50127485D02*
X59488011Y-50134339D01*
X59488011Y-50134339D02*
X59493353Y-50141239D01*
X59493353Y-50141239D02*
X59498636Y-50148185D01*
X59498636Y-50148185D02*
X59503857Y-50155177D01*
X59503857Y-50155177D02*
X59509017Y-50162215D01*
X59509017Y-50162215D02*
X59514116Y-50169297D01*
X59514116Y-50169297D02*
X59519152Y-50176424D01*
X59519152Y-50176424D02*
X59524126Y-50183594D01*
X59524126Y-50183594D02*
X59529038Y-50190807D01*
X59529038Y-50190807D02*
X59533886Y-50198063D01*
X59533886Y-50198063D02*
X59538671Y-50205361D01*
X59538671Y-50205361D02*
X59543391Y-50212700D01*
X59543391Y-50212700D02*
X59548048Y-50220081D01*
X59548048Y-50220081D02*
X59552640Y-50227501D01*
X59552640Y-50227501D02*
X59557167Y-50234962D01*
X59557167Y-50234962D02*
X59561629Y-50242462D01*
X59561629Y-50242462D02*
X59566025Y-50250000D01*
X59566025Y-50250000D02*
X59570356Y-50257576D01*
X59570356Y-50257576D02*
X59574620Y-50265190D01*
X59574620Y-50265190D02*
X59578817Y-50272841D01*
X59578817Y-50272841D02*
X59582948Y-50280528D01*
X59582948Y-50280528D02*
X59587011Y-50288251D01*
X59587011Y-50288251D02*
X59591007Y-50296010D01*
X59591007Y-50296010D02*
X59591207Y-50296404D01*
X59697495Y-50679263D02*
X59698710Y-50699226D01*
X59700000Y-50750000D02*
X59700000Y-51850000D01*
X59700000Y-52250000D02*
X59700000Y-52270000D01*
X59700000Y-52670000D02*
X59700000Y-53770000D01*
X59700000Y-54170000D02*
X59700000Y-54190000D01*
X59700000Y-54590000D02*
X59700000Y-55690000D01*
X59700000Y-56090000D02*
X59700000Y-56110000D01*
X59700000Y-56510000D02*
X59700000Y-57610000D01*
X59700000Y-58010000D02*
X59700000Y-58030000D01*
X59700000Y-58430000D02*
X59700000Y-59530000D01*
X59700000Y-59930000D02*
X59700000Y-59950000D01*
X59700000Y-60350000D02*
X59700000Y-61450000D01*
X59700000Y-61850000D02*
X59700000Y-61870000D01*
X59700000Y-62270000D02*
X59700000Y-63370000D01*
X59700000Y-63770000D02*
X59700000Y-63790000D01*
X59700000Y-64190000D02*
X59700000Y-65290000D01*
X59700000Y-65690000D02*
X59700000Y-65710000D01*
X59700000Y-66110000D02*
X59700000Y-67210000D01*
X59700000Y-67610000D02*
X59700000Y-67630000D01*
X59700000Y-68030000D02*
X59700000Y-69130000D01*
X59700000Y-69530000D02*
X59700000Y-69550000D01*
X59700000Y-69950000D02*
X59700000Y-71050000D01*
X59700000Y-71450000D02*
X59700000Y-71470000D01*
X59700000Y-71500000D02*
X59699962Y-71508727D01*
X59699962Y-71508727D02*
X59699848Y-71517452D01*
X59699848Y-71517452D02*
X59699657Y-71526177D01*
X59699657Y-71526177D02*
X59699391Y-71534899D01*
X59699391Y-71534899D02*
X59699048Y-71543619D01*
X59699048Y-71543619D02*
X59698630Y-71552336D01*
X59698630Y-71552336D02*
X59698135Y-71561049D01*
X59698135Y-71561049D02*
X59697564Y-71569756D01*
X59697564Y-71569756D02*
X59696917Y-71578459D01*
X59696917Y-71578459D02*
X59696195Y-71587156D01*
X59696195Y-71587156D02*
X59695396Y-71595846D01*
X59695396Y-71595846D02*
X59694522Y-71604528D01*
X59694522Y-71604528D02*
X59693572Y-71613203D01*
X59693572Y-71613203D02*
X59692546Y-71621869D01*
X59692546Y-71621869D02*
X59691445Y-71630526D01*
X59691445Y-71630526D02*
X59690268Y-71639173D01*
X59690268Y-71639173D02*
X59689016Y-71647809D01*
X59689016Y-71647809D02*
X59687688Y-71656434D01*
X59687688Y-71656434D02*
X59686286Y-71665048D01*
X59686286Y-71665048D02*
X59684808Y-71673648D01*
X59684808Y-71673648D02*
X59683255Y-71682236D01*
X59683255Y-71682236D02*
X59681627Y-71690809D01*
X59681627Y-71690809D02*
X59679925Y-71699368D01*
X59679925Y-71699368D02*
X59678148Y-71707912D01*
X59678148Y-71707912D02*
X59676296Y-71716440D01*
X59676296Y-71716440D02*
X59674370Y-71724951D01*
X59674370Y-71724951D02*
X59672370Y-71733445D01*
X59672370Y-71733445D02*
X59670296Y-71741922D01*
X59670296Y-71741922D02*
X59668148Y-71750380D01*
X59668148Y-71750380D02*
X59665926Y-71758819D01*
X59665926Y-71758819D02*
X59663630Y-71767238D01*
X59663630Y-71767238D02*
X59661262Y-71775637D01*
X59661262Y-71775637D02*
X59658820Y-71784015D01*
X59658820Y-71784015D02*
X59656305Y-71792372D01*
X59656305Y-71792372D02*
X59653717Y-71800706D01*
X59653717Y-71800706D02*
X59651057Y-71809017D01*
X59651057Y-71809017D02*
X59648324Y-71817305D01*
X59648324Y-71817305D02*
X59645519Y-71825568D01*
X59645519Y-71825568D02*
X59642641Y-71833807D01*
X59642641Y-71833807D02*
X59639693Y-71842020D01*
X59639693Y-71842020D02*
X59636672Y-71850207D01*
X59636672Y-71850207D02*
X59633580Y-71858368D01*
X59633580Y-71858368D02*
X59630418Y-71866501D01*
X59630418Y-71866501D02*
X59627184Y-71874607D01*
X59627184Y-71874607D02*
X59623880Y-71882683D01*
X59623880Y-71882683D02*
X59620505Y-71890731D01*
X59620505Y-71890731D02*
X59617060Y-71898749D01*
X59617060Y-71898749D02*
X59613545Y-71906737D01*
X59613545Y-71906737D02*
X59609961Y-71914693D01*
X59609961Y-71914693D02*
X59606308Y-71922618D01*
X59606308Y-71922618D02*
X59602585Y-71930511D01*
X59602585Y-71930511D02*
X59598794Y-71938371D01*
X59598794Y-71938371D02*
X59594934Y-71946198D01*
X59594934Y-71946198D02*
X59591007Y-71953990D01*
X59591007Y-71953990D02*
X59587011Y-71961749D01*
X59587011Y-71961749D02*
X59582948Y-71969472D01*
X59582948Y-71969472D02*
X59578817Y-71977159D01*
X59578817Y-71977159D02*
X59574620Y-71984810D01*
X59574620Y-71984810D02*
X59570356Y-71992424D01*
X59570356Y-71992424D02*
X59566025Y-72000000D01*
X59566025Y-72000000D02*
X59561629Y-72007538D01*
X59561629Y-72007538D02*
X59557167Y-72015038D01*
X59557167Y-72015038D02*
X59552640Y-72022499D01*
X59552640Y-72022499D02*
X59548048Y-72029919D01*
X59548048Y-72029919D02*
X59543391Y-72037300D01*
X59543391Y-72037300D02*
X59538671Y-72044639D01*
X59538671Y-72044639D02*
X59533886Y-72051937D01*
X59533886Y-72051937D02*
X59529038Y-72059193D01*
X59529038Y-72059193D02*
X59524126Y-72066406D01*
X59524126Y-72066406D02*
X59519152Y-72073576D01*
X59519152Y-72073576D02*
X59514116Y-72080703D01*
X59514116Y-72080703D02*
X59509017Y-72087785D01*
X59509017Y-72087785D02*
X59503857Y-72094823D01*
X59503857Y-72094823D02*
X59498636Y-72101815D01*
X59498636Y-72101815D02*
X59493353Y-72108761D01*
X59493353Y-72108761D02*
X59488011Y-72115661D01*
X59488011Y-72115661D02*
X59482608Y-72122515D01*
X59482608Y-72122515D02*
X59477146Y-72129320D01*
X59477146Y-72129320D02*
X59471625Y-72136078D01*
X59471625Y-72136078D02*
X59466044Y-72142788D01*
X59466044Y-72142788D02*
X59460406Y-72149448D01*
X59460406Y-72149448D02*
X59454710Y-72156059D01*
X59454710Y-72156059D02*
X59448956Y-72162620D01*
X59448956Y-72162620D02*
X59443145Y-72169131D01*
X59443145Y-72169131D02*
X59437277Y-72175590D01*
X59437277Y-72175590D02*
X59431354Y-72181998D01*
X59431354Y-72181998D02*
X59425374Y-72188355D01*
X59425374Y-72188355D02*
X59419340Y-72194658D01*
X59419340Y-72194658D02*
X59413250Y-72200909D01*
X59413250Y-72200909D02*
X59407107Y-72207107D01*
X59407107Y-72207107D02*
X59400909Y-72213250D01*
X59400909Y-72213250D02*
X59394658Y-72219340D01*
X59394658Y-72219340D02*
X59388355Y-72225374D01*
X59388355Y-72225374D02*
X59381998Y-72231354D01*
X59381998Y-72231354D02*
X59375590Y-72237277D01*
X59375590Y-72237277D02*
X59369131Y-72243145D01*
X59369131Y-72243145D02*
X59362620Y-72248956D01*
X59362620Y-72248956D02*
X59356059Y-72254710D01*
X59356059Y-72254710D02*
X59349448Y-72260406D01*
X59349448Y-72260406D02*
X59342788Y-72266044D01*
X59342788Y-72266044D02*
X59336078Y-72271625D01*
X59336078Y-72271625D02*
X59329320Y-72277146D01*
X59329320Y-72277146D02*
X59322515Y-72282608D01*
X59322515Y-72282608D02*
X59315661Y-72288011D01*
X59315661Y-72288011D02*
X59308761Y-72293353D01*
X59308761Y-72293353D02*
X59301815Y-72298636D01*
X59301815Y-72298636D02*
X59294823Y-72303857D01*
X59294823Y-72303857D02*
X59287785Y-72309017D01*
X59287785Y-72309017D02*
X59280703Y-72314116D01*
X59280703Y-72314116D02*
X59273576Y-72319152D01*
X59273576Y-72319152D02*
X59266406Y-72324126D01*
X59266406Y-72324126D02*
X59259193Y-72329038D01*
X59259193Y-72329038D02*
X59251937Y-72333886D01*
X59251937Y-72333886D02*
X59244639Y-72338671D01*
X59244639Y-72338671D02*
X59237300Y-72343391D01*
X59237300Y-72343391D02*
X59229919Y-72348048D01*
X59229919Y-72348048D02*
X59222499Y-72352640D01*
X59222499Y-72352640D02*
X59215038Y-72357167D01*
X59215038Y-72357167D02*
X59207538Y-72361629D01*
X59207538Y-72361629D02*
X59200000Y-72366025D01*
X59200000Y-72366025D02*
X59192424Y-72370356D01*
X59192424Y-72370356D02*
X59184810Y-72374620D01*
X59184810Y-72374620D02*
X59177159Y-72378817D01*
X59177159Y-72378817D02*
X59169472Y-72382948D01*
X59169472Y-72382948D02*
X59161749Y-72387011D01*
X59161749Y-72387011D02*
X59153990Y-72391007D01*
X59153990Y-72391007D02*
X59153596Y-72391207D01*
X58770737Y-72497495D02*
X58750774Y-72498710D01*
X58700000Y-72500000D02*
X57600000Y-72500000D01*
X57200000Y-72500000D02*
X57180000Y-72500000D01*
X56780000Y-72500000D02*
X55750000Y-72500000D01*
X55750000Y-72500000D02*
X55741273Y-72499962D01*
X55741273Y-72499962D02*
X55732548Y-72499848D01*
X55732548Y-72499848D02*
X55723823Y-72499657D01*
X55723823Y-72499657D02*
X55715101Y-72499391D01*
X55715101Y-72499391D02*
X55706381Y-72499048D01*
X55706381Y-72499048D02*
X55697664Y-72498630D01*
X55697664Y-72498630D02*
X55688951Y-72498135D01*
X55688951Y-72498135D02*
X55680244Y-72497564D01*
X55680244Y-72497564D02*
X55671541Y-72496917D01*
X55671541Y-72496917D02*
X55662844Y-72496195D01*
X55662844Y-72496195D02*
X55654154Y-72495396D01*
X55654154Y-72495396D02*
X55645472Y-72494522D01*
X55645472Y-72494522D02*
X55636797Y-72493572D01*
X55636797Y-72493572D02*
X55628131Y-72492546D01*
X55628131Y-72492546D02*
X55619474Y-72491445D01*
X55619474Y-72491445D02*
X55610827Y-72490268D01*
X55610827Y-72490268D02*
X55602191Y-72489016D01*
X55602191Y-72489016D02*
X55593566Y-72487688D01*
X55593566Y-72487688D02*
X55584952Y-72486286D01*
X55584952Y-72486286D02*
X55576352Y-72484808D01*
X55576352Y-72484808D02*
X55567764Y-72483255D01*
X55567764Y-72483255D02*
X55559191Y-72481627D01*
X55559191Y-72481627D02*
X55550632Y-72479925D01*
X55550632Y-72479925D02*
X55542088Y-72478148D01*
X55542088Y-72478148D02*
X55533560Y-72476296D01*
X55533560Y-72476296D02*
X55525049Y-72474370D01*
X55525049Y-72474370D02*
X55516555Y-72472370D01*
X55516555Y-72472370D02*
X55508078Y-72470296D01*
X55508078Y-72470296D02*
X55499620Y-72468148D01*
X55499620Y-72468148D02*
X55491181Y-72465926D01*
X55491181Y-72465926D02*
X55482762Y-72463630D01*
X55482762Y-72463630D02*
X55474363Y-72461262D01*
X55474363Y-72461262D02*
X55465985Y-72458820D01*
X55465985Y-72458820D02*
X55457628Y-72456305D01*
X55457628Y-72456305D02*
X55449294Y-72453717D01*
X55449294Y-72453717D02*
X55440983Y-72451057D01*
X55440983Y-72451057D02*
X55432695Y-72448324D01*
X55432695Y-72448324D02*
X55424432Y-72445519D01*
X55424432Y-72445519D02*
X55416193Y-72442641D01*
X55416193Y-72442641D02*
X55407980Y-72439693D01*
X55407980Y-72439693D02*
X55399793Y-72436672D01*
X55399793Y-72436672D02*
X55391632Y-72433580D01*
X55391632Y-72433580D02*
X55383499Y-72430418D01*
X55383499Y-72430418D02*
X55375393Y-72427184D01*
X55375393Y-72427184D02*
X55367317Y-72423880D01*
X55367317Y-72423880D02*
X55359269Y-72420505D01*
X55359269Y-72420505D02*
X55351251Y-72417060D01*
X55351251Y-72417060D02*
X55343263Y-72413545D01*
X55343263Y-72413545D02*
X55335307Y-72409961D01*
X55335307Y-72409961D02*
X55327382Y-72406308D01*
X55327382Y-72406308D02*
X55319489Y-72402585D01*
X55319489Y-72402585D02*
X55311629Y-72398794D01*
X55311629Y-72398794D02*
X55303802Y-72394934D01*
X55303802Y-72394934D02*
X55296010Y-72391007D01*
X55296010Y-72391007D02*
X55288251Y-72387011D01*
X55288251Y-72387011D02*
X55280528Y-72382948D01*
X55280528Y-72382948D02*
X55272841Y-72378817D01*
X55272841Y-72378817D02*
X55265190Y-72374620D01*
X55265190Y-72374620D02*
X55257576Y-72370356D01*
X55257576Y-72370356D02*
X55250000Y-72366025D01*
X55250000Y-72366025D02*
X55242462Y-72361629D01*
X55242462Y-72361629D02*
X55234962Y-72357167D01*
X55234962Y-72357167D02*
X55227501Y-72352640D01*
X55227501Y-72352640D02*
X55220081Y-72348048D01*
X55220081Y-72348048D02*
X55212700Y-72343391D01*
X55212700Y-72343391D02*
X55205361Y-72338671D01*
X55205361Y-72338671D02*
X55198063Y-72333886D01*
X55198063Y-72333886D02*
X55190807Y-72329038D01*
X55190807Y-72329038D02*
X55183594Y-72324126D01*
X55183594Y-72324126D02*
X55176424Y-72319152D01*
X55176424Y-72319152D02*
X55169297Y-72314116D01*
X55169297Y-72314116D02*
X55162215Y-72309017D01*
X55162215Y-72309017D02*
X55155177Y-72303857D01*
X55155177Y-72303857D02*
X55148185Y-72298636D01*
X55148185Y-72298636D02*
X55141239Y-72293353D01*
X55141239Y-72293353D02*
X55134339Y-72288011D01*
X55134339Y-72288011D02*
X55127485Y-72282608D01*
X55127485Y-72282608D02*
X55120680Y-72277146D01*
X55120680Y-72277146D02*
X55113922Y-72271625D01*
X55113922Y-72271625D02*
X55107212Y-72266044D01*
X55107212Y-72266044D02*
X55100552Y-72260406D01*
X55100552Y-72260406D02*
X55093941Y-72254710D01*
X55093941Y-72254710D02*
X55087380Y-72248956D01*
X55087380Y-72248956D02*
X55080869Y-72243145D01*
X55080869Y-72243145D02*
X55074410Y-72237277D01*
X55074410Y-72237277D02*
X55068002Y-72231354D01*
X55068002Y-72231354D02*
X55061645Y-72225374D01*
X55061645Y-72225374D02*
X55055342Y-72219340D01*
X55055342Y-72219340D02*
X55049091Y-72213250D01*
X55049091Y-72213250D02*
X55042893Y-72207107D01*
X55042893Y-72207107D02*
X55036750Y-72200909D01*
X55036750Y-72200909D02*
X55030660Y-72194658D01*
X55030660Y-72194658D02*
X55024626Y-72188355D01*
X55024626Y-72188355D02*
X55018646Y-72181998D01*
X55018646Y-72181998D02*
X55012723Y-72175590D01*
X55012723Y-72175590D02*
X55006855Y-72169131D01*
X55006855Y-72169131D02*
X55001044Y-72162620D01*
X55001044Y-72162620D02*
X54995290Y-72156059D01*
X54995290Y-72156059D02*
X54989594Y-72149448D01*
X54989594Y-72149448D02*
X54983956Y-72142788D01*
X54983956Y-72142788D02*
X54978375Y-72136078D01*
X54978375Y-72136078D02*
X54972854Y-72129320D01*
X54972854Y-72129320D02*
X54967392Y-72122515D01*
X54967392Y-72122515D02*
X54961989Y-72115661D01*
X54961989Y-72115661D02*
X54956647Y-72108761D01*
X54956647Y-72108761D02*
X54951364Y-72101815D01*
X54951364Y-72101815D02*
X54946143Y-72094823D01*
X54946143Y-72094823D02*
X54940983Y-72087785D01*
X54940983Y-72087785D02*
X54935884Y-72080703D01*
X54935884Y-72080703D02*
X54930848Y-72073576D01*
X54930848Y-72073576D02*
X54925874Y-72066406D01*
X54925874Y-72066406D02*
X54920962Y-72059193D01*
X54920962Y-72059193D02*
X54916114Y-72051937D01*
X54916114Y-72051937D02*
X54911329Y-72044639D01*
X54911329Y-72044639D02*
X54906609Y-72037300D01*
X54906609Y-72037300D02*
X54901952Y-72029919D01*
X54901952Y-72029919D02*
X54897360Y-72022499D01*
X54897360Y-72022499D02*
X54892833Y-72015038D01*
X54892833Y-72015038D02*
X54888371Y-72007538D01*
X54888371Y-72007538D02*
X54883975Y-72000000D01*
X54883975Y-72000000D02*
X54879644Y-71992424D01*
X54879644Y-71992424D02*
X54875380Y-71984810D01*
X54875380Y-71984810D02*
X54871183Y-71977159D01*
X54871183Y-71977159D02*
X54867052Y-71969472D01*
X54867052Y-71969472D02*
X54862989Y-71961749D01*
X54862989Y-71961749D02*
X54858993Y-71953990D01*
X54858993Y-71953990D02*
X54858793Y-71953596D01*
X54752505Y-71570737D02*
X54751290Y-71550774D01*
X54750000Y-71500000D02*
X54750000Y-70400000D01*
X54750000Y-70000000D02*
X54750000Y-69980000D01*
X54750000Y-69580000D02*
X54750000Y-68480000D01*
X54750000Y-68080000D02*
X54750000Y-68060000D01*
X54750000Y-67660000D02*
X54750000Y-66560000D01*
X54750000Y-66160000D02*
X54750000Y-66140000D01*
X54750000Y-65740000D02*
X54750000Y-64640000D01*
X54750000Y-64240000D02*
X54750000Y-64220000D01*
X54750000Y-63820000D02*
X54750000Y-62720000D01*
X54750000Y-62320000D02*
X54750000Y-62300000D01*
X54750000Y-61900000D02*
X54750000Y-60800000D01*
X54750000Y-60400000D02*
X54750000Y-60380000D01*
X54750000Y-59980000D02*
X54750000Y-58880000D01*
X54750000Y-58480000D02*
X54750000Y-58460000D01*
X54750000Y-58060000D02*
X54750000Y-56960000D01*
X54750000Y-56560000D02*
X54750000Y-56540000D01*
X54750000Y-56140000D02*
X54750000Y-55040000D01*
X54750000Y-54640000D02*
X54750000Y-54620000D01*
X54750000Y-54220000D02*
X54750000Y-53120000D01*
X54750000Y-52720000D02*
X54750000Y-52700000D01*
X54750000Y-52300000D02*
X54750000Y-51200000D01*
X54750000Y-50800000D02*
X54750000Y-50780000D01*
X58572400Y-50546000D02*
X64770000Y-50546000D01*
X64770000Y-54965600D01*
X58572400Y-54965600D01*
X58572400Y-50546000D01*
G36*
X58572400Y-50546000D02*
G01*
X64770000Y-50546000D01*
X64770000Y-54965600D01*
X58572400Y-54965600D01*
X58572400Y-50546000D01*
G37*
X60000000Y-49500000D02*
X85400000Y-49500000D01*
X85400000Y-50500000D01*
X60000000Y-50500000D01*
X60000000Y-49500000D01*
G36*
X60000000Y-49500000D02*
G01*
X85400000Y-49500000D01*
X85400000Y-50500000D01*
X60000000Y-50500000D01*
X60000000Y-49500000D01*
G37*
X85000000Y-50750000D02*
X85000038Y-50741273D01*
X85000038Y-50741273D02*
X85000152Y-50732548D01*
X85000152Y-50732548D02*
X85000343Y-50723823D01*
X85000343Y-50723823D02*
X85000609Y-50715101D01*
X85000609Y-50715101D02*
X85000952Y-50706381D01*
X85000952Y-50706381D02*
X85001370Y-50697664D01*
X85001370Y-50697664D02*
X85001865Y-50688951D01*
X85001865Y-50688951D02*
X85002436Y-50680244D01*
X85002436Y-50680244D02*
X85003083Y-50671541D01*
X85003083Y-50671541D02*
X85003805Y-50662844D01*
X85003805Y-50662844D02*
X85004604Y-50654154D01*
X85004604Y-50654154D02*
X85005478Y-50645472D01*
X85005478Y-50645472D02*
X85006428Y-50636797D01*
X85006428Y-50636797D02*
X85007454Y-50628131D01*
X85007454Y-50628131D02*
X85008555Y-50619474D01*
X85008555Y-50619474D02*
X85009732Y-50610827D01*
X85009732Y-50610827D02*
X85010984Y-50602191D01*
X85010984Y-50602191D02*
X85012312Y-50593566D01*
X85012312Y-50593566D02*
X85013714Y-50584952D01*
X85013714Y-50584952D02*
X85015192Y-50576352D01*
X85015192Y-50576352D02*
X85016745Y-50567764D01*
X85016745Y-50567764D02*
X85018373Y-50559191D01*
X85018373Y-50559191D02*
X85020075Y-50550632D01*
X85020075Y-50550632D02*
X85021852Y-50542088D01*
X85021852Y-50542088D02*
X85023704Y-50533560D01*
X85023704Y-50533560D02*
X85025630Y-50525049D01*
X85025630Y-50525049D02*
X85027630Y-50516555D01*
X85027630Y-50516555D02*
X85029704Y-50508078D01*
X85029704Y-50508078D02*
X85031852Y-50499620D01*
X85031852Y-50499620D02*
X85034074Y-50491181D01*
X85034074Y-50491181D02*
X85036370Y-50482762D01*
X85036370Y-50482762D02*
X85038738Y-50474363D01*
X85038738Y-50474363D02*
X85041180Y-50465985D01*
X85041180Y-50465985D02*
X85043695Y-50457628D01*
X85043695Y-50457628D02*
X85046283Y-50449294D01*
X85046283Y-50449294D02*
X85048943Y-50440983D01*
X85048943Y-50440983D02*
X85051676Y-50432695D01*
X85051676Y-50432695D02*
X85054481Y-50424432D01*
X85054481Y-50424432D02*
X85057359Y-50416193D01*
X85057359Y-50416193D02*
X85060307Y-50407980D01*
X85060307Y-50407980D02*
X85063328Y-50399793D01*
X85063328Y-50399793D02*
X85066420Y-50391632D01*
X85066420Y-50391632D02*
X85069582Y-50383499D01*
X85069582Y-50383499D02*
X85072816Y-50375393D01*
X85072816Y-50375393D02*
X85076120Y-50367317D01*
X85076120Y-50367317D02*
X85079495Y-50359269D01*
X85079495Y-50359269D02*
X85082940Y-50351251D01*
X85082940Y-50351251D02*
X85086455Y-50343263D01*
X85086455Y-50343263D02*
X85090039Y-50335307D01*
X85090039Y-50335307D02*
X85093692Y-50327382D01*
X85093692Y-50327382D02*
X85097415Y-50319489D01*
X85097415Y-50319489D02*
X85101206Y-50311629D01*
X85101206Y-50311629D02*
X85105066Y-50303802D01*
X85105066Y-50303802D02*
X85108993Y-50296010D01*
X85108993Y-50296010D02*
X85112989Y-50288251D01*
X85112989Y-50288251D02*
X85117052Y-50280528D01*
X85117052Y-50280528D02*
X85121183Y-50272841D01*
X85121183Y-50272841D02*
X85125380Y-50265190D01*
X85125380Y-50265190D02*
X85129644Y-50257576D01*
X85129644Y-50257576D02*
X85133975Y-50250000D01*
X85133975Y-50250000D02*
X85138371Y-50242462D01*
X85138371Y-50242462D02*
X85142833Y-50234962D01*
X85142833Y-50234962D02*
X85147360Y-50227501D01*
X85147360Y-50227501D02*
X85151952Y-50220081D01*
X85151952Y-50220081D02*
X85156609Y-50212700D01*
X85156609Y-50212700D02*
X85161329Y-50205361D01*
X85161329Y-50205361D02*
X85166114Y-50198063D01*
X85166114Y-50198063D02*
X85170962Y-50190807D01*
X85170962Y-50190807D02*
X85175874Y-50183594D01*
X85175874Y-50183594D02*
X85180848Y-50176424D01*
X85180848Y-50176424D02*
X85185884Y-50169297D01*
X85185884Y-50169297D02*
X85190983Y-50162215D01*
X85190983Y-50162215D02*
X85196143Y-50155177D01*
X85196143Y-50155177D02*
X85201364Y-50148185D01*
X85201364Y-50148185D02*
X85206647Y-50141239D01*
X85206647Y-50141239D02*
X85211989Y-50134339D01*
X85211989Y-50134339D02*
X85217392Y-50127485D01*
X85217392Y-50127485D02*
X85222854Y-50120680D01*
X85222854Y-50120680D02*
X85228375Y-50113922D01*
X85228375Y-50113922D02*
X85233956Y-50107212D01*
X85233956Y-50107212D02*
X85239594Y-50100552D01*
X85239594Y-50100552D02*
X85245290Y-50093941D01*
X85245290Y-50093941D02*
X85251044Y-50087380D01*
X85251044Y-50087380D02*
X85256855Y-50080869D01*
X85256855Y-50080869D02*
X85262723Y-50074410D01*
X85262723Y-50074410D02*
X85268646Y-50068002D01*
X85268646Y-50068002D02*
X85274626Y-50061645D01*
X85274626Y-50061645D02*
X85280660Y-50055342D01*
X85280660Y-50055342D02*
X85286750Y-50049091D01*
X85286750Y-50049091D02*
X85292893Y-50042893D01*
X85292893Y-50042893D02*
X85299091Y-50036750D01*
X85299091Y-50036750D02*
X85305342Y-50030660D01*
X85305342Y-50030660D02*
X85311645Y-50024626D01*
X85311645Y-50024626D02*
X85318002Y-50018646D01*
X85318002Y-50018646D02*
X85324410Y-50012723D01*
X85324410Y-50012723D02*
X85330869Y-50006855D01*
X85330869Y-50006855D02*
X85337380Y-50001044D01*
X85337380Y-50001044D02*
X85343941Y-49995290D01*
X85343941Y-49995290D02*
X85350552Y-49989594D01*
X85350552Y-49989594D02*
X85357212Y-49983956D01*
X85357212Y-49983956D02*
X85363922Y-49978375D01*
X85363922Y-49978375D02*
X85370680Y-49972854D01*
X85370680Y-49972854D02*
X85377485Y-49967392D01*
X85377485Y-49967392D02*
X85384339Y-49961989D01*
X85384339Y-49961989D02*
X85391239Y-49956647D01*
X85391239Y-49956647D02*
X85398185Y-49951364D01*
X85398185Y-49951364D02*
X85405177Y-49946143D01*
X85405177Y-49946143D02*
X85412215Y-49940983D01*
X85412215Y-49940983D02*
X85419297Y-49935884D01*
X85419297Y-49935884D02*
X85426424Y-49930848D01*
X85426424Y-49930848D02*
X85433594Y-49925874D01*
X85433594Y-49925874D02*
X85440807Y-49920962D01*
X85440807Y-49920962D02*
X85448063Y-49916114D01*
X85448063Y-49916114D02*
X85455361Y-49911329D01*
X85455361Y-49911329D02*
X85462700Y-49906609D01*
X85462700Y-49906609D02*
X85470081Y-49901952D01*
X85470081Y-49901952D02*
X85477501Y-49897360D01*
X85477501Y-49897360D02*
X85484962Y-49892833D01*
X85484962Y-49892833D02*
X85492462Y-49888371D01*
X85492462Y-49888371D02*
X85500000Y-49883975D01*
X85500000Y-49883975D02*
X85507576Y-49879644D01*
X85507576Y-49879644D02*
X85515190Y-49875380D01*
X85515190Y-49875380D02*
X85522841Y-49871183D01*
X85522841Y-49871183D02*
X85530528Y-49867052D01*
X85530528Y-49867052D02*
X85538251Y-49862989D01*
X85538251Y-49862989D02*
X85546010Y-49858993D01*
X85546010Y-49858993D02*
X85546404Y-49858793D01*
X85929263Y-49752505D02*
X85949226Y-49751290D01*
X86000000Y-49750000D02*
X87100000Y-49750000D01*
X87500000Y-49750000D02*
X87520000Y-49750000D01*
X87920000Y-49750000D02*
X88500000Y-49750000D01*
X88500000Y-49750000D02*
X88508727Y-49750038D01*
X88508727Y-49750038D02*
X88517452Y-49750152D01*
X88517452Y-49750152D02*
X88526177Y-49750343D01*
X88526177Y-49750343D02*
X88534899Y-49750609D01*
X88534899Y-49750609D02*
X88543619Y-49750952D01*
X88543619Y-49750952D02*
X88552336Y-49751370D01*
X88552336Y-49751370D02*
X88561049Y-49751865D01*
X88561049Y-49751865D02*
X88569756Y-49752436D01*
X88569756Y-49752436D02*
X88578459Y-49753083D01*
X88578459Y-49753083D02*
X88587156Y-49753805D01*
X88587156Y-49753805D02*
X88595846Y-49754604D01*
X88595846Y-49754604D02*
X88604528Y-49755478D01*
X88604528Y-49755478D02*
X88613203Y-49756428D01*
X88613203Y-49756428D02*
X88621869Y-49757454D01*
X88621869Y-49757454D02*
X88630526Y-49758555D01*
X88630526Y-49758555D02*
X88639173Y-49759732D01*
X88639173Y-49759732D02*
X88647809Y-49760984D01*
X88647809Y-49760984D02*
X88656434Y-49762312D01*
X88656434Y-49762312D02*
X88665048Y-49763714D01*
X88665048Y-49763714D02*
X88673648Y-49765192D01*
X88673648Y-49765192D02*
X88682236Y-49766745D01*
X88682236Y-49766745D02*
X88690809Y-49768373D01*
X88690809Y-49768373D02*
X88699368Y-49770075D01*
X88699368Y-49770075D02*
X88707912Y-49771852D01*
X88707912Y-49771852D02*
X88716440Y-49773704D01*
X88716440Y-49773704D02*
X88724951Y-49775630D01*
X88724951Y-49775630D02*
X88733445Y-49777630D01*
X88733445Y-49777630D02*
X88741922Y-49779704D01*
X88741922Y-49779704D02*
X88750380Y-49781852D01*
X88750380Y-49781852D02*
X88758819Y-49784074D01*
X88758819Y-49784074D02*
X88767238Y-49786370D01*
X88767238Y-49786370D02*
X88775637Y-49788738D01*
X88775637Y-49788738D02*
X88784015Y-49791180D01*
X88784015Y-49791180D02*
X88792372Y-49793695D01*
X88792372Y-49793695D02*
X88800706Y-49796283D01*
X88800706Y-49796283D02*
X88809017Y-49798943D01*
X88809017Y-49798943D02*
X88817305Y-49801676D01*
X88817305Y-49801676D02*
X88825568Y-49804481D01*
X88825568Y-49804481D02*
X88833807Y-49807359D01*
X88833807Y-49807359D02*
X88842020Y-49810307D01*
X88842020Y-49810307D02*
X88850207Y-49813328D01*
X88850207Y-49813328D02*
X88858368Y-49816420D01*
X88858368Y-49816420D02*
X88866501Y-49819582D01*
X88866501Y-49819582D02*
X88874607Y-49822816D01*
X88874607Y-49822816D02*
X88882683Y-49826120D01*
X88882683Y-49826120D02*
X88890731Y-49829495D01*
X88890731Y-49829495D02*
X88898749Y-49832940D01*
X88898749Y-49832940D02*
X88906737Y-49836455D01*
X88906737Y-49836455D02*
X88914693Y-49840039D01*
X88914693Y-49840039D02*
X88922618Y-49843692D01*
X88922618Y-49843692D02*
X88930511Y-49847415D01*
X88930511Y-49847415D02*
X88938371Y-49851206D01*
X88938371Y-49851206D02*
X88946198Y-49855066D01*
X88946198Y-49855066D02*
X88953990Y-49858993D01*
X88953990Y-49858993D02*
X88961749Y-49862989D01*
X88961749Y-49862989D02*
X88969472Y-49867052D01*
X88969472Y-49867052D02*
X88977159Y-49871183D01*
X88977159Y-49871183D02*
X88984810Y-49875380D01*
X88984810Y-49875380D02*
X88992424Y-49879644D01*
X88992424Y-49879644D02*
X89000000Y-49883975D01*
X89000000Y-49883975D02*
X89007538Y-49888371D01*
X89007538Y-49888371D02*
X89015038Y-49892833D01*
X89015038Y-49892833D02*
X89022499Y-49897360D01*
X89022499Y-49897360D02*
X89029919Y-49901952D01*
X89029919Y-49901952D02*
X89037300Y-49906609D01*
X89037300Y-49906609D02*
X89044639Y-49911329D01*
X89044639Y-49911329D02*
X89051937Y-49916114D01*
X89051937Y-49916114D02*
X89059193Y-49920962D01*
X89059193Y-49920962D02*
X89066406Y-49925874D01*
X89066406Y-49925874D02*
X89073576Y-49930848D01*
X89073576Y-49930848D02*
X89080703Y-49935884D01*
X89080703Y-49935884D02*
X89087785Y-49940983D01*
X89087785Y-49940983D02*
X89094823Y-49946143D01*
X89094823Y-49946143D02*
X89101815Y-49951364D01*
X89101815Y-49951364D02*
X89108761Y-49956647D01*
X89108761Y-49956647D02*
X89115661Y-49961989D01*
X89115661Y-49961989D02*
X89122515Y-49967392D01*
X89122515Y-49967392D02*
X89129320Y-49972854D01*
X89129320Y-49972854D02*
X89136078Y-49978375D01*
X89136078Y-49978375D02*
X89142788Y-49983956D01*
X89142788Y-49983956D02*
X89149448Y-49989594D01*
X89149448Y-49989594D02*
X89156059Y-49995290D01*
X89156059Y-49995290D02*
X89162620Y-50001044D01*
X89162620Y-50001044D02*
X89169131Y-50006855D01*
X89169131Y-50006855D02*
X89175590Y-50012723D01*
X89175590Y-50012723D02*
X89181998Y-50018646D01*
X89181998Y-50018646D02*
X89188355Y-50024626D01*
X89188355Y-50024626D02*
X89194658Y-50030660D01*
X89194658Y-50030660D02*
X89200909Y-50036750D01*
X89200909Y-50036750D02*
X89207107Y-50042893D01*
X89207107Y-50042893D02*
X89213250Y-50049091D01*
X89213250Y-50049091D02*
X89219340Y-50055342D01*
X89219340Y-50055342D02*
X89225374Y-50061645D01*
X89225374Y-50061645D02*
X89231354Y-50068002D01*
X89231354Y-50068002D02*
X89237277Y-50074410D01*
X89237277Y-50074410D02*
X89243145Y-50080869D01*
X89243145Y-50080869D02*
X89248956Y-50087380D01*
X89248956Y-50087380D02*
X89254710Y-50093941D01*
X89254710Y-50093941D02*
X89260406Y-50100552D01*
X89260406Y-50100552D02*
X89266044Y-50107212D01*
X89266044Y-50107212D02*
X89271625Y-50113922D01*
X89271625Y-50113922D02*
X89277146Y-50120680D01*
X89277146Y-50120680D02*
X89282608Y-50127485D01*
X89282608Y-50127485D02*
X89288011Y-50134339D01*
X89288011Y-50134339D02*
X89293353Y-50141239D01*
X89293353Y-50141239D02*
X89298636Y-50148185D01*
X89298636Y-50148185D02*
X89303857Y-50155177D01*
X89303857Y-50155177D02*
X89309017Y-50162215D01*
X89309017Y-50162215D02*
X89314116Y-50169297D01*
X89314116Y-50169297D02*
X89319152Y-50176424D01*
X89319152Y-50176424D02*
X89324126Y-50183594D01*
X89324126Y-50183594D02*
X89329038Y-50190807D01*
X89329038Y-50190807D02*
X89333886Y-50198063D01*
X89333886Y-50198063D02*
X89338671Y-50205361D01*
X89338671Y-50205361D02*
X89343391Y-50212700D01*
X89343391Y-50212700D02*
X89348048Y-50220081D01*
X89348048Y-50220081D02*
X89352640Y-50227501D01*
X89352640Y-50227501D02*
X89357167Y-50234962D01*
X89357167Y-50234962D02*
X89361629Y-50242462D01*
X89361629Y-50242462D02*
X89366025Y-50250000D01*
X89366025Y-50250000D02*
X89370356Y-50257576D01*
X89370356Y-50257576D02*
X89374620Y-50265190D01*
X89374620Y-50265190D02*
X89378817Y-50272841D01*
X89378817Y-50272841D02*
X89382948Y-50280528D01*
X89382948Y-50280528D02*
X89387011Y-50288251D01*
X89387011Y-50288251D02*
X89391007Y-50296010D01*
X89391007Y-50296010D02*
X89391207Y-50296404D01*
X89497495Y-50679263D02*
X89498710Y-50699226D01*
X89500000Y-50750000D02*
X89500000Y-51850000D01*
X89500000Y-52250000D02*
X89500000Y-52270000D01*
X89500000Y-52670000D02*
X89500000Y-53770000D01*
X89500000Y-54170000D02*
X89500000Y-54190000D01*
X89500000Y-54590000D02*
X89500000Y-55690000D01*
X89500000Y-56090000D02*
X89500000Y-56110000D01*
X89500000Y-56510000D02*
X89500000Y-57610000D01*
X89500000Y-58010000D02*
X89500000Y-58030000D01*
X89500000Y-58430000D02*
X89500000Y-59530000D01*
X89500000Y-59930000D02*
X89500000Y-59950000D01*
X89500000Y-60350000D02*
X89500000Y-61450000D01*
X89500000Y-61850000D02*
X89500000Y-61870000D01*
X89500000Y-62270000D02*
X89500000Y-63370000D01*
X89500000Y-63770000D02*
X89500000Y-63790000D01*
X89500000Y-64190000D02*
X89500000Y-65290000D01*
X89500000Y-65690000D02*
X89500000Y-65710000D01*
X89500000Y-66110000D02*
X89500000Y-67210000D01*
X89500000Y-67610000D02*
X89500000Y-67630000D01*
X89500000Y-68030000D02*
X89500000Y-69130000D01*
X89500000Y-69530000D02*
X89500000Y-69550000D01*
X89500000Y-69950000D02*
X89500000Y-71050000D01*
X89500000Y-71450000D02*
X89500000Y-71470000D01*
X89500000Y-71500000D02*
X89499962Y-71508727D01*
X89499962Y-71508727D02*
X89499848Y-71517452D01*
X89499848Y-71517452D02*
X89499657Y-71526177D01*
X89499657Y-71526177D02*
X89499391Y-71534899D01*
X89499391Y-71534899D02*
X89499048Y-71543619D01*
X89499048Y-71543619D02*
X89498630Y-71552336D01*
X89498630Y-71552336D02*
X89498135Y-71561049D01*
X89498135Y-71561049D02*
X89497564Y-71569756D01*
X89497564Y-71569756D02*
X89496917Y-71578459D01*
X89496917Y-71578459D02*
X89496195Y-71587156D01*
X89496195Y-71587156D02*
X89495396Y-71595846D01*
X89495396Y-71595846D02*
X89494522Y-71604528D01*
X89494522Y-71604528D02*
X89493572Y-71613203D01*
X89493572Y-71613203D02*
X89492546Y-71621869D01*
X89492546Y-71621869D02*
X89491445Y-71630526D01*
X89491445Y-71630526D02*
X89490268Y-71639173D01*
X89490268Y-71639173D02*
X89489016Y-71647809D01*
X89489016Y-71647809D02*
X89487688Y-71656434D01*
X89487688Y-71656434D02*
X89486286Y-71665048D01*
X89486286Y-71665048D02*
X89484808Y-71673648D01*
X89484808Y-71673648D02*
X89483255Y-71682236D01*
X89483255Y-71682236D02*
X89481627Y-71690809D01*
X89481627Y-71690809D02*
X89479925Y-71699368D01*
X89479925Y-71699368D02*
X89478148Y-71707912D01*
X89478148Y-71707912D02*
X89476296Y-71716440D01*
X89476296Y-71716440D02*
X89474370Y-71724951D01*
X89474370Y-71724951D02*
X89472370Y-71733445D01*
X89472370Y-71733445D02*
X89470296Y-71741922D01*
X89470296Y-71741922D02*
X89468148Y-71750380D01*
X89468148Y-71750380D02*
X89465926Y-71758819D01*
X89465926Y-71758819D02*
X89463630Y-71767238D01*
X89463630Y-71767238D02*
X89461262Y-71775637D01*
X89461262Y-71775637D02*
X89458820Y-71784015D01*
X89458820Y-71784015D02*
X89456305Y-71792372D01*
X89456305Y-71792372D02*
X89453717Y-71800706D01*
X89453717Y-71800706D02*
X89451057Y-71809017D01*
X89451057Y-71809017D02*
X89448324Y-71817305D01*
X89448324Y-71817305D02*
X89445519Y-71825568D01*
X89445519Y-71825568D02*
X89442641Y-71833807D01*
X89442641Y-71833807D02*
X89439693Y-71842020D01*
X89439693Y-71842020D02*
X89436672Y-71850207D01*
X89436672Y-71850207D02*
X89433580Y-71858368D01*
X89433580Y-71858368D02*
X89430418Y-71866501D01*
X89430418Y-71866501D02*
X89427184Y-71874607D01*
X89427184Y-71874607D02*
X89423880Y-71882683D01*
X89423880Y-71882683D02*
X89420505Y-71890731D01*
X89420505Y-71890731D02*
X89417060Y-71898749D01*
X89417060Y-71898749D02*
X89413545Y-71906737D01*
X89413545Y-71906737D02*
X89409961Y-71914693D01*
X89409961Y-71914693D02*
X89406308Y-71922618D01*
X89406308Y-71922618D02*
X89402585Y-71930511D01*
X89402585Y-71930511D02*
X89398794Y-71938371D01*
X89398794Y-71938371D02*
X89394934Y-71946198D01*
X89394934Y-71946198D02*
X89391007Y-71953990D01*
X89391007Y-71953990D02*
X89387011Y-71961749D01*
X89387011Y-71961749D02*
X89382948Y-71969472D01*
X89382948Y-71969472D02*
X89378817Y-71977159D01*
X89378817Y-71977159D02*
X89374620Y-71984810D01*
X89374620Y-71984810D02*
X89370356Y-71992424D01*
X89370356Y-71992424D02*
X89366025Y-72000000D01*
X89366025Y-72000000D02*
X89361629Y-72007538D01*
X89361629Y-72007538D02*
X89357167Y-72015038D01*
X89357167Y-72015038D02*
X89352640Y-72022499D01*
X89352640Y-72022499D02*
X89348048Y-72029919D01*
X89348048Y-72029919D02*
X89343391Y-72037300D01*
X89343391Y-72037300D02*
X89338671Y-72044639D01*
X89338671Y-72044639D02*
X89333886Y-72051937D01*
X89333886Y-72051937D02*
X89329038Y-72059193D01*
X89329038Y-72059193D02*
X89324126Y-72066406D01*
X89324126Y-72066406D02*
X89319152Y-72073576D01*
X89319152Y-72073576D02*
X89314116Y-72080703D01*
X89314116Y-72080703D02*
X89309017Y-72087785D01*
X89309017Y-72087785D02*
X89303857Y-72094823D01*
X89303857Y-72094823D02*
X89298636Y-72101815D01*
X89298636Y-72101815D02*
X89293353Y-72108761D01*
X89293353Y-72108761D02*
X89288011Y-72115661D01*
X89288011Y-72115661D02*
X89282608Y-72122515D01*
X89282608Y-72122515D02*
X89277146Y-72129320D01*
X89277146Y-72129320D02*
X89271625Y-72136078D01*
X89271625Y-72136078D02*
X89266044Y-72142788D01*
X89266044Y-72142788D02*
X89260406Y-72149448D01*
X89260406Y-72149448D02*
X89254710Y-72156059D01*
X89254710Y-72156059D02*
X89248956Y-72162620D01*
X89248956Y-72162620D02*
X89243145Y-72169131D01*
X89243145Y-72169131D02*
X89237277Y-72175590D01*
X89237277Y-72175590D02*
X89231354Y-72181998D01*
X89231354Y-72181998D02*
X89225374Y-72188355D01*
X89225374Y-72188355D02*
X89219340Y-72194658D01*
X89219340Y-72194658D02*
X89213250Y-72200909D01*
X89213250Y-72200909D02*
X89207107Y-72207107D01*
X89207107Y-72207107D02*
X89200909Y-72213250D01*
X89200909Y-72213250D02*
X89194658Y-72219340D01*
X89194658Y-72219340D02*
X89188355Y-72225374D01*
X89188355Y-72225374D02*
X89181998Y-72231354D01*
X89181998Y-72231354D02*
X89175590Y-72237277D01*
X89175590Y-72237277D02*
X89169131Y-72243145D01*
X89169131Y-72243145D02*
X89162620Y-72248956D01*
X89162620Y-72248956D02*
X89156059Y-72254710D01*
X89156059Y-72254710D02*
X89149448Y-72260406D01*
X89149448Y-72260406D02*
X89142788Y-72266044D01*
X89142788Y-72266044D02*
X89136078Y-72271625D01*
X89136078Y-72271625D02*
X89129320Y-72277146D01*
X89129320Y-72277146D02*
X89122515Y-72282608D01*
X89122515Y-72282608D02*
X89115661Y-72288011D01*
X89115661Y-72288011D02*
X89108761Y-72293353D01*
X89108761Y-72293353D02*
X89101815Y-72298636D01*
X89101815Y-72298636D02*
X89094823Y-72303857D01*
X89094823Y-72303857D02*
X89087785Y-72309017D01*
X89087785Y-72309017D02*
X89080703Y-72314116D01*
X89080703Y-72314116D02*
X89073576Y-72319152D01*
X89073576Y-72319152D02*
X89066406Y-72324126D01*
X89066406Y-72324126D02*
X89059193Y-72329038D01*
X89059193Y-72329038D02*
X89051937Y-72333886D01*
X89051937Y-72333886D02*
X89044639Y-72338671D01*
X89044639Y-72338671D02*
X89037300Y-72343391D01*
X89037300Y-72343391D02*
X89029919Y-72348048D01*
X89029919Y-72348048D02*
X89022499Y-72352640D01*
X89022499Y-72352640D02*
X89015038Y-72357167D01*
X89015038Y-72357167D02*
X89007538Y-72361629D01*
X89007538Y-72361629D02*
X89000000Y-72366025D01*
X89000000Y-72366025D02*
X88992424Y-72370356D01*
X88992424Y-72370356D02*
X88984810Y-72374620D01*
X88984810Y-72374620D02*
X88977159Y-72378817D01*
X88977159Y-72378817D02*
X88969472Y-72382948D01*
X88969472Y-72382948D02*
X88961749Y-72387011D01*
X88961749Y-72387011D02*
X88953990Y-72391007D01*
X88953990Y-72391007D02*
X88953596Y-72391207D01*
X88570737Y-72497495D02*
X88550774Y-72498710D01*
X88500000Y-72500000D02*
X87400000Y-72500000D01*
X87000000Y-72500000D02*
X86980000Y-72500000D01*
X86580000Y-72500000D02*
X86000000Y-72500000D01*
X86000000Y-72500000D02*
X85991273Y-72499962D01*
X85991273Y-72499962D02*
X85982548Y-72499848D01*
X85982548Y-72499848D02*
X85973823Y-72499657D01*
X85973823Y-72499657D02*
X85965101Y-72499391D01*
X85965101Y-72499391D02*
X85956381Y-72499048D01*
X85956381Y-72499048D02*
X85947664Y-72498630D01*
X85947664Y-72498630D02*
X85938951Y-72498135D01*
X85938951Y-72498135D02*
X85930244Y-72497564D01*
X85930244Y-72497564D02*
X85921541Y-72496917D01*
X85921541Y-72496917D02*
X85912844Y-72496195D01*
X85912844Y-72496195D02*
X85904154Y-72495396D01*
X85904154Y-72495396D02*
X85895472Y-72494522D01*
X85895472Y-72494522D02*
X85886797Y-72493572D01*
X85886797Y-72493572D02*
X85878131Y-72492546D01*
X85878131Y-72492546D02*
X85869474Y-72491445D01*
X85869474Y-72491445D02*
X85860827Y-72490268D01*
X85860827Y-72490268D02*
X85852191Y-72489016D01*
X85852191Y-72489016D02*
X85843566Y-72487688D01*
X85843566Y-72487688D02*
X85834952Y-72486286D01*
X85834952Y-72486286D02*
X85826352Y-72484808D01*
X85826352Y-72484808D02*
X85817764Y-72483255D01*
X85817764Y-72483255D02*
X85809191Y-72481627D01*
X85809191Y-72481627D02*
X85800632Y-72479925D01*
X85800632Y-72479925D02*
X85792088Y-72478148D01*
X85792088Y-72478148D02*
X85783560Y-72476296D01*
X85783560Y-72476296D02*
X85775049Y-72474370D01*
X85775049Y-72474370D02*
X85766555Y-72472370D01*
X85766555Y-72472370D02*
X85758078Y-72470296D01*
X85758078Y-72470296D02*
X85749620Y-72468148D01*
X85749620Y-72468148D02*
X85741181Y-72465926D01*
X85741181Y-72465926D02*
X85732762Y-72463630D01*
X85732762Y-72463630D02*
X85724363Y-72461262D01*
X85724363Y-72461262D02*
X85715985Y-72458820D01*
X85715985Y-72458820D02*
X85707628Y-72456305D01*
X85707628Y-72456305D02*
X85699294Y-72453717D01*
X85699294Y-72453717D02*
X85690983Y-72451057D01*
X85690983Y-72451057D02*
X85682695Y-72448324D01*
X85682695Y-72448324D02*
X85674432Y-72445519D01*
X85674432Y-72445519D02*
X85666193Y-72442641D01*
X85666193Y-72442641D02*
X85657980Y-72439693D01*
X85657980Y-72439693D02*
X85649793Y-72436672D01*
X85649793Y-72436672D02*
X85641632Y-72433580D01*
X85641632Y-72433580D02*
X85633499Y-72430418D01*
X85633499Y-72430418D02*
X85625393Y-72427184D01*
X85625393Y-72427184D02*
X85617317Y-72423880D01*
X85617317Y-72423880D02*
X85609269Y-72420505D01*
X85609269Y-72420505D02*
X85601251Y-72417060D01*
X85601251Y-72417060D02*
X85593263Y-72413545D01*
X85593263Y-72413545D02*
X85585307Y-72409961D01*
X85585307Y-72409961D02*
X85577382Y-72406308D01*
X85577382Y-72406308D02*
X85569489Y-72402585D01*
X85569489Y-72402585D02*
X85561629Y-72398794D01*
X85561629Y-72398794D02*
X85553802Y-72394934D01*
X85553802Y-72394934D02*
X85546010Y-72391007D01*
X85546010Y-72391007D02*
X85538251Y-72387011D01*
X85538251Y-72387011D02*
X85530528Y-72382948D01*
X85530528Y-72382948D02*
X85522841Y-72378817D01*
X85522841Y-72378817D02*
X85515190Y-72374620D01*
X85515190Y-72374620D02*
X85507576Y-72370356D01*
X85507576Y-72370356D02*
X85500000Y-72366025D01*
X85500000Y-72366025D02*
X85492462Y-72361629D01*
X85492462Y-72361629D02*
X85484962Y-72357167D01*
X85484962Y-72357167D02*
X85477501Y-72352640D01*
X85477501Y-72352640D02*
X85470081Y-72348048D01*
X85470081Y-72348048D02*
X85462700Y-72343391D01*
X85462700Y-72343391D02*
X85455361Y-72338671D01*
X85455361Y-72338671D02*
X85448063Y-72333886D01*
X85448063Y-72333886D02*
X85440807Y-72329038D01*
X85440807Y-72329038D02*
X85433594Y-72324126D01*
X85433594Y-72324126D02*
X85426424Y-72319152D01*
X85426424Y-72319152D02*
X85419297Y-72314116D01*
X85419297Y-72314116D02*
X85412215Y-72309017D01*
X85412215Y-72309017D02*
X85405177Y-72303857D01*
X85405177Y-72303857D02*
X85398185Y-72298636D01*
X85398185Y-72298636D02*
X85391239Y-72293353D01*
X85391239Y-72293353D02*
X85384339Y-72288011D01*
X85384339Y-72288011D02*
X85377485Y-72282608D01*
X85377485Y-72282608D02*
X85370680Y-72277146D01*
X85370680Y-72277146D02*
X85363922Y-72271625D01*
X85363922Y-72271625D02*
X85357212Y-72266044D01*
X85357212Y-72266044D02*
X85350552Y-72260406D01*
X85350552Y-72260406D02*
X85343941Y-72254710D01*
X85343941Y-72254710D02*
X85337380Y-72248956D01*
X85337380Y-72248956D02*
X85330869Y-72243145D01*
X85330869Y-72243145D02*
X85324410Y-72237277D01*
X85324410Y-72237277D02*
X85318002Y-72231354D01*
X85318002Y-72231354D02*
X85311645Y-72225374D01*
X85311645Y-72225374D02*
X85305342Y-72219340D01*
X85305342Y-72219340D02*
X85299091Y-72213250D01*
X85299091Y-72213250D02*
X85292893Y-72207107D01*
X85292893Y-72207107D02*
X85286750Y-72200909D01*
X85286750Y-72200909D02*
X85280660Y-72194658D01*
X85280660Y-72194658D02*
X85274626Y-72188355D01*
X85274626Y-72188355D02*
X85268646Y-72181998D01*
X85268646Y-72181998D02*
X85262723Y-72175590D01*
X85262723Y-72175590D02*
X85256855Y-72169131D01*
X85256855Y-72169131D02*
X85251044Y-72162620D01*
X85251044Y-72162620D02*
X85245290Y-72156059D01*
X85245290Y-72156059D02*
X85239594Y-72149448D01*
X85239594Y-72149448D02*
X85233956Y-72142788D01*
X85233956Y-72142788D02*
X85228375Y-72136078D01*
X85228375Y-72136078D02*
X85222854Y-72129320D01*
X85222854Y-72129320D02*
X85217392Y-72122515D01*
X85217392Y-72122515D02*
X85211989Y-72115661D01*
X85211989Y-72115661D02*
X85206647Y-72108761D01*
X85206647Y-72108761D02*
X85201364Y-72101815D01*
X85201364Y-72101815D02*
X85196143Y-72094823D01*
X85196143Y-72094823D02*
X85190983Y-72087785D01*
X85190983Y-72087785D02*
X85185884Y-72080703D01*
X85185884Y-72080703D02*
X85180848Y-72073576D01*
X85180848Y-72073576D02*
X85175874Y-72066406D01*
X85175874Y-72066406D02*
X85170962Y-72059193D01*
X85170962Y-72059193D02*
X85166114Y-72051937D01*
X85166114Y-72051937D02*
X85161329Y-72044639D01*
X85161329Y-72044639D02*
X85156609Y-72037300D01*
X85156609Y-72037300D02*
X85151952Y-72029919D01*
X85151952Y-72029919D02*
X85147360Y-72022499D01*
X85147360Y-72022499D02*
X85142833Y-72015038D01*
X85142833Y-72015038D02*
X85138371Y-72007538D01*
X85138371Y-72007538D02*
X85133975Y-72000000D01*
X85133975Y-72000000D02*
X85129644Y-71992424D01*
X85129644Y-71992424D02*
X85125380Y-71984810D01*
X85125380Y-71984810D02*
X85121183Y-71977159D01*
X85121183Y-71977159D02*
X85117052Y-71969472D01*
X85117052Y-71969472D02*
X85112989Y-71961749D01*
X85112989Y-71961749D02*
X85108993Y-71953990D01*
X85108993Y-71953990D02*
X85108793Y-71953596D01*
X85002505Y-71570737D02*
X85001290Y-71550774D01*
X85000000Y-71500000D02*
X85000000Y-70400000D01*
X85000000Y-70000000D02*
X85000000Y-69980000D01*
X85000000Y-69580000D02*
X85000000Y-68480000D01*
X85000000Y-68080000D02*
X85000000Y-68060000D01*
X85000000Y-67660000D02*
X85000000Y-66560000D01*
X85000000Y-66160000D02*
X85000000Y-66140000D01*
X85000000Y-65740000D02*
X85000000Y-64640000D01*
X85000000Y-64240000D02*
X85000000Y-64220000D01*
X85000000Y-63820000D02*
X85000000Y-62720000D01*
X85000000Y-62320000D02*
X85000000Y-62300000D01*
X85000000Y-61900000D02*
X85000000Y-60800000D01*
X85000000Y-60400000D02*
X85000000Y-60380000D01*
X85000000Y-59980000D02*
X85000000Y-58880000D01*
X85000000Y-58480000D02*
X85000000Y-58460000D01*
X85000000Y-58060000D02*
X85000000Y-56960000D01*
X85000000Y-56560000D02*
X85000000Y-56540000D01*
X85000000Y-56140000D02*
X85000000Y-55040000D01*
X85000000Y-54640000D02*
X85000000Y-54620000D01*
X85000000Y-54220000D02*
X85000000Y-53120000D01*
X85000000Y-52720000D02*
X85000000Y-52700000D01*
X85000000Y-52300000D02*
X85000000Y-51200000D01*
X85000000Y-50800000D02*
X85000000Y-50780000D01*
D14*
%TO.C,ESC+*%
X89400000Y-61000000D03*
%TD*%
%TO.C,ESC+*%
X56100000Y-51750000D03*
%TD*%
D15*
%TO.C,R2*%
X81500000Y-78500000D03*
X79675000Y-78500000D03*
%TD*%
D14*
%TO.C,ESC..1*%
X55981600Y-61150000D03*
%TD*%
%TO.C,ES.C1*%
X89400000Y-70500000D03*
%TD*%
D16*
%TO.C,U1*%
X65100000Y-83500000D03*
D17*
X67010000Y-83500000D03*
X68920000Y-83500000D03*
D18*
X73010000Y-58900000D03*
D19*
X62010000Y-58900000D03*
%TD*%
D14*
%TO.C,.ESC3.1*%
X55981600Y-70500000D03*
%TD*%
%TO.C,.ESC1*%
X89400000Y-51800000D03*
%TD*%
D20*
%TO.C,J2*%
X56460000Y-86000000D03*
D21*
X59000000Y-86000000D03*
X61540000Y-86000000D03*
%TD*%
D20*
%TO.C,J1*%
X88120000Y-86000000D03*
D21*
X85580000Y-86000000D03*
X83040000Y-86000000D03*
X80500000Y-86000000D03*
X77960000Y-86000000D03*
%TD*%
D22*
%TO.C,C1*%
X66399500Y-86233000D03*
X68474500Y-86233000D03*
%TD*%
D23*
%TO.C,C2*%
X75819000Y-83206500D03*
X75819000Y-81131500D03*
%TD*%
D24*
%TO.C,R1*%
X79687500Y-82000000D03*
X81512500Y-82000000D03*
%TD*%
M02*
