%TF.GenerationSoftware,KiCad,Pcbnew,10.0.4*%
%TF.CreationDate,2026-07-27T21:32:22+02:00*%
%TF.ProjectId,pdb,7064622e-6b69-4636-9164-5f7063625858,rev?*%
%TF.SameCoordinates,Original*%
%TF.FileFunction,Soldermask,Bot*%
%TF.FilePolarity,Negative*%
%FSLAX46Y46*%
G04 Gerber Fmt 4.6, Leading zero omitted, Abs format (unit mm)*
G04 Created by KiCad (PCBNEW 10.0.4) date 2026-07-27 21:32:22*
%MOMM*%
%LPD*%
G01*
G04 APERTURE LIST*
G04 Aperture macros list*
%AMRoundRect*
0 Rectangle with rounded corners*
0 $1 Rounding radius*
0 $2 $3 $4 $5 $6 $7 $8 $9 X,Y pos of 4 corners*
0 Add a 4 corners polygon primitive as box body*
4,1,4,$2,$3,$4,$5,$6,$7,$8,$9,$2,$3,0*
0 Add four circle primitives for the rounded corners*
1,1,$1+$1,$2,$3*
1,1,$1+$1,$4,$5*
1,1,$1+$1,$6,$7*
1,1,$1+$1,$8,$9*
0 Add four rect primitives between the rounded corners*
20,1,$1+$1,$2,$3,$4,$5,0*
20,1,$1+$1,$4,$5,$6,$7,0*
20,1,$1+$1,$6,$7,$8,$9,0*
20,1,$1+$1,$8,$9,$2,$3,0*%
G04 Aperture macros list end*
%ADD10C,0.150000*%
%ADD11C,0.300000*%
%ADD12C,0.400000*%
%ADD13C,0.100000*%
%ADD14C,4.000000*%
%ADD15R,1.500000X1.500000*%
%ADD16C,1.500000*%
%ADD17R,1.700000X1.700000*%
%ADD18C,1.700000*%
%ADD19RoundRect,0.250000X-0.350000X-0.450000X0.350000X-0.450000X0.350000X0.450000X-0.350000X0.450000X0*%
%ADD20RoundRect,0.250000X-0.450000X0.350000X-0.450000X-0.350000X0.450000X-0.350000X0.450000X0.350000X0*%
%ADD21RoundRect,0.250000X-0.337500X-0.475000X0.337500X-0.475000X0.337500X0.475000X-0.337500X0.475000X0*%
%ADD22RoundRect,0.250000X0.337500X0.475000X-0.337500X0.475000X-0.337500X-0.475000X0.337500X-0.475000X0*%
%ADD23C,7.000000*%
G04 APERTURE END LIST*
D10*
X177002200Y-166007200D02*
X285002200Y-166007200D01*
X285002200Y-198007200D01*
X177002200Y-198007200D01*
X177002200Y-166007200D01*
X10000000Y-10000000D02*
X287002200Y-10000000D01*
X287002200Y-200007200D01*
X10000000Y-200007200D01*
X10000000Y-10000000D01*
X12000000Y-12000000D02*
X285002200Y-12000000D01*
X285002200Y-198007200D01*
X12000000Y-198007200D01*
X12000000Y-12000000D01*
X60000000Y-12000000D02*
X60000000Y-10000000D01*
X110000000Y-12000000D02*
X110000000Y-10000000D01*
X160000000Y-12000000D02*
X160000000Y-10000000D01*
X210000000Y-12000000D02*
X210000000Y-10000000D01*
X260000000Y-12000000D02*
X260000000Y-10000000D01*
X36089160Y-11593604D02*
X35346303Y-11593604D01*
X35717731Y-11593604D02*
X35717731Y-10293604D01*
X35717731Y-10293604D02*
X35593922Y-10479319D01*
X35593922Y-10479319D02*
X35470112Y-10603128D01*
X35470112Y-10603128D02*
X35346303Y-10665033D01*
X85346303Y-10417414D02*
X85408207Y-10355509D01*
X85408207Y-10355509D02*
X85532017Y-10293604D01*
X85532017Y-10293604D02*
X85841541Y-10293604D01*
X85841541Y-10293604D02*
X85965350Y-10355509D01*
X85965350Y-10355509D02*
X86027255Y-10417414D01*
X86027255Y-10417414D02*
X86089160Y-10541223D01*
X86089160Y-10541223D02*
X86089160Y-10665033D01*
X86089160Y-10665033D02*
X86027255Y-10850747D01*
X86027255Y-10850747D02*
X85284398Y-11593604D01*
X85284398Y-11593604D02*
X86089160Y-11593604D01*
X135284398Y-10293604D02*
X136089160Y-10293604D01*
X136089160Y-10293604D02*
X135655826Y-10788842D01*
X135655826Y-10788842D02*
X135841541Y-10788842D01*
X135841541Y-10788842D02*
X135965350Y-10850747D01*
X135965350Y-10850747D02*
X136027255Y-10912652D01*
X136027255Y-10912652D02*
X136089160Y-11036461D01*
X136089160Y-11036461D02*
X136089160Y-11345985D01*
X136089160Y-11345985D02*
X136027255Y-11469795D01*
X136027255Y-11469795D02*
X135965350Y-11531700D01*
X135965350Y-11531700D02*
X135841541Y-11593604D01*
X135841541Y-11593604D02*
X135470112Y-11593604D01*
X135470112Y-11593604D02*
X135346303Y-11531700D01*
X135346303Y-11531700D02*
X135284398Y-11469795D01*
X185965350Y-10726938D02*
X185965350Y-11593604D01*
X185655826Y-10231700D02*
X185346303Y-11160271D01*
X185346303Y-11160271D02*
X186151064Y-11160271D01*
X236027255Y-10293604D02*
X235408207Y-10293604D01*
X235408207Y-10293604D02*
X235346303Y-10912652D01*
X235346303Y-10912652D02*
X235408207Y-10850747D01*
X235408207Y-10850747D02*
X235532017Y-10788842D01*
X235532017Y-10788842D02*
X235841541Y-10788842D01*
X235841541Y-10788842D02*
X235965350Y-10850747D01*
X235965350Y-10850747D02*
X236027255Y-10912652D01*
X236027255Y-10912652D02*
X236089160Y-11036461D01*
X236089160Y-11036461D02*
X236089160Y-11345985D01*
X236089160Y-11345985D02*
X236027255Y-11469795D01*
X236027255Y-11469795D02*
X235965350Y-11531700D01*
X235965350Y-11531700D02*
X235841541Y-11593604D01*
X235841541Y-11593604D02*
X235532017Y-11593604D01*
X235532017Y-11593604D02*
X235408207Y-11531700D01*
X235408207Y-11531700D02*
X235346303Y-11469795D01*
X285965350Y-10293604D02*
X285717731Y-10293604D01*
X285717731Y-10293604D02*
X285593922Y-10355509D01*
X285593922Y-10355509D02*
X285532017Y-10417414D01*
X285532017Y-10417414D02*
X285408207Y-10603128D01*
X285408207Y-10603128D02*
X285346303Y-10850747D01*
X285346303Y-10850747D02*
X285346303Y-11345985D01*
X285346303Y-11345985D02*
X285408207Y-11469795D01*
X285408207Y-11469795D02*
X285470112Y-11531700D01*
X285470112Y-11531700D02*
X285593922Y-11593604D01*
X285593922Y-11593604D02*
X285841541Y-11593604D01*
X285841541Y-11593604D02*
X285965350Y-11531700D01*
X285965350Y-11531700D02*
X286027255Y-11469795D01*
X286027255Y-11469795D02*
X286089160Y-11345985D01*
X286089160Y-11345985D02*
X286089160Y-11036461D01*
X286089160Y-11036461D02*
X286027255Y-10912652D01*
X286027255Y-10912652D02*
X285965350Y-10850747D01*
X285965350Y-10850747D02*
X285841541Y-10788842D01*
X285841541Y-10788842D02*
X285593922Y-10788842D01*
X285593922Y-10788842D02*
X285470112Y-10850747D01*
X285470112Y-10850747D02*
X285408207Y-10912652D01*
X285408207Y-10912652D02*
X285346303Y-11036461D01*
X60000000Y-198007200D02*
X60000000Y-200007200D01*
X110000000Y-198007200D02*
X110000000Y-200007200D01*
X160000000Y-198007200D02*
X160000000Y-200007200D01*
X210000000Y-198007200D02*
X210000000Y-200007200D01*
X260000000Y-198007200D02*
X260000000Y-200007200D01*
X36089160Y-199600804D02*
X35346303Y-199600804D01*
X35717731Y-199600804D02*
X35717731Y-198300804D01*
X35717731Y-198300804D02*
X35593922Y-198486519D01*
X35593922Y-198486519D02*
X35470112Y-198610328D01*
X35470112Y-198610328D02*
X35346303Y-198672233D01*
X85346303Y-198424614D02*
X85408207Y-198362709D01*
X85408207Y-198362709D02*
X85532017Y-198300804D01*
X85532017Y-198300804D02*
X85841541Y-198300804D01*
X85841541Y-198300804D02*
X85965350Y-198362709D01*
X85965350Y-198362709D02*
X86027255Y-198424614D01*
X86027255Y-198424614D02*
X86089160Y-198548423D01*
X86089160Y-198548423D02*
X86089160Y-198672233D01*
X86089160Y-198672233D02*
X86027255Y-198857947D01*
X86027255Y-198857947D02*
X85284398Y-199600804D01*
X85284398Y-199600804D02*
X86089160Y-199600804D01*
X135284398Y-198300804D02*
X136089160Y-198300804D01*
X136089160Y-198300804D02*
X135655826Y-198796042D01*
X135655826Y-198796042D02*
X135841541Y-198796042D01*
X135841541Y-198796042D02*
X135965350Y-198857947D01*
X135965350Y-198857947D02*
X136027255Y-198919852D01*
X136027255Y-198919852D02*
X136089160Y-199043661D01*
X136089160Y-199043661D02*
X136089160Y-199353185D01*
X136089160Y-199353185D02*
X136027255Y-199476995D01*
X136027255Y-199476995D02*
X135965350Y-199538900D01*
X135965350Y-199538900D02*
X135841541Y-199600804D01*
X135841541Y-199600804D02*
X135470112Y-199600804D01*
X135470112Y-199600804D02*
X135346303Y-199538900D01*
X135346303Y-199538900D02*
X135284398Y-199476995D01*
X185965350Y-198734138D02*
X185965350Y-199600804D01*
X185655826Y-198238900D02*
X185346303Y-199167471D01*
X185346303Y-199167471D02*
X186151064Y-199167471D01*
X236027255Y-198300804D02*
X235408207Y-198300804D01*
X235408207Y-198300804D02*
X235346303Y-198919852D01*
X235346303Y-198919852D02*
X235408207Y-198857947D01*
X235408207Y-198857947D02*
X235532017Y-198796042D01*
X235532017Y-198796042D02*
X235841541Y-198796042D01*
X235841541Y-198796042D02*
X235965350Y-198857947D01*
X235965350Y-198857947D02*
X236027255Y-198919852D01*
X236027255Y-198919852D02*
X236089160Y-199043661D01*
X236089160Y-199043661D02*
X236089160Y-199353185D01*
X236089160Y-199353185D02*
X236027255Y-199476995D01*
X236027255Y-199476995D02*
X235965350Y-199538900D01*
X235965350Y-199538900D02*
X235841541Y-199600804D01*
X235841541Y-199600804D02*
X235532017Y-199600804D01*
X235532017Y-199600804D02*
X235408207Y-199538900D01*
X235408207Y-199538900D02*
X235346303Y-199476995D01*
X285965350Y-198300804D02*
X285717731Y-198300804D01*
X285717731Y-198300804D02*
X285593922Y-198362709D01*
X285593922Y-198362709D02*
X285532017Y-198424614D01*
X285532017Y-198424614D02*
X285408207Y-198610328D01*
X285408207Y-198610328D02*
X285346303Y-198857947D01*
X285346303Y-198857947D02*
X285346303Y-199353185D01*
X285346303Y-199353185D02*
X285408207Y-199476995D01*
X285408207Y-199476995D02*
X285470112Y-199538900D01*
X285470112Y-199538900D02*
X285593922Y-199600804D01*
X285593922Y-199600804D02*
X285841541Y-199600804D01*
X285841541Y-199600804D02*
X285965350Y-199538900D01*
X285965350Y-199538900D02*
X286027255Y-199476995D01*
X286027255Y-199476995D02*
X286089160Y-199353185D01*
X286089160Y-199353185D02*
X286089160Y-199043661D01*
X286089160Y-199043661D02*
X286027255Y-198919852D01*
X286027255Y-198919852D02*
X285965350Y-198857947D01*
X285965350Y-198857947D02*
X285841541Y-198796042D01*
X285841541Y-198796042D02*
X285593922Y-198796042D01*
X285593922Y-198796042D02*
X285470112Y-198857947D01*
X285470112Y-198857947D02*
X285408207Y-198919852D01*
X285408207Y-198919852D02*
X285346303Y-199043661D01*
X10000000Y-60000000D02*
X12000000Y-60000000D01*
X10000000Y-110000000D02*
X12000000Y-110000000D01*
X10000000Y-160000000D02*
X12000000Y-160000000D01*
X10690476Y-35222176D02*
X11309523Y-35222176D01*
X10566666Y-35593604D02*
X10999999Y-34293604D01*
X10999999Y-34293604D02*
X11433333Y-35593604D01*
X11092857Y-84912652D02*
X11278571Y-84974557D01*
X11278571Y-84974557D02*
X11340476Y-85036461D01*
X11340476Y-85036461D02*
X11402380Y-85160271D01*
X11402380Y-85160271D02*
X11402380Y-85345985D01*
X11402380Y-85345985D02*
X11340476Y-85469795D01*
X11340476Y-85469795D02*
X11278571Y-85531700D01*
X11278571Y-85531700D02*
X11154761Y-85593604D01*
X11154761Y-85593604D02*
X10659523Y-85593604D01*
X10659523Y-85593604D02*
X10659523Y-84293604D01*
X10659523Y-84293604D02*
X11092857Y-84293604D01*
X11092857Y-84293604D02*
X11216666Y-84355509D01*
X11216666Y-84355509D02*
X11278571Y-84417414D01*
X11278571Y-84417414D02*
X11340476Y-84541223D01*
X11340476Y-84541223D02*
X11340476Y-84665033D01*
X11340476Y-84665033D02*
X11278571Y-84788842D01*
X11278571Y-84788842D02*
X11216666Y-84850747D01*
X11216666Y-84850747D02*
X11092857Y-84912652D01*
X11092857Y-84912652D02*
X10659523Y-84912652D01*
X11402380Y-135469795D02*
X11340476Y-135531700D01*
X11340476Y-135531700D02*
X11154761Y-135593604D01*
X11154761Y-135593604D02*
X11030952Y-135593604D01*
X11030952Y-135593604D02*
X10845238Y-135531700D01*
X10845238Y-135531700D02*
X10721428Y-135407890D01*
X10721428Y-135407890D02*
X10659523Y-135284080D01*
X10659523Y-135284080D02*
X10597619Y-135036461D01*
X10597619Y-135036461D02*
X10597619Y-134850747D01*
X10597619Y-134850747D02*
X10659523Y-134603128D01*
X10659523Y-134603128D02*
X10721428Y-134479319D01*
X10721428Y-134479319D02*
X10845238Y-134355509D01*
X10845238Y-134355509D02*
X11030952Y-134293604D01*
X11030952Y-134293604D02*
X11154761Y-134293604D01*
X11154761Y-134293604D02*
X11340476Y-134355509D01*
X11340476Y-134355509D02*
X11402380Y-134417414D01*
X10659523Y-185593604D02*
X10659523Y-184293604D01*
X10659523Y-184293604D02*
X10969047Y-184293604D01*
X10969047Y-184293604D02*
X11154761Y-184355509D01*
X11154761Y-184355509D02*
X11278571Y-184479319D01*
X11278571Y-184479319D02*
X11340476Y-184603128D01*
X11340476Y-184603128D02*
X11402380Y-184850747D01*
X11402380Y-184850747D02*
X11402380Y-185036461D01*
X11402380Y-185036461D02*
X11340476Y-185284080D01*
X11340476Y-185284080D02*
X11278571Y-185407890D01*
X11278571Y-185407890D02*
X11154761Y-185531700D01*
X11154761Y-185531700D02*
X10969047Y-185593604D01*
X10969047Y-185593604D02*
X10659523Y-185593604D01*
X287002200Y-60000000D02*
X285002200Y-60000000D01*
X287002200Y-110000000D02*
X285002200Y-110000000D01*
X287002200Y-160000000D02*
X285002200Y-160000000D01*
X285692676Y-35222176D02*
X286311723Y-35222176D01*
X285568866Y-35593604D02*
X286002199Y-34293604D01*
X286002199Y-34293604D02*
X286435533Y-35593604D01*
X286095057Y-84912652D02*
X286280771Y-84974557D01*
X286280771Y-84974557D02*
X286342676Y-85036461D01*
X286342676Y-85036461D02*
X286404580Y-85160271D01*
X286404580Y-85160271D02*
X286404580Y-85345985D01*
X286404580Y-85345985D02*
X286342676Y-85469795D01*
X286342676Y-85469795D02*
X286280771Y-85531700D01*
X286280771Y-85531700D02*
X286156961Y-85593604D01*
X286156961Y-85593604D02*
X285661723Y-85593604D01*
X285661723Y-85593604D02*
X285661723Y-84293604D01*
X285661723Y-84293604D02*
X286095057Y-84293604D01*
X286095057Y-84293604D02*
X286218866Y-84355509D01*
X286218866Y-84355509D02*
X286280771Y-84417414D01*
X286280771Y-84417414D02*
X286342676Y-84541223D01*
X286342676Y-84541223D02*
X286342676Y-84665033D01*
X286342676Y-84665033D02*
X286280771Y-84788842D01*
X286280771Y-84788842D02*
X286218866Y-84850747D01*
X286218866Y-84850747D02*
X286095057Y-84912652D01*
X286095057Y-84912652D02*
X285661723Y-84912652D01*
X286404580Y-135469795D02*
X286342676Y-135531700D01*
X286342676Y-135531700D02*
X286156961Y-135593604D01*
X286156961Y-135593604D02*
X286033152Y-135593604D01*
X286033152Y-135593604D02*
X285847438Y-135531700D01*
X285847438Y-135531700D02*
X285723628Y-135407890D01*
X285723628Y-135407890D02*
X285661723Y-135284080D01*
X285661723Y-135284080D02*
X285599819Y-135036461D01*
X285599819Y-135036461D02*
X285599819Y-134850747D01*
X285599819Y-134850747D02*
X285661723Y-134603128D01*
X285661723Y-134603128D02*
X285723628Y-134479319D01*
X285723628Y-134479319D02*
X285847438Y-134355509D01*
X285847438Y-134355509D02*
X286033152Y-134293604D01*
X286033152Y-134293604D02*
X286156961Y-134293604D01*
X286156961Y-134293604D02*
X286342676Y-134355509D01*
X286342676Y-134355509D02*
X286404580Y-134417414D01*
X285661723Y-185593604D02*
X285661723Y-184293604D01*
X285661723Y-184293604D02*
X285971247Y-184293604D01*
X285971247Y-184293604D02*
X286156961Y-184355509D01*
X286156961Y-184355509D02*
X286280771Y-184479319D01*
X286280771Y-184479319D02*
X286342676Y-184603128D01*
X286342676Y-184603128D02*
X286404580Y-184850747D01*
X286404580Y-184850747D02*
X286404580Y-185036461D01*
X286404580Y-185036461D02*
X286342676Y-185284080D01*
X286342676Y-185284080D02*
X286280771Y-185407890D01*
X286280771Y-185407890D02*
X286156961Y-185531700D01*
X286156961Y-185531700D02*
X285971247Y-185593604D01*
X285971247Y-185593604D02*
X285661723Y-185593604D01*
X200458026Y-193793328D02*
X200458026Y-192293328D01*
X200458026Y-192293328D02*
X200815169Y-192293328D01*
X200815169Y-192293328D02*
X201029455Y-192364757D01*
X201029455Y-192364757D02*
X201172312Y-192507614D01*
X201172312Y-192507614D02*
X201243741Y-192650471D01*
X201243741Y-192650471D02*
X201315169Y-192936185D01*
X201315169Y-192936185D02*
X201315169Y-193150471D01*
X201315169Y-193150471D02*
X201243741Y-193436185D01*
X201243741Y-193436185D02*
X201172312Y-193579042D01*
X201172312Y-193579042D02*
X201029455Y-193721900D01*
X201029455Y-193721900D02*
X200815169Y-193793328D01*
X200815169Y-193793328D02*
X200458026Y-193793328D01*
X202600884Y-193793328D02*
X202600884Y-193007614D01*
X202600884Y-193007614D02*
X202529455Y-192864757D01*
X202529455Y-192864757D02*
X202386598Y-192793328D01*
X202386598Y-192793328D02*
X202100884Y-192793328D01*
X202100884Y-192793328D02*
X201958026Y-192864757D01*
X202600884Y-193721900D02*
X202458026Y-193793328D01*
X202458026Y-193793328D02*
X202100884Y-193793328D01*
X202100884Y-193793328D02*
X201958026Y-193721900D01*
X201958026Y-193721900D02*
X201886598Y-193579042D01*
X201886598Y-193579042D02*
X201886598Y-193436185D01*
X201886598Y-193436185D02*
X201958026Y-193293328D01*
X201958026Y-193293328D02*
X202100884Y-193221900D01*
X202100884Y-193221900D02*
X202458026Y-193221900D01*
X202458026Y-193221900D02*
X202600884Y-193150471D01*
X203100884Y-192793328D02*
X203672312Y-192793328D01*
X203315169Y-192293328D02*
X203315169Y-193579042D01*
X203315169Y-193579042D02*
X203386598Y-193721900D01*
X203386598Y-193721900D02*
X203529455Y-193793328D01*
X203529455Y-193793328D02*
X203672312Y-193793328D01*
X204743741Y-193721900D02*
X204600884Y-193793328D01*
X204600884Y-193793328D02*
X204315170Y-193793328D01*
X204315170Y-193793328D02*
X204172312Y-193721900D01*
X204172312Y-193721900D02*
X204100884Y-193579042D01*
X204100884Y-193579042D02*
X204100884Y-193007614D01*
X204100884Y-193007614D02*
X204172312Y-192864757D01*
X204172312Y-192864757D02*
X204315170Y-192793328D01*
X204315170Y-192793328D02*
X204600884Y-192793328D01*
X204600884Y-192793328D02*
X204743741Y-192864757D01*
X204743741Y-192864757D02*
X204815170Y-193007614D01*
X204815170Y-193007614D02*
X204815170Y-193150471D01*
X204815170Y-193150471D02*
X204100884Y-193293328D01*
X205458026Y-193650471D02*
X205529455Y-193721900D01*
X205529455Y-193721900D02*
X205458026Y-193793328D01*
X205458026Y-193793328D02*
X205386598Y-193721900D01*
X205386598Y-193721900D02*
X205458026Y-193650471D01*
X205458026Y-193650471D02*
X205458026Y-193793328D01*
X205458026Y-192864757D02*
X205529455Y-192936185D01*
X205529455Y-192936185D02*
X205458026Y-193007614D01*
X205458026Y-193007614D02*
X205386598Y-192936185D01*
X205386598Y-192936185D02*
X205458026Y-192864757D01*
X205458026Y-192864757D02*
X205458026Y-193007614D01*
X177002200Y-194507200D02*
X285002200Y-194507200D01*
X178458026Y-196593328D02*
X178458026Y-195093328D01*
X179315169Y-196593328D02*
X178672312Y-195736185D01*
X179315169Y-195093328D02*
X178458026Y-195950471D01*
X179958026Y-196593328D02*
X179958026Y-195593328D01*
X179958026Y-195093328D02*
X179886598Y-195164757D01*
X179886598Y-195164757D02*
X179958026Y-195236185D01*
X179958026Y-195236185D02*
X180029455Y-195164757D01*
X180029455Y-195164757D02*
X179958026Y-195093328D01*
X179958026Y-195093328D02*
X179958026Y-195236185D01*
X181529455Y-196450471D02*
X181458027Y-196521900D01*
X181458027Y-196521900D02*
X181243741Y-196593328D01*
X181243741Y-196593328D02*
X181100884Y-196593328D01*
X181100884Y-196593328D02*
X180886598Y-196521900D01*
X180886598Y-196521900D02*
X180743741Y-196379042D01*
X180743741Y-196379042D02*
X180672312Y-196236185D01*
X180672312Y-196236185D02*
X180600884Y-195950471D01*
X180600884Y-195950471D02*
X180600884Y-195736185D01*
X180600884Y-195736185D02*
X180672312Y-195450471D01*
X180672312Y-195450471D02*
X180743741Y-195307614D01*
X180743741Y-195307614D02*
X180886598Y-195164757D01*
X180886598Y-195164757D02*
X181100884Y-195093328D01*
X181100884Y-195093328D02*
X181243741Y-195093328D01*
X181243741Y-195093328D02*
X181458027Y-195164757D01*
X181458027Y-195164757D02*
X181529455Y-195236185D01*
X182815170Y-196593328D02*
X182815170Y-195807614D01*
X182815170Y-195807614D02*
X182743741Y-195664757D01*
X182743741Y-195664757D02*
X182600884Y-195593328D01*
X182600884Y-195593328D02*
X182315170Y-195593328D01*
X182315170Y-195593328D02*
X182172312Y-195664757D01*
X182815170Y-196521900D02*
X182672312Y-196593328D01*
X182672312Y-196593328D02*
X182315170Y-196593328D01*
X182315170Y-196593328D02*
X182172312Y-196521900D01*
X182172312Y-196521900D02*
X182100884Y-196379042D01*
X182100884Y-196379042D02*
X182100884Y-196236185D01*
X182100884Y-196236185D02*
X182172312Y-196093328D01*
X182172312Y-196093328D02*
X182315170Y-196021900D01*
X182315170Y-196021900D02*
X182672312Y-196021900D01*
X182672312Y-196021900D02*
X182815170Y-195950471D01*
X184172313Y-196593328D02*
X184172313Y-195093328D01*
X184172313Y-196521900D02*
X184029455Y-196593328D01*
X184029455Y-196593328D02*
X183743741Y-196593328D01*
X183743741Y-196593328D02*
X183600884Y-196521900D01*
X183600884Y-196521900D02*
X183529455Y-196450471D01*
X183529455Y-196450471D02*
X183458027Y-196307614D01*
X183458027Y-196307614D02*
X183458027Y-195879042D01*
X183458027Y-195879042D02*
X183529455Y-195736185D01*
X183529455Y-195736185D02*
X183600884Y-195664757D01*
X183600884Y-195664757D02*
X183743741Y-195593328D01*
X183743741Y-195593328D02*
X184029455Y-195593328D01*
X184029455Y-195593328D02*
X184172313Y-195664757D01*
X186029455Y-195807614D02*
X186529455Y-195807614D01*
X186743741Y-196593328D02*
X186029455Y-196593328D01*
X186029455Y-196593328D02*
X186029455Y-195093328D01*
X186029455Y-195093328D02*
X186743741Y-195093328D01*
X187386598Y-196450471D02*
X187458027Y-196521900D01*
X187458027Y-196521900D02*
X187386598Y-196593328D01*
X187386598Y-196593328D02*
X187315170Y-196521900D01*
X187315170Y-196521900D02*
X187386598Y-196450471D01*
X187386598Y-196450471D02*
X187386598Y-196593328D01*
X188100884Y-196593328D02*
X188100884Y-195093328D01*
X188100884Y-195093328D02*
X188458027Y-195093328D01*
X188458027Y-195093328D02*
X188672313Y-195164757D01*
X188672313Y-195164757D02*
X188815170Y-195307614D01*
X188815170Y-195307614D02*
X188886599Y-195450471D01*
X188886599Y-195450471D02*
X188958027Y-195736185D01*
X188958027Y-195736185D02*
X188958027Y-195950471D01*
X188958027Y-195950471D02*
X188886599Y-196236185D01*
X188886599Y-196236185D02*
X188815170Y-196379042D01*
X188815170Y-196379042D02*
X188672313Y-196521900D01*
X188672313Y-196521900D02*
X188458027Y-196593328D01*
X188458027Y-196593328D02*
X188100884Y-196593328D01*
X189600884Y-196450471D02*
X189672313Y-196521900D01*
X189672313Y-196521900D02*
X189600884Y-196593328D01*
X189600884Y-196593328D02*
X189529456Y-196521900D01*
X189529456Y-196521900D02*
X189600884Y-196450471D01*
X189600884Y-196450471D02*
X189600884Y-196593328D01*
X190243742Y-196164757D02*
X190958028Y-196164757D01*
X190100885Y-196593328D02*
X190600885Y-195093328D01*
X190600885Y-195093328D02*
X191100885Y-196593328D01*
X191600884Y-196450471D02*
X191672313Y-196521900D01*
X191672313Y-196521900D02*
X191600884Y-196593328D01*
X191600884Y-196593328D02*
X191529456Y-196521900D01*
X191529456Y-196521900D02*
X191600884Y-196450471D01*
X191600884Y-196450471D02*
X191600884Y-196593328D01*
X194243742Y-196593328D02*
X193386599Y-196593328D01*
X193815170Y-196593328D02*
X193815170Y-195093328D01*
X193815170Y-195093328D02*
X193672313Y-195307614D01*
X193672313Y-195307614D02*
X193529456Y-195450471D01*
X193529456Y-195450471D02*
X193386599Y-195521900D01*
X195172313Y-195093328D02*
X195315170Y-195093328D01*
X195315170Y-195093328D02*
X195458027Y-195164757D01*
X195458027Y-195164757D02*
X195529456Y-195236185D01*
X195529456Y-195236185D02*
X195600884Y-195379042D01*
X195600884Y-195379042D02*
X195672313Y-195664757D01*
X195672313Y-195664757D02*
X195672313Y-196021900D01*
X195672313Y-196021900D02*
X195600884Y-196307614D01*
X195600884Y-196307614D02*
X195529456Y-196450471D01*
X195529456Y-196450471D02*
X195458027Y-196521900D01*
X195458027Y-196521900D02*
X195315170Y-196593328D01*
X195315170Y-196593328D02*
X195172313Y-196593328D01*
X195172313Y-196593328D02*
X195029456Y-196521900D01*
X195029456Y-196521900D02*
X194958027Y-196450471D01*
X194958027Y-196450471D02*
X194886598Y-196307614D01*
X194886598Y-196307614D02*
X194815170Y-196021900D01*
X194815170Y-196021900D02*
X194815170Y-195664757D01*
X194815170Y-195664757D02*
X194886598Y-195379042D01*
X194886598Y-195379042D02*
X194958027Y-195236185D01*
X194958027Y-195236185D02*
X195029456Y-195164757D01*
X195029456Y-195164757D02*
X195172313Y-195093328D01*
X196315169Y-196450471D02*
X196386598Y-196521900D01*
X196386598Y-196521900D02*
X196315169Y-196593328D01*
X196315169Y-196593328D02*
X196243741Y-196521900D01*
X196243741Y-196521900D02*
X196315169Y-196450471D01*
X196315169Y-196450471D02*
X196315169Y-196593328D01*
X197315170Y-195093328D02*
X197458027Y-195093328D01*
X197458027Y-195093328D02*
X197600884Y-195164757D01*
X197600884Y-195164757D02*
X197672313Y-195236185D01*
X197672313Y-195236185D02*
X197743741Y-195379042D01*
X197743741Y-195379042D02*
X197815170Y-195664757D01*
X197815170Y-195664757D02*
X197815170Y-196021900D01*
X197815170Y-196021900D02*
X197743741Y-196307614D01*
X197743741Y-196307614D02*
X197672313Y-196450471D01*
X197672313Y-196450471D02*
X197600884Y-196521900D01*
X197600884Y-196521900D02*
X197458027Y-196593328D01*
X197458027Y-196593328D02*
X197315170Y-196593328D01*
X197315170Y-196593328D02*
X197172313Y-196521900D01*
X197172313Y-196521900D02*
X197100884Y-196450471D01*
X197100884Y-196450471D02*
X197029455Y-196307614D01*
X197029455Y-196307614D02*
X196958027Y-196021900D01*
X196958027Y-196021900D02*
X196958027Y-195664757D01*
X196958027Y-195664757D02*
X197029455Y-195379042D01*
X197029455Y-195379042D02*
X197100884Y-195236185D01*
X197100884Y-195236185D02*
X197172313Y-195164757D01*
X197172313Y-195164757D02*
X197315170Y-195093328D01*
X198458026Y-196450471D02*
X198529455Y-196521900D01*
X198529455Y-196521900D02*
X198458026Y-196593328D01*
X198458026Y-196593328D02*
X198386598Y-196521900D01*
X198386598Y-196521900D02*
X198458026Y-196450471D01*
X198458026Y-196450471D02*
X198458026Y-196593328D01*
X199815170Y-195593328D02*
X199815170Y-196593328D01*
X199458027Y-195021900D02*
X199100884Y-196093328D01*
X199100884Y-196093328D02*
X200029455Y-196093328D01*
X177002200Y-191507200D02*
X285002200Y-191507200D01*
D11*
X264413853Y-193785528D02*
X263913853Y-193071242D01*
X263556710Y-193785528D02*
X263556710Y-192285528D01*
X263556710Y-192285528D02*
X264128139Y-192285528D01*
X264128139Y-192285528D02*
X264270996Y-192356957D01*
X264270996Y-192356957D02*
X264342425Y-192428385D01*
X264342425Y-192428385D02*
X264413853Y-192571242D01*
X264413853Y-192571242D02*
X264413853Y-192785528D01*
X264413853Y-192785528D02*
X264342425Y-192928385D01*
X264342425Y-192928385D02*
X264270996Y-192999814D01*
X264270996Y-192999814D02*
X264128139Y-193071242D01*
X264128139Y-193071242D02*
X263556710Y-193071242D01*
X265628139Y-193714100D02*
X265485282Y-193785528D01*
X265485282Y-193785528D02*
X265199568Y-193785528D01*
X265199568Y-193785528D02*
X265056710Y-193714100D01*
X265056710Y-193714100D02*
X264985282Y-193571242D01*
X264985282Y-193571242D02*
X264985282Y-192999814D01*
X264985282Y-192999814D02*
X265056710Y-192856957D01*
X265056710Y-192856957D02*
X265199568Y-192785528D01*
X265199568Y-192785528D02*
X265485282Y-192785528D01*
X265485282Y-192785528D02*
X265628139Y-192856957D01*
X265628139Y-192856957D02*
X265699568Y-192999814D01*
X265699568Y-192999814D02*
X265699568Y-193142671D01*
X265699568Y-193142671D02*
X264985282Y-193285528D01*
X266199567Y-192785528D02*
X266556710Y-193785528D01*
X266556710Y-193785528D02*
X266913853Y-192785528D01*
X267485281Y-193642671D02*
X267556710Y-193714100D01*
X267556710Y-193714100D02*
X267485281Y-193785528D01*
X267485281Y-193785528D02*
X267413853Y-193714100D01*
X267413853Y-193714100D02*
X267485281Y-193642671D01*
X267485281Y-193642671D02*
X267485281Y-193785528D01*
X267485281Y-192856957D02*
X267556710Y-192928385D01*
X267556710Y-192928385D02*
X267485281Y-192999814D01*
X267485281Y-192999814D02*
X267413853Y-192928385D01*
X267413853Y-192928385D02*
X267485281Y-192856957D01*
X267485281Y-192856957D02*
X267485281Y-192999814D01*
D10*
X178386598Y-193721900D02*
X178600884Y-193793328D01*
X178600884Y-193793328D02*
X178958026Y-193793328D01*
X178958026Y-193793328D02*
X179100884Y-193721900D01*
X179100884Y-193721900D02*
X179172312Y-193650471D01*
X179172312Y-193650471D02*
X179243741Y-193507614D01*
X179243741Y-193507614D02*
X179243741Y-193364757D01*
X179243741Y-193364757D02*
X179172312Y-193221900D01*
X179172312Y-193221900D02*
X179100884Y-193150471D01*
X179100884Y-193150471D02*
X178958026Y-193079042D01*
X178958026Y-193079042D02*
X178672312Y-193007614D01*
X178672312Y-193007614D02*
X178529455Y-192936185D01*
X178529455Y-192936185D02*
X178458026Y-192864757D01*
X178458026Y-192864757D02*
X178386598Y-192721900D01*
X178386598Y-192721900D02*
X178386598Y-192579042D01*
X178386598Y-192579042D02*
X178458026Y-192436185D01*
X178458026Y-192436185D02*
X178529455Y-192364757D01*
X178529455Y-192364757D02*
X178672312Y-192293328D01*
X178672312Y-192293328D02*
X179029455Y-192293328D01*
X179029455Y-192293328D02*
X179243741Y-192364757D01*
X179886597Y-193793328D02*
X179886597Y-192793328D01*
X179886597Y-192293328D02*
X179815169Y-192364757D01*
X179815169Y-192364757D02*
X179886597Y-192436185D01*
X179886597Y-192436185D02*
X179958026Y-192364757D01*
X179958026Y-192364757D02*
X179886597Y-192293328D01*
X179886597Y-192293328D02*
X179886597Y-192436185D01*
X180458026Y-192793328D02*
X181243741Y-192793328D01*
X181243741Y-192793328D02*
X180458026Y-193793328D01*
X180458026Y-193793328D02*
X181243741Y-193793328D01*
X182386598Y-193721900D02*
X182243741Y-193793328D01*
X182243741Y-193793328D02*
X181958027Y-193793328D01*
X181958027Y-193793328D02*
X181815169Y-193721900D01*
X181815169Y-193721900D02*
X181743741Y-193579042D01*
X181743741Y-193579042D02*
X181743741Y-193007614D01*
X181743741Y-193007614D02*
X181815169Y-192864757D01*
X181815169Y-192864757D02*
X181958027Y-192793328D01*
X181958027Y-192793328D02*
X182243741Y-192793328D01*
X182243741Y-192793328D02*
X182386598Y-192864757D01*
X182386598Y-192864757D02*
X182458027Y-193007614D01*
X182458027Y-193007614D02*
X182458027Y-193150471D01*
X182458027Y-193150471D02*
X181743741Y-193293328D01*
X183100883Y-193650471D02*
X183172312Y-193721900D01*
X183172312Y-193721900D02*
X183100883Y-193793328D01*
X183100883Y-193793328D02*
X183029455Y-193721900D01*
X183029455Y-193721900D02*
X183100883Y-193650471D01*
X183100883Y-193650471D02*
X183100883Y-193793328D01*
X183100883Y-192864757D02*
X183172312Y-192936185D01*
X183172312Y-192936185D02*
X183100883Y-193007614D01*
X183100883Y-193007614D02*
X183029455Y-192936185D01*
X183029455Y-192936185D02*
X183100883Y-192864757D01*
X183100883Y-192864757D02*
X183100883Y-193007614D01*
X184886598Y-193364757D02*
X185600884Y-193364757D01*
X184743741Y-193793328D02*
X185243741Y-192293328D01*
X185243741Y-192293328D02*
X185743741Y-193793328D01*
X186886598Y-192793328D02*
X186886598Y-193793328D01*
X186529455Y-192221900D02*
X186172312Y-193293328D01*
X186172312Y-193293328D02*
X187100883Y-193293328D01*
X263458026Y-196593328D02*
X263458026Y-195093328D01*
X264815170Y-196593328D02*
X264815170Y-195093328D01*
X264815170Y-196521900D02*
X264672312Y-196593328D01*
X264672312Y-196593328D02*
X264386598Y-196593328D01*
X264386598Y-196593328D02*
X264243741Y-196521900D01*
X264243741Y-196521900D02*
X264172312Y-196450471D01*
X264172312Y-196450471D02*
X264100884Y-196307614D01*
X264100884Y-196307614D02*
X264100884Y-195879042D01*
X264100884Y-195879042D02*
X264172312Y-195736185D01*
X264172312Y-195736185D02*
X264243741Y-195664757D01*
X264243741Y-195664757D02*
X264386598Y-195593328D01*
X264386598Y-195593328D02*
X264672312Y-195593328D01*
X264672312Y-195593328D02*
X264815170Y-195664757D01*
X265529455Y-196450471D02*
X265600884Y-196521900D01*
X265600884Y-196521900D02*
X265529455Y-196593328D01*
X265529455Y-196593328D02*
X265458027Y-196521900D01*
X265458027Y-196521900D02*
X265529455Y-196450471D01*
X265529455Y-196450471D02*
X265529455Y-196593328D01*
X265529455Y-195664757D02*
X265600884Y-195736185D01*
X265600884Y-195736185D02*
X265529455Y-195807614D01*
X265529455Y-195807614D02*
X265458027Y-195736185D01*
X265458027Y-195736185D02*
X265529455Y-195664757D01*
X265529455Y-195664757D02*
X265529455Y-195807614D01*
X267600884Y-195736185D02*
X267458027Y-195664757D01*
X267458027Y-195664757D02*
X267386598Y-195593328D01*
X267386598Y-195593328D02*
X267315170Y-195450471D01*
X267315170Y-195450471D02*
X267315170Y-195379042D01*
X267315170Y-195379042D02*
X267386598Y-195236185D01*
X267386598Y-195236185D02*
X267458027Y-195164757D01*
X267458027Y-195164757D02*
X267600884Y-195093328D01*
X267600884Y-195093328D02*
X267886598Y-195093328D01*
X267886598Y-195093328D02*
X268029456Y-195164757D01*
X268029456Y-195164757D02*
X268100884Y-195236185D01*
X268100884Y-195236185D02*
X268172313Y-195379042D01*
X268172313Y-195379042D02*
X268172313Y-195450471D01*
X268172313Y-195450471D02*
X268100884Y-195593328D01*
X268100884Y-195593328D02*
X268029456Y-195664757D01*
X268029456Y-195664757D02*
X267886598Y-195736185D01*
X267886598Y-195736185D02*
X267600884Y-195736185D01*
X267600884Y-195736185D02*
X267458027Y-195807614D01*
X267458027Y-195807614D02*
X267386598Y-195879042D01*
X267386598Y-195879042D02*
X267315170Y-196021900D01*
X267315170Y-196021900D02*
X267315170Y-196307614D01*
X267315170Y-196307614D02*
X267386598Y-196450471D01*
X267386598Y-196450471D02*
X267458027Y-196521900D01*
X267458027Y-196521900D02*
X267600884Y-196593328D01*
X267600884Y-196593328D02*
X267886598Y-196593328D01*
X267886598Y-196593328D02*
X268029456Y-196521900D01*
X268029456Y-196521900D02*
X268100884Y-196450471D01*
X268100884Y-196450471D02*
X268172313Y-196307614D01*
X268172313Y-196307614D02*
X268172313Y-196021900D01*
X268172313Y-196021900D02*
X268100884Y-195879042D01*
X268100884Y-195879042D02*
X268029456Y-195807614D01*
X268029456Y-195807614D02*
X267886598Y-195736185D01*
X269886598Y-195021900D02*
X268600884Y-196950471D01*
X270458027Y-196593328D02*
X270743741Y-196593328D01*
X270743741Y-196593328D02*
X270886598Y-196521900D01*
X270886598Y-196521900D02*
X270958027Y-196450471D01*
X270958027Y-196450471D02*
X271100884Y-196236185D01*
X271100884Y-196236185D02*
X271172313Y-195950471D01*
X271172313Y-195950471D02*
X271172313Y-195379042D01*
X271172313Y-195379042D02*
X271100884Y-195236185D01*
X271100884Y-195236185D02*
X271029456Y-195164757D01*
X271029456Y-195164757D02*
X270886598Y-195093328D01*
X270886598Y-195093328D02*
X270600884Y-195093328D01*
X270600884Y-195093328D02*
X270458027Y-195164757D01*
X270458027Y-195164757D02*
X270386598Y-195236185D01*
X270386598Y-195236185D02*
X270315170Y-195379042D01*
X270315170Y-195379042D02*
X270315170Y-195736185D01*
X270315170Y-195736185D02*
X270386598Y-195879042D01*
X270386598Y-195879042D02*
X270458027Y-195950471D01*
X270458027Y-195950471D02*
X270600884Y-196021900D01*
X270600884Y-196021900D02*
X270886598Y-196021900D01*
X270886598Y-196021900D02*
X271029456Y-195950471D01*
X271029456Y-195950471D02*
X271100884Y-195879042D01*
X271100884Y-195879042D02*
X271172313Y-195736185D01*
X177002200Y-187507200D02*
X285002200Y-187507200D01*
D12*
X178693928Y-188211638D02*
X179836785Y-188211638D01*
X179015357Y-190211638D02*
X179265357Y-188211638D01*
X180253452Y-190211638D02*
X180420119Y-188878304D01*
X180503452Y-188211638D02*
X180396309Y-188306876D01*
X180396309Y-188306876D02*
X180479643Y-188402114D01*
X180479643Y-188402114D02*
X180586786Y-188306876D01*
X180586786Y-188306876D02*
X180503452Y-188211638D01*
X180503452Y-188211638D02*
X180479643Y-188402114D01*
X181086786Y-188878304D02*
X181848690Y-188878304D01*
X181455833Y-188211638D02*
X181241548Y-189925923D01*
X181241548Y-189925923D02*
X181312976Y-190116400D01*
X181312976Y-190116400D02*
X181491548Y-190211638D01*
X181491548Y-190211638D02*
X181682024Y-190211638D01*
X182634405Y-190211638D02*
X182455833Y-190116400D01*
X182455833Y-190116400D02*
X182384405Y-189925923D01*
X182384405Y-189925923D02*
X182598690Y-188211638D01*
X184170119Y-190116400D02*
X183967738Y-190211638D01*
X183967738Y-190211638D02*
X183586785Y-190211638D01*
X183586785Y-190211638D02*
X183408214Y-190116400D01*
X183408214Y-190116400D02*
X183336785Y-189925923D01*
X183336785Y-189925923D02*
X183432024Y-189164019D01*
X183432024Y-189164019D02*
X183551071Y-188973542D01*
X183551071Y-188973542D02*
X183753452Y-188878304D01*
X183753452Y-188878304D02*
X184134404Y-188878304D01*
X184134404Y-188878304D02*
X184312976Y-188973542D01*
X184312976Y-188973542D02*
X184384404Y-189164019D01*
X184384404Y-189164019D02*
X184360595Y-189354495D01*
X184360595Y-189354495D02*
X183384404Y-189544971D01*
X185134405Y-190021161D02*
X185217738Y-190116400D01*
X185217738Y-190116400D02*
X185110595Y-190211638D01*
X185110595Y-190211638D02*
X185027262Y-190116400D01*
X185027262Y-190116400D02*
X185134405Y-190021161D01*
X185134405Y-190021161D02*
X185110595Y-190211638D01*
X185265357Y-188973542D02*
X185348690Y-189068780D01*
X185348690Y-189068780D02*
X185241548Y-189164019D01*
X185241548Y-189164019D02*
X185158214Y-189068780D01*
X185158214Y-189068780D02*
X185265357Y-188973542D01*
X185265357Y-188973542D02*
X185241548Y-189164019D01*
X187586786Y-190211638D02*
X187836786Y-188211638D01*
X187836786Y-188211638D02*
X188598691Y-188211638D01*
X188598691Y-188211638D02*
X188777262Y-188306876D01*
X188777262Y-188306876D02*
X188860596Y-188402114D01*
X188860596Y-188402114D02*
X188932024Y-188592590D01*
X188932024Y-188592590D02*
X188896310Y-188878304D01*
X188896310Y-188878304D02*
X188777262Y-189068780D01*
X188777262Y-189068780D02*
X188670120Y-189164019D01*
X188670120Y-189164019D02*
X188467739Y-189259257D01*
X188467739Y-189259257D02*
X187705834Y-189259257D01*
X189586786Y-190211638D02*
X189836786Y-188211638D01*
X189836786Y-188211638D02*
X190312977Y-188211638D01*
X190312977Y-188211638D02*
X190586786Y-188306876D01*
X190586786Y-188306876D02*
X190753453Y-188497352D01*
X190753453Y-188497352D02*
X190824881Y-188687828D01*
X190824881Y-188687828D02*
X190872501Y-189068780D01*
X190872501Y-189068780D02*
X190836786Y-189354495D01*
X190836786Y-189354495D02*
X190693929Y-189735447D01*
X190693929Y-189735447D02*
X190574881Y-189925923D01*
X190574881Y-189925923D02*
X190360596Y-190116400D01*
X190360596Y-190116400D02*
X190062977Y-190211638D01*
X190062977Y-190211638D02*
X189586786Y-190211638D01*
X192384405Y-189164019D02*
X192658215Y-189259257D01*
X192658215Y-189259257D02*
X192741548Y-189354495D01*
X192741548Y-189354495D02*
X192812977Y-189544971D01*
X192812977Y-189544971D02*
X192777262Y-189830685D01*
X192777262Y-189830685D02*
X192658215Y-190021161D01*
X192658215Y-190021161D02*
X192551072Y-190116400D01*
X192551072Y-190116400D02*
X192348691Y-190211638D01*
X192348691Y-190211638D02*
X191586786Y-190211638D01*
X191586786Y-190211638D02*
X191836786Y-188211638D01*
X191836786Y-188211638D02*
X192503453Y-188211638D01*
X192503453Y-188211638D02*
X192682024Y-188306876D01*
X192682024Y-188306876D02*
X192765358Y-188402114D01*
X192765358Y-188402114D02*
X192836786Y-188592590D01*
X192836786Y-188592590D02*
X192812977Y-188783066D01*
X192812977Y-188783066D02*
X192693929Y-188973542D01*
X192693929Y-188973542D02*
X192586786Y-189068780D01*
X192586786Y-189068780D02*
X192384405Y-189164019D01*
X192384405Y-189164019D02*
X191717739Y-189164019D01*
X193682024Y-189449733D02*
X195205834Y-189449733D01*
X196062976Y-190211638D02*
X196312976Y-188211638D01*
X196193929Y-189164019D02*
X197336786Y-189164019D01*
X197205833Y-190211638D02*
X197455833Y-188211638D01*
X198932024Y-190116400D02*
X198729643Y-190211638D01*
X198729643Y-190211638D02*
X198348690Y-190211638D01*
X198348690Y-190211638D02*
X198170119Y-190116400D01*
X198170119Y-190116400D02*
X198098690Y-189925923D01*
X198098690Y-189925923D02*
X198193929Y-189164019D01*
X198193929Y-189164019D02*
X198312976Y-188973542D01*
X198312976Y-188973542D02*
X198515357Y-188878304D01*
X198515357Y-188878304D02*
X198896309Y-188878304D01*
X198896309Y-188878304D02*
X199074881Y-188973542D01*
X199074881Y-188973542D02*
X199146309Y-189164019D01*
X199146309Y-189164019D02*
X199122500Y-189354495D01*
X199122500Y-189354495D02*
X198146309Y-189544971D01*
X199682024Y-190211638D02*
X200896310Y-188878304D01*
X199848691Y-188878304D02*
X200729643Y-190211638D01*
X202348691Y-190211638D02*
X202479643Y-189164019D01*
X202479643Y-189164019D02*
X202408215Y-188973542D01*
X202408215Y-188973542D02*
X202229643Y-188878304D01*
X202229643Y-188878304D02*
X201848691Y-188878304D01*
X201848691Y-188878304D02*
X201646310Y-188973542D01*
X202360596Y-190116400D02*
X202158215Y-190211638D01*
X202158215Y-190211638D02*
X201682024Y-190211638D01*
X201682024Y-190211638D02*
X201503453Y-190116400D01*
X201503453Y-190116400D02*
X201432024Y-189925923D01*
X201432024Y-189925923D02*
X201455834Y-189735447D01*
X201455834Y-189735447D02*
X201574882Y-189544971D01*
X201574882Y-189544971D02*
X201777263Y-189449733D01*
X201777263Y-189449733D02*
X202253453Y-189449733D01*
X202253453Y-189449733D02*
X202455834Y-189354495D01*
X203586787Y-190211638D02*
X203408215Y-190116400D01*
X203408215Y-190116400D02*
X203336787Y-189925923D01*
X203336787Y-189925923D02*
X203551072Y-188211638D01*
X204348691Y-190211638D02*
X204515358Y-188878304D01*
X204598691Y-188211638D02*
X204491548Y-188306876D01*
X204491548Y-188306876D02*
X204574882Y-188402114D01*
X204574882Y-188402114D02*
X204682025Y-188306876D01*
X204682025Y-188306876D02*
X204598691Y-188211638D01*
X204598691Y-188211638D02*
X204574882Y-188402114D01*
X205182025Y-188878304D02*
X205943929Y-188878304D01*
X205301072Y-190211638D02*
X205515358Y-188497352D01*
X205515358Y-188497352D02*
X205634406Y-188306876D01*
X205634406Y-188306876D02*
X205836787Y-188211638D01*
X205836787Y-188211638D02*
X206027263Y-188211638D01*
X206324882Y-188878304D02*
X207086786Y-188878304D01*
X206693929Y-188211638D02*
X206479644Y-189925923D01*
X206479644Y-189925923D02*
X206551072Y-190116400D01*
X206551072Y-190116400D02*
X206729644Y-190211638D01*
X206729644Y-190211638D02*
X206920120Y-190211638D01*
D10*
X178958026Y-185607614D02*
X178458026Y-185607614D01*
X178458026Y-186393328D02*
X178458026Y-184893328D01*
X178458026Y-184893328D02*
X179172312Y-184893328D01*
X179743740Y-186393328D02*
X179743740Y-185393328D01*
X179743740Y-184893328D02*
X179672312Y-184964757D01*
X179672312Y-184964757D02*
X179743740Y-185036185D01*
X179743740Y-185036185D02*
X179815169Y-184964757D01*
X179815169Y-184964757D02*
X179743740Y-184893328D01*
X179743740Y-184893328D02*
X179743740Y-185036185D01*
X180672312Y-186393328D02*
X180529455Y-186321900D01*
X180529455Y-186321900D02*
X180458026Y-186179042D01*
X180458026Y-186179042D02*
X180458026Y-184893328D01*
X181815169Y-186321900D02*
X181672312Y-186393328D01*
X181672312Y-186393328D02*
X181386598Y-186393328D01*
X181386598Y-186393328D02*
X181243740Y-186321900D01*
X181243740Y-186321900D02*
X181172312Y-186179042D01*
X181172312Y-186179042D02*
X181172312Y-185607614D01*
X181172312Y-185607614D02*
X181243740Y-185464757D01*
X181243740Y-185464757D02*
X181386598Y-185393328D01*
X181386598Y-185393328D02*
X181672312Y-185393328D01*
X181672312Y-185393328D02*
X181815169Y-185464757D01*
X181815169Y-185464757D02*
X181886598Y-185607614D01*
X181886598Y-185607614D02*
X181886598Y-185750471D01*
X181886598Y-185750471D02*
X181172312Y-185893328D01*
X182529454Y-186250471D02*
X182600883Y-186321900D01*
X182600883Y-186321900D02*
X182529454Y-186393328D01*
X182529454Y-186393328D02*
X182458026Y-186321900D01*
X182458026Y-186321900D02*
X182529454Y-186250471D01*
X182529454Y-186250471D02*
X182529454Y-186393328D01*
X182529454Y-185464757D02*
X182600883Y-185536185D01*
X182600883Y-185536185D02*
X182529454Y-185607614D01*
X182529454Y-185607614D02*
X182458026Y-185536185D01*
X182458026Y-185536185D02*
X182529454Y-185464757D01*
X182529454Y-185464757D02*
X182529454Y-185607614D01*
X184386597Y-185393328D02*
X184386597Y-186893328D01*
X184386597Y-185464757D02*
X184529455Y-185393328D01*
X184529455Y-185393328D02*
X184815169Y-185393328D01*
X184815169Y-185393328D02*
X184958026Y-185464757D01*
X184958026Y-185464757D02*
X185029455Y-185536185D01*
X185029455Y-185536185D02*
X185100883Y-185679042D01*
X185100883Y-185679042D02*
X185100883Y-186107614D01*
X185100883Y-186107614D02*
X185029455Y-186250471D01*
X185029455Y-186250471D02*
X184958026Y-186321900D01*
X184958026Y-186321900D02*
X184815169Y-186393328D01*
X184815169Y-186393328D02*
X184529455Y-186393328D01*
X184529455Y-186393328D02*
X184386597Y-186321900D01*
X186386598Y-186393328D02*
X186386598Y-184893328D01*
X186386598Y-186321900D02*
X186243740Y-186393328D01*
X186243740Y-186393328D02*
X185958026Y-186393328D01*
X185958026Y-186393328D02*
X185815169Y-186321900D01*
X185815169Y-186321900D02*
X185743740Y-186250471D01*
X185743740Y-186250471D02*
X185672312Y-186107614D01*
X185672312Y-186107614D02*
X185672312Y-185679042D01*
X185672312Y-185679042D02*
X185743740Y-185536185D01*
X185743740Y-185536185D02*
X185815169Y-185464757D01*
X185815169Y-185464757D02*
X185958026Y-185393328D01*
X185958026Y-185393328D02*
X186243740Y-185393328D01*
X186243740Y-185393328D02*
X186386598Y-185464757D01*
X187100883Y-186393328D02*
X187100883Y-184893328D01*
X187100883Y-185464757D02*
X187243741Y-185393328D01*
X187243741Y-185393328D02*
X187529455Y-185393328D01*
X187529455Y-185393328D02*
X187672312Y-185464757D01*
X187672312Y-185464757D02*
X187743741Y-185536185D01*
X187743741Y-185536185D02*
X187815169Y-185679042D01*
X187815169Y-185679042D02*
X187815169Y-186107614D01*
X187815169Y-186107614D02*
X187743741Y-186250471D01*
X187743741Y-186250471D02*
X187672312Y-186321900D01*
X187672312Y-186321900D02*
X187529455Y-186393328D01*
X187529455Y-186393328D02*
X187243741Y-186393328D01*
X187243741Y-186393328D02*
X187100883Y-186321900D01*
X188458026Y-186250471D02*
X188529455Y-186321900D01*
X188529455Y-186321900D02*
X188458026Y-186393328D01*
X188458026Y-186393328D02*
X188386598Y-186321900D01*
X188386598Y-186321900D02*
X188458026Y-186250471D01*
X188458026Y-186250471D02*
X188458026Y-186393328D01*
X189172312Y-186393328D02*
X189172312Y-184893328D01*
X189315170Y-185821900D02*
X189743741Y-186393328D01*
X189743741Y-185393328D02*
X189172312Y-185964757D01*
X190386598Y-186393328D02*
X190386598Y-185393328D01*
X190386598Y-184893328D02*
X190315170Y-184964757D01*
X190315170Y-184964757D02*
X190386598Y-185036185D01*
X190386598Y-185036185D02*
X190458027Y-184964757D01*
X190458027Y-184964757D02*
X190386598Y-184893328D01*
X190386598Y-184893328D02*
X190386598Y-185036185D01*
X191743742Y-186321900D02*
X191600884Y-186393328D01*
X191600884Y-186393328D02*
X191315170Y-186393328D01*
X191315170Y-186393328D02*
X191172313Y-186321900D01*
X191172313Y-186321900D02*
X191100884Y-186250471D01*
X191100884Y-186250471D02*
X191029456Y-186107614D01*
X191029456Y-186107614D02*
X191029456Y-185679042D01*
X191029456Y-185679042D02*
X191100884Y-185536185D01*
X191100884Y-185536185D02*
X191172313Y-185464757D01*
X191172313Y-185464757D02*
X191315170Y-185393328D01*
X191315170Y-185393328D02*
X191600884Y-185393328D01*
X191600884Y-185393328D02*
X191743742Y-185464757D01*
X193029456Y-186393328D02*
X193029456Y-185607614D01*
X193029456Y-185607614D02*
X192958027Y-185464757D01*
X192958027Y-185464757D02*
X192815170Y-185393328D01*
X192815170Y-185393328D02*
X192529456Y-185393328D01*
X192529456Y-185393328D02*
X192386598Y-185464757D01*
X193029456Y-186321900D02*
X192886598Y-186393328D01*
X192886598Y-186393328D02*
X192529456Y-186393328D01*
X192529456Y-186393328D02*
X192386598Y-186321900D01*
X192386598Y-186321900D02*
X192315170Y-186179042D01*
X192315170Y-186179042D02*
X192315170Y-186036185D01*
X192315170Y-186036185D02*
X192386598Y-185893328D01*
X192386598Y-185893328D02*
X192529456Y-185821900D01*
X192529456Y-185821900D02*
X192886598Y-185821900D01*
X192886598Y-185821900D02*
X193029456Y-185750471D01*
X194386599Y-186393328D02*
X194386599Y-184893328D01*
X194386599Y-186321900D02*
X194243741Y-186393328D01*
X194243741Y-186393328D02*
X193958027Y-186393328D01*
X193958027Y-186393328D02*
X193815170Y-186321900D01*
X193815170Y-186321900D02*
X193743741Y-186250471D01*
X193743741Y-186250471D02*
X193672313Y-186107614D01*
X193672313Y-186107614D02*
X193672313Y-185679042D01*
X193672313Y-185679042D02*
X193743741Y-185536185D01*
X193743741Y-185536185D02*
X193815170Y-185464757D01*
X193815170Y-185464757D02*
X193958027Y-185393328D01*
X193958027Y-185393328D02*
X194243741Y-185393328D01*
X194243741Y-185393328D02*
X194386599Y-185464757D01*
X194743742Y-186536185D02*
X195886599Y-186536185D01*
X196243741Y-185393328D02*
X196243741Y-186893328D01*
X196243741Y-185464757D02*
X196386599Y-185393328D01*
X196386599Y-185393328D02*
X196672313Y-185393328D01*
X196672313Y-185393328D02*
X196815170Y-185464757D01*
X196815170Y-185464757D02*
X196886599Y-185536185D01*
X196886599Y-185536185D02*
X196958027Y-185679042D01*
X196958027Y-185679042D02*
X196958027Y-186107614D01*
X196958027Y-186107614D02*
X196886599Y-186250471D01*
X196886599Y-186250471D02*
X196815170Y-186321900D01*
X196815170Y-186321900D02*
X196672313Y-186393328D01*
X196672313Y-186393328D02*
X196386599Y-186393328D01*
X196386599Y-186393328D02*
X196243741Y-186321900D01*
X198243742Y-186321900D02*
X198100884Y-186393328D01*
X198100884Y-186393328D02*
X197815170Y-186393328D01*
X197815170Y-186393328D02*
X197672313Y-186321900D01*
X197672313Y-186321900D02*
X197600884Y-186250471D01*
X197600884Y-186250471D02*
X197529456Y-186107614D01*
X197529456Y-186107614D02*
X197529456Y-185679042D01*
X197529456Y-185679042D02*
X197600884Y-185536185D01*
X197600884Y-185536185D02*
X197672313Y-185464757D01*
X197672313Y-185464757D02*
X197815170Y-185393328D01*
X197815170Y-185393328D02*
X198100884Y-185393328D01*
X198100884Y-185393328D02*
X198243742Y-185464757D01*
X198886598Y-186393328D02*
X198886598Y-184893328D01*
X198886598Y-185464757D02*
X199029456Y-185393328D01*
X199029456Y-185393328D02*
X199315170Y-185393328D01*
X199315170Y-185393328D02*
X199458027Y-185464757D01*
X199458027Y-185464757D02*
X199529456Y-185536185D01*
X199529456Y-185536185D02*
X199600884Y-185679042D01*
X199600884Y-185679042D02*
X199600884Y-186107614D01*
X199600884Y-186107614D02*
X199529456Y-186250471D01*
X199529456Y-186250471D02*
X199458027Y-186321900D01*
X199458027Y-186321900D02*
X199315170Y-186393328D01*
X199315170Y-186393328D02*
X199029456Y-186393328D01*
X199029456Y-186393328D02*
X198886598Y-186321900D01*
X177002200Y-181507200D02*
X285002200Y-181507200D01*
X178386598Y-183621900D02*
X178600884Y-183693328D01*
X178600884Y-183693328D02*
X178958026Y-183693328D01*
X178958026Y-183693328D02*
X179100884Y-183621900D01*
X179100884Y-183621900D02*
X179172312Y-183550471D01*
X179172312Y-183550471D02*
X179243741Y-183407614D01*
X179243741Y-183407614D02*
X179243741Y-183264757D01*
X179243741Y-183264757D02*
X179172312Y-183121900D01*
X179172312Y-183121900D02*
X179100884Y-183050471D01*
X179100884Y-183050471D02*
X178958026Y-182979042D01*
X178958026Y-182979042D02*
X178672312Y-182907614D01*
X178672312Y-182907614D02*
X178529455Y-182836185D01*
X178529455Y-182836185D02*
X178458026Y-182764757D01*
X178458026Y-182764757D02*
X178386598Y-182621900D01*
X178386598Y-182621900D02*
X178386598Y-182479042D01*
X178386598Y-182479042D02*
X178458026Y-182336185D01*
X178458026Y-182336185D02*
X178529455Y-182264757D01*
X178529455Y-182264757D02*
X178672312Y-182193328D01*
X178672312Y-182193328D02*
X179029455Y-182193328D01*
X179029455Y-182193328D02*
X179243741Y-182264757D01*
X179886597Y-183693328D02*
X179886597Y-182193328D01*
X180529455Y-183693328D02*
X180529455Y-182907614D01*
X180529455Y-182907614D02*
X180458026Y-182764757D01*
X180458026Y-182764757D02*
X180315169Y-182693328D01*
X180315169Y-182693328D02*
X180100883Y-182693328D01*
X180100883Y-182693328D02*
X179958026Y-182764757D01*
X179958026Y-182764757D02*
X179886597Y-182836185D01*
X181815169Y-183621900D02*
X181672312Y-183693328D01*
X181672312Y-183693328D02*
X181386598Y-183693328D01*
X181386598Y-183693328D02*
X181243740Y-183621900D01*
X181243740Y-183621900D02*
X181172312Y-183479042D01*
X181172312Y-183479042D02*
X181172312Y-182907614D01*
X181172312Y-182907614D02*
X181243740Y-182764757D01*
X181243740Y-182764757D02*
X181386598Y-182693328D01*
X181386598Y-182693328D02*
X181672312Y-182693328D01*
X181672312Y-182693328D02*
X181815169Y-182764757D01*
X181815169Y-182764757D02*
X181886598Y-182907614D01*
X181886598Y-182907614D02*
X181886598Y-183050471D01*
X181886598Y-183050471D02*
X181172312Y-183193328D01*
X183100883Y-183621900D02*
X182958026Y-183693328D01*
X182958026Y-183693328D02*
X182672312Y-183693328D01*
X182672312Y-183693328D02*
X182529454Y-183621900D01*
X182529454Y-183621900D02*
X182458026Y-183479042D01*
X182458026Y-183479042D02*
X182458026Y-182907614D01*
X182458026Y-182907614D02*
X182529454Y-182764757D01*
X182529454Y-182764757D02*
X182672312Y-182693328D01*
X182672312Y-182693328D02*
X182958026Y-182693328D01*
X182958026Y-182693328D02*
X183100883Y-182764757D01*
X183100883Y-182764757D02*
X183172312Y-182907614D01*
X183172312Y-182907614D02*
X183172312Y-183050471D01*
X183172312Y-183050471D02*
X182458026Y-183193328D01*
X183600883Y-182693328D02*
X184172311Y-182693328D01*
X183815168Y-182193328D02*
X183815168Y-183479042D01*
X183815168Y-183479042D02*
X183886597Y-183621900D01*
X183886597Y-183621900D02*
X184029454Y-183693328D01*
X184029454Y-183693328D02*
X184172311Y-183693328D01*
X184672311Y-183550471D02*
X184743740Y-183621900D01*
X184743740Y-183621900D02*
X184672311Y-183693328D01*
X184672311Y-183693328D02*
X184600883Y-183621900D01*
X184600883Y-183621900D02*
X184672311Y-183550471D01*
X184672311Y-183550471D02*
X184672311Y-183693328D01*
X184672311Y-182764757D02*
X184743740Y-182836185D01*
X184743740Y-182836185D02*
X184672311Y-182907614D01*
X184672311Y-182907614D02*
X184600883Y-182836185D01*
X184600883Y-182836185D02*
X184672311Y-182764757D01*
X184672311Y-182764757D02*
X184672311Y-182907614D01*
X197002200Y-191507200D02*
X197002200Y-194507200D01*
X261002200Y-191507200D02*
X261002200Y-198007200D01*
D13*
X49160000Y-51609999D02*
X50260000Y-51609999D01*
X50660000Y-51609999D02*
X50680000Y-51609999D01*
X51080000Y-51609999D02*
X52180000Y-51609999D01*
X52580000Y-51609999D02*
X52600000Y-51609999D01*
X52960000Y-51609999D02*
X52960000Y-52709999D01*
X52960000Y-53109999D02*
X52960000Y-53129999D01*
X52960000Y-53529999D02*
X52960000Y-54629999D01*
X52960000Y-55029999D02*
X52960000Y-55049999D01*
X52960000Y-55449999D02*
X52960000Y-56549999D01*
X52960000Y-56949999D02*
X52960000Y-56969999D01*
X52960000Y-57369999D02*
X52960000Y-58469999D01*
X52960000Y-58869999D02*
X52960000Y-58889999D01*
X52960000Y-59289999D02*
X52960000Y-60389999D01*
X52960000Y-60789999D02*
X52960000Y-60809999D01*
X52960000Y-61209999D02*
X52960000Y-62309999D01*
X52960000Y-62709999D02*
X52960000Y-62729999D01*
X52960000Y-63129999D02*
X52960000Y-64229999D01*
X52960000Y-64629999D02*
X52960000Y-64649999D01*
X52960000Y-65049999D02*
X52960000Y-66149999D01*
X52960000Y-66549999D02*
X52960000Y-66569999D01*
X52960000Y-66969999D02*
X52960000Y-68069999D01*
X52960000Y-68469999D02*
X52960000Y-68489999D01*
X52960000Y-68889999D02*
X52960000Y-69989999D01*
X52960000Y-70389999D02*
X52960000Y-70409999D01*
X52960000Y-70710000D02*
X51860000Y-70710000D01*
X51460000Y-70710000D02*
X51440000Y-70710000D01*
X51040000Y-70710000D02*
X49940000Y-70710000D01*
X49540000Y-70710000D02*
X49520000Y-70710000D01*
X49160000Y-70710000D02*
X49160000Y-69610000D01*
X49160000Y-69210000D02*
X49160000Y-69190000D01*
X49160000Y-68790000D02*
X49160000Y-67690000D01*
X49160000Y-67290000D02*
X49160000Y-67270000D01*
X49160000Y-66870000D02*
X49160000Y-65770000D01*
X49160000Y-65370000D02*
X49160000Y-65350000D01*
X49160000Y-64950000D02*
X49160000Y-63850000D01*
X49160000Y-63450000D02*
X49160000Y-63430000D01*
X49160000Y-63030000D02*
X49160000Y-61930000D01*
X49160000Y-61530000D02*
X49160000Y-61510000D01*
X49160000Y-61110000D02*
X49160000Y-60010000D01*
X49160000Y-59610000D02*
X49160000Y-59590000D01*
X49160000Y-59190000D02*
X49160000Y-58090000D01*
X49160000Y-57690000D02*
X49160000Y-57670000D01*
X49160000Y-57270000D02*
X49160000Y-56170000D01*
X49160000Y-55770000D02*
X49160000Y-55750000D01*
X49160000Y-55350000D02*
X49160000Y-54250000D01*
X49160000Y-53850000D02*
X49160000Y-53830000D01*
X49160000Y-53430000D02*
X49160000Y-52330000D01*
X49160000Y-51930000D02*
X49160000Y-51910000D01*
X50600000Y-49803727D02*
X51342770Y-50615080D01*
X51612868Y-50910117D02*
X51626372Y-50924869D01*
X51896470Y-51219906D02*
X52639240Y-52031259D01*
X52909338Y-52326297D02*
X52922843Y-52341049D01*
X53192941Y-52636086D02*
X53935710Y-53447439D01*
X54205808Y-53742476D02*
X54219313Y-53757228D01*
X54489411Y-54052265D02*
X55000000Y-54609999D01*
X55000000Y-54609999D02*
X55000000Y-55709999D01*
X55000000Y-56109999D02*
X55000000Y-56129999D01*
X55000000Y-56529999D02*
X55000000Y-57629999D01*
X55000000Y-58029999D02*
X55000000Y-58049999D01*
X55000000Y-58166000D02*
X54259870Y-58979761D01*
X53990731Y-59275674D02*
X53977274Y-59290470D01*
X53708136Y-59586383D02*
X52968006Y-60400144D01*
X52698867Y-60696057D02*
X52685411Y-60710853D01*
X52416272Y-61006766D02*
X51676142Y-61820527D01*
X51407004Y-62116440D02*
X51393547Y-62131236D01*
X51124408Y-62427149D02*
X50600001Y-63003727D01*
X50600000Y-63003727D02*
X50600000Y-61903727D01*
X50600000Y-61503727D02*
X50600000Y-61483727D01*
X50600000Y-61083727D02*
X50600000Y-59983727D01*
X50600000Y-59583727D02*
X50600000Y-59563727D01*
X50600000Y-59163727D02*
X50600000Y-58063727D01*
X50600000Y-57663727D02*
X50600000Y-57643727D01*
X50600000Y-57243727D02*
X50600000Y-56143727D01*
X50600000Y-55743727D02*
X50600000Y-55723727D01*
X50600000Y-55323727D02*
X50600000Y-54223727D01*
X50600000Y-53823727D02*
X50600000Y-53803727D01*
X50600000Y-53403727D02*
X50600000Y-52303727D01*
X50600000Y-51903727D02*
X50600000Y-51883727D01*
X50600000Y-51483727D02*
X50600000Y-50383727D01*
X50600000Y-49983727D02*
X50600000Y-49963727D01*
X95100000Y-62900000D02*
X94412835Y-62041044D01*
X94162957Y-61728697D02*
X94150464Y-61713079D01*
X93900586Y-61400732D02*
X93213421Y-60541776D01*
X92963543Y-60229429D02*
X92951049Y-60213811D01*
X92701171Y-59901464D02*
X92014006Y-59042508D01*
X91764128Y-58730161D02*
X91751635Y-58714543D01*
X91501757Y-58402196D02*
X90814592Y-57543240D01*
X90700000Y-57400000D02*
X90700000Y-56300000D01*
X90700000Y-55900000D02*
X90700000Y-55880000D01*
X90700000Y-55480000D02*
X90700000Y-55100000D01*
X90700000Y-55100000D02*
X91394840Y-54247242D01*
X91647509Y-53937148D02*
X91660143Y-53921643D01*
X91912812Y-53611549D02*
X92607652Y-52758790D01*
X92860321Y-52448696D02*
X92872955Y-52433192D01*
X93125624Y-52123098D02*
X93820464Y-51270339D01*
X94073134Y-50960245D02*
X94085767Y-50944740D01*
X94338436Y-50634646D02*
X95033276Y-49781888D01*
X95100000Y-49700000D02*
X95100000Y-50800000D01*
X95100000Y-51200000D02*
X95100000Y-51220000D01*
X95100000Y-51620000D02*
X95100000Y-52720000D01*
X95100000Y-53120000D02*
X95100000Y-53140000D01*
X95100000Y-53540000D02*
X95100000Y-54640000D01*
X95100000Y-55040000D02*
X95100000Y-55060000D01*
X95100000Y-55460000D02*
X95100000Y-56560000D01*
X95100000Y-56960000D02*
X95100000Y-56980000D01*
X95100000Y-57380000D02*
X95100000Y-58480000D01*
X95100000Y-58880000D02*
X95100000Y-58900000D01*
X95100000Y-59300000D02*
X95100000Y-60400000D01*
X95100000Y-60800000D02*
X95100000Y-60820000D01*
X95100000Y-61220000D02*
X95100000Y-62320000D01*
X95100000Y-62720000D02*
X95100000Y-62740000D01*
X95100000Y-72300000D02*
X94412835Y-71441044D01*
X94162957Y-71128697D02*
X94150464Y-71113079D01*
X93900586Y-70800732D02*
X93213421Y-69941776D01*
X92963543Y-69629429D02*
X92951049Y-69613811D01*
X92701171Y-69301464D02*
X92014006Y-68442508D01*
X91764128Y-68130161D02*
X91751635Y-68114543D01*
X91501757Y-67802196D02*
X90814592Y-66943240D01*
X90700000Y-66800000D02*
X90700000Y-65700000D01*
X90700000Y-65300000D02*
X90700000Y-65280000D01*
X90700000Y-64880000D02*
X90700000Y-64500000D01*
X90700000Y-64500000D02*
X91394840Y-63647242D01*
X91647509Y-63337148D02*
X91660143Y-63321643D01*
X91912812Y-63011549D02*
X92607652Y-62158790D01*
X92860321Y-61848696D02*
X92872955Y-61833192D01*
X93125624Y-61523098D02*
X93820464Y-60670339D01*
X94073134Y-60360245D02*
X94085767Y-60344740D01*
X94338436Y-60034646D02*
X95033276Y-59181888D01*
X95100000Y-59100000D02*
X95100000Y-60200000D01*
X95100000Y-60600000D02*
X95100000Y-60620000D01*
X95100000Y-61020000D02*
X95100000Y-62120000D01*
X95100000Y-62520000D02*
X95100000Y-62540000D01*
X95100000Y-62940000D02*
X95100000Y-64040000D01*
X95100000Y-64440000D02*
X95100000Y-64460000D01*
X95100000Y-64860000D02*
X95100000Y-65960000D01*
X95100000Y-66360000D02*
X95100000Y-66380000D01*
X95100000Y-66780000D02*
X95100000Y-67880000D01*
X95100000Y-68280000D02*
X95100000Y-68300000D01*
X95100000Y-68700000D02*
X95100000Y-69800000D01*
X95100000Y-70200000D02*
X95100000Y-70220000D01*
X95100000Y-70620000D02*
X95100000Y-71720000D01*
X95100000Y-72120000D02*
X95100000Y-72140000D01*
X55000000Y-54674999D02*
X56100000Y-54674999D01*
X56500000Y-54674999D02*
X56520000Y-54674999D01*
X56920000Y-54674999D02*
X58020000Y-54674999D01*
X58420000Y-54674999D02*
X58440000Y-54674999D01*
X58840000Y-54674999D02*
X59940000Y-54674999D01*
X60340000Y-54674999D02*
X60360000Y-54674999D01*
X60760000Y-54674999D02*
X61860000Y-54674999D01*
X62260000Y-54674999D02*
X62280000Y-54674999D01*
X62680000Y-54674999D02*
X63780000Y-54674999D01*
X64180000Y-54674999D02*
X64200000Y-54674999D01*
X64600000Y-54674999D02*
X65700000Y-54674999D01*
X66100000Y-54674999D02*
X66120000Y-54674999D01*
X66520000Y-54674999D02*
X67620000Y-54674999D01*
X68020000Y-54674999D02*
X68040000Y-54674999D01*
X68440000Y-54674999D02*
X69540000Y-54674999D01*
X69940000Y-54674999D02*
X69960000Y-54674999D01*
X70360000Y-54674999D02*
X71460000Y-54674999D01*
X71860000Y-54674999D02*
X71880000Y-54674999D01*
X72280000Y-54674999D02*
X73380000Y-54674999D01*
X73780000Y-54674999D02*
X73800000Y-54674999D01*
X74200000Y-54674999D02*
X75300000Y-54674999D01*
X75700000Y-54674999D02*
X75720000Y-54674999D01*
X76120000Y-54674999D02*
X77220000Y-54674999D01*
X77620000Y-54674999D02*
X77640000Y-54674999D01*
X78040000Y-54674999D02*
X79140000Y-54674999D01*
X79540000Y-54674999D02*
X79560000Y-54674999D01*
X79960000Y-54674999D02*
X81060000Y-54674999D01*
X81460000Y-54674999D02*
X81480000Y-54674999D01*
X81880000Y-54674999D02*
X82980000Y-54674999D01*
X83380000Y-54674999D02*
X83400000Y-54674999D01*
X83800000Y-54674999D02*
X84900000Y-54674999D01*
X85000000Y-54674999D02*
X85000000Y-55774999D01*
X85000000Y-56174999D02*
X85000000Y-56194999D01*
X85000000Y-56594999D02*
X85000000Y-57694999D01*
X85000000Y-58094999D02*
X85000000Y-58114999D01*
X85000000Y-58166000D02*
X83900000Y-58166000D01*
X83500000Y-58166000D02*
X83480000Y-58166000D01*
X83080000Y-58166000D02*
X81980000Y-58166000D01*
X81580000Y-58166000D02*
X81560000Y-58166000D01*
X81160000Y-58166000D02*
X80060000Y-58166000D01*
X79660000Y-58166000D02*
X79640000Y-58166000D01*
X79240000Y-58166000D02*
X78140000Y-58166000D01*
X77740000Y-58166000D02*
X77720000Y-58166000D01*
X77320000Y-58166000D02*
X76220000Y-58166000D01*
X75820000Y-58166000D02*
X75800000Y-58166000D01*
X75400000Y-58166000D02*
X74300000Y-58166000D01*
X73900000Y-58166000D02*
X73880000Y-58166000D01*
X73480000Y-58166000D02*
X72380000Y-58166000D01*
X71980000Y-58166000D02*
X71960000Y-58166000D01*
X71560000Y-58166000D02*
X70460000Y-58166000D01*
X70060000Y-58166000D02*
X70040000Y-58166000D01*
X69640000Y-58166000D02*
X68540000Y-58166000D01*
X68140000Y-58166000D02*
X68120000Y-58166000D01*
X67720000Y-58166000D02*
X66620000Y-58166000D01*
X66220000Y-58166000D02*
X66200000Y-58166000D01*
X65800000Y-58166000D02*
X64700000Y-58166000D01*
X64300000Y-58166000D02*
X64280000Y-58166000D01*
X63880000Y-58166000D02*
X62780000Y-58166000D01*
X62380000Y-58166000D02*
X62360000Y-58166000D01*
X61960000Y-58166000D02*
X60860000Y-58166000D01*
X60460000Y-58166000D02*
X60440000Y-58166000D01*
X60040000Y-58166000D02*
X58940000Y-58166000D01*
X58540000Y-58166000D02*
X58520000Y-58166000D01*
X58120000Y-58166000D02*
X57020000Y-58166000D01*
X56620000Y-58166000D02*
X56600000Y-58166000D01*
X56200000Y-58166000D02*
X55100000Y-58166000D01*
X55000000Y-58166000D02*
X55000000Y-57066000D01*
X55000000Y-56666000D02*
X55000000Y-56646000D01*
X55000000Y-56246000D02*
X55000000Y-55146000D01*
X55000000Y-54746000D02*
X55000000Y-54726000D01*
X60500000Y-37800000D02*
X60500038Y-37791273D01*
X60500038Y-37791273D02*
X60500152Y-37782548D01*
X60500152Y-37782548D02*
X60500343Y-37773823D01*
X60500343Y-37773823D02*
X60500609Y-37765101D01*
X60500609Y-37765101D02*
X60500952Y-37756381D01*
X60500952Y-37756381D02*
X60501370Y-37747664D01*
X60501370Y-37747664D02*
X60501865Y-37738951D01*
X60501865Y-37738951D02*
X60502436Y-37730244D01*
X60502436Y-37730244D02*
X60503083Y-37721541D01*
X60503083Y-37721541D02*
X60503805Y-37712844D01*
X60503805Y-37712844D02*
X60504604Y-37704154D01*
X60504604Y-37704154D02*
X60505478Y-37695472D01*
X60505478Y-37695472D02*
X60506428Y-37686797D01*
X60506428Y-37686797D02*
X60507454Y-37678131D01*
X60507454Y-37678131D02*
X60508555Y-37669474D01*
X60508555Y-37669474D02*
X60509732Y-37660827D01*
X60509732Y-37660827D02*
X60510984Y-37652191D01*
X60510984Y-37652191D02*
X60512312Y-37643566D01*
X60512312Y-37643566D02*
X60513714Y-37634952D01*
X60513714Y-37634952D02*
X60515192Y-37626352D01*
X60515192Y-37626352D02*
X60516745Y-37617764D01*
X60516745Y-37617764D02*
X60518373Y-37609191D01*
X60518373Y-37609191D02*
X60520075Y-37600632D01*
X60520075Y-37600632D02*
X60521852Y-37592088D01*
X60521852Y-37592088D02*
X60523704Y-37583560D01*
X60523704Y-37583560D02*
X60525630Y-37575049D01*
X60525630Y-37575049D02*
X60527630Y-37566555D01*
X60527630Y-37566555D02*
X60529704Y-37558078D01*
X60529704Y-37558078D02*
X60531852Y-37549620D01*
X60531852Y-37549620D02*
X60534074Y-37541181D01*
X60534074Y-37541181D02*
X60536370Y-37532762D01*
X60536370Y-37532762D02*
X60538738Y-37524363D01*
X60538738Y-37524363D02*
X60541180Y-37515985D01*
X60541180Y-37515985D02*
X60543695Y-37507628D01*
X60543695Y-37507628D02*
X60546283Y-37499294D01*
X60546283Y-37499294D02*
X60548943Y-37490983D01*
X60548943Y-37490983D02*
X60551676Y-37482695D01*
X60551676Y-37482695D02*
X60554481Y-37474432D01*
X60554481Y-37474432D02*
X60557359Y-37466193D01*
X60557359Y-37466193D02*
X60560307Y-37457980D01*
X60560307Y-37457980D02*
X60563328Y-37449793D01*
X60563328Y-37449793D02*
X60566420Y-37441632D01*
X60566420Y-37441632D02*
X60569582Y-37433499D01*
X60569582Y-37433499D02*
X60572816Y-37425393D01*
X60572816Y-37425393D02*
X60576120Y-37417317D01*
X60576120Y-37417317D02*
X60579495Y-37409269D01*
X60579495Y-37409269D02*
X60582940Y-37401251D01*
X60582940Y-37401251D02*
X60586455Y-37393263D01*
X60586455Y-37393263D02*
X60590039Y-37385307D01*
X60590039Y-37385307D02*
X60593692Y-37377382D01*
X60593692Y-37377382D02*
X60597415Y-37369489D01*
X60597415Y-37369489D02*
X60601206Y-37361629D01*
X60601206Y-37361629D02*
X60605066Y-37353802D01*
X60605066Y-37353802D02*
X60608993Y-37346010D01*
X60608993Y-37346010D02*
X60612989Y-37338251D01*
X60612989Y-37338251D02*
X60617052Y-37330528D01*
X60617052Y-37330528D02*
X60621183Y-37322841D01*
X60621183Y-37322841D02*
X60625380Y-37315190D01*
X60625380Y-37315190D02*
X60629644Y-37307576D01*
X60629644Y-37307576D02*
X60633975Y-37300000D01*
X60633975Y-37300000D02*
X60638371Y-37292462D01*
X60638371Y-37292462D02*
X60642833Y-37284962D01*
X60642833Y-37284962D02*
X60647360Y-37277501D01*
X60647360Y-37277501D02*
X60651952Y-37270081D01*
X60651952Y-37270081D02*
X60656609Y-37262700D01*
X60656609Y-37262700D02*
X60661329Y-37255361D01*
X60661329Y-37255361D02*
X60666114Y-37248063D01*
X60666114Y-37248063D02*
X60670962Y-37240807D01*
X60670962Y-37240807D02*
X60675874Y-37233594D01*
X60675874Y-37233594D02*
X60680848Y-37226424D01*
X60680848Y-37226424D02*
X60685884Y-37219297D01*
X60685884Y-37219297D02*
X60690983Y-37212215D01*
X60690983Y-37212215D02*
X60696143Y-37205177D01*
X60696143Y-37205177D02*
X60701364Y-37198185D01*
X60701364Y-37198185D02*
X60706647Y-37191239D01*
X60706647Y-37191239D02*
X60711989Y-37184339D01*
X60711989Y-37184339D02*
X60717392Y-37177485D01*
X60717392Y-37177485D02*
X60722854Y-37170680D01*
X60722854Y-37170680D02*
X60728375Y-37163922D01*
X60728375Y-37163922D02*
X60733956Y-37157212D01*
X60733956Y-37157212D02*
X60739594Y-37150552D01*
X60739594Y-37150552D02*
X60745290Y-37143941D01*
X60745290Y-37143941D02*
X60751044Y-37137380D01*
X60751044Y-37137380D02*
X60756855Y-37130869D01*
X60756855Y-37130869D02*
X60762723Y-37124410D01*
X60762723Y-37124410D02*
X60768646Y-37118002D01*
X60768646Y-37118002D02*
X60774626Y-37111645D01*
X60774626Y-37111645D02*
X60780660Y-37105342D01*
X60780660Y-37105342D02*
X60786750Y-37099091D01*
X60786750Y-37099091D02*
X60792893Y-37092893D01*
X60792893Y-37092893D02*
X60799091Y-37086750D01*
X60799091Y-37086750D02*
X60805342Y-37080660D01*
X60805342Y-37080660D02*
X60811645Y-37074626D01*
X60811645Y-37074626D02*
X60818002Y-37068646D01*
X60818002Y-37068646D02*
X60824410Y-37062723D01*
X60824410Y-37062723D02*
X60830869Y-37056855D01*
X60830869Y-37056855D02*
X60837380Y-37051044D01*
X60837380Y-37051044D02*
X60843941Y-37045290D01*
X60843941Y-37045290D02*
X60850552Y-37039594D01*
X60850552Y-37039594D02*
X60857212Y-37033956D01*
X60857212Y-37033956D02*
X60863922Y-37028375D01*
X60863922Y-37028375D02*
X60870680Y-37022854D01*
X60870680Y-37022854D02*
X60877485Y-37017392D01*
X60877485Y-37017392D02*
X60884339Y-37011989D01*
X60884339Y-37011989D02*
X60891239Y-37006647D01*
X60891239Y-37006647D02*
X60898185Y-37001364D01*
X60898185Y-37001364D02*
X60905177Y-36996143D01*
X60905177Y-36996143D02*
X60912215Y-36990983D01*
X60912215Y-36990983D02*
X60919297Y-36985884D01*
X60919297Y-36985884D02*
X60926424Y-36980848D01*
X60926424Y-36980848D02*
X60933594Y-36975874D01*
X60933594Y-36975874D02*
X60940807Y-36970962D01*
X60940807Y-36970962D02*
X60948063Y-36966114D01*
X60948063Y-36966114D02*
X60955361Y-36961329D01*
X60955361Y-36961329D02*
X60962700Y-36956609D01*
X60962700Y-36956609D02*
X60970081Y-36951952D01*
X60970081Y-36951952D02*
X60977501Y-36947360D01*
X60977501Y-36947360D02*
X60984962Y-36942833D01*
X60984962Y-36942833D02*
X60992462Y-36938371D01*
X60992462Y-36938371D02*
X61000000Y-36933975D01*
X61000000Y-36933975D02*
X61007576Y-36929644D01*
X61007576Y-36929644D02*
X61015190Y-36925380D01*
X61015190Y-36925380D02*
X61022841Y-36921183D01*
X61022841Y-36921183D02*
X61030528Y-36917052D01*
X61030528Y-36917052D02*
X61038251Y-36912989D01*
X61038251Y-36912989D02*
X61046010Y-36908993D01*
X61046010Y-36908993D02*
X61046404Y-36908793D01*
X61429263Y-36802505D02*
X61449226Y-36801290D01*
X61500000Y-36800000D02*
X62600000Y-36800000D01*
X63000000Y-36800000D02*
X63020000Y-36800000D01*
X63420000Y-36800000D02*
X63440000Y-36800000D01*
X63840000Y-36800000D02*
X64940000Y-36800000D01*
X65340000Y-36800000D02*
X65360000Y-36800000D01*
X65760000Y-36800000D02*
X65780000Y-36800000D01*
X66180000Y-36800000D02*
X67280000Y-36800000D01*
X67680000Y-36800000D02*
X67700000Y-36800000D01*
X68100000Y-36800000D02*
X68120000Y-36800000D01*
X68520000Y-36800000D02*
X69620000Y-36800000D01*
X70020000Y-36800000D02*
X70040000Y-36800000D01*
X70440000Y-36800000D02*
X70460000Y-36800000D01*
X70860000Y-36800000D02*
X71960000Y-36800000D01*
X72360000Y-36800000D02*
X72380000Y-36800000D01*
X72780000Y-36800000D02*
X72800000Y-36800000D01*
X73200000Y-36800000D02*
X74300000Y-36800000D01*
X74700000Y-36800000D02*
X74720000Y-36800000D01*
X75120000Y-36800000D02*
X75140000Y-36800000D01*
X75540000Y-36800000D02*
X76640000Y-36800000D01*
X77040000Y-36800000D02*
X77060000Y-36800000D01*
X77460000Y-36800000D02*
X77480000Y-36800000D01*
X77880000Y-36800000D02*
X78980000Y-36800000D01*
X79380000Y-36800000D02*
X79400000Y-36800000D01*
X79800000Y-36800000D02*
X79820000Y-36800000D01*
X80220000Y-36800000D02*
X81320000Y-36800000D01*
X81720000Y-36800000D02*
X81740000Y-36800000D01*
X82140000Y-36800000D02*
X82160000Y-36800000D01*
X82560000Y-36800000D02*
X83660000Y-36800000D01*
X84000000Y-36800000D02*
X84008727Y-36800038D01*
X84008727Y-36800038D02*
X84017452Y-36800152D01*
X84017452Y-36800152D02*
X84026177Y-36800343D01*
X84026177Y-36800343D02*
X84034899Y-36800609D01*
X84034899Y-36800609D02*
X84043619Y-36800952D01*
X84043619Y-36800952D02*
X84052336Y-36801370D01*
X84052336Y-36801370D02*
X84061049Y-36801865D01*
X84061049Y-36801865D02*
X84069756Y-36802436D01*
X84069756Y-36802436D02*
X84078459Y-36803083D01*
X84078459Y-36803083D02*
X84087156Y-36803805D01*
X84087156Y-36803805D02*
X84095846Y-36804604D01*
X84095846Y-36804604D02*
X84104528Y-36805478D01*
X84104528Y-36805478D02*
X84113203Y-36806428D01*
X84113203Y-36806428D02*
X84121869Y-36807454D01*
X84121869Y-36807454D02*
X84130526Y-36808555D01*
X84130526Y-36808555D02*
X84139173Y-36809732D01*
X84139173Y-36809732D02*
X84147809Y-36810984D01*
X84147809Y-36810984D02*
X84156434Y-36812312D01*
X84156434Y-36812312D02*
X84165048Y-36813714D01*
X84165048Y-36813714D02*
X84173648Y-36815192D01*
X84173648Y-36815192D02*
X84182236Y-36816745D01*
X84182236Y-36816745D02*
X84190809Y-36818373D01*
X84190809Y-36818373D02*
X84199368Y-36820075D01*
X84199368Y-36820075D02*
X84207912Y-36821852D01*
X84207912Y-36821852D02*
X84216440Y-36823704D01*
X84216440Y-36823704D02*
X84224951Y-36825630D01*
X84224951Y-36825630D02*
X84233445Y-36827630D01*
X84233445Y-36827630D02*
X84241922Y-36829704D01*
X84241922Y-36829704D02*
X84250380Y-36831852D01*
X84250380Y-36831852D02*
X84258819Y-36834074D01*
X84258819Y-36834074D02*
X84267238Y-36836370D01*
X84267238Y-36836370D02*
X84275637Y-36838738D01*
X84275637Y-36838738D02*
X84284015Y-36841180D01*
X84284015Y-36841180D02*
X84292372Y-36843695D01*
X84292372Y-36843695D02*
X84300706Y-36846283D01*
X84300706Y-36846283D02*
X84309017Y-36848943D01*
X84309017Y-36848943D02*
X84317305Y-36851676D01*
X84317305Y-36851676D02*
X84325568Y-36854481D01*
X84325568Y-36854481D02*
X84333807Y-36857359D01*
X84333807Y-36857359D02*
X84342020Y-36860307D01*
X84342020Y-36860307D02*
X84350207Y-36863328D01*
X84350207Y-36863328D02*
X84358368Y-36866420D01*
X84358368Y-36866420D02*
X84366501Y-36869582D01*
X84366501Y-36869582D02*
X84374607Y-36872816D01*
X84374607Y-36872816D02*
X84382683Y-36876120D01*
X84382683Y-36876120D02*
X84390731Y-36879495D01*
X84390731Y-36879495D02*
X84398749Y-36882940D01*
X84398749Y-36882940D02*
X84406737Y-36886455D01*
X84406737Y-36886455D02*
X84414693Y-36890039D01*
X84414693Y-36890039D02*
X84422618Y-36893692D01*
X84422618Y-36893692D02*
X84430511Y-36897415D01*
X84430511Y-36897415D02*
X84438371Y-36901206D01*
X84438371Y-36901206D02*
X84446198Y-36905066D01*
X84446198Y-36905066D02*
X84453990Y-36908993D01*
X84453990Y-36908993D02*
X84461749Y-36912989D01*
X84461749Y-36912989D02*
X84469472Y-36917052D01*
X84469472Y-36917052D02*
X84477159Y-36921183D01*
X84477159Y-36921183D02*
X84484810Y-36925380D01*
X84484810Y-36925380D02*
X84492424Y-36929644D01*
X84492424Y-36929644D02*
X84500000Y-36933975D01*
X84500000Y-36933975D02*
X84507538Y-36938371D01*
X84507538Y-36938371D02*
X84515038Y-36942833D01*
X84515038Y-36942833D02*
X84522499Y-36947360D01*
X84522499Y-36947360D02*
X84529919Y-36951952D01*
X84529919Y-36951952D02*
X84537300Y-36956609D01*
X84537300Y-36956609D02*
X84544639Y-36961329D01*
X84544639Y-36961329D02*
X84551937Y-36966114D01*
X84551937Y-36966114D02*
X84559193Y-36970962D01*
X84559193Y-36970962D02*
X84566406Y-36975874D01*
X84566406Y-36975874D02*
X84573576Y-36980848D01*
X84573576Y-36980848D02*
X84580703Y-36985884D01*
X84580703Y-36985884D02*
X84587785Y-36990983D01*
X84587785Y-36990983D02*
X84594823Y-36996143D01*
X84594823Y-36996143D02*
X84601815Y-37001364D01*
X84601815Y-37001364D02*
X84608761Y-37006647D01*
X84608761Y-37006647D02*
X84615661Y-37011989D01*
X84615661Y-37011989D02*
X84622515Y-37017392D01*
X84622515Y-37017392D02*
X84629320Y-37022854D01*
X84629320Y-37022854D02*
X84636078Y-37028375D01*
X84636078Y-37028375D02*
X84642788Y-37033956D01*
X84642788Y-37033956D02*
X84649448Y-37039594D01*
X84649448Y-37039594D02*
X84656059Y-37045290D01*
X84656059Y-37045290D02*
X84662620Y-37051044D01*
X84662620Y-37051044D02*
X84669131Y-37056855D01*
X84669131Y-37056855D02*
X84675590Y-37062723D01*
X84675590Y-37062723D02*
X84681998Y-37068646D01*
X84681998Y-37068646D02*
X84688355Y-37074626D01*
X84688355Y-37074626D02*
X84694658Y-37080660D01*
X84694658Y-37080660D02*
X84700909Y-37086750D01*
X84700909Y-37086750D02*
X84707107Y-37092893D01*
X84707107Y-37092893D02*
X84713250Y-37099091D01*
X84713250Y-37099091D02*
X84719340Y-37105342D01*
X84719340Y-37105342D02*
X84725374Y-37111645D01*
X84725374Y-37111645D02*
X84731354Y-37118002D01*
X84731354Y-37118002D02*
X84737277Y-37124410D01*
X84737277Y-37124410D02*
X84743145Y-37130869D01*
X84743145Y-37130869D02*
X84748956Y-37137380D01*
X84748956Y-37137380D02*
X84754710Y-37143941D01*
X84754710Y-37143941D02*
X84760406Y-37150552D01*
X84760406Y-37150552D02*
X84766044Y-37157212D01*
X84766044Y-37157212D02*
X84771625Y-37163922D01*
X84771625Y-37163922D02*
X84777146Y-37170680D01*
X84777146Y-37170680D02*
X84782608Y-37177485D01*
X84782608Y-37177485D02*
X84788011Y-37184339D01*
X84788011Y-37184339D02*
X84793353Y-37191239D01*
X84793353Y-37191239D02*
X84798636Y-37198185D01*
X84798636Y-37198185D02*
X84803857Y-37205177D01*
X84803857Y-37205177D02*
X84809017Y-37212215D01*
X84809017Y-37212215D02*
X84814116Y-37219297D01*
X84814116Y-37219297D02*
X84819152Y-37226424D01*
X84819152Y-37226424D02*
X84824126Y-37233594D01*
X84824126Y-37233594D02*
X84829038Y-37240807D01*
X84829038Y-37240807D02*
X84833886Y-37248063D01*
X84833886Y-37248063D02*
X84838671Y-37255361D01*
X84838671Y-37255361D02*
X84843391Y-37262700D01*
X84843391Y-37262700D02*
X84848048Y-37270081D01*
X84848048Y-37270081D02*
X84852640Y-37277501D01*
X84852640Y-37277501D02*
X84857167Y-37284962D01*
X84857167Y-37284962D02*
X84861629Y-37292462D01*
X84861629Y-37292462D02*
X84866025Y-37300000D01*
X84866025Y-37300000D02*
X84870356Y-37307576D01*
X84870356Y-37307576D02*
X84874620Y-37315190D01*
X84874620Y-37315190D02*
X84878817Y-37322841D01*
X84878817Y-37322841D02*
X84882948Y-37330528D01*
X84882948Y-37330528D02*
X84887011Y-37338251D01*
X84887011Y-37338251D02*
X84891007Y-37346010D01*
X84891007Y-37346010D02*
X84891207Y-37346404D01*
X84997495Y-37729263D02*
X84998710Y-37749226D01*
X85000000Y-37800000D02*
X85000000Y-38900000D01*
X85000000Y-39300000D02*
X85000000Y-39320000D01*
X85000000Y-39720000D02*
X85000000Y-39740000D01*
X85000000Y-40000000D02*
X84999962Y-40008727D01*
X84999962Y-40008727D02*
X84999848Y-40017452D01*
X84999848Y-40017452D02*
X84999657Y-40026177D01*
X84999657Y-40026177D02*
X84999391Y-40034899D01*
X84999391Y-40034899D02*
X84999048Y-40043619D01*
X84999048Y-40043619D02*
X84998630Y-40052336D01*
X84998630Y-40052336D02*
X84998135Y-40061049D01*
X84998135Y-40061049D02*
X84997564Y-40069756D01*
X84997564Y-40069756D02*
X84996917Y-40078459D01*
X84996917Y-40078459D02*
X84996195Y-40087156D01*
X84996195Y-40087156D02*
X84995396Y-40095846D01*
X84995396Y-40095846D02*
X84994522Y-40104528D01*
X84994522Y-40104528D02*
X84993572Y-40113203D01*
X84993572Y-40113203D02*
X84992546Y-40121869D01*
X84992546Y-40121869D02*
X84991445Y-40130526D01*
X84991445Y-40130526D02*
X84990268Y-40139173D01*
X84990268Y-40139173D02*
X84989016Y-40147809D01*
X84989016Y-40147809D02*
X84987688Y-40156434D01*
X84987688Y-40156434D02*
X84986286Y-40165048D01*
X84986286Y-40165048D02*
X84984808Y-40173648D01*
X84984808Y-40173648D02*
X84983255Y-40182236D01*
X84983255Y-40182236D02*
X84981627Y-40190809D01*
X84981627Y-40190809D02*
X84979925Y-40199368D01*
X84979925Y-40199368D02*
X84978148Y-40207912D01*
X84978148Y-40207912D02*
X84976296Y-40216440D01*
X84976296Y-40216440D02*
X84974370Y-40224951D01*
X84974370Y-40224951D02*
X84972370Y-40233445D01*
X84972370Y-40233445D02*
X84970296Y-40241922D01*
X84970296Y-40241922D02*
X84968148Y-40250380D01*
X84968148Y-40250380D02*
X84965926Y-40258819D01*
X84965926Y-40258819D02*
X84963630Y-40267238D01*
X84963630Y-40267238D02*
X84961262Y-40275637D01*
X84961262Y-40275637D02*
X84958820Y-40284015D01*
X84958820Y-40284015D02*
X84956305Y-40292372D01*
X84956305Y-40292372D02*
X84953717Y-40300706D01*
X84953717Y-40300706D02*
X84951057Y-40309017D01*
X84951057Y-40309017D02*
X84948324Y-40317305D01*
X84948324Y-40317305D02*
X84945519Y-40325568D01*
X84945519Y-40325568D02*
X84942641Y-40333807D01*
X84942641Y-40333807D02*
X84939693Y-40342020D01*
X84939693Y-40342020D02*
X84936672Y-40350207D01*
X84936672Y-40350207D02*
X84933580Y-40358368D01*
X84933580Y-40358368D02*
X84930418Y-40366501D01*
X84930418Y-40366501D02*
X84927184Y-40374607D01*
X84927184Y-40374607D02*
X84923880Y-40382683D01*
X84923880Y-40382683D02*
X84920505Y-40390731D01*
X84920505Y-40390731D02*
X84917060Y-40398749D01*
X84917060Y-40398749D02*
X84913545Y-40406737D01*
X84913545Y-40406737D02*
X84909961Y-40414693D01*
X84909961Y-40414693D02*
X84906308Y-40422618D01*
X84906308Y-40422618D02*
X84902585Y-40430511D01*
X84902585Y-40430511D02*
X84898794Y-40438371D01*
X84898794Y-40438371D02*
X84894934Y-40446198D01*
X84894934Y-40446198D02*
X84891007Y-40453990D01*
X84891007Y-40453990D02*
X84887011Y-40461749D01*
X84887011Y-40461749D02*
X84882948Y-40469472D01*
X84882948Y-40469472D02*
X84878817Y-40477159D01*
X84878817Y-40477159D02*
X84874620Y-40484810D01*
X84874620Y-40484810D02*
X84870356Y-40492424D01*
X84870356Y-40492424D02*
X84866025Y-40500000D01*
X84866025Y-40500000D02*
X84861629Y-40507538D01*
X84861629Y-40507538D02*
X84857167Y-40515038D01*
X84857167Y-40515038D02*
X84852640Y-40522499D01*
X84852640Y-40522499D02*
X84848048Y-40529919D01*
X84848048Y-40529919D02*
X84843391Y-40537300D01*
X84843391Y-40537300D02*
X84838671Y-40544639D01*
X84838671Y-40544639D02*
X84833886Y-40551937D01*
X84833886Y-40551937D02*
X84829038Y-40559193D01*
X84829038Y-40559193D02*
X84824126Y-40566406D01*
X84824126Y-40566406D02*
X84819152Y-40573576D01*
X84819152Y-40573576D02*
X84814116Y-40580703D01*
X84814116Y-40580703D02*
X84809017Y-40587785D01*
X84809017Y-40587785D02*
X84803857Y-40594823D01*
X84803857Y-40594823D02*
X84798636Y-40601815D01*
X84798636Y-40601815D02*
X84793353Y-40608761D01*
X84793353Y-40608761D02*
X84788011Y-40615661D01*
X84788011Y-40615661D02*
X84782608Y-40622515D01*
X84782608Y-40622515D02*
X84777146Y-40629320D01*
X84777146Y-40629320D02*
X84771625Y-40636078D01*
X84771625Y-40636078D02*
X84766044Y-40642788D01*
X84766044Y-40642788D02*
X84760406Y-40649448D01*
X84760406Y-40649448D02*
X84754710Y-40656059D01*
X84754710Y-40656059D02*
X84748956Y-40662620D01*
X84748956Y-40662620D02*
X84743145Y-40669131D01*
X84743145Y-40669131D02*
X84737277Y-40675590D01*
X84737277Y-40675590D02*
X84731354Y-40681998D01*
X84731354Y-40681998D02*
X84725374Y-40688355D01*
X84725374Y-40688355D02*
X84719340Y-40694658D01*
X84719340Y-40694658D02*
X84713250Y-40700909D01*
X84713250Y-40700909D02*
X84707107Y-40707107D01*
X84707107Y-40707107D02*
X84700909Y-40713250D01*
X84700909Y-40713250D02*
X84694658Y-40719340D01*
X84694658Y-40719340D02*
X84688355Y-40725374D01*
X84688355Y-40725374D02*
X84681998Y-40731354D01*
X84681998Y-40731354D02*
X84675590Y-40737277D01*
X84675590Y-40737277D02*
X84669131Y-40743145D01*
X84669131Y-40743145D02*
X84662620Y-40748956D01*
X84662620Y-40748956D02*
X84656059Y-40754710D01*
X84656059Y-40754710D02*
X84649448Y-40760406D01*
X84649448Y-40760406D02*
X84642788Y-40766044D01*
X84642788Y-40766044D02*
X84636078Y-40771625D01*
X84636078Y-40771625D02*
X84629320Y-40777146D01*
X84629320Y-40777146D02*
X84622515Y-40782608D01*
X84622515Y-40782608D02*
X84615661Y-40788011D01*
X84615661Y-40788011D02*
X84608761Y-40793353D01*
X84608761Y-40793353D02*
X84601815Y-40798636D01*
X84601815Y-40798636D02*
X84594823Y-40803857D01*
X84594823Y-40803857D02*
X84587785Y-40809017D01*
X84587785Y-40809017D02*
X84580703Y-40814116D01*
X84580703Y-40814116D02*
X84573576Y-40819152D01*
X84573576Y-40819152D02*
X84566406Y-40824126D01*
X84566406Y-40824126D02*
X84559193Y-40829038D01*
X84559193Y-40829038D02*
X84551937Y-40833886D01*
X84551937Y-40833886D02*
X84544639Y-40838671D01*
X84544639Y-40838671D02*
X84537300Y-40843391D01*
X84537300Y-40843391D02*
X84529919Y-40848048D01*
X84529919Y-40848048D02*
X84522499Y-40852640D01*
X84522499Y-40852640D02*
X84515038Y-40857167D01*
X84515038Y-40857167D02*
X84507538Y-40861629D01*
X84507538Y-40861629D02*
X84500000Y-40866025D01*
X84500000Y-40866025D02*
X84492424Y-40870356D01*
X84492424Y-40870356D02*
X84484810Y-40874620D01*
X84484810Y-40874620D02*
X84477159Y-40878817D01*
X84477159Y-40878817D02*
X84469472Y-40882948D01*
X84469472Y-40882948D02*
X84461749Y-40887011D01*
X84461749Y-40887011D02*
X84453990Y-40891007D01*
X84453990Y-40891007D02*
X84453596Y-40891207D01*
X84070737Y-40997495D02*
X84050774Y-40998710D01*
X84000000Y-41000000D02*
X82900000Y-41000000D01*
X82500000Y-41000000D02*
X82480000Y-41000000D01*
X82080000Y-41000000D02*
X82060000Y-41000000D01*
X81660000Y-41000000D02*
X80560000Y-41000000D01*
X80160000Y-41000000D02*
X80140000Y-41000000D01*
X79740000Y-41000000D02*
X79720000Y-41000000D01*
X79320000Y-41000000D02*
X78220000Y-41000000D01*
X77820000Y-41000000D02*
X77800000Y-41000000D01*
X77400000Y-41000000D02*
X77380000Y-41000000D01*
X76980000Y-41000000D02*
X75880000Y-41000000D01*
X75480000Y-41000000D02*
X75460000Y-41000000D01*
X75060000Y-41000000D02*
X75040000Y-41000000D01*
X74640000Y-41000000D02*
X73540000Y-41000000D01*
X73140000Y-41000000D02*
X73120000Y-41000000D01*
X72720000Y-41000000D02*
X72700000Y-41000000D01*
X72300000Y-41000000D02*
X71200000Y-41000000D01*
X70800000Y-41000000D02*
X70780000Y-41000000D01*
X70380000Y-41000000D02*
X70360000Y-41000000D01*
X69960000Y-41000000D02*
X68860000Y-41000000D01*
X68460000Y-41000000D02*
X68440000Y-41000000D01*
X68040000Y-41000000D02*
X68020000Y-41000000D01*
X67620000Y-41000000D02*
X66520000Y-41000000D01*
X66120000Y-41000000D02*
X66100000Y-41000000D01*
X65700000Y-41000000D02*
X65680000Y-41000000D01*
X65280000Y-41000000D02*
X64180000Y-41000000D01*
X63780000Y-41000000D02*
X63760000Y-41000000D01*
X63360000Y-41000000D02*
X63340000Y-41000000D01*
X62940000Y-41000000D02*
X61840000Y-41000000D01*
X61500000Y-41000000D02*
X61491273Y-40999962D01*
X61491273Y-40999962D02*
X61482548Y-40999848D01*
X61482548Y-40999848D02*
X61473823Y-40999657D01*
X61473823Y-40999657D02*
X61465101Y-40999391D01*
X61465101Y-40999391D02*
X61456381Y-40999048D01*
X61456381Y-40999048D02*
X61447664Y-40998630D01*
X61447664Y-40998630D02*
X61438951Y-40998135D01*
X61438951Y-40998135D02*
X61430244Y-40997564D01*
X61430244Y-40997564D02*
X61421541Y-40996917D01*
X61421541Y-40996917D02*
X61412844Y-40996195D01*
X61412844Y-40996195D02*
X61404154Y-40995396D01*
X61404154Y-40995396D02*
X61395472Y-40994522D01*
X61395472Y-40994522D02*
X61386797Y-40993572D01*
X61386797Y-40993572D02*
X61378131Y-40992546D01*
X61378131Y-40992546D02*
X61369474Y-40991445D01*
X61369474Y-40991445D02*
X61360827Y-40990268D01*
X61360827Y-40990268D02*
X61352191Y-40989016D01*
X61352191Y-40989016D02*
X61343566Y-40987688D01*
X61343566Y-40987688D02*
X61334952Y-40986286D01*
X61334952Y-40986286D02*
X61326352Y-40984808D01*
X61326352Y-40984808D02*
X61317764Y-40983255D01*
X61317764Y-40983255D02*
X61309191Y-40981627D01*
X61309191Y-40981627D02*
X61300632Y-40979925D01*
X61300632Y-40979925D02*
X61292088Y-40978148D01*
X61292088Y-40978148D02*
X61283560Y-40976296D01*
X61283560Y-40976296D02*
X61275049Y-40974370D01*
X61275049Y-40974370D02*
X61266555Y-40972370D01*
X61266555Y-40972370D02*
X61258078Y-40970296D01*
X61258078Y-40970296D02*
X61249620Y-40968148D01*
X61249620Y-40968148D02*
X61241181Y-40965926D01*
X61241181Y-40965926D02*
X61232762Y-40963630D01*
X61232762Y-40963630D02*
X61224363Y-40961262D01*
X61224363Y-40961262D02*
X61215985Y-40958820D01*
X61215985Y-40958820D02*
X61207628Y-40956305D01*
X61207628Y-40956305D02*
X61199294Y-40953717D01*
X61199294Y-40953717D02*
X61190983Y-40951057D01*
X61190983Y-40951057D02*
X61182695Y-40948324D01*
X61182695Y-40948324D02*
X61174432Y-40945519D01*
X61174432Y-40945519D02*
X61166193Y-40942641D01*
X61166193Y-40942641D02*
X61157980Y-40939693D01*
X61157980Y-40939693D02*
X61149793Y-40936672D01*
X61149793Y-40936672D02*
X61141632Y-40933580D01*
X61141632Y-40933580D02*
X61133499Y-40930418D01*
X61133499Y-40930418D02*
X61125393Y-40927184D01*
X61125393Y-40927184D02*
X61117317Y-40923880D01*
X61117317Y-40923880D02*
X61109269Y-40920505D01*
X61109269Y-40920505D02*
X61101251Y-40917060D01*
X61101251Y-40917060D02*
X61093263Y-40913545D01*
X61093263Y-40913545D02*
X61085307Y-40909961D01*
X61085307Y-40909961D02*
X61077382Y-40906308D01*
X61077382Y-40906308D02*
X61069489Y-40902585D01*
X61069489Y-40902585D02*
X61061629Y-40898794D01*
X61061629Y-40898794D02*
X61053802Y-40894934D01*
X61053802Y-40894934D02*
X61046010Y-40891007D01*
X61046010Y-40891007D02*
X61038251Y-40887011D01*
X61038251Y-40887011D02*
X61030528Y-40882948D01*
X61030528Y-40882948D02*
X61022841Y-40878817D01*
X61022841Y-40878817D02*
X61015190Y-40874620D01*
X61015190Y-40874620D02*
X61007576Y-40870356D01*
X61007576Y-40870356D02*
X61000000Y-40866025D01*
X61000000Y-40866025D02*
X60992462Y-40861629D01*
X60992462Y-40861629D02*
X60984962Y-40857167D01*
X60984962Y-40857167D02*
X60977501Y-40852640D01*
X60977501Y-40852640D02*
X60970081Y-40848048D01*
X60970081Y-40848048D02*
X60962700Y-40843391D01*
X60962700Y-40843391D02*
X60955361Y-40838671D01*
X60955361Y-40838671D02*
X60948063Y-40833886D01*
X60948063Y-40833886D02*
X60940807Y-40829038D01*
X60940807Y-40829038D02*
X60933594Y-40824126D01*
X60933594Y-40824126D02*
X60926424Y-40819152D01*
X60926424Y-40819152D02*
X60919297Y-40814116D01*
X60919297Y-40814116D02*
X60912215Y-40809017D01*
X60912215Y-40809017D02*
X60905177Y-40803857D01*
X60905177Y-40803857D02*
X60898185Y-40798636D01*
X60898185Y-40798636D02*
X60891239Y-40793353D01*
X60891239Y-40793353D02*
X60884339Y-40788011D01*
X60884339Y-40788011D02*
X60877485Y-40782608D01*
X60877485Y-40782608D02*
X60870680Y-40777146D01*
X60870680Y-40777146D02*
X60863922Y-40771625D01*
X60863922Y-40771625D02*
X60857212Y-40766044D01*
X60857212Y-40766044D02*
X60850552Y-40760406D01*
X60850552Y-40760406D02*
X60843941Y-40754710D01*
X60843941Y-40754710D02*
X60837380Y-40748956D01*
X60837380Y-40748956D02*
X60830869Y-40743145D01*
X60830869Y-40743145D02*
X60824410Y-40737277D01*
X60824410Y-40737277D02*
X60818002Y-40731354D01*
X60818002Y-40731354D02*
X60811645Y-40725374D01*
X60811645Y-40725374D02*
X60805342Y-40719340D01*
X60805342Y-40719340D02*
X60799091Y-40713250D01*
X60799091Y-40713250D02*
X60792893Y-40707107D01*
X60792893Y-40707107D02*
X60786750Y-40700909D01*
X60786750Y-40700909D02*
X60780660Y-40694658D01*
X60780660Y-40694658D02*
X60774626Y-40688355D01*
X60774626Y-40688355D02*
X60768646Y-40681998D01*
X60768646Y-40681998D02*
X60762723Y-40675590D01*
X60762723Y-40675590D02*
X60756855Y-40669131D01*
X60756855Y-40669131D02*
X60751044Y-40662620D01*
X60751044Y-40662620D02*
X60745290Y-40656059D01*
X60745290Y-40656059D02*
X60739594Y-40649448D01*
X60739594Y-40649448D02*
X60733956Y-40642788D01*
X60733956Y-40642788D02*
X60728375Y-40636078D01*
X60728375Y-40636078D02*
X60722854Y-40629320D01*
X60722854Y-40629320D02*
X60717392Y-40622515D01*
X60717392Y-40622515D02*
X60711989Y-40615661D01*
X60711989Y-40615661D02*
X60706647Y-40608761D01*
X60706647Y-40608761D02*
X60701364Y-40601815D01*
X60701364Y-40601815D02*
X60696143Y-40594823D01*
X60696143Y-40594823D02*
X60690983Y-40587785D01*
X60690983Y-40587785D02*
X60685884Y-40580703D01*
X60685884Y-40580703D02*
X60680848Y-40573576D01*
X60680848Y-40573576D02*
X60675874Y-40566406D01*
X60675874Y-40566406D02*
X60670962Y-40559193D01*
X60670962Y-40559193D02*
X60666114Y-40551937D01*
X60666114Y-40551937D02*
X60661329Y-40544639D01*
X60661329Y-40544639D02*
X60656609Y-40537300D01*
X60656609Y-40537300D02*
X60651952Y-40529919D01*
X60651952Y-40529919D02*
X60647360Y-40522499D01*
X60647360Y-40522499D02*
X60642833Y-40515038D01*
X60642833Y-40515038D02*
X60638371Y-40507538D01*
X60638371Y-40507538D02*
X60633975Y-40500000D01*
X60633975Y-40500000D02*
X60629644Y-40492424D01*
X60629644Y-40492424D02*
X60625380Y-40484810D01*
X60625380Y-40484810D02*
X60621183Y-40477159D01*
X60621183Y-40477159D02*
X60617052Y-40469472D01*
X60617052Y-40469472D02*
X60612989Y-40461749D01*
X60612989Y-40461749D02*
X60608993Y-40453990D01*
X60608993Y-40453990D02*
X60608793Y-40453596D01*
X60502505Y-40070737D02*
X60501290Y-40050774D01*
X60500000Y-40000000D02*
X60500000Y-38900000D01*
X60500000Y-38500000D02*
X60500000Y-38480000D01*
X60500000Y-38080000D02*
X60500000Y-38060000D01*
X80924400Y-37800000D02*
X80924438Y-37791273D01*
X80924438Y-37791273D02*
X80924552Y-37782548D01*
X80924552Y-37782548D02*
X80924743Y-37773823D01*
X80924743Y-37773823D02*
X80925009Y-37765101D01*
X80925009Y-37765101D02*
X80925352Y-37756381D01*
X80925352Y-37756381D02*
X80925770Y-37747664D01*
X80925770Y-37747664D02*
X80926265Y-37738951D01*
X80926265Y-37738951D02*
X80926836Y-37730244D01*
X80926836Y-37730244D02*
X80927483Y-37721541D01*
X80927483Y-37721541D02*
X80928205Y-37712844D01*
X80928205Y-37712844D02*
X80929004Y-37704154D01*
X80929004Y-37704154D02*
X80929878Y-37695472D01*
X80929878Y-37695472D02*
X80930828Y-37686797D01*
X80930828Y-37686797D02*
X80931854Y-37678131D01*
X80931854Y-37678131D02*
X80932955Y-37669474D01*
X80932955Y-37669474D02*
X80934132Y-37660827D01*
X80934132Y-37660827D02*
X80935384Y-37652191D01*
X80935384Y-37652191D02*
X80936712Y-37643566D01*
X80936712Y-37643566D02*
X80938114Y-37634952D01*
X80938114Y-37634952D02*
X80939592Y-37626352D01*
X80939592Y-37626352D02*
X80941145Y-37617764D01*
X80941145Y-37617764D02*
X80942773Y-37609191D01*
X80942773Y-37609191D02*
X80944475Y-37600632D01*
X80944475Y-37600632D02*
X80946252Y-37592088D01*
X80946252Y-37592088D02*
X80948104Y-37583560D01*
X80948104Y-37583560D02*
X80950030Y-37575049D01*
X80950030Y-37575049D02*
X80952030Y-37566555D01*
X80952030Y-37566555D02*
X80954104Y-37558078D01*
X80954104Y-37558078D02*
X80956252Y-37549620D01*
X80956252Y-37549620D02*
X80958474Y-37541181D01*
X80958474Y-37541181D02*
X80960770Y-37532762D01*
X80960770Y-37532762D02*
X80963138Y-37524363D01*
X80963138Y-37524363D02*
X80965580Y-37515985D01*
X80965580Y-37515985D02*
X80968095Y-37507628D01*
X80968095Y-37507628D02*
X80970683Y-37499294D01*
X80970683Y-37499294D02*
X80973343Y-37490983D01*
X80973343Y-37490983D02*
X80976076Y-37482695D01*
X80976076Y-37482695D02*
X80978881Y-37474432D01*
X80978881Y-37474432D02*
X80981759Y-37466193D01*
X80981759Y-37466193D02*
X80984707Y-37457980D01*
X80984707Y-37457980D02*
X80987728Y-37449793D01*
X80987728Y-37449793D02*
X80990820Y-37441632D01*
X80990820Y-37441632D02*
X80993982Y-37433499D01*
X80993982Y-37433499D02*
X80997216Y-37425393D01*
X80997216Y-37425393D02*
X81000520Y-37417317D01*
X81000520Y-37417317D02*
X81003895Y-37409269D01*
X81003895Y-37409269D02*
X81007340Y-37401251D01*
X81007340Y-37401251D02*
X81010855Y-37393263D01*
X81010855Y-37393263D02*
X81014439Y-37385307D01*
X81014439Y-37385307D02*
X81018092Y-37377382D01*
X81018092Y-37377382D02*
X81021815Y-37369489D01*
X81021815Y-37369489D02*
X81025606Y-37361629D01*
X81025606Y-37361629D02*
X81029466Y-37353802D01*
X81029466Y-37353802D02*
X81033393Y-37346010D01*
X81033393Y-37346010D02*
X81037389Y-37338251D01*
X81037389Y-37338251D02*
X81041452Y-37330528D01*
X81041452Y-37330528D02*
X81045583Y-37322841D01*
X81045583Y-37322841D02*
X81049780Y-37315190D01*
X81049780Y-37315190D02*
X81054044Y-37307576D01*
X81054044Y-37307576D02*
X81058375Y-37300000D01*
X81058375Y-37300000D02*
X81062771Y-37292462D01*
X81062771Y-37292462D02*
X81067233Y-37284962D01*
X81067233Y-37284962D02*
X81071760Y-37277501D01*
X81071760Y-37277501D02*
X81076352Y-37270081D01*
X81076352Y-37270081D02*
X81081009Y-37262700D01*
X81081009Y-37262700D02*
X81085729Y-37255361D01*
X81085729Y-37255361D02*
X81090514Y-37248063D01*
X81090514Y-37248063D02*
X81095362Y-37240807D01*
X81095362Y-37240807D02*
X81100274Y-37233594D01*
X81100274Y-37233594D02*
X81105248Y-37226424D01*
X81105248Y-37226424D02*
X81110284Y-37219297D01*
X81110284Y-37219297D02*
X81115383Y-37212215D01*
X81115383Y-37212215D02*
X81120543Y-37205177D01*
X81120543Y-37205177D02*
X81125764Y-37198185D01*
X81125764Y-37198185D02*
X81131047Y-37191239D01*
X81131047Y-37191239D02*
X81136389Y-37184339D01*
X81136389Y-37184339D02*
X81141792Y-37177485D01*
X81141792Y-37177485D02*
X81147254Y-37170680D01*
X81147254Y-37170680D02*
X81152775Y-37163922D01*
X81152775Y-37163922D02*
X81158356Y-37157212D01*
X81158356Y-37157212D02*
X81163994Y-37150552D01*
X81163994Y-37150552D02*
X81169690Y-37143941D01*
X81169690Y-37143941D02*
X81175444Y-37137380D01*
X81175444Y-37137380D02*
X81181255Y-37130869D01*
X81181255Y-37130869D02*
X81187123Y-37124410D01*
X81187123Y-37124410D02*
X81193046Y-37118002D01*
X81193046Y-37118002D02*
X81199026Y-37111645D01*
X81199026Y-37111645D02*
X81205060Y-37105342D01*
X81205060Y-37105342D02*
X81211150Y-37099091D01*
X81211150Y-37099091D02*
X81217293Y-37092893D01*
X81217293Y-37092893D02*
X81223491Y-37086750D01*
X81223491Y-37086750D02*
X81229742Y-37080660D01*
X81229742Y-37080660D02*
X81236045Y-37074626D01*
X81236045Y-37074626D02*
X81242402Y-37068646D01*
X81242402Y-37068646D02*
X81248810Y-37062723D01*
X81248810Y-37062723D02*
X81255269Y-37056855D01*
X81255269Y-37056855D02*
X81261780Y-37051044D01*
X81261780Y-37051044D02*
X81268341Y-37045290D01*
X81268341Y-37045290D02*
X81274952Y-37039594D01*
X81274952Y-37039594D02*
X81281612Y-37033956D01*
X81281612Y-37033956D02*
X81288322Y-37028375D01*
X81288322Y-37028375D02*
X81295080Y-37022854D01*
X81295080Y-37022854D02*
X81301885Y-37017392D01*
X81301885Y-37017392D02*
X81308739Y-37011989D01*
X81308739Y-37011989D02*
X81315639Y-37006647D01*
X81315639Y-37006647D02*
X81322585Y-37001364D01*
X81322585Y-37001364D02*
X81329577Y-36996143D01*
X81329577Y-36996143D02*
X81336615Y-36990983D01*
X81336615Y-36990983D02*
X81343697Y-36985884D01*
X81343697Y-36985884D02*
X81350824Y-36980848D01*
X81350824Y-36980848D02*
X81357994Y-36975874D01*
X81357994Y-36975874D02*
X81365207Y-36970962D01*
X81365207Y-36970962D02*
X81372463Y-36966114D01*
X81372463Y-36966114D02*
X81379761Y-36961329D01*
X81379761Y-36961329D02*
X81387100Y-36956609D01*
X81387100Y-36956609D02*
X81394481Y-36951952D01*
X81394481Y-36951952D02*
X81401901Y-36947360D01*
X81401901Y-36947360D02*
X81409362Y-36942833D01*
X81409362Y-36942833D02*
X81416862Y-36938371D01*
X81416862Y-36938371D02*
X81424400Y-36933975D01*
X81424400Y-36933975D02*
X81431976Y-36929644D01*
X81431976Y-36929644D02*
X81439590Y-36925380D01*
X81439590Y-36925380D02*
X81447241Y-36921183D01*
X81447241Y-36921183D02*
X81454928Y-36917052D01*
X81454928Y-36917052D02*
X81462651Y-36912989D01*
X81462651Y-36912989D02*
X81470410Y-36908993D01*
X81470410Y-36908993D02*
X81470804Y-36908793D01*
X81853663Y-36802505D02*
X81873626Y-36801290D01*
X81924400Y-36800000D02*
X83024400Y-36800000D01*
X83424400Y-36800000D02*
X83444400Y-36800000D01*
X83844400Y-36800000D02*
X84445600Y-36800000D01*
X84445600Y-36800000D02*
X84454327Y-36800038D01*
X84454327Y-36800038D02*
X84463052Y-36800152D01*
X84463052Y-36800152D02*
X84471777Y-36800343D01*
X84471777Y-36800343D02*
X84480499Y-36800609D01*
X84480499Y-36800609D02*
X84489219Y-36800952D01*
X84489219Y-36800952D02*
X84497936Y-36801370D01*
X84497936Y-36801370D02*
X84506649Y-36801865D01*
X84506649Y-36801865D02*
X84515356Y-36802436D01*
X84515356Y-36802436D02*
X84524059Y-36803083D01*
X84524059Y-36803083D02*
X84532756Y-36803805D01*
X84532756Y-36803805D02*
X84541446Y-36804604D01*
X84541446Y-36804604D02*
X84550128Y-36805478D01*
X84550128Y-36805478D02*
X84558803Y-36806428D01*
X84558803Y-36806428D02*
X84567469Y-36807454D01*
X84567469Y-36807454D02*
X84576126Y-36808555D01*
X84576126Y-36808555D02*
X84584773Y-36809732D01*
X84584773Y-36809732D02*
X84593409Y-36810984D01*
X84593409Y-36810984D02*
X84602034Y-36812312D01*
X84602034Y-36812312D02*
X84610648Y-36813714D01*
X84610648Y-36813714D02*
X84619248Y-36815192D01*
X84619248Y-36815192D02*
X84627836Y-36816745D01*
X84627836Y-36816745D02*
X84636409Y-36818373D01*
X84636409Y-36818373D02*
X84644968Y-36820075D01*
X84644968Y-36820075D02*
X84653512Y-36821852D01*
X84653512Y-36821852D02*
X84662040Y-36823704D01*
X84662040Y-36823704D02*
X84670551Y-36825630D01*
X84670551Y-36825630D02*
X84679045Y-36827630D01*
X84679045Y-36827630D02*
X84687522Y-36829704D01*
X84687522Y-36829704D02*
X84695980Y-36831852D01*
X84695980Y-36831852D02*
X84704419Y-36834074D01*
X84704419Y-36834074D02*
X84712838Y-36836370D01*
X84712838Y-36836370D02*
X84721237Y-36838738D01*
X84721237Y-36838738D02*
X84729615Y-36841180D01*
X84729615Y-36841180D02*
X84737972Y-36843695D01*
X84737972Y-36843695D02*
X84746306Y-36846283D01*
X84746306Y-36846283D02*
X84754617Y-36848943D01*
X84754617Y-36848943D02*
X84762905Y-36851676D01*
X84762905Y-36851676D02*
X84771168Y-36854481D01*
X84771168Y-36854481D02*
X84779407Y-36857359D01*
X84779407Y-36857359D02*
X84787620Y-36860307D01*
X84787620Y-36860307D02*
X84795807Y-36863328D01*
X84795807Y-36863328D02*
X84803968Y-36866420D01*
X84803968Y-36866420D02*
X84812101Y-36869582D01*
X84812101Y-36869582D02*
X84820207Y-36872816D01*
X84820207Y-36872816D02*
X84828283Y-36876120D01*
X84828283Y-36876120D02*
X84836331Y-36879495D01*
X84836331Y-36879495D02*
X84844349Y-36882940D01*
X84844349Y-36882940D02*
X84852337Y-36886455D01*
X84852337Y-36886455D02*
X84860293Y-36890039D01*
X84860293Y-36890039D02*
X84868218Y-36893692D01*
X84868218Y-36893692D02*
X84876111Y-36897415D01*
X84876111Y-36897415D02*
X84883971Y-36901206D01*
X84883971Y-36901206D02*
X84891798Y-36905066D01*
X84891798Y-36905066D02*
X84899590Y-36908993D01*
X84899590Y-36908993D02*
X84907349Y-36912989D01*
X84907349Y-36912989D02*
X84915072Y-36917052D01*
X84915072Y-36917052D02*
X84922759Y-36921183D01*
X84922759Y-36921183D02*
X84930410Y-36925380D01*
X84930410Y-36925380D02*
X84938024Y-36929644D01*
X84938024Y-36929644D02*
X84945600Y-36933975D01*
X84945600Y-36933975D02*
X84953138Y-36938371D01*
X84953138Y-36938371D02*
X84960638Y-36942833D01*
X84960638Y-36942833D02*
X84968099Y-36947360D01*
X84968099Y-36947360D02*
X84975519Y-36951952D01*
X84975519Y-36951952D02*
X84982900Y-36956609D01*
X84982900Y-36956609D02*
X84990239Y-36961329D01*
X84990239Y-36961329D02*
X84997537Y-36966114D01*
X84997537Y-36966114D02*
X85004793Y-36970962D01*
X85004793Y-36970962D02*
X85012006Y-36975874D01*
X85012006Y-36975874D02*
X85019176Y-36980848D01*
X85019176Y-36980848D02*
X85026303Y-36985884D01*
X85026303Y-36985884D02*
X85033385Y-36990983D01*
X85033385Y-36990983D02*
X85040423Y-36996143D01*
X85040423Y-36996143D02*
X85047415Y-37001364D01*
X85047415Y-37001364D02*
X85054361Y-37006647D01*
X85054361Y-37006647D02*
X85061261Y-37011989D01*
X85061261Y-37011989D02*
X85068115Y-37017392D01*
X85068115Y-37017392D02*
X85074920Y-37022854D01*
X85074920Y-37022854D02*
X85081678Y-37028375D01*
X85081678Y-37028375D02*
X85088388Y-37033956D01*
X85088388Y-37033956D02*
X85095048Y-37039594D01*
X85095048Y-37039594D02*
X85101659Y-37045290D01*
X85101659Y-37045290D02*
X85108220Y-37051044D01*
X85108220Y-37051044D02*
X85114731Y-37056855D01*
X85114731Y-37056855D02*
X85121190Y-37062723D01*
X85121190Y-37062723D02*
X85127598Y-37068646D01*
X85127598Y-37068646D02*
X85133955Y-37074626D01*
X85133955Y-37074626D02*
X85140258Y-37080660D01*
X85140258Y-37080660D02*
X85146509Y-37086750D01*
X85146509Y-37086750D02*
X85152707Y-37092893D01*
X85152707Y-37092893D02*
X85158850Y-37099091D01*
X85158850Y-37099091D02*
X85164940Y-37105342D01*
X85164940Y-37105342D02*
X85170974Y-37111645D01*
X85170974Y-37111645D02*
X85176954Y-37118002D01*
X85176954Y-37118002D02*
X85182877Y-37124410D01*
X85182877Y-37124410D02*
X85188745Y-37130869D01*
X85188745Y-37130869D02*
X85194556Y-37137380D01*
X85194556Y-37137380D02*
X85200310Y-37143941D01*
X85200310Y-37143941D02*
X85206006Y-37150552D01*
X85206006Y-37150552D02*
X85211644Y-37157212D01*
X85211644Y-37157212D02*
X85217225Y-37163922D01*
X85217225Y-37163922D02*
X85222746Y-37170680D01*
X85222746Y-37170680D02*
X85228208Y-37177485D01*
X85228208Y-37177485D02*
X85233611Y-37184339D01*
X85233611Y-37184339D02*
X85238953Y-37191239D01*
X85238953Y-37191239D02*
X85244236Y-37198185D01*
X85244236Y-37198185D02*
X85249457Y-37205177D01*
X85249457Y-37205177D02*
X85254617Y-37212215D01*
X85254617Y-37212215D02*
X85259716Y-37219297D01*
X85259716Y-37219297D02*
X85264752Y-37226424D01*
X85264752Y-37226424D02*
X85269726Y-37233594D01*
X85269726Y-37233594D02*
X85274638Y-37240807D01*
X85274638Y-37240807D02*
X85279486Y-37248063D01*
X85279486Y-37248063D02*
X85284271Y-37255361D01*
X85284271Y-37255361D02*
X85288991Y-37262700D01*
X85288991Y-37262700D02*
X85293648Y-37270081D01*
X85293648Y-37270081D02*
X85298240Y-37277501D01*
X85298240Y-37277501D02*
X85302767Y-37284962D01*
X85302767Y-37284962D02*
X85307229Y-37292462D01*
X85307229Y-37292462D02*
X85311625Y-37300000D01*
X85311625Y-37300000D02*
X85315956Y-37307576D01*
X85315956Y-37307576D02*
X85320220Y-37315190D01*
X85320220Y-37315190D02*
X85324417Y-37322841D01*
X85324417Y-37322841D02*
X85328548Y-37330528D01*
X85328548Y-37330528D02*
X85332611Y-37338251D01*
X85332611Y-37338251D02*
X85336607Y-37346010D01*
X85336607Y-37346010D02*
X85336807Y-37346404D01*
X85443095Y-37729263D02*
X85444310Y-37749226D01*
X85445600Y-37800000D02*
X85445600Y-38900000D01*
X85445600Y-39300000D02*
X85445600Y-39320000D01*
X85445600Y-39720000D02*
X85445600Y-40820000D01*
X85445600Y-41220000D02*
X85445600Y-41240000D01*
X85445600Y-41640000D02*
X85445600Y-42740000D01*
X85445600Y-43140000D02*
X85445600Y-43160000D01*
X85445600Y-43560000D02*
X85445600Y-44660000D01*
X85445600Y-45060000D02*
X85445600Y-45080000D01*
X85445600Y-45480000D02*
X85445600Y-46580000D01*
X85445600Y-46980000D02*
X85445600Y-47000000D01*
X85445600Y-47400000D02*
X85445600Y-48500000D01*
X85445600Y-48900000D02*
X85445600Y-48920000D01*
X85445600Y-49320000D02*
X85445600Y-50420000D01*
X85445600Y-50820000D02*
X85445600Y-50840000D01*
X85445600Y-51240000D02*
X85445600Y-52340000D01*
X85445600Y-52740000D02*
X85445600Y-52760000D01*
X85445600Y-53160000D02*
X85445600Y-54260000D01*
X85445600Y-54660000D02*
X85445600Y-54680000D01*
X85445600Y-55080000D02*
X85445600Y-56180000D01*
X85445600Y-56580000D02*
X85445600Y-56600000D01*
X85445600Y-57000000D02*
X85445600Y-58100000D01*
X85445600Y-58500000D02*
X85445600Y-58520000D01*
X85445600Y-58920000D02*
X85445600Y-60020000D01*
X85445600Y-60420000D02*
X85445600Y-60440000D01*
X85445600Y-60840000D02*
X85445600Y-61940000D01*
X85445600Y-62340000D02*
X85445600Y-62360000D01*
X85445600Y-62760000D02*
X85445600Y-63860000D01*
X85445600Y-64260000D02*
X85445600Y-64280000D01*
X85445600Y-64680000D02*
X85445600Y-65780000D01*
X85445600Y-66180000D02*
X85445600Y-66200000D01*
X85445600Y-66600000D02*
X85445600Y-67700000D01*
X85445600Y-68100000D02*
X85445600Y-68120000D01*
X85445600Y-68520000D02*
X85445600Y-69620000D01*
X85445600Y-70020000D02*
X85445600Y-70040000D01*
X85445600Y-70440000D02*
X85445600Y-71540000D01*
X85445600Y-71600000D02*
X85445562Y-71608727D01*
X85445562Y-71608727D02*
X85445448Y-71617452D01*
X85445448Y-71617452D02*
X85445257Y-71626177D01*
X85445257Y-71626177D02*
X85444991Y-71634899D01*
X85444991Y-71634899D02*
X85444648Y-71643619D01*
X85444648Y-71643619D02*
X85444230Y-71652336D01*
X85444230Y-71652336D02*
X85443735Y-71661049D01*
X85443735Y-71661049D02*
X85443164Y-71669756D01*
X85443164Y-71669756D02*
X85442517Y-71678459D01*
X85442517Y-71678459D02*
X85441795Y-71687156D01*
X85441795Y-71687156D02*
X85440996Y-71695846D01*
X85440996Y-71695846D02*
X85440122Y-71704528D01*
X85440122Y-71704528D02*
X85439172Y-71713203D01*
X85439172Y-71713203D02*
X85438146Y-71721869D01*
X85438146Y-71721869D02*
X85437045Y-71730526D01*
X85437045Y-71730526D02*
X85435868Y-71739173D01*
X85435868Y-71739173D02*
X85434616Y-71747809D01*
X85434616Y-71747809D02*
X85433288Y-71756434D01*
X85433288Y-71756434D02*
X85431886Y-71765048D01*
X85431886Y-71765048D02*
X85430408Y-71773648D01*
X85430408Y-71773648D02*
X85428855Y-71782236D01*
X85428855Y-71782236D02*
X85427227Y-71790809D01*
X85427227Y-71790809D02*
X85425525Y-71799368D01*
X85425525Y-71799368D02*
X85423748Y-71807912D01*
X85423748Y-71807912D02*
X85421896Y-71816440D01*
X85421896Y-71816440D02*
X85419970Y-71824951D01*
X85419970Y-71824951D02*
X85417970Y-71833445D01*
X85417970Y-71833445D02*
X85415896Y-71841922D01*
X85415896Y-71841922D02*
X85413748Y-71850380D01*
X85413748Y-71850380D02*
X85411526Y-71858819D01*
X85411526Y-71858819D02*
X85409230Y-71867238D01*
X85409230Y-71867238D02*
X85406862Y-71875637D01*
X85406862Y-71875637D02*
X85404420Y-71884015D01*
X85404420Y-71884015D02*
X85401905Y-71892372D01*
X85401905Y-71892372D02*
X85399317Y-71900706D01*
X85399317Y-71900706D02*
X85396657Y-71909017D01*
X85396657Y-71909017D02*
X85393924Y-71917305D01*
X85393924Y-71917305D02*
X85391119Y-71925568D01*
X85391119Y-71925568D02*
X85388241Y-71933807D01*
X85388241Y-71933807D02*
X85385293Y-71942020D01*
X85385293Y-71942020D02*
X85382272Y-71950207D01*
X85382272Y-71950207D02*
X85379180Y-71958368D01*
X85379180Y-71958368D02*
X85376018Y-71966501D01*
X85376018Y-71966501D02*
X85372784Y-71974607D01*
X85372784Y-71974607D02*
X85369480Y-71982683D01*
X85369480Y-71982683D02*
X85366105Y-71990731D01*
X85366105Y-71990731D02*
X85362660Y-71998749D01*
X85362660Y-71998749D02*
X85359145Y-72006737D01*
X85359145Y-72006737D02*
X85355561Y-72014693D01*
X85355561Y-72014693D02*
X85351908Y-72022618D01*
X85351908Y-72022618D02*
X85348185Y-72030511D01*
X85348185Y-72030511D02*
X85344394Y-72038371D01*
X85344394Y-72038371D02*
X85340534Y-72046198D01*
X85340534Y-72046198D02*
X85336607Y-72053990D01*
X85336607Y-72053990D02*
X85332611Y-72061749D01*
X85332611Y-72061749D02*
X85328548Y-72069472D01*
X85328548Y-72069472D02*
X85324417Y-72077159D01*
X85324417Y-72077159D02*
X85320220Y-72084810D01*
X85320220Y-72084810D02*
X85315956Y-72092424D01*
X85315956Y-72092424D02*
X85311625Y-72100000D01*
X85311625Y-72100000D02*
X85307229Y-72107538D01*
X85307229Y-72107538D02*
X85302767Y-72115038D01*
X85302767Y-72115038D02*
X85298240Y-72122499D01*
X85298240Y-72122499D02*
X85293648Y-72129919D01*
X85293648Y-72129919D02*
X85288991Y-72137300D01*
X85288991Y-72137300D02*
X85284271Y-72144639D01*
X85284271Y-72144639D02*
X85279486Y-72151937D01*
X85279486Y-72151937D02*
X85274638Y-72159193D01*
X85274638Y-72159193D02*
X85269726Y-72166406D01*
X85269726Y-72166406D02*
X85264752Y-72173576D01*
X85264752Y-72173576D02*
X85259716Y-72180703D01*
X85259716Y-72180703D02*
X85254617Y-72187785D01*
X85254617Y-72187785D02*
X85249457Y-72194823D01*
X85249457Y-72194823D02*
X85244236Y-72201815D01*
X85244236Y-72201815D02*
X85238953Y-72208761D01*
X85238953Y-72208761D02*
X85233611Y-72215661D01*
X85233611Y-72215661D02*
X85228208Y-72222515D01*
X85228208Y-72222515D02*
X85222746Y-72229320D01*
X85222746Y-72229320D02*
X85217225Y-72236078D01*
X85217225Y-72236078D02*
X85211644Y-72242788D01*
X85211644Y-72242788D02*
X85206006Y-72249448D01*
X85206006Y-72249448D02*
X85200310Y-72256059D01*
X85200310Y-72256059D02*
X85194556Y-72262620D01*
X85194556Y-72262620D02*
X85188745Y-72269131D01*
X85188745Y-72269131D02*
X85182877Y-72275590D01*
X85182877Y-72275590D02*
X85176954Y-72281998D01*
X85176954Y-72281998D02*
X85170974Y-72288355D01*
X85170974Y-72288355D02*
X85164940Y-72294658D01*
X85164940Y-72294658D02*
X85158850Y-72300909D01*
X85158850Y-72300909D02*
X85152707Y-72307107D01*
X85152707Y-72307107D02*
X85146509Y-72313250D01*
X85146509Y-72313250D02*
X85140258Y-72319340D01*
X85140258Y-72319340D02*
X85133955Y-72325374D01*
X85133955Y-72325374D02*
X85127598Y-72331354D01*
X85127598Y-72331354D02*
X85121190Y-72337277D01*
X85121190Y-72337277D02*
X85114731Y-72343145D01*
X85114731Y-72343145D02*
X85108220Y-72348956D01*
X85108220Y-72348956D02*
X85101659Y-72354710D01*
X85101659Y-72354710D02*
X85095048Y-72360406D01*
X85095048Y-72360406D02*
X85088388Y-72366044D01*
X85088388Y-72366044D02*
X85081678Y-72371625D01*
X85081678Y-72371625D02*
X85074920Y-72377146D01*
X85074920Y-72377146D02*
X85068115Y-72382608D01*
X85068115Y-72382608D02*
X85061261Y-72388011D01*
X85061261Y-72388011D02*
X85054361Y-72393353D01*
X85054361Y-72393353D02*
X85047415Y-72398636D01*
X85047415Y-72398636D02*
X85040423Y-72403857D01*
X85040423Y-72403857D02*
X85033385Y-72409017D01*
X85033385Y-72409017D02*
X85026303Y-72414116D01*
X85026303Y-72414116D02*
X85019176Y-72419152D01*
X85019176Y-72419152D02*
X85012006Y-72424126D01*
X85012006Y-72424126D02*
X85004793Y-72429038D01*
X85004793Y-72429038D02*
X84997537Y-72433886D01*
X84997537Y-72433886D02*
X84990239Y-72438671D01*
X84990239Y-72438671D02*
X84982900Y-72443391D01*
X84982900Y-72443391D02*
X84975519Y-72448048D01*
X84975519Y-72448048D02*
X84968099Y-72452640D01*
X84968099Y-72452640D02*
X84960638Y-72457167D01*
X84960638Y-72457167D02*
X84953138Y-72461629D01*
X84953138Y-72461629D02*
X84945600Y-72466025D01*
X84945600Y-72466025D02*
X84938024Y-72470356D01*
X84938024Y-72470356D02*
X84930410Y-72474620D01*
X84930410Y-72474620D02*
X84922759Y-72478817D01*
X84922759Y-72478817D02*
X84915072Y-72482948D01*
X84915072Y-72482948D02*
X84907349Y-72487011D01*
X84907349Y-72487011D02*
X84899590Y-72491007D01*
X84899590Y-72491007D02*
X84899196Y-72491207D01*
X84516337Y-72597495D02*
X84496374Y-72598710D01*
X84445600Y-72600000D02*
X83345600Y-72600000D01*
X82945600Y-72600000D02*
X82925600Y-72600000D01*
X82525600Y-72600000D02*
X81924400Y-72600000D01*
X81924400Y-72600000D02*
X81915673Y-72599962D01*
X81915673Y-72599962D02*
X81906948Y-72599848D01*
X81906948Y-72599848D02*
X81898223Y-72599657D01*
X81898223Y-72599657D02*
X81889501Y-72599391D01*
X81889501Y-72599391D02*
X81880781Y-72599048D01*
X81880781Y-72599048D02*
X81872064Y-72598630D01*
X81872064Y-72598630D02*
X81863351Y-72598135D01*
X81863351Y-72598135D02*
X81854644Y-72597564D01*
X81854644Y-72597564D02*
X81845941Y-72596917D01*
X81845941Y-72596917D02*
X81837244Y-72596195D01*
X81837244Y-72596195D02*
X81828554Y-72595396D01*
X81828554Y-72595396D02*
X81819872Y-72594522D01*
X81819872Y-72594522D02*
X81811197Y-72593572D01*
X81811197Y-72593572D02*
X81802531Y-72592546D01*
X81802531Y-72592546D02*
X81793874Y-72591445D01*
X81793874Y-72591445D02*
X81785227Y-72590268D01*
X81785227Y-72590268D02*
X81776591Y-72589016D01*
X81776591Y-72589016D02*
X81767966Y-72587688D01*
X81767966Y-72587688D02*
X81759352Y-72586286D01*
X81759352Y-72586286D02*
X81750752Y-72584808D01*
X81750752Y-72584808D02*
X81742164Y-72583255D01*
X81742164Y-72583255D02*
X81733591Y-72581627D01*
X81733591Y-72581627D02*
X81725032Y-72579925D01*
X81725032Y-72579925D02*
X81716488Y-72578148D01*
X81716488Y-72578148D02*
X81707960Y-72576296D01*
X81707960Y-72576296D02*
X81699449Y-72574370D01*
X81699449Y-72574370D02*
X81690955Y-72572370D01*
X81690955Y-72572370D02*
X81682478Y-72570296D01*
X81682478Y-72570296D02*
X81674020Y-72568148D01*
X81674020Y-72568148D02*
X81665581Y-72565926D01*
X81665581Y-72565926D02*
X81657162Y-72563630D01*
X81657162Y-72563630D02*
X81648763Y-72561262D01*
X81648763Y-72561262D02*
X81640385Y-72558820D01*
X81640385Y-72558820D02*
X81632028Y-72556305D01*
X81632028Y-72556305D02*
X81623694Y-72553717D01*
X81623694Y-72553717D02*
X81615383Y-72551057D01*
X81615383Y-72551057D02*
X81607095Y-72548324D01*
X81607095Y-72548324D02*
X81598832Y-72545519D01*
X81598832Y-72545519D02*
X81590593Y-72542641D01*
X81590593Y-72542641D02*
X81582380Y-72539693D01*
X81582380Y-72539693D02*
X81574193Y-72536672D01*
X81574193Y-72536672D02*
X81566032Y-72533580D01*
X81566032Y-72533580D02*
X81557899Y-72530418D01*
X81557899Y-72530418D02*
X81549793Y-72527184D01*
X81549793Y-72527184D02*
X81541717Y-72523880D01*
X81541717Y-72523880D02*
X81533669Y-72520505D01*
X81533669Y-72520505D02*
X81525651Y-72517060D01*
X81525651Y-72517060D02*
X81517663Y-72513545D01*
X81517663Y-72513545D02*
X81509707Y-72509961D01*
X81509707Y-72509961D02*
X81501782Y-72506308D01*
X81501782Y-72506308D02*
X81493889Y-72502585D01*
X81493889Y-72502585D02*
X81486029Y-72498794D01*
X81486029Y-72498794D02*
X81478202Y-72494934D01*
X81478202Y-72494934D02*
X81470410Y-72491007D01*
X81470410Y-72491007D02*
X81462651Y-72487011D01*
X81462651Y-72487011D02*
X81454928Y-72482948D01*
X81454928Y-72482948D02*
X81447241Y-72478817D01*
X81447241Y-72478817D02*
X81439590Y-72474620D01*
X81439590Y-72474620D02*
X81431976Y-72470356D01*
X81431976Y-72470356D02*
X81424400Y-72466025D01*
X81424400Y-72466025D02*
X81416862Y-72461629D01*
X81416862Y-72461629D02*
X81409362Y-72457167D01*
X81409362Y-72457167D02*
X81401901Y-72452640D01*
X81401901Y-72452640D02*
X81394481Y-72448048D01*
X81394481Y-72448048D02*
X81387100Y-72443391D01*
X81387100Y-72443391D02*
X81379761Y-72438671D01*
X81379761Y-72438671D02*
X81372463Y-72433886D01*
X81372463Y-72433886D02*
X81365207Y-72429038D01*
X81365207Y-72429038D02*
X81357994Y-72424126D01*
X81357994Y-72424126D02*
X81350824Y-72419152D01*
X81350824Y-72419152D02*
X81343697Y-72414116D01*
X81343697Y-72414116D02*
X81336615Y-72409017D01*
X81336615Y-72409017D02*
X81329577Y-72403857D01*
X81329577Y-72403857D02*
X81322585Y-72398636D01*
X81322585Y-72398636D02*
X81315639Y-72393353D01*
X81315639Y-72393353D02*
X81308739Y-72388011D01*
X81308739Y-72388011D02*
X81301885Y-72382608D01*
X81301885Y-72382608D02*
X81295080Y-72377146D01*
X81295080Y-72377146D02*
X81288322Y-72371625D01*
X81288322Y-72371625D02*
X81281612Y-72366044D01*
X81281612Y-72366044D02*
X81274952Y-72360406D01*
X81274952Y-72360406D02*
X81268341Y-72354710D01*
X81268341Y-72354710D02*
X81261780Y-72348956D01*
X81261780Y-72348956D02*
X81255269Y-72343145D01*
X81255269Y-72343145D02*
X81248810Y-72337277D01*
X81248810Y-72337277D02*
X81242402Y-72331354D01*
X81242402Y-72331354D02*
X81236045Y-72325374D01*
X81236045Y-72325374D02*
X81229742Y-72319340D01*
X81229742Y-72319340D02*
X81223491Y-72313250D01*
X81223491Y-72313250D02*
X81217293Y-72307107D01*
X81217293Y-72307107D02*
X81211150Y-72300909D01*
X81211150Y-72300909D02*
X81205060Y-72294658D01*
X81205060Y-72294658D02*
X81199026Y-72288355D01*
X81199026Y-72288355D02*
X81193046Y-72281998D01*
X81193046Y-72281998D02*
X81187123Y-72275590D01*
X81187123Y-72275590D02*
X81181255Y-72269131D01*
X81181255Y-72269131D02*
X81175444Y-72262620D01*
X81175444Y-72262620D02*
X81169690Y-72256059D01*
X81169690Y-72256059D02*
X81163994Y-72249448D01*
X81163994Y-72249448D02*
X81158356Y-72242788D01*
X81158356Y-72242788D02*
X81152775Y-72236078D01*
X81152775Y-72236078D02*
X81147254Y-72229320D01*
X81147254Y-72229320D02*
X81141792Y-72222515D01*
X81141792Y-72222515D02*
X81136389Y-72215661D01*
X81136389Y-72215661D02*
X81131047Y-72208761D01*
X81131047Y-72208761D02*
X81125764Y-72201815D01*
X81125764Y-72201815D02*
X81120543Y-72194823D01*
X81120543Y-72194823D02*
X81115383Y-72187785D01*
X81115383Y-72187785D02*
X81110284Y-72180703D01*
X81110284Y-72180703D02*
X81105248Y-72173576D01*
X81105248Y-72173576D02*
X81100274Y-72166406D01*
X81100274Y-72166406D02*
X81095362Y-72159193D01*
X81095362Y-72159193D02*
X81090514Y-72151937D01*
X81090514Y-72151937D02*
X81085729Y-72144639D01*
X81085729Y-72144639D02*
X81081009Y-72137300D01*
X81081009Y-72137300D02*
X81076352Y-72129919D01*
X81076352Y-72129919D02*
X81071760Y-72122499D01*
X81071760Y-72122499D02*
X81067233Y-72115038D01*
X81067233Y-72115038D02*
X81062771Y-72107538D01*
X81062771Y-72107538D02*
X81058375Y-72100000D01*
X81058375Y-72100000D02*
X81054044Y-72092424D01*
X81054044Y-72092424D02*
X81049780Y-72084810D01*
X81049780Y-72084810D02*
X81045583Y-72077159D01*
X81045583Y-72077159D02*
X81041452Y-72069472D01*
X81041452Y-72069472D02*
X81037389Y-72061749D01*
X81037389Y-72061749D02*
X81033393Y-72053990D01*
X81033393Y-72053990D02*
X81033193Y-72053596D01*
X80926905Y-71670737D02*
X80925690Y-71650774D01*
X80924400Y-71600000D02*
X80924400Y-70500000D01*
X80924400Y-70100000D02*
X80924400Y-70080000D01*
X80924400Y-69680000D02*
X80924400Y-68580000D01*
X80924400Y-68180000D02*
X80924400Y-68160000D01*
X80924400Y-67760000D02*
X80924400Y-66660000D01*
X80924400Y-66260000D02*
X80924400Y-66240000D01*
X80924400Y-65840000D02*
X80924400Y-64740000D01*
X80924400Y-64340000D02*
X80924400Y-64320000D01*
X80924400Y-63920000D02*
X80924400Y-62820000D01*
X80924400Y-62420000D02*
X80924400Y-62400000D01*
X80924400Y-62000000D02*
X80924400Y-60900000D01*
X80924400Y-60500000D02*
X80924400Y-60480000D01*
X80924400Y-60080000D02*
X80924400Y-58980000D01*
X80924400Y-58580000D02*
X80924400Y-58560000D01*
X80924400Y-58160000D02*
X80924400Y-57060000D01*
X80924400Y-56660000D02*
X80924400Y-56640000D01*
X80924400Y-56240000D02*
X80924400Y-55140000D01*
X80924400Y-54740000D02*
X80924400Y-54720000D01*
X80924400Y-54320000D02*
X80924400Y-53220000D01*
X80924400Y-52820000D02*
X80924400Y-52800000D01*
X80924400Y-52400000D02*
X80924400Y-51300000D01*
X80924400Y-50900000D02*
X80924400Y-50880000D01*
X80924400Y-50480000D02*
X80924400Y-49380000D01*
X80924400Y-48980000D02*
X80924400Y-48960000D01*
X80924400Y-48560000D02*
X80924400Y-47460000D01*
X80924400Y-47060000D02*
X80924400Y-47040000D01*
X80924400Y-46640000D02*
X80924400Y-45540000D01*
X80924400Y-45140000D02*
X80924400Y-45120000D01*
X80924400Y-44720000D02*
X80924400Y-43620000D01*
X80924400Y-43220000D02*
X80924400Y-43200000D01*
X80924400Y-42800000D02*
X80924400Y-41700000D01*
X80924400Y-41300000D02*
X80924400Y-41280000D01*
X80924400Y-40880000D02*
X80924400Y-39780000D01*
X80924400Y-39380000D02*
X80924400Y-39360000D01*
X80924400Y-38960000D02*
X80924400Y-37860000D01*
X84124800Y-64211200D02*
X91694000Y-64211200D01*
X91694000Y-67310000D01*
X84124800Y-67310000D01*
X84124800Y-64211200D01*
G36*
X84124800Y-64211200D02*
G01*
X91694000Y-64211200D01*
X91694000Y-67310000D01*
X84124800Y-67310000D01*
X84124800Y-64211200D01*
G37*
X84328000Y-54787800D02*
X91897200Y-54787800D01*
X91897200Y-57886600D01*
X84328000Y-57886600D01*
X84328000Y-54787800D01*
G36*
X84328000Y-54787800D02*
G01*
X91897200Y-54787800D01*
X91897200Y-57886600D01*
X84328000Y-57886600D01*
X84328000Y-54787800D01*
G37*
X93100000Y-51700000D02*
X94200000Y-51700000D01*
X94600000Y-51700000D02*
X94620000Y-51700000D01*
X95020000Y-51700000D02*
X96120000Y-51700000D01*
X96520000Y-51700000D02*
X96540000Y-51700000D01*
X96900000Y-51700000D02*
X96900000Y-52800000D01*
X96900000Y-53200000D02*
X96900000Y-53220000D01*
X96900000Y-53620000D02*
X96900000Y-54720000D01*
X96900000Y-55120000D02*
X96900000Y-55140000D01*
X96900000Y-55540000D02*
X96900000Y-56640000D01*
X96900000Y-57040000D02*
X96900000Y-57060000D01*
X96900000Y-57460000D02*
X96900000Y-58560000D01*
X96900000Y-58960000D02*
X96900000Y-58980000D01*
X96900000Y-59380000D02*
X96900000Y-60480000D01*
X96900000Y-60880000D02*
X96900000Y-60900000D01*
X96900000Y-61300000D02*
X96900000Y-62400000D01*
X96900000Y-62800000D02*
X96900000Y-62820000D01*
X96900000Y-63220000D02*
X96900000Y-64320000D01*
X96900000Y-64720000D02*
X96900000Y-64740000D01*
X96900000Y-65140000D02*
X96900000Y-66240000D01*
X96900000Y-66640000D02*
X96900000Y-66660000D01*
X96900000Y-67060000D02*
X96900000Y-68160000D01*
X96900000Y-68560000D02*
X96900000Y-68580000D01*
X96900000Y-68980000D02*
X96900000Y-70080000D01*
X96900000Y-70480000D02*
X96900000Y-70500000D01*
X96900000Y-70500000D02*
X95800000Y-70500000D01*
X95400000Y-70500000D02*
X95380000Y-70500000D01*
X94980000Y-70500000D02*
X93880000Y-70500000D01*
X93480000Y-70500000D02*
X93460000Y-70500000D01*
X93100000Y-70500000D02*
X93100000Y-69400000D01*
X93100000Y-69000000D02*
X93100000Y-68980000D01*
X93100000Y-68580000D02*
X93100000Y-67480000D01*
X93100000Y-67080000D02*
X93100000Y-67060000D01*
X93100000Y-66660000D02*
X93100000Y-65560000D01*
X93100000Y-65160000D02*
X93100000Y-65140000D01*
X93100000Y-64740000D02*
X93100000Y-63640000D01*
X93100000Y-63240000D02*
X93100000Y-63220000D01*
X93100000Y-62820000D02*
X93100000Y-61720000D01*
X93100000Y-61320000D02*
X93100000Y-61300000D01*
X93100000Y-60900000D02*
X93100000Y-59800000D01*
X93100000Y-59400000D02*
X93100000Y-59380000D01*
X93100000Y-58980000D02*
X93100000Y-57880000D01*
X93100000Y-57480000D02*
X93100000Y-57460000D01*
X93100000Y-57060000D02*
X93100000Y-55960000D01*
X93100000Y-55560000D02*
X93100000Y-55540000D01*
X93100000Y-55140000D02*
X93100000Y-54040000D01*
X93100000Y-53640000D02*
X93100000Y-53620000D01*
X93100000Y-53220000D02*
X93100000Y-52120000D01*
X93100000Y-51720000D02*
X93100000Y-51700000D01*
D14*
%TO.C,esc2*%
X51160000Y-61210000D03*
%TD*%
%TO.C,esc3*%
X51060000Y-51810000D03*
%TD*%
%TO.C,ESC-*%
X51060000Y-70510000D03*
%TD*%
%TO.C,ESC-*%
X95100000Y-70400000D03*
%TD*%
D15*
%TO.C,U1*%
X65100000Y-83500000D03*
D16*
X67010000Y-83500000D03*
X68920000Y-83500000D03*
%TD*%
D17*
%TO.C,J2*%
X56460000Y-86000000D03*
D18*
X59000000Y-86000000D03*
X61540000Y-86000000D03*
%TD*%
D17*
%TO.C,J1*%
X88120000Y-86000000D03*
D18*
X85580000Y-86000000D03*
X83040000Y-86000000D03*
X80500000Y-86000000D03*
X77960000Y-86000000D03*
%TD*%
D14*
%TO.C,esc4*%
X95100000Y-51700000D03*
%TD*%
D19*
%TO.C,R3*%
X56600000Y-83200000D03*
X58600000Y-83200000D03*
%TD*%
D20*
%TO.C,TH1*%
X65150000Y-61125000D03*
X65150000Y-63125000D03*
%TD*%
D21*
%TO.C,C4*%
X61000000Y-89000000D03*
X63075000Y-89000000D03*
%TD*%
D14*
%TO.C,esc1*%
X94600000Y-61200000D03*
%TD*%
D22*
%TO.C,C3*%
X83659800Y-88798400D03*
X81584800Y-88798400D03*
%TD*%
D23*
%TO.C,bat-1*%
X64000000Y-37500000D03*
%TD*%
M02*
