M48
; DRILL file KiCad 10.0.4 date 2026-07-27T21:32:47
; FORMAT={-:-/ absolute / metric / decimal}
; #@! TF.CreationDate,2026-07-27T21:32:47+02:00
; #@! TF.GenerationSoftware,Kicad,Pcbnew,10.0.4
; #@! TF.FileFunction,Plated,1,2,PTH
FMAT,2
METRIC
; #@! TA.AperFunction,Plated,PTH,ViaDrill
T1C0.300
; #@! TA.AperFunction,Plated,PTH,ComponentDrill
T2C0.800
; #@! TA.AperFunction,Plated,PTH,ComponentDrill
T3C1.000
%
G90
G05
T1
X49.56Y-51.81
X49.56Y-51.81
X49.56Y-61.16
X49.56Y-61.16
X49.56Y-70.51
X49.56Y-70.51
X50.56Y-55.01
X50.56Y-57.01
X50.56Y-65.01
X50.56Y-67.01
X51.06Y-50.11
X51.06Y-51.81
X51.06Y-51.81
X51.06Y-51.81
X51.06Y-51.81
X51.06Y-51.81
X51.06Y-51.81
X51.06Y-51.81
X51.06Y-51.81
X51.06Y-51.81
X51.06Y-51.81
X51.06Y-51.81
X51.06Y-51.81
X51.06Y-51.81
X51.06Y-51.81
X51.06Y-53.41
X51.06Y-59.46
X51.06Y-61.16
X51.06Y-61.16
X51.06Y-61.16
X51.06Y-61.16
X51.06Y-61.16
X51.06Y-61.16
X51.06Y-61.16
X51.06Y-61.16
X51.06Y-61.16
X51.06Y-61.16
X51.06Y-61.16
X51.06Y-61.16
X51.06Y-61.16
X51.06Y-61.16
X51.06Y-62.76
X51.06Y-68.81
X51.06Y-70.51
X51.06Y-70.51
X51.06Y-70.51
X51.06Y-70.51
X51.06Y-70.51
X51.06Y-70.51
X51.06Y-70.51
X51.06Y-70.51
X51.06Y-70.51
X51.06Y-70.51
X51.06Y-70.51
X51.06Y-70.51
X51.06Y-70.51
X51.06Y-70.51
X51.06Y-72.11
X52.56Y-55.01
X52.56Y-57.01
X52.56Y-65.01
X52.56Y-67.01
X52.76Y-51.81
X52.76Y-61.16
X52.76Y-70.51
X54.482Y-61.15
X54.482Y-61.15
X54.482Y-70.5
X54.482Y-70.5
X54.7Y-51.75
X54.7Y-51.75
X55.88Y-64.77
X55.88Y-67.31
X55.982Y-59.45
X55.982Y-61.15
X55.982Y-61.15
X55.982Y-61.15
X55.982Y-61.15
X55.982Y-61.15
X55.982Y-61.15
X55.982Y-61.15
X55.982Y-61.15
X55.982Y-61.15
X55.982Y-61.15
X55.982Y-61.15
X55.982Y-61.15
X55.982Y-61.15
X55.982Y-61.15
X55.982Y-62.75
X55.982Y-68.8
X55.982Y-70.5
X55.982Y-70.5
X55.982Y-70.5
X55.982Y-70.5
X55.982Y-70.5
X55.982Y-70.5
X55.982Y-70.5
X55.982Y-70.5
X55.982Y-70.5
X55.982Y-70.5
X55.982Y-70.5
X55.982Y-70.5
X55.982Y-70.5
X55.982Y-70.5
X55.982Y-72.1
X56.2Y-50.05
X56.2Y-51.75
X56.2Y-51.75
X56.2Y-51.75
X56.2Y-51.75
X56.2Y-51.75
X56.2Y-51.75
X56.2Y-51.75
X56.2Y-51.75
X56.2Y-53.35
X57.682Y-61.15
X57.682Y-70.5
X59.69Y-50.8
X59.69Y-53.34
X59.69Y-64.77
X59.69Y-67.31
X60.672Y-53.54
X60.672Y-53.54
X60.672Y-53.54
X60.672Y-53.54
X60.672Y-53.54
X60.672Y-53.54
X60.672Y-53.54
X60.672Y-53.54
X60.672Y-53.54
X60.672Y-53.54
X60.672Y-53.54
X60.672Y-53.54
X60.672Y-53.54
X60.672Y-53.54
X60.672Y-53.54
X60.672Y-53.54
X60.672Y-53.54
X60.672Y-53.54
X60.672Y-53.54
X60.7Y-59.944
X60.7Y-59.944
X60.7Y-59.944
X60.7Y-59.944
X60.7Y-59.944
X60.7Y-59.944
X60.7Y-59.944
X60.7Y-59.944
X60.7Y-59.944
X60.7Y-59.944
X60.7Y-59.944
X60.7Y-59.944
X60.7Y-59.944
X60.7Y-59.944
X60.7Y-59.944
X60.7Y-59.944
X60.7Y-59.944
X60.7Y-59.944
X60.7Y-62.3
X60.7Y-62.3
X60.7Y-62.3
X60.7Y-62.3
X60.7Y-62.3
X60.7Y-62.3
X60.7Y-62.3
X60.7Y-62.3
X60.7Y-62.3
X60.7Y-62.3
X60.7Y-62.3
X60.7Y-62.3
X60.7Y-62.3
X60.7Y-62.3
X60.7Y-62.3
X60.7Y-62.3
X60.7Y-62.3
X60.7Y-62.3
X60.7Y-62.3
X60.7Y-64.4
X60.7Y-64.4
X60.7Y-64.4
X60.7Y-64.4
X60.7Y-64.4
X60.7Y-64.4
X60.7Y-64.4
X60.7Y-64.4
X60.7Y-64.4
X60.7Y-64.4
X60.7Y-64.4
X60.7Y-64.4
X60.7Y-64.4
X60.7Y-64.4
X60.7Y-64.4
X60.7Y-64.4
X60.7Y-64.4
X60.7Y-64.4
X60.7Y-64.4
X60.96Y-46.99
X60.96Y-49.53
X62.872Y-53.54
X62.872Y-53.54
X62.872Y-53.54
X62.872Y-53.54
X62.872Y-53.54
X62.872Y-53.54
X62.872Y-53.54
X62.872Y-53.54
X62.872Y-53.54
X62.872Y-53.54
X62.872Y-53.54
X62.872Y-53.54
X62.872Y-53.54
X62.872Y-53.54
X62.872Y-53.54
X62.872Y-53.54
X62.872Y-53.54
X62.872Y-53.54
X62.872Y-53.54
X62.9Y-59.944
X62.9Y-59.944
X62.9Y-59.944
X62.9Y-59.944
X62.9Y-59.944
X62.9Y-59.944
X62.9Y-59.944
X62.9Y-59.944
X62.9Y-59.944
X62.9Y-59.944
X62.9Y-59.944
X62.9Y-59.944
X62.9Y-59.944
X62.9Y-59.944
X62.9Y-59.944
X62.9Y-59.944
X62.9Y-59.944
X62.9Y-59.944
X62.9Y-62.3
X62.9Y-62.3
X62.9Y-62.3
X62.9Y-62.3
X62.9Y-62.3
X62.9Y-62.3
X62.9Y-62.3
X62.9Y-62.3
X62.9Y-62.3
X62.9Y-62.3
X62.9Y-62.3
X62.9Y-62.3
X62.9Y-62.3
X62.9Y-62.3
X62.9Y-62.3
X62.9Y-62.3
X62.9Y-62.3
X62.9Y-62.3
X62.9Y-62.3
X62.9Y-64.4
X62.9Y-64.4
X62.9Y-64.4
X62.9Y-64.4
X62.9Y-64.4
X62.9Y-64.4
X62.9Y-64.4
X62.9Y-64.4
X62.9Y-64.4
X62.9Y-64.4
X62.9Y-64.4
X62.9Y-64.4
X62.9Y-64.4
X62.9Y-64.4
X62.9Y-64.4
X62.9Y-64.4
X62.9Y-64.4
X62.9Y-64.4
X62.9Y-64.4
X64.77Y-46.99
X64.77Y-49.53
X67.572Y-53.54
X67.572Y-53.54
X67.572Y-53.54
X67.572Y-53.54
X67.572Y-53.54
X67.572Y-53.54
X67.572Y-53.54
X67.572Y-53.54
X67.572Y-53.54
X67.572Y-53.54
X67.572Y-53.54
X67.572Y-53.54
X67.572Y-53.54
X67.572Y-53.54
X67.572Y-53.54
X67.572Y-53.54
X67.572Y-53.54
X67.572Y-53.54
X67.572Y-53.54
X67.6Y-59.69
X67.6Y-59.69
X67.6Y-59.69
X67.6Y-59.69
X67.6Y-59.69
X67.6Y-59.69
X67.6Y-59.69
X67.6Y-59.69
X67.6Y-59.69
X67.6Y-59.69
X67.6Y-59.69
X67.6Y-59.69
X67.6Y-59.69
X67.6Y-59.69
X67.6Y-59.69
X67.6Y-59.69
X67.6Y-59.69
X67.6Y-59.69
X67.6Y-62.3
X67.6Y-62.3
X67.6Y-62.3
X67.6Y-62.3
X67.6Y-62.3
X67.6Y-62.3
X67.6Y-62.3
X67.6Y-62.3
X67.6Y-62.3
X67.6Y-62.3
X67.6Y-62.3
X67.6Y-62.3
X67.6Y-62.3
X67.6Y-62.3
X67.6Y-62.3
X67.6Y-62.3
X67.6Y-62.3
X67.6Y-62.3
X67.6Y-62.3
X67.6Y-64.4
X67.6Y-64.4
X67.6Y-64.4
X67.6Y-64.4
X67.6Y-64.4
X67.6Y-64.4
X67.6Y-64.4
X67.6Y-64.4
X67.6Y-64.4
X67.6Y-64.4
X67.6Y-64.4
X67.6Y-64.4
X67.6Y-64.4
X67.6Y-64.4
X67.6Y-64.4
X67.6Y-64.4
X67.6Y-64.4
X67.6Y-64.4
X67.6Y-64.4
X68.0Y-38.0
X68.0Y-40.0
X69.772Y-53.54
X69.772Y-53.54
X69.772Y-53.54
X69.772Y-53.54
X69.772Y-53.54
X69.772Y-53.54
X69.772Y-53.54
X69.772Y-53.54
X69.772Y-53.54
X69.772Y-53.54
X69.772Y-53.54
X69.772Y-53.54
X69.772Y-53.54
X69.772Y-53.54
X69.772Y-53.54
X69.772Y-53.54
X69.772Y-53.54
X69.772Y-53.54
X69.772Y-53.54
X69.8Y-59.69
X69.8Y-59.69
X69.8Y-59.69
X69.8Y-59.69
X69.8Y-59.69
X69.8Y-59.69
X69.8Y-59.69
X69.8Y-59.69
X69.8Y-59.69
X69.8Y-59.69
X69.8Y-59.69
X69.8Y-59.69
X69.8Y-59.69
X69.8Y-59.69
X69.8Y-59.69
X69.8Y-59.69
X69.8Y-59.69
X69.8Y-59.69
X69.8Y-62.3
X69.8Y-62.3
X69.8Y-62.3
X69.8Y-62.3
X69.8Y-62.3
X69.8Y-62.3
X69.8Y-62.3
X69.8Y-62.3
X69.8Y-62.3
X69.8Y-62.3
X69.8Y-62.3
X69.8Y-62.3
X69.8Y-62.3
X69.8Y-62.3
X69.8Y-62.3
X69.8Y-62.3
X69.8Y-62.3
X69.8Y-62.3
X69.8Y-62.3
X69.8Y-64.4
X69.8Y-64.4
X69.8Y-64.4
X69.8Y-64.4
X69.8Y-64.4
X69.8Y-64.4
X69.8Y-64.4
X69.8Y-64.4
X69.8Y-64.4
X69.8Y-64.4
X69.8Y-64.4
X69.8Y-64.4
X69.8Y-64.4
X69.8Y-64.4
X69.8Y-64.4
X69.8Y-64.4
X69.8Y-64.4
X69.8Y-64.4
X69.8Y-64.4
X70.0Y-38.0
X70.0Y-40.0
X72.0Y-38.0
X72.0Y-40.0
X73.66Y-46.99
X73.66Y-49.53
X74.0Y-38.0
X74.0Y-40.0
X74.872Y-53.54
X74.872Y-53.54
X74.872Y-53.54
X74.872Y-53.54
X74.872Y-53.54
X74.872Y-53.54
X74.872Y-53.54
X74.872Y-53.54
X74.872Y-53.54
X74.872Y-53.54
X74.872Y-53.54
X74.872Y-53.54
X74.872Y-53.54
X74.872Y-53.54
X74.872Y-53.54
X74.872Y-53.54
X74.872Y-53.54
X74.872Y-53.54
X74.872Y-53.54
X74.9Y-59.69
X74.9Y-59.69
X74.9Y-59.69
X74.9Y-59.69
X74.9Y-59.69
X74.9Y-59.69
X74.9Y-59.69
X74.9Y-59.69
X74.9Y-59.69
X74.9Y-59.69
X74.9Y-59.69
X74.9Y-59.69
X74.9Y-59.69
X74.9Y-59.69
X74.9Y-59.69
X74.9Y-59.69
X74.9Y-59.69
X74.9Y-59.69
X74.9Y-62.3
X74.9Y-62.3
X74.9Y-62.3
X74.9Y-62.3
X74.9Y-62.3
X74.9Y-62.3
X74.9Y-62.3
X74.9Y-62.3
X74.9Y-62.3
X74.9Y-62.3
X74.9Y-62.3
X74.9Y-62.3
X74.9Y-62.3
X74.9Y-62.3
X74.9Y-62.3
X74.9Y-62.3
X74.9Y-62.3
X74.9Y-62.3
X74.9Y-62.3
X74.9Y-64.4
X74.9Y-64.4
X74.9Y-64.4
X74.9Y-64.4
X74.9Y-64.4
X74.9Y-64.4
X74.9Y-64.4
X74.9Y-64.4
X74.9Y-64.4
X74.9Y-64.4
X74.9Y-64.4
X74.9Y-64.4
X74.9Y-64.4
X74.9Y-64.4
X74.9Y-64.4
X74.9Y-64.4
X74.9Y-64.4
X74.9Y-64.4
X74.9Y-64.4
X77.0Y-38.0
X77.0Y-40.0
X77.47Y-46.99
X77.47Y-49.53
X78.372Y-53.54
X78.372Y-53.54
X78.372Y-53.54
X78.372Y-53.54
X78.372Y-53.54
X78.372Y-53.54
X78.372Y-53.54
X78.372Y-53.54
X78.372Y-53.54
X78.372Y-53.54
X78.372Y-53.54
X78.372Y-53.54
X78.372Y-53.54
X78.372Y-53.54
X78.372Y-53.54
X78.372Y-53.54
X78.372Y-53.54
X78.372Y-53.54
X78.372Y-53.54
X78.4Y-59.69
X78.4Y-59.69
X78.4Y-59.69
X78.4Y-59.69
X78.4Y-59.69
X78.4Y-59.69
X78.4Y-59.69
X78.4Y-59.69
X78.4Y-59.69
X78.4Y-59.69
X78.4Y-59.69
X78.4Y-59.69
X78.4Y-59.69
X78.4Y-59.69
X78.4Y-59.69
X78.4Y-59.69
X78.4Y-59.69
X78.4Y-59.69
X78.4Y-59.69
X78.4Y-62.3
X78.4Y-62.3
X78.4Y-62.3
X78.4Y-62.3
X78.4Y-62.3
X78.4Y-62.3
X78.4Y-62.3
X78.4Y-62.3
X78.4Y-62.3
X78.4Y-62.3
X78.4Y-62.3
X78.4Y-62.3
X78.4Y-62.3
X78.4Y-62.3
X78.4Y-62.3
X78.4Y-62.3
X78.4Y-62.3
X78.4Y-62.3
X78.4Y-62.3
X78.4Y-64.4
X78.4Y-64.4
X78.4Y-64.4
X78.4Y-64.4
X78.4Y-64.4
X78.4Y-64.4
X78.4Y-64.4
X78.4Y-64.4
X78.4Y-64.4
X78.4Y-64.4
X78.4Y-64.4
X78.4Y-64.4
X78.4Y-64.4
X78.4Y-64.4
X78.4Y-64.4
X78.4Y-64.4
X78.4Y-64.4
X78.4Y-64.4
X78.4Y-64.4
X79.0Y-38.0
X79.0Y-40.0
X82.0Y-38.0
X82.0Y-40.0
X82.0Y-41.0
X82.0Y-43.0
X82.0Y-52.0
X82.0Y-54.0
X82.0Y-58.0
X82.0Y-60.0
X82.0Y-64.0
X82.0Y-66.0
X82.0Y-69.0
X82.0Y-71.0
X84.0Y-38.0
X84.0Y-40.0
X84.0Y-41.0
X84.0Y-43.0
X84.0Y-52.0
X84.0Y-54.0
X84.0Y-58.0
X84.0Y-60.0
X84.0Y-64.0
X84.0Y-66.0
X84.0Y-69.0
X84.0Y-71.0
X86.512Y-59.792
X86.512Y-62.332
X86.563Y-53.391
X86.614Y-49.581
X86.614Y-70.917
X86.665Y-68.631
X87.9Y-51.8
X87.9Y-51.8
X87.9Y-61.0
X87.9Y-61.0
X87.9Y-70.5
X87.9Y-70.5
X89.4Y-50.1
X89.4Y-51.8
X89.4Y-51.8
X89.4Y-51.8
X89.4Y-51.8
X89.4Y-51.8
X89.4Y-51.8
X89.4Y-51.8
X89.4Y-51.8
X89.4Y-51.8
X89.4Y-51.8
X89.4Y-51.8
X89.4Y-51.8
X89.4Y-51.8
X89.4Y-51.8
X89.4Y-53.4
X89.4Y-59.3
X89.4Y-61.0
X89.4Y-61.0
X89.4Y-61.0
X89.4Y-61.0
X89.4Y-61.0
X89.4Y-61.0
X89.4Y-61.0
X89.4Y-61.0
X89.4Y-61.0
X89.4Y-61.0
X89.4Y-61.0
X89.4Y-61.0
X89.4Y-61.0
X89.4Y-61.0
X89.4Y-62.6
X89.4Y-68.8
X89.4Y-70.5
X89.4Y-70.5
X89.4Y-70.5
X89.4Y-70.5
X89.4Y-70.5
X89.4Y-70.5
X89.4Y-70.5
X89.4Y-70.5
X89.4Y-70.5
X89.4Y-70.5
X89.4Y-70.5
X89.4Y-70.5
X89.4Y-70.5
X89.4Y-70.5
X89.4Y-72.1
X91.1Y-51.8
X91.1Y-61.0
X91.1Y-70.5
X91.2Y-64.712
X91.2Y-66.712
X91.259Y-55.331
X91.259Y-57.331
X93.2Y-64.712
X93.2Y-66.712
X93.259Y-55.331
X93.259Y-57.331
X93.6Y-51.7
X93.6Y-51.7
X93.6Y-60.9
X93.6Y-60.9
X93.6Y-70.4
X93.6Y-70.4
X95.1Y-50.0
X95.1Y-51.7
X95.1Y-51.7
X95.1Y-51.7
X95.1Y-51.7
X95.1Y-51.7
X95.1Y-51.7
X95.1Y-51.7
X95.1Y-51.7
X95.1Y-51.7
X95.1Y-51.7
X95.1Y-51.7
X95.1Y-51.7
X95.1Y-51.7
X95.1Y-51.7
X95.1Y-53.3
X95.1Y-59.2
X95.1Y-60.9
X95.1Y-60.9
X95.1Y-60.9
X95.1Y-60.9
X95.1Y-60.9
X95.1Y-60.9
X95.1Y-60.9
X95.1Y-60.9
X95.1Y-60.9
X95.1Y-60.9
X95.1Y-60.9
X95.1Y-60.9
X95.1Y-60.9
X95.1Y-60.9
X95.1Y-62.5
X95.1Y-68.7
X95.1Y-70.4
X95.1Y-70.4
X95.1Y-70.4
X95.1Y-70.4
X95.1Y-70.4
X95.1Y-70.4
X95.1Y-70.4
X95.1Y-70.4
X95.1Y-70.4
X95.1Y-70.4
X95.1Y-70.4
X95.1Y-70.4
X95.1Y-70.4
X95.1Y-70.4
X95.1Y-72.0
X96.5Y-60.95
X96.8Y-51.7
X96.8Y-70.4
T2
X65.1Y-83.5
X67.01Y-83.5
X68.92Y-83.5
T3
X56.46Y-86.0
X59.0Y-86.0
X61.54Y-86.0
X77.96Y-86.0
X80.5Y-86.0
X83.04Y-86.0
X85.58Y-86.0
X88.12Y-86.0
M30
