%TF.GenerationSoftware,KiCad,Pcbnew,10.0.4*%
%TF.CreationDate,2026-07-27T21:32:22+02:00*%
%TF.ProjectId,pdb,7064622e-6b69-4636-9164-5f7063625858,rev?*%
%TF.SameCoordinates,Original*%
%TF.FileFunction,Legend,Top*%
%TF.FilePolarity,Positive*%
%FSLAX46Y46*%
G04 Gerber Fmt 4.6, Leading zero omitted, Abs format (unit mm)*
G04 Created by KiCad (PCBNEW 10.0.4) date 2026-07-27 21:32:22*
%MOMM*%
%LPD*%
G01*
G04 APERTURE LIST*
%ADD10C,0.150000*%
%ADD11C,0.300000*%
%ADD12C,0.400000*%
%ADD13C,0.175000*%
%ADD14C,0.200000*%
%ADD15C,0.120000*%
G04 APERTURE END LIST*
D10*
X177002200Y-166007200D02*
X285002200Y-166007200D01*
X285002200Y-198007200D01*
X177002200Y-198007200D01*
X177002200Y-166007200D01*
X10000000Y-10000000D02*
X287002200Y-10000000D01*
X287002200Y-200007200D01*
X10000000Y-200007200D01*
X10000000Y-10000000D01*
X12000000Y-12000000D02*
X285002200Y-12000000D01*
X285002200Y-198007200D01*
X12000000Y-198007200D01*
X12000000Y-12000000D01*
X60000000Y-12000000D02*
X60000000Y-10000000D01*
X110000000Y-12000000D02*
X110000000Y-10000000D01*
X160000000Y-12000000D02*
X160000000Y-10000000D01*
X210000000Y-12000000D02*
X210000000Y-10000000D01*
X260000000Y-12000000D02*
X260000000Y-10000000D01*
X36089160Y-11593604D02*
X35346303Y-11593604D01*
X35717731Y-11593604D02*
X35717731Y-10293604D01*
X35717731Y-10293604D02*
X35593922Y-10479319D01*
X35593922Y-10479319D02*
X35470112Y-10603128D01*
X35470112Y-10603128D02*
X35346303Y-10665033D01*
X85346303Y-10417414D02*
X85408207Y-10355509D01*
X85408207Y-10355509D02*
X85532017Y-10293604D01*
X85532017Y-10293604D02*
X85841541Y-10293604D01*
X85841541Y-10293604D02*
X85965350Y-10355509D01*
X85965350Y-10355509D02*
X86027255Y-10417414D01*
X86027255Y-10417414D02*
X86089160Y-10541223D01*
X86089160Y-10541223D02*
X86089160Y-10665033D01*
X86089160Y-10665033D02*
X86027255Y-10850747D01*
X86027255Y-10850747D02*
X85284398Y-11593604D01*
X85284398Y-11593604D02*
X86089160Y-11593604D01*
X135284398Y-10293604D02*
X136089160Y-10293604D01*
X136089160Y-10293604D02*
X135655826Y-10788842D01*
X135655826Y-10788842D02*
X135841541Y-10788842D01*
X135841541Y-10788842D02*
X135965350Y-10850747D01*
X135965350Y-10850747D02*
X136027255Y-10912652D01*
X136027255Y-10912652D02*
X136089160Y-11036461D01*
X136089160Y-11036461D02*
X136089160Y-11345985D01*
X136089160Y-11345985D02*
X136027255Y-11469795D01*
X136027255Y-11469795D02*
X135965350Y-11531700D01*
X135965350Y-11531700D02*
X135841541Y-11593604D01*
X135841541Y-11593604D02*
X135470112Y-11593604D01*
X135470112Y-11593604D02*
X135346303Y-11531700D01*
X135346303Y-11531700D02*
X135284398Y-11469795D01*
X185965350Y-10726938D02*
X185965350Y-11593604D01*
X185655826Y-10231700D02*
X185346303Y-11160271D01*
X185346303Y-11160271D02*
X186151064Y-11160271D01*
X236027255Y-10293604D02*
X235408207Y-10293604D01*
X235408207Y-10293604D02*
X235346303Y-10912652D01*
X235346303Y-10912652D02*
X235408207Y-10850747D01*
X235408207Y-10850747D02*
X235532017Y-10788842D01*
X235532017Y-10788842D02*
X235841541Y-10788842D01*
X235841541Y-10788842D02*
X235965350Y-10850747D01*
X235965350Y-10850747D02*
X236027255Y-10912652D01*
X236027255Y-10912652D02*
X236089160Y-11036461D01*
X236089160Y-11036461D02*
X236089160Y-11345985D01*
X236089160Y-11345985D02*
X236027255Y-11469795D01*
X236027255Y-11469795D02*
X235965350Y-11531700D01*
X235965350Y-11531700D02*
X235841541Y-11593604D01*
X235841541Y-11593604D02*
X235532017Y-11593604D01*
X235532017Y-11593604D02*
X235408207Y-11531700D01*
X235408207Y-11531700D02*
X235346303Y-11469795D01*
X285965350Y-10293604D02*
X285717731Y-10293604D01*
X285717731Y-10293604D02*
X285593922Y-10355509D01*
X285593922Y-10355509D02*
X285532017Y-10417414D01*
X285532017Y-10417414D02*
X285408207Y-10603128D01*
X285408207Y-10603128D02*
X285346303Y-10850747D01*
X285346303Y-10850747D02*
X285346303Y-11345985D01*
X285346303Y-11345985D02*
X285408207Y-11469795D01*
X285408207Y-11469795D02*
X285470112Y-11531700D01*
X285470112Y-11531700D02*
X285593922Y-11593604D01*
X285593922Y-11593604D02*
X285841541Y-11593604D01*
X285841541Y-11593604D02*
X285965350Y-11531700D01*
X285965350Y-11531700D02*
X286027255Y-11469795D01*
X286027255Y-11469795D02*
X286089160Y-11345985D01*
X286089160Y-11345985D02*
X286089160Y-11036461D01*
X286089160Y-11036461D02*
X286027255Y-10912652D01*
X286027255Y-10912652D02*
X285965350Y-10850747D01*
X285965350Y-10850747D02*
X285841541Y-10788842D01*
X285841541Y-10788842D02*
X285593922Y-10788842D01*
X285593922Y-10788842D02*
X285470112Y-10850747D01*
X285470112Y-10850747D02*
X285408207Y-10912652D01*
X285408207Y-10912652D02*
X285346303Y-11036461D01*
X60000000Y-198007200D02*
X60000000Y-200007200D01*
X110000000Y-198007200D02*
X110000000Y-200007200D01*
X160000000Y-198007200D02*
X160000000Y-200007200D01*
X210000000Y-198007200D02*
X210000000Y-200007200D01*
X260000000Y-198007200D02*
X260000000Y-200007200D01*
X36089160Y-199600804D02*
X35346303Y-199600804D01*
X35717731Y-199600804D02*
X35717731Y-198300804D01*
X35717731Y-198300804D02*
X35593922Y-198486519D01*
X35593922Y-198486519D02*
X35470112Y-198610328D01*
X35470112Y-198610328D02*
X35346303Y-198672233D01*
X85346303Y-198424614D02*
X85408207Y-198362709D01*
X85408207Y-198362709D02*
X85532017Y-198300804D01*
X85532017Y-198300804D02*
X85841541Y-198300804D01*
X85841541Y-198300804D02*
X85965350Y-198362709D01*
X85965350Y-198362709D02*
X86027255Y-198424614D01*
X86027255Y-198424614D02*
X86089160Y-198548423D01*
X86089160Y-198548423D02*
X86089160Y-198672233D01*
X86089160Y-198672233D02*
X86027255Y-198857947D01*
X86027255Y-198857947D02*
X85284398Y-199600804D01*
X85284398Y-199600804D02*
X86089160Y-199600804D01*
X135284398Y-198300804D02*
X136089160Y-198300804D01*
X136089160Y-198300804D02*
X135655826Y-198796042D01*
X135655826Y-198796042D02*
X135841541Y-198796042D01*
X135841541Y-198796042D02*
X135965350Y-198857947D01*
X135965350Y-198857947D02*
X136027255Y-198919852D01*
X136027255Y-198919852D02*
X136089160Y-199043661D01*
X136089160Y-199043661D02*
X136089160Y-199353185D01*
X136089160Y-199353185D02*
X136027255Y-199476995D01*
X136027255Y-199476995D02*
X135965350Y-199538900D01*
X135965350Y-199538900D02*
X135841541Y-199600804D01*
X135841541Y-199600804D02*
X135470112Y-199600804D01*
X135470112Y-199600804D02*
X135346303Y-199538900D01*
X135346303Y-199538900D02*
X135284398Y-199476995D01*
X185965350Y-198734138D02*
X185965350Y-199600804D01*
X185655826Y-198238900D02*
X185346303Y-199167471D01*
X185346303Y-199167471D02*
X186151064Y-199167471D01*
X236027255Y-198300804D02*
X235408207Y-198300804D01*
X235408207Y-198300804D02*
X235346303Y-198919852D01*
X235346303Y-198919852D02*
X235408207Y-198857947D01*
X235408207Y-198857947D02*
X235532017Y-198796042D01*
X235532017Y-198796042D02*
X235841541Y-198796042D01*
X235841541Y-198796042D02*
X235965350Y-198857947D01*
X235965350Y-198857947D02*
X236027255Y-198919852D01*
X236027255Y-198919852D02*
X236089160Y-199043661D01*
X236089160Y-199043661D02*
X236089160Y-199353185D01*
X236089160Y-199353185D02*
X236027255Y-199476995D01*
X236027255Y-199476995D02*
X235965350Y-199538900D01*
X235965350Y-199538900D02*
X235841541Y-199600804D01*
X235841541Y-199600804D02*
X235532017Y-199600804D01*
X235532017Y-199600804D02*
X235408207Y-199538900D01*
X235408207Y-199538900D02*
X235346303Y-199476995D01*
X285965350Y-198300804D02*
X285717731Y-198300804D01*
X285717731Y-198300804D02*
X285593922Y-198362709D01*
X285593922Y-198362709D02*
X285532017Y-198424614D01*
X285532017Y-198424614D02*
X285408207Y-198610328D01*
X285408207Y-198610328D02*
X285346303Y-198857947D01*
X285346303Y-198857947D02*
X285346303Y-199353185D01*
X285346303Y-199353185D02*
X285408207Y-199476995D01*
X285408207Y-199476995D02*
X285470112Y-199538900D01*
X285470112Y-199538900D02*
X285593922Y-199600804D01*
X285593922Y-199600804D02*
X285841541Y-199600804D01*
X285841541Y-199600804D02*
X285965350Y-199538900D01*
X285965350Y-199538900D02*
X286027255Y-199476995D01*
X286027255Y-199476995D02*
X286089160Y-199353185D01*
X286089160Y-199353185D02*
X286089160Y-199043661D01*
X286089160Y-199043661D02*
X286027255Y-198919852D01*
X286027255Y-198919852D02*
X285965350Y-198857947D01*
X285965350Y-198857947D02*
X285841541Y-198796042D01*
X285841541Y-198796042D02*
X285593922Y-198796042D01*
X285593922Y-198796042D02*
X285470112Y-198857947D01*
X285470112Y-198857947D02*
X285408207Y-198919852D01*
X285408207Y-198919852D02*
X285346303Y-199043661D01*
X10000000Y-60000000D02*
X12000000Y-60000000D01*
X10000000Y-110000000D02*
X12000000Y-110000000D01*
X10000000Y-160000000D02*
X12000000Y-160000000D01*
X10690476Y-35222176D02*
X11309523Y-35222176D01*
X10566666Y-35593604D02*
X10999999Y-34293604D01*
X10999999Y-34293604D02*
X11433333Y-35593604D01*
X11092857Y-84912652D02*
X11278571Y-84974557D01*
X11278571Y-84974557D02*
X11340476Y-85036461D01*
X11340476Y-85036461D02*
X11402380Y-85160271D01*
X11402380Y-85160271D02*
X11402380Y-85345985D01*
X11402380Y-85345985D02*
X11340476Y-85469795D01*
X11340476Y-85469795D02*
X11278571Y-85531700D01*
X11278571Y-85531700D02*
X11154761Y-85593604D01*
X11154761Y-85593604D02*
X10659523Y-85593604D01*
X10659523Y-85593604D02*
X10659523Y-84293604D01*
X10659523Y-84293604D02*
X11092857Y-84293604D01*
X11092857Y-84293604D02*
X11216666Y-84355509D01*
X11216666Y-84355509D02*
X11278571Y-84417414D01*
X11278571Y-84417414D02*
X11340476Y-84541223D01*
X11340476Y-84541223D02*
X11340476Y-84665033D01*
X11340476Y-84665033D02*
X11278571Y-84788842D01*
X11278571Y-84788842D02*
X11216666Y-84850747D01*
X11216666Y-84850747D02*
X11092857Y-84912652D01*
X11092857Y-84912652D02*
X10659523Y-84912652D01*
X11402380Y-135469795D02*
X11340476Y-135531700D01*
X11340476Y-135531700D02*
X11154761Y-135593604D01*
X11154761Y-135593604D02*
X11030952Y-135593604D01*
X11030952Y-135593604D02*
X10845238Y-135531700D01*
X10845238Y-135531700D02*
X10721428Y-135407890D01*
X10721428Y-135407890D02*
X10659523Y-135284080D01*
X10659523Y-135284080D02*
X10597619Y-135036461D01*
X10597619Y-135036461D02*
X10597619Y-134850747D01*
X10597619Y-134850747D02*
X10659523Y-134603128D01*
X10659523Y-134603128D02*
X10721428Y-134479319D01*
X10721428Y-134479319D02*
X10845238Y-134355509D01*
X10845238Y-134355509D02*
X11030952Y-134293604D01*
X11030952Y-134293604D02*
X11154761Y-134293604D01*
X11154761Y-134293604D02*
X11340476Y-134355509D01*
X11340476Y-134355509D02*
X11402380Y-134417414D01*
X10659523Y-185593604D02*
X10659523Y-184293604D01*
X10659523Y-184293604D02*
X10969047Y-184293604D01*
X10969047Y-184293604D02*
X11154761Y-184355509D01*
X11154761Y-184355509D02*
X11278571Y-184479319D01*
X11278571Y-184479319D02*
X11340476Y-184603128D01*
X11340476Y-184603128D02*
X11402380Y-184850747D01*
X11402380Y-184850747D02*
X11402380Y-185036461D01*
X11402380Y-185036461D02*
X11340476Y-185284080D01*
X11340476Y-185284080D02*
X11278571Y-185407890D01*
X11278571Y-185407890D02*
X11154761Y-185531700D01*
X11154761Y-185531700D02*
X10969047Y-185593604D01*
X10969047Y-185593604D02*
X10659523Y-185593604D01*
X287002200Y-60000000D02*
X285002200Y-60000000D01*
X287002200Y-110000000D02*
X285002200Y-110000000D01*
X287002200Y-160000000D02*
X285002200Y-160000000D01*
X285692676Y-35222176D02*
X286311723Y-35222176D01*
X285568866Y-35593604D02*
X286002199Y-34293604D01*
X286002199Y-34293604D02*
X286435533Y-35593604D01*
X286095057Y-84912652D02*
X286280771Y-84974557D01*
X286280771Y-84974557D02*
X286342676Y-85036461D01*
X286342676Y-85036461D02*
X286404580Y-85160271D01*
X286404580Y-85160271D02*
X286404580Y-85345985D01*
X286404580Y-85345985D02*
X286342676Y-85469795D01*
X286342676Y-85469795D02*
X286280771Y-85531700D01*
X286280771Y-85531700D02*
X286156961Y-85593604D01*
X286156961Y-85593604D02*
X285661723Y-85593604D01*
X285661723Y-85593604D02*
X285661723Y-84293604D01*
X285661723Y-84293604D02*
X286095057Y-84293604D01*
X286095057Y-84293604D02*
X286218866Y-84355509D01*
X286218866Y-84355509D02*
X286280771Y-84417414D01*
X286280771Y-84417414D02*
X286342676Y-84541223D01*
X286342676Y-84541223D02*
X286342676Y-84665033D01*
X286342676Y-84665033D02*
X286280771Y-84788842D01*
X286280771Y-84788842D02*
X286218866Y-84850747D01*
X286218866Y-84850747D02*
X286095057Y-84912652D01*
X286095057Y-84912652D02*
X285661723Y-84912652D01*
X286404580Y-135469795D02*
X286342676Y-135531700D01*
X286342676Y-135531700D02*
X286156961Y-135593604D01*
X286156961Y-135593604D02*
X286033152Y-135593604D01*
X286033152Y-135593604D02*
X285847438Y-135531700D01*
X285847438Y-135531700D02*
X285723628Y-135407890D01*
X285723628Y-135407890D02*
X285661723Y-135284080D01*
X285661723Y-135284080D02*
X285599819Y-135036461D01*
X285599819Y-135036461D02*
X285599819Y-134850747D01*
X285599819Y-134850747D02*
X285661723Y-134603128D01*
X285661723Y-134603128D02*
X285723628Y-134479319D01*
X285723628Y-134479319D02*
X285847438Y-134355509D01*
X285847438Y-134355509D02*
X286033152Y-134293604D01*
X286033152Y-134293604D02*
X286156961Y-134293604D01*
X286156961Y-134293604D02*
X286342676Y-134355509D01*
X286342676Y-134355509D02*
X286404580Y-134417414D01*
X285661723Y-185593604D02*
X285661723Y-184293604D01*
X285661723Y-184293604D02*
X285971247Y-184293604D01*
X285971247Y-184293604D02*
X286156961Y-184355509D01*
X286156961Y-184355509D02*
X286280771Y-184479319D01*
X286280771Y-184479319D02*
X286342676Y-184603128D01*
X286342676Y-184603128D02*
X286404580Y-184850747D01*
X286404580Y-184850747D02*
X286404580Y-185036461D01*
X286404580Y-185036461D02*
X286342676Y-185284080D01*
X286342676Y-185284080D02*
X286280771Y-185407890D01*
X286280771Y-185407890D02*
X286156961Y-185531700D01*
X286156961Y-185531700D02*
X285971247Y-185593604D01*
X285971247Y-185593604D02*
X285661723Y-185593604D01*
X200458026Y-193793328D02*
X200458026Y-192293328D01*
X200458026Y-192293328D02*
X200815169Y-192293328D01*
X200815169Y-192293328D02*
X201029455Y-192364757D01*
X201029455Y-192364757D02*
X201172312Y-192507614D01*
X201172312Y-192507614D02*
X201243741Y-192650471D01*
X201243741Y-192650471D02*
X201315169Y-192936185D01*
X201315169Y-192936185D02*
X201315169Y-193150471D01*
X201315169Y-193150471D02*
X201243741Y-193436185D01*
X201243741Y-193436185D02*
X201172312Y-193579042D01*
X201172312Y-193579042D02*
X201029455Y-193721900D01*
X201029455Y-193721900D02*
X200815169Y-193793328D01*
X200815169Y-193793328D02*
X200458026Y-193793328D01*
X202600884Y-193793328D02*
X202600884Y-193007614D01*
X202600884Y-193007614D02*
X202529455Y-192864757D01*
X202529455Y-192864757D02*
X202386598Y-192793328D01*
X202386598Y-192793328D02*
X202100884Y-192793328D01*
X202100884Y-192793328D02*
X201958026Y-192864757D01*
X202600884Y-193721900D02*
X202458026Y-193793328D01*
X202458026Y-193793328D02*
X202100884Y-193793328D01*
X202100884Y-193793328D02*
X201958026Y-193721900D01*
X201958026Y-193721900D02*
X201886598Y-193579042D01*
X201886598Y-193579042D02*
X201886598Y-193436185D01*
X201886598Y-193436185D02*
X201958026Y-193293328D01*
X201958026Y-193293328D02*
X202100884Y-193221900D01*
X202100884Y-193221900D02*
X202458026Y-193221900D01*
X202458026Y-193221900D02*
X202600884Y-193150471D01*
X203100884Y-192793328D02*
X203672312Y-192793328D01*
X203315169Y-192293328D02*
X203315169Y-193579042D01*
X203315169Y-193579042D02*
X203386598Y-193721900D01*
X203386598Y-193721900D02*
X203529455Y-193793328D01*
X203529455Y-193793328D02*
X203672312Y-193793328D01*
X204743741Y-193721900D02*
X204600884Y-193793328D01*
X204600884Y-193793328D02*
X204315170Y-193793328D01*
X204315170Y-193793328D02*
X204172312Y-193721900D01*
X204172312Y-193721900D02*
X204100884Y-193579042D01*
X204100884Y-193579042D02*
X204100884Y-193007614D01*
X204100884Y-193007614D02*
X204172312Y-192864757D01*
X204172312Y-192864757D02*
X204315170Y-192793328D01*
X204315170Y-192793328D02*
X204600884Y-192793328D01*
X204600884Y-192793328D02*
X204743741Y-192864757D01*
X204743741Y-192864757D02*
X204815170Y-193007614D01*
X204815170Y-193007614D02*
X204815170Y-193150471D01*
X204815170Y-193150471D02*
X204100884Y-193293328D01*
X205458026Y-193650471D02*
X205529455Y-193721900D01*
X205529455Y-193721900D02*
X205458026Y-193793328D01*
X205458026Y-193793328D02*
X205386598Y-193721900D01*
X205386598Y-193721900D02*
X205458026Y-193650471D01*
X205458026Y-193650471D02*
X205458026Y-193793328D01*
X205458026Y-192864757D02*
X205529455Y-192936185D01*
X205529455Y-192936185D02*
X205458026Y-193007614D01*
X205458026Y-193007614D02*
X205386598Y-192936185D01*
X205386598Y-192936185D02*
X205458026Y-192864757D01*
X205458026Y-192864757D02*
X205458026Y-193007614D01*
X177002200Y-194507200D02*
X285002200Y-194507200D01*
X178458026Y-196593328D02*
X178458026Y-195093328D01*
X179315169Y-196593328D02*
X178672312Y-195736185D01*
X179315169Y-195093328D02*
X178458026Y-195950471D01*
X179958026Y-196593328D02*
X179958026Y-195593328D01*
X179958026Y-195093328D02*
X179886598Y-195164757D01*
X179886598Y-195164757D02*
X179958026Y-195236185D01*
X179958026Y-195236185D02*
X180029455Y-195164757D01*
X180029455Y-195164757D02*
X179958026Y-195093328D01*
X179958026Y-195093328D02*
X179958026Y-195236185D01*
X181529455Y-196450471D02*
X181458027Y-196521900D01*
X181458027Y-196521900D02*
X181243741Y-196593328D01*
X181243741Y-196593328D02*
X181100884Y-196593328D01*
X181100884Y-196593328D02*
X180886598Y-196521900D01*
X180886598Y-196521900D02*
X180743741Y-196379042D01*
X180743741Y-196379042D02*
X180672312Y-196236185D01*
X180672312Y-196236185D02*
X180600884Y-195950471D01*
X180600884Y-195950471D02*
X180600884Y-195736185D01*
X180600884Y-195736185D02*
X180672312Y-195450471D01*
X180672312Y-195450471D02*
X180743741Y-195307614D01*
X180743741Y-195307614D02*
X180886598Y-195164757D01*
X180886598Y-195164757D02*
X181100884Y-195093328D01*
X181100884Y-195093328D02*
X181243741Y-195093328D01*
X181243741Y-195093328D02*
X181458027Y-195164757D01*
X181458027Y-195164757D02*
X181529455Y-195236185D01*
X182815170Y-196593328D02*
X182815170Y-195807614D01*
X182815170Y-195807614D02*
X182743741Y-195664757D01*
X182743741Y-195664757D02*
X182600884Y-195593328D01*
X182600884Y-195593328D02*
X182315170Y-195593328D01*
X182315170Y-195593328D02*
X182172312Y-195664757D01*
X182815170Y-196521900D02*
X182672312Y-196593328D01*
X182672312Y-196593328D02*
X182315170Y-196593328D01*
X182315170Y-196593328D02*
X182172312Y-196521900D01*
X182172312Y-196521900D02*
X182100884Y-196379042D01*
X182100884Y-196379042D02*
X182100884Y-196236185D01*
X182100884Y-196236185D02*
X182172312Y-196093328D01*
X182172312Y-196093328D02*
X182315170Y-196021900D01*
X182315170Y-196021900D02*
X182672312Y-196021900D01*
X182672312Y-196021900D02*
X182815170Y-195950471D01*
X184172313Y-196593328D02*
X184172313Y-195093328D01*
X184172313Y-196521900D02*
X184029455Y-196593328D01*
X184029455Y-196593328D02*
X183743741Y-196593328D01*
X183743741Y-196593328D02*
X183600884Y-196521900D01*
X183600884Y-196521900D02*
X183529455Y-196450471D01*
X183529455Y-196450471D02*
X183458027Y-196307614D01*
X183458027Y-196307614D02*
X183458027Y-195879042D01*
X183458027Y-195879042D02*
X183529455Y-195736185D01*
X183529455Y-195736185D02*
X183600884Y-195664757D01*
X183600884Y-195664757D02*
X183743741Y-195593328D01*
X183743741Y-195593328D02*
X184029455Y-195593328D01*
X184029455Y-195593328D02*
X184172313Y-195664757D01*
X186029455Y-195807614D02*
X186529455Y-195807614D01*
X186743741Y-196593328D02*
X186029455Y-196593328D01*
X186029455Y-196593328D02*
X186029455Y-195093328D01*
X186029455Y-195093328D02*
X186743741Y-195093328D01*
X187386598Y-196450471D02*
X187458027Y-196521900D01*
X187458027Y-196521900D02*
X187386598Y-196593328D01*
X187386598Y-196593328D02*
X187315170Y-196521900D01*
X187315170Y-196521900D02*
X187386598Y-196450471D01*
X187386598Y-196450471D02*
X187386598Y-196593328D01*
X188100884Y-196593328D02*
X188100884Y-195093328D01*
X188100884Y-195093328D02*
X188458027Y-195093328D01*
X188458027Y-195093328D02*
X188672313Y-195164757D01*
X188672313Y-195164757D02*
X188815170Y-195307614D01*
X188815170Y-195307614D02*
X188886599Y-195450471D01*
X188886599Y-195450471D02*
X188958027Y-195736185D01*
X188958027Y-195736185D02*
X188958027Y-195950471D01*
X188958027Y-195950471D02*
X188886599Y-196236185D01*
X188886599Y-196236185D02*
X188815170Y-196379042D01*
X188815170Y-196379042D02*
X188672313Y-196521900D01*
X188672313Y-196521900D02*
X188458027Y-196593328D01*
X188458027Y-196593328D02*
X188100884Y-196593328D01*
X189600884Y-196450471D02*
X189672313Y-196521900D01*
X189672313Y-196521900D02*
X189600884Y-196593328D01*
X189600884Y-196593328D02*
X189529456Y-196521900D01*
X189529456Y-196521900D02*
X189600884Y-196450471D01*
X189600884Y-196450471D02*
X189600884Y-196593328D01*
X190243742Y-196164757D02*
X190958028Y-196164757D01*
X190100885Y-196593328D02*
X190600885Y-195093328D01*
X190600885Y-195093328D02*
X191100885Y-196593328D01*
X191600884Y-196450471D02*
X191672313Y-196521900D01*
X191672313Y-196521900D02*
X191600884Y-196593328D01*
X191600884Y-196593328D02*
X191529456Y-196521900D01*
X191529456Y-196521900D02*
X191600884Y-196450471D01*
X191600884Y-196450471D02*
X191600884Y-196593328D01*
X194243742Y-196593328D02*
X193386599Y-196593328D01*
X193815170Y-196593328D02*
X193815170Y-195093328D01*
X193815170Y-195093328D02*
X193672313Y-195307614D01*
X193672313Y-195307614D02*
X193529456Y-195450471D01*
X193529456Y-195450471D02*
X193386599Y-195521900D01*
X195172313Y-195093328D02*
X195315170Y-195093328D01*
X195315170Y-195093328D02*
X195458027Y-195164757D01*
X195458027Y-195164757D02*
X195529456Y-195236185D01*
X195529456Y-195236185D02*
X195600884Y-195379042D01*
X195600884Y-195379042D02*
X195672313Y-195664757D01*
X195672313Y-195664757D02*
X195672313Y-196021900D01*
X195672313Y-196021900D02*
X195600884Y-196307614D01*
X195600884Y-196307614D02*
X195529456Y-196450471D01*
X195529456Y-196450471D02*
X195458027Y-196521900D01*
X195458027Y-196521900D02*
X195315170Y-196593328D01*
X195315170Y-196593328D02*
X195172313Y-196593328D01*
X195172313Y-196593328D02*
X195029456Y-196521900D01*
X195029456Y-196521900D02*
X194958027Y-196450471D01*
X194958027Y-196450471D02*
X194886598Y-196307614D01*
X194886598Y-196307614D02*
X194815170Y-196021900D01*
X194815170Y-196021900D02*
X194815170Y-195664757D01*
X194815170Y-195664757D02*
X194886598Y-195379042D01*
X194886598Y-195379042D02*
X194958027Y-195236185D01*
X194958027Y-195236185D02*
X195029456Y-195164757D01*
X195029456Y-195164757D02*
X195172313Y-195093328D01*
X196315169Y-196450471D02*
X196386598Y-196521900D01*
X196386598Y-196521900D02*
X196315169Y-196593328D01*
X196315169Y-196593328D02*
X196243741Y-196521900D01*
X196243741Y-196521900D02*
X196315169Y-196450471D01*
X196315169Y-196450471D02*
X196315169Y-196593328D01*
X197315170Y-195093328D02*
X197458027Y-195093328D01*
X197458027Y-195093328D02*
X197600884Y-195164757D01*
X197600884Y-195164757D02*
X197672313Y-195236185D01*
X197672313Y-195236185D02*
X197743741Y-195379042D01*
X197743741Y-195379042D02*
X197815170Y-195664757D01*
X197815170Y-195664757D02*
X197815170Y-196021900D01*
X197815170Y-196021900D02*
X197743741Y-196307614D01*
X197743741Y-196307614D02*
X197672313Y-196450471D01*
X197672313Y-196450471D02*
X197600884Y-196521900D01*
X197600884Y-196521900D02*
X197458027Y-196593328D01*
X197458027Y-196593328D02*
X197315170Y-196593328D01*
X197315170Y-196593328D02*
X197172313Y-196521900D01*
X197172313Y-196521900D02*
X197100884Y-196450471D01*
X197100884Y-196450471D02*
X197029455Y-196307614D01*
X197029455Y-196307614D02*
X196958027Y-196021900D01*
X196958027Y-196021900D02*
X196958027Y-195664757D01*
X196958027Y-195664757D02*
X197029455Y-195379042D01*
X197029455Y-195379042D02*
X197100884Y-195236185D01*
X197100884Y-195236185D02*
X197172313Y-195164757D01*
X197172313Y-195164757D02*
X197315170Y-195093328D01*
X198458026Y-196450471D02*
X198529455Y-196521900D01*
X198529455Y-196521900D02*
X198458026Y-196593328D01*
X198458026Y-196593328D02*
X198386598Y-196521900D01*
X198386598Y-196521900D02*
X198458026Y-196450471D01*
X198458026Y-196450471D02*
X198458026Y-196593328D01*
X199815170Y-195593328D02*
X199815170Y-196593328D01*
X199458027Y-195021900D02*
X199100884Y-196093328D01*
X199100884Y-196093328D02*
X200029455Y-196093328D01*
X177002200Y-191507200D02*
X285002200Y-191507200D01*
D11*
X264413853Y-193785528D02*
X263913853Y-193071242D01*
X263556710Y-193785528D02*
X263556710Y-192285528D01*
X263556710Y-192285528D02*
X264128139Y-192285528D01*
X264128139Y-192285528D02*
X264270996Y-192356957D01*
X264270996Y-192356957D02*
X264342425Y-192428385D01*
X264342425Y-192428385D02*
X264413853Y-192571242D01*
X264413853Y-192571242D02*
X264413853Y-192785528D01*
X264413853Y-192785528D02*
X264342425Y-192928385D01*
X264342425Y-192928385D02*
X264270996Y-192999814D01*
X264270996Y-192999814D02*
X264128139Y-193071242D01*
X264128139Y-193071242D02*
X263556710Y-193071242D01*
X265628139Y-193714100D02*
X265485282Y-193785528D01*
X265485282Y-193785528D02*
X265199568Y-193785528D01*
X265199568Y-193785528D02*
X265056710Y-193714100D01*
X265056710Y-193714100D02*
X264985282Y-193571242D01*
X264985282Y-193571242D02*
X264985282Y-192999814D01*
X264985282Y-192999814D02*
X265056710Y-192856957D01*
X265056710Y-192856957D02*
X265199568Y-192785528D01*
X265199568Y-192785528D02*
X265485282Y-192785528D01*
X265485282Y-192785528D02*
X265628139Y-192856957D01*
X265628139Y-192856957D02*
X265699568Y-192999814D01*
X265699568Y-192999814D02*
X265699568Y-193142671D01*
X265699568Y-193142671D02*
X264985282Y-193285528D01*
X266199567Y-192785528D02*
X266556710Y-193785528D01*
X266556710Y-193785528D02*
X266913853Y-192785528D01*
X267485281Y-193642671D02*
X267556710Y-193714100D01*
X267556710Y-193714100D02*
X267485281Y-193785528D01*
X267485281Y-193785528D02*
X267413853Y-193714100D01*
X267413853Y-193714100D02*
X267485281Y-193642671D01*
X267485281Y-193642671D02*
X267485281Y-193785528D01*
X267485281Y-192856957D02*
X267556710Y-192928385D01*
X267556710Y-192928385D02*
X267485281Y-192999814D01*
X267485281Y-192999814D02*
X267413853Y-192928385D01*
X267413853Y-192928385D02*
X267485281Y-192856957D01*
X267485281Y-192856957D02*
X267485281Y-192999814D01*
D10*
X178386598Y-193721900D02*
X178600884Y-193793328D01*
X178600884Y-193793328D02*
X178958026Y-193793328D01*
X178958026Y-193793328D02*
X179100884Y-193721900D01*
X179100884Y-193721900D02*
X179172312Y-193650471D01*
X179172312Y-193650471D02*
X179243741Y-193507614D01*
X179243741Y-193507614D02*
X179243741Y-193364757D01*
X179243741Y-193364757D02*
X179172312Y-193221900D01*
X179172312Y-193221900D02*
X179100884Y-193150471D01*
X179100884Y-193150471D02*
X178958026Y-193079042D01*
X178958026Y-193079042D02*
X178672312Y-193007614D01*
X178672312Y-193007614D02*
X178529455Y-192936185D01*
X178529455Y-192936185D02*
X178458026Y-192864757D01*
X178458026Y-192864757D02*
X178386598Y-192721900D01*
X178386598Y-192721900D02*
X178386598Y-192579042D01*
X178386598Y-192579042D02*
X178458026Y-192436185D01*
X178458026Y-192436185D02*
X178529455Y-192364757D01*
X178529455Y-192364757D02*
X178672312Y-192293328D01*
X178672312Y-192293328D02*
X179029455Y-192293328D01*
X179029455Y-192293328D02*
X179243741Y-192364757D01*
X179886597Y-193793328D02*
X179886597Y-192793328D01*
X179886597Y-192293328D02*
X179815169Y-192364757D01*
X179815169Y-192364757D02*
X179886597Y-192436185D01*
X179886597Y-192436185D02*
X179958026Y-192364757D01*
X179958026Y-192364757D02*
X179886597Y-192293328D01*
X179886597Y-192293328D02*
X179886597Y-192436185D01*
X180458026Y-192793328D02*
X181243741Y-192793328D01*
X181243741Y-192793328D02*
X180458026Y-193793328D01*
X180458026Y-193793328D02*
X181243741Y-193793328D01*
X182386598Y-193721900D02*
X182243741Y-193793328D01*
X182243741Y-193793328D02*
X181958027Y-193793328D01*
X181958027Y-193793328D02*
X181815169Y-193721900D01*
X181815169Y-193721900D02*
X181743741Y-193579042D01*
X181743741Y-193579042D02*
X181743741Y-193007614D01*
X181743741Y-193007614D02*
X181815169Y-192864757D01*
X181815169Y-192864757D02*
X181958027Y-192793328D01*
X181958027Y-192793328D02*
X182243741Y-192793328D01*
X182243741Y-192793328D02*
X182386598Y-192864757D01*
X182386598Y-192864757D02*
X182458027Y-193007614D01*
X182458027Y-193007614D02*
X182458027Y-193150471D01*
X182458027Y-193150471D02*
X181743741Y-193293328D01*
X183100883Y-193650471D02*
X183172312Y-193721900D01*
X183172312Y-193721900D02*
X183100883Y-193793328D01*
X183100883Y-193793328D02*
X183029455Y-193721900D01*
X183029455Y-193721900D02*
X183100883Y-193650471D01*
X183100883Y-193650471D02*
X183100883Y-193793328D01*
X183100883Y-192864757D02*
X183172312Y-192936185D01*
X183172312Y-192936185D02*
X183100883Y-193007614D01*
X183100883Y-193007614D02*
X183029455Y-192936185D01*
X183029455Y-192936185D02*
X183100883Y-192864757D01*
X183100883Y-192864757D02*
X183100883Y-193007614D01*
X184886598Y-193364757D02*
X185600884Y-193364757D01*
X184743741Y-193793328D02*
X185243741Y-192293328D01*
X185243741Y-192293328D02*
X185743741Y-193793328D01*
X186886598Y-192793328D02*
X186886598Y-193793328D01*
X186529455Y-192221900D02*
X186172312Y-193293328D01*
X186172312Y-193293328D02*
X187100883Y-193293328D01*
X263458026Y-196593328D02*
X263458026Y-195093328D01*
X264815170Y-196593328D02*
X264815170Y-195093328D01*
X264815170Y-196521900D02*
X264672312Y-196593328D01*
X264672312Y-196593328D02*
X264386598Y-196593328D01*
X264386598Y-196593328D02*
X264243741Y-196521900D01*
X264243741Y-196521900D02*
X264172312Y-196450471D01*
X264172312Y-196450471D02*
X264100884Y-196307614D01*
X264100884Y-196307614D02*
X264100884Y-195879042D01*
X264100884Y-195879042D02*
X264172312Y-195736185D01*
X264172312Y-195736185D02*
X264243741Y-195664757D01*
X264243741Y-195664757D02*
X264386598Y-195593328D01*
X264386598Y-195593328D02*
X264672312Y-195593328D01*
X264672312Y-195593328D02*
X264815170Y-195664757D01*
X265529455Y-196450471D02*
X265600884Y-196521900D01*
X265600884Y-196521900D02*
X265529455Y-196593328D01*
X265529455Y-196593328D02*
X265458027Y-196521900D01*
X265458027Y-196521900D02*
X265529455Y-196450471D01*
X265529455Y-196450471D02*
X265529455Y-196593328D01*
X265529455Y-195664757D02*
X265600884Y-195736185D01*
X265600884Y-195736185D02*
X265529455Y-195807614D01*
X265529455Y-195807614D02*
X265458027Y-195736185D01*
X265458027Y-195736185D02*
X265529455Y-195664757D01*
X265529455Y-195664757D02*
X265529455Y-195807614D01*
X268100884Y-195093328D02*
X267386598Y-195093328D01*
X267386598Y-195093328D02*
X267315170Y-195807614D01*
X267315170Y-195807614D02*
X267386598Y-195736185D01*
X267386598Y-195736185D02*
X267529456Y-195664757D01*
X267529456Y-195664757D02*
X267886598Y-195664757D01*
X267886598Y-195664757D02*
X268029456Y-195736185D01*
X268029456Y-195736185D02*
X268100884Y-195807614D01*
X268100884Y-195807614D02*
X268172313Y-195950471D01*
X268172313Y-195950471D02*
X268172313Y-196307614D01*
X268172313Y-196307614D02*
X268100884Y-196450471D01*
X268100884Y-196450471D02*
X268029456Y-196521900D01*
X268029456Y-196521900D02*
X267886598Y-196593328D01*
X267886598Y-196593328D02*
X267529456Y-196593328D01*
X267529456Y-196593328D02*
X267386598Y-196521900D01*
X267386598Y-196521900D02*
X267315170Y-196450471D01*
X269886598Y-195021900D02*
X268600884Y-196950471D01*
X270458027Y-196593328D02*
X270743741Y-196593328D01*
X270743741Y-196593328D02*
X270886598Y-196521900D01*
X270886598Y-196521900D02*
X270958027Y-196450471D01*
X270958027Y-196450471D02*
X271100884Y-196236185D01*
X271100884Y-196236185D02*
X271172313Y-195950471D01*
X271172313Y-195950471D02*
X271172313Y-195379042D01*
X271172313Y-195379042D02*
X271100884Y-195236185D01*
X271100884Y-195236185D02*
X271029456Y-195164757D01*
X271029456Y-195164757D02*
X270886598Y-195093328D01*
X270886598Y-195093328D02*
X270600884Y-195093328D01*
X270600884Y-195093328D02*
X270458027Y-195164757D01*
X270458027Y-195164757D02*
X270386598Y-195236185D01*
X270386598Y-195236185D02*
X270315170Y-195379042D01*
X270315170Y-195379042D02*
X270315170Y-195736185D01*
X270315170Y-195736185D02*
X270386598Y-195879042D01*
X270386598Y-195879042D02*
X270458027Y-195950471D01*
X270458027Y-195950471D02*
X270600884Y-196021900D01*
X270600884Y-196021900D02*
X270886598Y-196021900D01*
X270886598Y-196021900D02*
X271029456Y-195950471D01*
X271029456Y-195950471D02*
X271100884Y-195879042D01*
X271100884Y-195879042D02*
X271172313Y-195736185D01*
X177002200Y-187507200D02*
X285002200Y-187507200D01*
D12*
X178693928Y-188211638D02*
X179836785Y-188211638D01*
X179015357Y-190211638D02*
X179265357Y-188211638D01*
X180253452Y-190211638D02*
X180420119Y-188878304D01*
X180503452Y-188211638D02*
X180396309Y-188306876D01*
X180396309Y-188306876D02*
X180479643Y-188402114D01*
X180479643Y-188402114D02*
X180586786Y-188306876D01*
X180586786Y-188306876D02*
X180503452Y-188211638D01*
X180503452Y-188211638D02*
X180479643Y-188402114D01*
X181086786Y-188878304D02*
X181848690Y-188878304D01*
X181455833Y-188211638D02*
X181241548Y-189925923D01*
X181241548Y-189925923D02*
X181312976Y-190116400D01*
X181312976Y-190116400D02*
X181491548Y-190211638D01*
X181491548Y-190211638D02*
X181682024Y-190211638D01*
X182634405Y-190211638D02*
X182455833Y-190116400D01*
X182455833Y-190116400D02*
X182384405Y-189925923D01*
X182384405Y-189925923D02*
X182598690Y-188211638D01*
X184170119Y-190116400D02*
X183967738Y-190211638D01*
X183967738Y-190211638D02*
X183586785Y-190211638D01*
X183586785Y-190211638D02*
X183408214Y-190116400D01*
X183408214Y-190116400D02*
X183336785Y-189925923D01*
X183336785Y-189925923D02*
X183432024Y-189164019D01*
X183432024Y-189164019D02*
X183551071Y-188973542D01*
X183551071Y-188973542D02*
X183753452Y-188878304D01*
X183753452Y-188878304D02*
X184134404Y-188878304D01*
X184134404Y-188878304D02*
X184312976Y-188973542D01*
X184312976Y-188973542D02*
X184384404Y-189164019D01*
X184384404Y-189164019D02*
X184360595Y-189354495D01*
X184360595Y-189354495D02*
X183384404Y-189544971D01*
X185134405Y-190021161D02*
X185217738Y-190116400D01*
X185217738Y-190116400D02*
X185110595Y-190211638D01*
X185110595Y-190211638D02*
X185027262Y-190116400D01*
X185027262Y-190116400D02*
X185134405Y-190021161D01*
X185134405Y-190021161D02*
X185110595Y-190211638D01*
X185265357Y-188973542D02*
X185348690Y-189068780D01*
X185348690Y-189068780D02*
X185241548Y-189164019D01*
X185241548Y-189164019D02*
X185158214Y-189068780D01*
X185158214Y-189068780D02*
X185265357Y-188973542D01*
X185265357Y-188973542D02*
X185241548Y-189164019D01*
X187586786Y-190211638D02*
X187836786Y-188211638D01*
X187836786Y-188211638D02*
X188598691Y-188211638D01*
X188598691Y-188211638D02*
X188777262Y-188306876D01*
X188777262Y-188306876D02*
X188860596Y-188402114D01*
X188860596Y-188402114D02*
X188932024Y-188592590D01*
X188932024Y-188592590D02*
X188896310Y-188878304D01*
X188896310Y-188878304D02*
X188777262Y-189068780D01*
X188777262Y-189068780D02*
X188670120Y-189164019D01*
X188670120Y-189164019D02*
X188467739Y-189259257D01*
X188467739Y-189259257D02*
X187705834Y-189259257D01*
X189586786Y-190211638D02*
X189836786Y-188211638D01*
X189836786Y-188211638D02*
X190312977Y-188211638D01*
X190312977Y-188211638D02*
X190586786Y-188306876D01*
X190586786Y-188306876D02*
X190753453Y-188497352D01*
X190753453Y-188497352D02*
X190824881Y-188687828D01*
X190824881Y-188687828D02*
X190872501Y-189068780D01*
X190872501Y-189068780D02*
X190836786Y-189354495D01*
X190836786Y-189354495D02*
X190693929Y-189735447D01*
X190693929Y-189735447D02*
X190574881Y-189925923D01*
X190574881Y-189925923D02*
X190360596Y-190116400D01*
X190360596Y-190116400D02*
X190062977Y-190211638D01*
X190062977Y-190211638D02*
X189586786Y-190211638D01*
X192384405Y-189164019D02*
X192658215Y-189259257D01*
X192658215Y-189259257D02*
X192741548Y-189354495D01*
X192741548Y-189354495D02*
X192812977Y-189544971D01*
X192812977Y-189544971D02*
X192777262Y-189830685D01*
X192777262Y-189830685D02*
X192658215Y-190021161D01*
X192658215Y-190021161D02*
X192551072Y-190116400D01*
X192551072Y-190116400D02*
X192348691Y-190211638D01*
X192348691Y-190211638D02*
X191586786Y-190211638D01*
X191586786Y-190211638D02*
X191836786Y-188211638D01*
X191836786Y-188211638D02*
X192503453Y-188211638D01*
X192503453Y-188211638D02*
X192682024Y-188306876D01*
X192682024Y-188306876D02*
X192765358Y-188402114D01*
X192765358Y-188402114D02*
X192836786Y-188592590D01*
X192836786Y-188592590D02*
X192812977Y-188783066D01*
X192812977Y-188783066D02*
X192693929Y-188973542D01*
X192693929Y-188973542D02*
X192586786Y-189068780D01*
X192586786Y-189068780D02*
X192384405Y-189164019D01*
X192384405Y-189164019D02*
X191717739Y-189164019D01*
X193682024Y-189449733D02*
X195205834Y-189449733D01*
X196062976Y-190211638D02*
X196312976Y-188211638D01*
X196193929Y-189164019D02*
X197336786Y-189164019D01*
X197205833Y-190211638D02*
X197455833Y-188211638D01*
X198932024Y-190116400D02*
X198729643Y-190211638D01*
X198729643Y-190211638D02*
X198348690Y-190211638D01*
X198348690Y-190211638D02*
X198170119Y-190116400D01*
X198170119Y-190116400D02*
X198098690Y-189925923D01*
X198098690Y-189925923D02*
X198193929Y-189164019D01*
X198193929Y-189164019D02*
X198312976Y-188973542D01*
X198312976Y-188973542D02*
X198515357Y-188878304D01*
X198515357Y-188878304D02*
X198896309Y-188878304D01*
X198896309Y-188878304D02*
X199074881Y-188973542D01*
X199074881Y-188973542D02*
X199146309Y-189164019D01*
X199146309Y-189164019D02*
X199122500Y-189354495D01*
X199122500Y-189354495D02*
X198146309Y-189544971D01*
X199682024Y-190211638D02*
X200896310Y-188878304D01*
X199848691Y-188878304D02*
X200729643Y-190211638D01*
X202348691Y-190211638D02*
X202479643Y-189164019D01*
X202479643Y-189164019D02*
X202408215Y-188973542D01*
X202408215Y-188973542D02*
X202229643Y-188878304D01*
X202229643Y-188878304D02*
X201848691Y-188878304D01*
X201848691Y-188878304D02*
X201646310Y-188973542D01*
X202360596Y-190116400D02*
X202158215Y-190211638D01*
X202158215Y-190211638D02*
X201682024Y-190211638D01*
X201682024Y-190211638D02*
X201503453Y-190116400D01*
X201503453Y-190116400D02*
X201432024Y-189925923D01*
X201432024Y-189925923D02*
X201455834Y-189735447D01*
X201455834Y-189735447D02*
X201574882Y-189544971D01*
X201574882Y-189544971D02*
X201777263Y-189449733D01*
X201777263Y-189449733D02*
X202253453Y-189449733D01*
X202253453Y-189449733D02*
X202455834Y-189354495D01*
X203586787Y-190211638D02*
X203408215Y-190116400D01*
X203408215Y-190116400D02*
X203336787Y-189925923D01*
X203336787Y-189925923D02*
X203551072Y-188211638D01*
X204348691Y-190211638D02*
X204515358Y-188878304D01*
X204598691Y-188211638D02*
X204491548Y-188306876D01*
X204491548Y-188306876D02*
X204574882Y-188402114D01*
X204574882Y-188402114D02*
X204682025Y-188306876D01*
X204682025Y-188306876D02*
X204598691Y-188211638D01*
X204598691Y-188211638D02*
X204574882Y-188402114D01*
X205182025Y-188878304D02*
X205943929Y-188878304D01*
X205301072Y-190211638D02*
X205515358Y-188497352D01*
X205515358Y-188497352D02*
X205634406Y-188306876D01*
X205634406Y-188306876D02*
X205836787Y-188211638D01*
X205836787Y-188211638D02*
X206027263Y-188211638D01*
X206324882Y-188878304D02*
X207086786Y-188878304D01*
X206693929Y-188211638D02*
X206479644Y-189925923D01*
X206479644Y-189925923D02*
X206551072Y-190116400D01*
X206551072Y-190116400D02*
X206729644Y-190211638D01*
X206729644Y-190211638D02*
X206920120Y-190211638D01*
D10*
X178958026Y-185607614D02*
X178458026Y-185607614D01*
X178458026Y-186393328D02*
X178458026Y-184893328D01*
X178458026Y-184893328D02*
X179172312Y-184893328D01*
X179743740Y-186393328D02*
X179743740Y-185393328D01*
X179743740Y-184893328D02*
X179672312Y-184964757D01*
X179672312Y-184964757D02*
X179743740Y-185036185D01*
X179743740Y-185036185D02*
X179815169Y-184964757D01*
X179815169Y-184964757D02*
X179743740Y-184893328D01*
X179743740Y-184893328D02*
X179743740Y-185036185D01*
X180672312Y-186393328D02*
X180529455Y-186321900D01*
X180529455Y-186321900D02*
X180458026Y-186179042D01*
X180458026Y-186179042D02*
X180458026Y-184893328D01*
X181815169Y-186321900D02*
X181672312Y-186393328D01*
X181672312Y-186393328D02*
X181386598Y-186393328D01*
X181386598Y-186393328D02*
X181243740Y-186321900D01*
X181243740Y-186321900D02*
X181172312Y-186179042D01*
X181172312Y-186179042D02*
X181172312Y-185607614D01*
X181172312Y-185607614D02*
X181243740Y-185464757D01*
X181243740Y-185464757D02*
X181386598Y-185393328D01*
X181386598Y-185393328D02*
X181672312Y-185393328D01*
X181672312Y-185393328D02*
X181815169Y-185464757D01*
X181815169Y-185464757D02*
X181886598Y-185607614D01*
X181886598Y-185607614D02*
X181886598Y-185750471D01*
X181886598Y-185750471D02*
X181172312Y-185893328D01*
X182529454Y-186250471D02*
X182600883Y-186321900D01*
X182600883Y-186321900D02*
X182529454Y-186393328D01*
X182529454Y-186393328D02*
X182458026Y-186321900D01*
X182458026Y-186321900D02*
X182529454Y-186250471D01*
X182529454Y-186250471D02*
X182529454Y-186393328D01*
X182529454Y-185464757D02*
X182600883Y-185536185D01*
X182600883Y-185536185D02*
X182529454Y-185607614D01*
X182529454Y-185607614D02*
X182458026Y-185536185D01*
X182458026Y-185536185D02*
X182529454Y-185464757D01*
X182529454Y-185464757D02*
X182529454Y-185607614D01*
X184386597Y-185393328D02*
X184386597Y-186893328D01*
X184386597Y-185464757D02*
X184529455Y-185393328D01*
X184529455Y-185393328D02*
X184815169Y-185393328D01*
X184815169Y-185393328D02*
X184958026Y-185464757D01*
X184958026Y-185464757D02*
X185029455Y-185536185D01*
X185029455Y-185536185D02*
X185100883Y-185679042D01*
X185100883Y-185679042D02*
X185100883Y-186107614D01*
X185100883Y-186107614D02*
X185029455Y-186250471D01*
X185029455Y-186250471D02*
X184958026Y-186321900D01*
X184958026Y-186321900D02*
X184815169Y-186393328D01*
X184815169Y-186393328D02*
X184529455Y-186393328D01*
X184529455Y-186393328D02*
X184386597Y-186321900D01*
X186386598Y-186393328D02*
X186386598Y-184893328D01*
X186386598Y-186321900D02*
X186243740Y-186393328D01*
X186243740Y-186393328D02*
X185958026Y-186393328D01*
X185958026Y-186393328D02*
X185815169Y-186321900D01*
X185815169Y-186321900D02*
X185743740Y-186250471D01*
X185743740Y-186250471D02*
X185672312Y-186107614D01*
X185672312Y-186107614D02*
X185672312Y-185679042D01*
X185672312Y-185679042D02*
X185743740Y-185536185D01*
X185743740Y-185536185D02*
X185815169Y-185464757D01*
X185815169Y-185464757D02*
X185958026Y-185393328D01*
X185958026Y-185393328D02*
X186243740Y-185393328D01*
X186243740Y-185393328D02*
X186386598Y-185464757D01*
X187100883Y-186393328D02*
X187100883Y-184893328D01*
X187100883Y-185464757D02*
X187243741Y-185393328D01*
X187243741Y-185393328D02*
X187529455Y-185393328D01*
X187529455Y-185393328D02*
X187672312Y-185464757D01*
X187672312Y-185464757D02*
X187743741Y-185536185D01*
X187743741Y-185536185D02*
X187815169Y-185679042D01*
X187815169Y-185679042D02*
X187815169Y-186107614D01*
X187815169Y-186107614D02*
X187743741Y-186250471D01*
X187743741Y-186250471D02*
X187672312Y-186321900D01*
X187672312Y-186321900D02*
X187529455Y-186393328D01*
X187529455Y-186393328D02*
X187243741Y-186393328D01*
X187243741Y-186393328D02*
X187100883Y-186321900D01*
X188458026Y-186250471D02*
X188529455Y-186321900D01*
X188529455Y-186321900D02*
X188458026Y-186393328D01*
X188458026Y-186393328D02*
X188386598Y-186321900D01*
X188386598Y-186321900D02*
X188458026Y-186250471D01*
X188458026Y-186250471D02*
X188458026Y-186393328D01*
X189172312Y-186393328D02*
X189172312Y-184893328D01*
X189315170Y-185821900D02*
X189743741Y-186393328D01*
X189743741Y-185393328D02*
X189172312Y-185964757D01*
X190386598Y-186393328D02*
X190386598Y-185393328D01*
X190386598Y-184893328D02*
X190315170Y-184964757D01*
X190315170Y-184964757D02*
X190386598Y-185036185D01*
X190386598Y-185036185D02*
X190458027Y-184964757D01*
X190458027Y-184964757D02*
X190386598Y-184893328D01*
X190386598Y-184893328D02*
X190386598Y-185036185D01*
X191743742Y-186321900D02*
X191600884Y-186393328D01*
X191600884Y-186393328D02*
X191315170Y-186393328D01*
X191315170Y-186393328D02*
X191172313Y-186321900D01*
X191172313Y-186321900D02*
X191100884Y-186250471D01*
X191100884Y-186250471D02*
X191029456Y-186107614D01*
X191029456Y-186107614D02*
X191029456Y-185679042D01*
X191029456Y-185679042D02*
X191100884Y-185536185D01*
X191100884Y-185536185D02*
X191172313Y-185464757D01*
X191172313Y-185464757D02*
X191315170Y-185393328D01*
X191315170Y-185393328D02*
X191600884Y-185393328D01*
X191600884Y-185393328D02*
X191743742Y-185464757D01*
X193029456Y-186393328D02*
X193029456Y-185607614D01*
X193029456Y-185607614D02*
X192958027Y-185464757D01*
X192958027Y-185464757D02*
X192815170Y-185393328D01*
X192815170Y-185393328D02*
X192529456Y-185393328D01*
X192529456Y-185393328D02*
X192386598Y-185464757D01*
X193029456Y-186321900D02*
X192886598Y-186393328D01*
X192886598Y-186393328D02*
X192529456Y-186393328D01*
X192529456Y-186393328D02*
X192386598Y-186321900D01*
X192386598Y-186321900D02*
X192315170Y-186179042D01*
X192315170Y-186179042D02*
X192315170Y-186036185D01*
X192315170Y-186036185D02*
X192386598Y-185893328D01*
X192386598Y-185893328D02*
X192529456Y-185821900D01*
X192529456Y-185821900D02*
X192886598Y-185821900D01*
X192886598Y-185821900D02*
X193029456Y-185750471D01*
X194386599Y-186393328D02*
X194386599Y-184893328D01*
X194386599Y-186321900D02*
X194243741Y-186393328D01*
X194243741Y-186393328D02*
X193958027Y-186393328D01*
X193958027Y-186393328D02*
X193815170Y-186321900D01*
X193815170Y-186321900D02*
X193743741Y-186250471D01*
X193743741Y-186250471D02*
X193672313Y-186107614D01*
X193672313Y-186107614D02*
X193672313Y-185679042D01*
X193672313Y-185679042D02*
X193743741Y-185536185D01*
X193743741Y-185536185D02*
X193815170Y-185464757D01*
X193815170Y-185464757D02*
X193958027Y-185393328D01*
X193958027Y-185393328D02*
X194243741Y-185393328D01*
X194243741Y-185393328D02*
X194386599Y-185464757D01*
X194743742Y-186536185D02*
X195886599Y-186536185D01*
X196243741Y-185393328D02*
X196243741Y-186893328D01*
X196243741Y-185464757D02*
X196386599Y-185393328D01*
X196386599Y-185393328D02*
X196672313Y-185393328D01*
X196672313Y-185393328D02*
X196815170Y-185464757D01*
X196815170Y-185464757D02*
X196886599Y-185536185D01*
X196886599Y-185536185D02*
X196958027Y-185679042D01*
X196958027Y-185679042D02*
X196958027Y-186107614D01*
X196958027Y-186107614D02*
X196886599Y-186250471D01*
X196886599Y-186250471D02*
X196815170Y-186321900D01*
X196815170Y-186321900D02*
X196672313Y-186393328D01*
X196672313Y-186393328D02*
X196386599Y-186393328D01*
X196386599Y-186393328D02*
X196243741Y-186321900D01*
X198243742Y-186321900D02*
X198100884Y-186393328D01*
X198100884Y-186393328D02*
X197815170Y-186393328D01*
X197815170Y-186393328D02*
X197672313Y-186321900D01*
X197672313Y-186321900D02*
X197600884Y-186250471D01*
X197600884Y-186250471D02*
X197529456Y-186107614D01*
X197529456Y-186107614D02*
X197529456Y-185679042D01*
X197529456Y-185679042D02*
X197600884Y-185536185D01*
X197600884Y-185536185D02*
X197672313Y-185464757D01*
X197672313Y-185464757D02*
X197815170Y-185393328D01*
X197815170Y-185393328D02*
X198100884Y-185393328D01*
X198100884Y-185393328D02*
X198243742Y-185464757D01*
X198886598Y-186393328D02*
X198886598Y-184893328D01*
X198886598Y-185464757D02*
X199029456Y-185393328D01*
X199029456Y-185393328D02*
X199315170Y-185393328D01*
X199315170Y-185393328D02*
X199458027Y-185464757D01*
X199458027Y-185464757D02*
X199529456Y-185536185D01*
X199529456Y-185536185D02*
X199600884Y-185679042D01*
X199600884Y-185679042D02*
X199600884Y-186107614D01*
X199600884Y-186107614D02*
X199529456Y-186250471D01*
X199529456Y-186250471D02*
X199458027Y-186321900D01*
X199458027Y-186321900D02*
X199315170Y-186393328D01*
X199315170Y-186393328D02*
X199029456Y-186393328D01*
X199029456Y-186393328D02*
X198886598Y-186321900D01*
X177002200Y-181507200D02*
X285002200Y-181507200D01*
X178386598Y-183621900D02*
X178600884Y-183693328D01*
X178600884Y-183693328D02*
X178958026Y-183693328D01*
X178958026Y-183693328D02*
X179100884Y-183621900D01*
X179100884Y-183621900D02*
X179172312Y-183550471D01*
X179172312Y-183550471D02*
X179243741Y-183407614D01*
X179243741Y-183407614D02*
X179243741Y-183264757D01*
X179243741Y-183264757D02*
X179172312Y-183121900D01*
X179172312Y-183121900D02*
X179100884Y-183050471D01*
X179100884Y-183050471D02*
X178958026Y-182979042D01*
X178958026Y-182979042D02*
X178672312Y-182907614D01*
X178672312Y-182907614D02*
X178529455Y-182836185D01*
X178529455Y-182836185D02*
X178458026Y-182764757D01*
X178458026Y-182764757D02*
X178386598Y-182621900D01*
X178386598Y-182621900D02*
X178386598Y-182479042D01*
X178386598Y-182479042D02*
X178458026Y-182336185D01*
X178458026Y-182336185D02*
X178529455Y-182264757D01*
X178529455Y-182264757D02*
X178672312Y-182193328D01*
X178672312Y-182193328D02*
X179029455Y-182193328D01*
X179029455Y-182193328D02*
X179243741Y-182264757D01*
X179886597Y-183693328D02*
X179886597Y-182193328D01*
X180529455Y-183693328D02*
X180529455Y-182907614D01*
X180529455Y-182907614D02*
X180458026Y-182764757D01*
X180458026Y-182764757D02*
X180315169Y-182693328D01*
X180315169Y-182693328D02*
X180100883Y-182693328D01*
X180100883Y-182693328D02*
X179958026Y-182764757D01*
X179958026Y-182764757D02*
X179886597Y-182836185D01*
X181815169Y-183621900D02*
X181672312Y-183693328D01*
X181672312Y-183693328D02*
X181386598Y-183693328D01*
X181386598Y-183693328D02*
X181243740Y-183621900D01*
X181243740Y-183621900D02*
X181172312Y-183479042D01*
X181172312Y-183479042D02*
X181172312Y-182907614D01*
X181172312Y-182907614D02*
X181243740Y-182764757D01*
X181243740Y-182764757D02*
X181386598Y-182693328D01*
X181386598Y-182693328D02*
X181672312Y-182693328D01*
X181672312Y-182693328D02*
X181815169Y-182764757D01*
X181815169Y-182764757D02*
X181886598Y-182907614D01*
X181886598Y-182907614D02*
X181886598Y-183050471D01*
X181886598Y-183050471D02*
X181172312Y-183193328D01*
X183100883Y-183621900D02*
X182958026Y-183693328D01*
X182958026Y-183693328D02*
X182672312Y-183693328D01*
X182672312Y-183693328D02*
X182529454Y-183621900D01*
X182529454Y-183621900D02*
X182458026Y-183479042D01*
X182458026Y-183479042D02*
X182458026Y-182907614D01*
X182458026Y-182907614D02*
X182529454Y-182764757D01*
X182529454Y-182764757D02*
X182672312Y-182693328D01*
X182672312Y-182693328D02*
X182958026Y-182693328D01*
X182958026Y-182693328D02*
X183100883Y-182764757D01*
X183100883Y-182764757D02*
X183172312Y-182907614D01*
X183172312Y-182907614D02*
X183172312Y-183050471D01*
X183172312Y-183050471D02*
X182458026Y-183193328D01*
X183600883Y-182693328D02*
X184172311Y-182693328D01*
X183815168Y-182193328D02*
X183815168Y-183479042D01*
X183815168Y-183479042D02*
X183886597Y-183621900D01*
X183886597Y-183621900D02*
X184029454Y-183693328D01*
X184029454Y-183693328D02*
X184172311Y-183693328D01*
X184672311Y-183550471D02*
X184743740Y-183621900D01*
X184743740Y-183621900D02*
X184672311Y-183693328D01*
X184672311Y-183693328D02*
X184600883Y-183621900D01*
X184600883Y-183621900D02*
X184672311Y-183550471D01*
X184672311Y-183550471D02*
X184672311Y-183693328D01*
X184672311Y-182764757D02*
X184743740Y-182836185D01*
X184743740Y-182836185D02*
X184672311Y-182907614D01*
X184672311Y-182907614D02*
X184600883Y-182836185D01*
X184600883Y-182836185D02*
X184672311Y-182764757D01*
X184672311Y-182764757D02*
X184672311Y-182907614D01*
X197002200Y-191507200D02*
X197002200Y-194507200D01*
X261002200Y-191507200D02*
X261002200Y-198007200D01*
D13*
X75973797Y-88538566D02*
X76507131Y-88538566D01*
X77073798Y-88438566D02*
X77173798Y-88471900D01*
X77173798Y-88471900D02*
X77207131Y-88505233D01*
X77207131Y-88505233D02*
X77240464Y-88571900D01*
X77240464Y-88571900D02*
X77240464Y-88671900D01*
X77240464Y-88671900D02*
X77207131Y-88738566D01*
X77207131Y-88738566D02*
X77173798Y-88771900D01*
X77173798Y-88771900D02*
X77107131Y-88805233D01*
X77107131Y-88805233D02*
X76840464Y-88805233D01*
X76840464Y-88805233D02*
X76840464Y-88105233D01*
X76840464Y-88105233D02*
X77073798Y-88105233D01*
X77073798Y-88105233D02*
X77140464Y-88138566D01*
X77140464Y-88138566D02*
X77173798Y-88171900D01*
X77173798Y-88171900D02*
X77207131Y-88238566D01*
X77207131Y-88238566D02*
X77207131Y-88305233D01*
X77207131Y-88305233D02*
X77173798Y-88371900D01*
X77173798Y-88371900D02*
X77140464Y-88405233D01*
X77140464Y-88405233D02*
X77073798Y-88438566D01*
X77073798Y-88438566D02*
X76840464Y-88438566D01*
X77507131Y-88605233D02*
X77840464Y-88605233D01*
X77440464Y-88805233D02*
X77673798Y-88105233D01*
X77673798Y-88105233D02*
X77907131Y-88805233D01*
X78040464Y-88105233D02*
X78440464Y-88105233D01*
X78240464Y-88805233D02*
X78240464Y-88105233D01*
X79388464Y-88138566D02*
X79321797Y-88105233D01*
X79321797Y-88105233D02*
X79221797Y-88105233D01*
X79221797Y-88105233D02*
X79121797Y-88138566D01*
X79121797Y-88138566D02*
X79055131Y-88205233D01*
X79055131Y-88205233D02*
X79021797Y-88271900D01*
X79021797Y-88271900D02*
X78988464Y-88405233D01*
X78988464Y-88405233D02*
X78988464Y-88505233D01*
X78988464Y-88505233D02*
X79021797Y-88638566D01*
X79021797Y-88638566D02*
X79055131Y-88705233D01*
X79055131Y-88705233D02*
X79121797Y-88771900D01*
X79121797Y-88771900D02*
X79221797Y-88805233D01*
X79221797Y-88805233D02*
X79288464Y-88805233D01*
X79288464Y-88805233D02*
X79388464Y-88771900D01*
X79388464Y-88771900D02*
X79421797Y-88738566D01*
X79421797Y-88738566D02*
X79421797Y-88505233D01*
X79421797Y-88505233D02*
X79288464Y-88505233D01*
X79721797Y-88805233D02*
X79721797Y-88105233D01*
X79721797Y-88105233D02*
X80121797Y-88805233D01*
X80121797Y-88805233D02*
X80121797Y-88105233D01*
X80455130Y-88805233D02*
X80455130Y-88105233D01*
X80455130Y-88105233D02*
X80621797Y-88105233D01*
X80621797Y-88105233D02*
X80721797Y-88138566D01*
X80721797Y-88138566D02*
X80788464Y-88205233D01*
X80788464Y-88205233D02*
X80821797Y-88271900D01*
X80821797Y-88271900D02*
X80855130Y-88405233D01*
X80855130Y-88405233D02*
X80855130Y-88505233D01*
X80855130Y-88505233D02*
X80821797Y-88638566D01*
X80821797Y-88638566D02*
X80788464Y-88705233D01*
X80788464Y-88705233D02*
X80721797Y-88771900D01*
X80721797Y-88771900D02*
X80621797Y-88805233D01*
X80621797Y-88805233D02*
X80455130Y-88805233D01*
X81121797Y-88771900D02*
X81221797Y-88805233D01*
X81221797Y-88805233D02*
X81388464Y-88805233D01*
X81388464Y-88805233D02*
X81455130Y-88771900D01*
X81455130Y-88771900D02*
X81488464Y-88738566D01*
X81488464Y-88738566D02*
X81521797Y-88671900D01*
X81521797Y-88671900D02*
X81521797Y-88605233D01*
X81521797Y-88605233D02*
X81488464Y-88538566D01*
X81488464Y-88538566D02*
X81455130Y-88505233D01*
X81455130Y-88505233D02*
X81388464Y-88471900D01*
X81388464Y-88471900D02*
X81255130Y-88438566D01*
X81255130Y-88438566D02*
X81188464Y-88405233D01*
X81188464Y-88405233D02*
X81155130Y-88371900D01*
X81155130Y-88371900D02*
X81121797Y-88305233D01*
X81121797Y-88305233D02*
X81121797Y-88238566D01*
X81121797Y-88238566D02*
X81155130Y-88171900D01*
X81155130Y-88171900D02*
X81188464Y-88138566D01*
X81188464Y-88138566D02*
X81255130Y-88105233D01*
X81255130Y-88105233D02*
X81421797Y-88105233D01*
X81421797Y-88105233D02*
X81521797Y-88138566D01*
X82657131Y-88105233D02*
X82323797Y-88105233D01*
X82323797Y-88105233D02*
X82290464Y-88438566D01*
X82290464Y-88438566D02*
X82323797Y-88405233D01*
X82323797Y-88405233D02*
X82390464Y-88371900D01*
X82390464Y-88371900D02*
X82557131Y-88371900D01*
X82557131Y-88371900D02*
X82623797Y-88405233D01*
X82623797Y-88405233D02*
X82657131Y-88438566D01*
X82657131Y-88438566D02*
X82690464Y-88505233D01*
X82690464Y-88505233D02*
X82690464Y-88671900D01*
X82690464Y-88671900D02*
X82657131Y-88738566D01*
X82657131Y-88738566D02*
X82623797Y-88771900D01*
X82623797Y-88771900D02*
X82557131Y-88805233D01*
X82557131Y-88805233D02*
X82390464Y-88805233D01*
X82390464Y-88805233D02*
X82323797Y-88771900D01*
X82323797Y-88771900D02*
X82290464Y-88738566D01*
X82923798Y-88338566D02*
X83090464Y-88805233D01*
X83090464Y-88805233D02*
X83257131Y-88338566D01*
X83523797Y-88805233D02*
X83523797Y-88105233D01*
X83857130Y-88805233D02*
X83857130Y-88105233D01*
X83857130Y-88105233D02*
X84257130Y-88805233D01*
X84257130Y-88805233D02*
X84257130Y-88105233D01*
X85681797Y-88711605D02*
X85648464Y-88744939D01*
X85648464Y-88744939D02*
X85548464Y-88778272D01*
X85548464Y-88778272D02*
X85481797Y-88778272D01*
X85481797Y-88778272D02*
X85381797Y-88744939D01*
X85381797Y-88744939D02*
X85315131Y-88678272D01*
X85315131Y-88678272D02*
X85281797Y-88611605D01*
X85281797Y-88611605D02*
X85248464Y-88478272D01*
X85248464Y-88478272D02*
X85248464Y-88378272D01*
X85248464Y-88378272D02*
X85281797Y-88244939D01*
X85281797Y-88244939D02*
X85315131Y-88178272D01*
X85315131Y-88178272D02*
X85381797Y-88111605D01*
X85381797Y-88111605D02*
X85481797Y-88078272D01*
X85481797Y-88078272D02*
X85548464Y-88078272D01*
X85548464Y-88078272D02*
X85648464Y-88111605D01*
X85648464Y-88111605D02*
X85681797Y-88144939D01*
X86281797Y-88311605D02*
X86281797Y-88778272D01*
X85981797Y-88311605D02*
X85981797Y-88678272D01*
X85981797Y-88678272D02*
X86015131Y-88744939D01*
X86015131Y-88744939D02*
X86081797Y-88778272D01*
X86081797Y-88778272D02*
X86181797Y-88778272D01*
X86181797Y-88778272D02*
X86248464Y-88744939D01*
X86248464Y-88744939D02*
X86281797Y-88711605D01*
X86615130Y-88778272D02*
X86615130Y-88311605D01*
X86615130Y-88444939D02*
X86648464Y-88378272D01*
X86648464Y-88378272D02*
X86681797Y-88344939D01*
X86681797Y-88344939D02*
X86748464Y-88311605D01*
X86748464Y-88311605D02*
X86815130Y-88311605D01*
X87048463Y-88778272D02*
X87048463Y-88311605D01*
X87048463Y-88444939D02*
X87081797Y-88378272D01*
X87081797Y-88378272D02*
X87115130Y-88344939D01*
X87115130Y-88344939D02*
X87181797Y-88311605D01*
X87181797Y-88311605D02*
X87248463Y-88311605D01*
X88145131Y-88438566D02*
X88245131Y-88471900D01*
X88245131Y-88471900D02*
X88278464Y-88505233D01*
X88278464Y-88505233D02*
X88311797Y-88571900D01*
X88311797Y-88571900D02*
X88311797Y-88671900D01*
X88311797Y-88671900D02*
X88278464Y-88738566D01*
X88278464Y-88738566D02*
X88245131Y-88771900D01*
X88245131Y-88771900D02*
X88178464Y-88805233D01*
X88178464Y-88805233D02*
X87911797Y-88805233D01*
X87911797Y-88805233D02*
X87911797Y-88105233D01*
X87911797Y-88105233D02*
X88145131Y-88105233D01*
X88145131Y-88105233D02*
X88211797Y-88138566D01*
X88211797Y-88138566D02*
X88245131Y-88171900D01*
X88245131Y-88171900D02*
X88278464Y-88238566D01*
X88278464Y-88238566D02*
X88278464Y-88305233D01*
X88278464Y-88305233D02*
X88245131Y-88371900D01*
X88245131Y-88371900D02*
X88211797Y-88405233D01*
X88211797Y-88405233D02*
X88145131Y-88438566D01*
X88145131Y-88438566D02*
X87911797Y-88438566D01*
X88578464Y-88605233D02*
X88911797Y-88605233D01*
X88511797Y-88805233D02*
X88745131Y-88105233D01*
X88745131Y-88105233D02*
X88978464Y-88805233D01*
X89111797Y-88105233D02*
X89511797Y-88105233D01*
X89311797Y-88805233D02*
X89311797Y-88105233D01*
X89745130Y-88538566D02*
X90278464Y-88538566D01*
X90011797Y-88805233D02*
X90011797Y-88271900D01*
D14*
X54369673Y-88486266D02*
X55131578Y-88486266D01*
X54750625Y-88867219D02*
X54750625Y-88105314D01*
X55512530Y-87867219D02*
X56131577Y-87867219D01*
X56131577Y-87867219D02*
X55798244Y-88248171D01*
X55798244Y-88248171D02*
X55941101Y-88248171D01*
X55941101Y-88248171D02*
X56036339Y-88295790D01*
X56036339Y-88295790D02*
X56083958Y-88343409D01*
X56083958Y-88343409D02*
X56131577Y-88438647D01*
X56131577Y-88438647D02*
X56131577Y-88676742D01*
X56131577Y-88676742D02*
X56083958Y-88771980D01*
X56083958Y-88771980D02*
X56036339Y-88819600D01*
X56036339Y-88819600D02*
X55941101Y-88867219D01*
X55941101Y-88867219D02*
X55655387Y-88867219D01*
X55655387Y-88867219D02*
X55560149Y-88819600D01*
X55560149Y-88819600D02*
X55512530Y-88771980D01*
X56560149Y-88771980D02*
X56607768Y-88819600D01*
X56607768Y-88819600D02*
X56560149Y-88867219D01*
X56560149Y-88867219D02*
X56512530Y-88819600D01*
X56512530Y-88819600D02*
X56560149Y-88771980D01*
X56560149Y-88771980D02*
X56560149Y-88867219D01*
X56941101Y-87867219D02*
X57560148Y-87867219D01*
X57560148Y-87867219D02*
X57226815Y-88248171D01*
X57226815Y-88248171D02*
X57369672Y-88248171D01*
X57369672Y-88248171D02*
X57464910Y-88295790D01*
X57464910Y-88295790D02*
X57512529Y-88343409D01*
X57512529Y-88343409D02*
X57560148Y-88438647D01*
X57560148Y-88438647D02*
X57560148Y-88676742D01*
X57560148Y-88676742D02*
X57512529Y-88771980D01*
X57512529Y-88771980D02*
X57464910Y-88819600D01*
X57464910Y-88819600D02*
X57369672Y-88867219D01*
X57369672Y-88867219D02*
X57083958Y-88867219D01*
X57083958Y-88867219D02*
X56988720Y-88819600D01*
X56988720Y-88819600D02*
X56941101Y-88771980D01*
X57893482Y-88200552D02*
X58131577Y-88867219D01*
X58131577Y-88867219D02*
X58369672Y-88200552D01*
X61573482Y-88044838D02*
X61478244Y-87997219D01*
X61478244Y-87997219D02*
X61335387Y-87997219D01*
X61335387Y-87997219D02*
X61192530Y-88044838D01*
X61192530Y-88044838D02*
X61097292Y-88140076D01*
X61097292Y-88140076D02*
X61049673Y-88235314D01*
X61049673Y-88235314D02*
X61002054Y-88425790D01*
X61002054Y-88425790D02*
X61002054Y-88568647D01*
X61002054Y-88568647D02*
X61049673Y-88759123D01*
X61049673Y-88759123D02*
X61097292Y-88854361D01*
X61097292Y-88854361D02*
X61192530Y-88949600D01*
X61192530Y-88949600D02*
X61335387Y-88997219D01*
X61335387Y-88997219D02*
X61430625Y-88997219D01*
X61430625Y-88997219D02*
X61573482Y-88949600D01*
X61573482Y-88949600D02*
X61621101Y-88901980D01*
X61621101Y-88901980D02*
X61621101Y-88568647D01*
X61621101Y-88568647D02*
X61430625Y-88568647D01*
X62049673Y-88997219D02*
X62049673Y-87997219D01*
X62049673Y-87997219D02*
X62621101Y-88997219D01*
X62621101Y-88997219D02*
X62621101Y-87997219D01*
X63097292Y-88997219D02*
X63097292Y-87997219D01*
X63097292Y-87997219D02*
X63335387Y-87997219D01*
X63335387Y-87997219D02*
X63478244Y-88044838D01*
X63478244Y-88044838D02*
X63573482Y-88140076D01*
X63573482Y-88140076D02*
X63621101Y-88235314D01*
X63621101Y-88235314D02*
X63668720Y-88425790D01*
X63668720Y-88425790D02*
X63668720Y-88568647D01*
X63668720Y-88568647D02*
X63621101Y-88759123D01*
X63621101Y-88759123D02*
X63573482Y-88854361D01*
X63573482Y-88854361D02*
X63478244Y-88949600D01*
X63478244Y-88949600D02*
X63335387Y-88997219D01*
X63335387Y-88997219D02*
X63097292Y-88997219D01*
X64049673Y-88949600D02*
X64192530Y-88997219D01*
X64192530Y-88997219D02*
X64430625Y-88997219D01*
X64430625Y-88997219D02*
X64525863Y-88949600D01*
X64525863Y-88949600D02*
X64573482Y-88901980D01*
X64573482Y-88901980D02*
X64621101Y-88806742D01*
X64621101Y-88806742D02*
X64621101Y-88711504D01*
X64621101Y-88711504D02*
X64573482Y-88616266D01*
X64573482Y-88616266D02*
X64525863Y-88568647D01*
X64525863Y-88568647D02*
X64430625Y-88521028D01*
X64430625Y-88521028D02*
X64240149Y-88473409D01*
X64240149Y-88473409D02*
X64144911Y-88425790D01*
X64144911Y-88425790D02*
X64097292Y-88378171D01*
X64097292Y-88378171D02*
X64049673Y-88282933D01*
X64049673Y-88282933D02*
X64049673Y-88187695D01*
X64049673Y-88187695D02*
X64097292Y-88092457D01*
X64097292Y-88092457D02*
X64144911Y-88044838D01*
X64144911Y-88044838D02*
X64240149Y-87997219D01*
X64240149Y-87997219D02*
X64478244Y-87997219D01*
X64478244Y-87997219D02*
X64621101Y-88044838D01*
D11*
X53100225Y-82390828D02*
X53957368Y-82390828D01*
X53528796Y-83890828D02*
X53528796Y-82390828D01*
X55028796Y-83819400D02*
X54885939Y-83890828D01*
X54885939Y-83890828D02*
X54600225Y-83890828D01*
X54600225Y-83890828D02*
X54457367Y-83819400D01*
X54457367Y-83819400D02*
X54385939Y-83676542D01*
X54385939Y-83676542D02*
X54385939Y-83105114D01*
X54385939Y-83105114D02*
X54457367Y-82962257D01*
X54457367Y-82962257D02*
X54600225Y-82890828D01*
X54600225Y-82890828D02*
X54885939Y-82890828D01*
X54885939Y-82890828D02*
X55028796Y-82962257D01*
X55028796Y-82962257D02*
X55100225Y-83105114D01*
X55100225Y-83105114D02*
X55100225Y-83247971D01*
X55100225Y-83247971D02*
X54385939Y-83390828D01*
X55743081Y-83890828D02*
X55743081Y-82890828D01*
X55743081Y-83033685D02*
X55814510Y-82962257D01*
X55814510Y-82962257D02*
X55957367Y-82890828D01*
X55957367Y-82890828D02*
X56171653Y-82890828D01*
X56171653Y-82890828D02*
X56314510Y-82962257D01*
X56314510Y-82962257D02*
X56385939Y-83105114D01*
X56385939Y-83105114D02*
X56385939Y-83890828D01*
X56385939Y-83105114D02*
X56457367Y-82962257D01*
X56457367Y-82962257D02*
X56600224Y-82890828D01*
X56600224Y-82890828D02*
X56814510Y-82890828D01*
X56814510Y-82890828D02*
X56957367Y-82962257D01*
X56957367Y-82962257D02*
X57028796Y-83105114D01*
X57028796Y-83105114D02*
X57028796Y-83890828D01*
X57743081Y-82890828D02*
X57743081Y-84390828D01*
X57743081Y-82962257D02*
X57885939Y-82890828D01*
X57885939Y-82890828D02*
X58171653Y-82890828D01*
X58171653Y-82890828D02*
X58314510Y-82962257D01*
X58314510Y-82962257D02*
X58385939Y-83033685D01*
X58385939Y-83033685D02*
X58457367Y-83176542D01*
X58457367Y-83176542D02*
X58457367Y-83605114D01*
X58457367Y-83605114D02*
X58385939Y-83747971D01*
X58385939Y-83747971D02*
X58314510Y-83819400D01*
X58314510Y-83819400D02*
X58171653Y-83890828D01*
X58171653Y-83890828D02*
X57885939Y-83890828D01*
X57885939Y-83890828D02*
X57743081Y-83819400D01*
X59028796Y-83819400D02*
X59243082Y-83890828D01*
X59243082Y-83890828D02*
X59600224Y-83890828D01*
X59600224Y-83890828D02*
X59743082Y-83819400D01*
X59743082Y-83819400D02*
X59814510Y-83747971D01*
X59814510Y-83747971D02*
X59885939Y-83605114D01*
X59885939Y-83605114D02*
X59885939Y-83462257D01*
X59885939Y-83462257D02*
X59814510Y-83319400D01*
X59814510Y-83319400D02*
X59743082Y-83247971D01*
X59743082Y-83247971D02*
X59600224Y-83176542D01*
X59600224Y-83176542D02*
X59314510Y-83105114D01*
X59314510Y-83105114D02*
X59171653Y-83033685D01*
X59171653Y-83033685D02*
X59100224Y-82962257D01*
X59100224Y-82962257D02*
X59028796Y-82819400D01*
X59028796Y-82819400D02*
X59028796Y-82676542D01*
X59028796Y-82676542D02*
X59100224Y-82533685D01*
X59100224Y-82533685D02*
X59171653Y-82462257D01*
X59171653Y-82462257D02*
X59314510Y-82390828D01*
X59314510Y-82390828D02*
X59671653Y-82390828D01*
X59671653Y-82390828D02*
X59885939Y-82462257D01*
X61100224Y-83819400D02*
X60957367Y-83890828D01*
X60957367Y-83890828D02*
X60671653Y-83890828D01*
X60671653Y-83890828D02*
X60528795Y-83819400D01*
X60528795Y-83819400D02*
X60457367Y-83676542D01*
X60457367Y-83676542D02*
X60457367Y-83105114D01*
X60457367Y-83105114D02*
X60528795Y-82962257D01*
X60528795Y-82962257D02*
X60671653Y-82890828D01*
X60671653Y-82890828D02*
X60957367Y-82890828D01*
X60957367Y-82890828D02*
X61100224Y-82962257D01*
X61100224Y-82962257D02*
X61171653Y-83105114D01*
X61171653Y-83105114D02*
X61171653Y-83247971D01*
X61171653Y-83247971D02*
X60457367Y-83390828D01*
X61814509Y-82890828D02*
X61814509Y-83890828D01*
X61814509Y-83033685D02*
X61885938Y-82962257D01*
X61885938Y-82962257D02*
X62028795Y-82890828D01*
X62028795Y-82890828D02*
X62243081Y-82890828D01*
X62243081Y-82890828D02*
X62385938Y-82962257D01*
X62385938Y-82962257D02*
X62457367Y-83105114D01*
X62457367Y-83105114D02*
X62457367Y-83890828D01*
X63100224Y-83819400D02*
X63243081Y-83890828D01*
X63243081Y-83890828D02*
X63528795Y-83890828D01*
X63528795Y-83890828D02*
X63671652Y-83819400D01*
X63671652Y-83819400D02*
X63743081Y-83676542D01*
X63743081Y-83676542D02*
X63743081Y-83605114D01*
X63743081Y-83605114D02*
X63671652Y-83462257D01*
X63671652Y-83462257D02*
X63528795Y-83390828D01*
X63528795Y-83390828D02*
X63314510Y-83390828D01*
X63314510Y-83390828D02*
X63171652Y-83319400D01*
X63171652Y-83319400D02*
X63100224Y-83176542D01*
X63100224Y-83176542D02*
X63100224Y-83105114D01*
X63100224Y-83105114D02*
X63171652Y-82962257D01*
X63171652Y-82962257D02*
X63314510Y-82890828D01*
X63314510Y-82890828D02*
X63528795Y-82890828D01*
X63528795Y-82890828D02*
X63671652Y-82962257D01*
X60625367Y-37785912D02*
X60625367Y-36285912D01*
X60625367Y-36285912D02*
X60982510Y-36285912D01*
X60982510Y-36285912D02*
X61196796Y-36357341D01*
X61196796Y-36357341D02*
X61339653Y-36500198D01*
X61339653Y-36500198D02*
X61411082Y-36643055D01*
X61411082Y-36643055D02*
X61482510Y-36928769D01*
X61482510Y-36928769D02*
X61482510Y-37143055D01*
X61482510Y-37143055D02*
X61411082Y-37428769D01*
X61411082Y-37428769D02*
X61339653Y-37571626D01*
X61339653Y-37571626D02*
X61196796Y-37714484D01*
X61196796Y-37714484D02*
X60982510Y-37785912D01*
X60982510Y-37785912D02*
X60625367Y-37785912D01*
X62696796Y-37714484D02*
X62553939Y-37785912D01*
X62553939Y-37785912D02*
X62268225Y-37785912D01*
X62268225Y-37785912D02*
X62125367Y-37714484D01*
X62125367Y-37714484D02*
X62053939Y-37571626D01*
X62053939Y-37571626D02*
X62053939Y-37000198D01*
X62053939Y-37000198D02*
X62125367Y-36857341D01*
X62125367Y-36857341D02*
X62268225Y-36785912D01*
X62268225Y-36785912D02*
X62553939Y-36785912D01*
X62553939Y-36785912D02*
X62696796Y-36857341D01*
X62696796Y-36857341D02*
X62768225Y-37000198D01*
X62768225Y-37000198D02*
X62768225Y-37143055D01*
X62768225Y-37143055D02*
X62053939Y-37285912D01*
X63339653Y-37714484D02*
X63482510Y-37785912D01*
X63482510Y-37785912D02*
X63768224Y-37785912D01*
X63768224Y-37785912D02*
X63911081Y-37714484D01*
X63911081Y-37714484D02*
X63982510Y-37571626D01*
X63982510Y-37571626D02*
X63982510Y-37500198D01*
X63982510Y-37500198D02*
X63911081Y-37357341D01*
X63911081Y-37357341D02*
X63768224Y-37285912D01*
X63768224Y-37285912D02*
X63553939Y-37285912D01*
X63553939Y-37285912D02*
X63411081Y-37214484D01*
X63411081Y-37214484D02*
X63339653Y-37071626D01*
X63339653Y-37071626D02*
X63339653Y-37000198D01*
X63339653Y-37000198D02*
X63411081Y-36857341D01*
X63411081Y-36857341D02*
X63553939Y-36785912D01*
X63553939Y-36785912D02*
X63768224Y-36785912D01*
X63768224Y-36785912D02*
X63911081Y-36857341D01*
X64625367Y-37785912D02*
X64625367Y-36785912D01*
X64625367Y-36285912D02*
X64553939Y-36357341D01*
X64553939Y-36357341D02*
X64625367Y-36428769D01*
X64625367Y-36428769D02*
X64696796Y-36357341D01*
X64696796Y-36357341D02*
X64625367Y-36285912D01*
X64625367Y-36285912D02*
X64625367Y-36428769D01*
X65982511Y-36785912D02*
X65982511Y-38000198D01*
X65982511Y-38000198D02*
X65911082Y-38143055D01*
X65911082Y-38143055D02*
X65839653Y-38214484D01*
X65839653Y-38214484D02*
X65696796Y-38285912D01*
X65696796Y-38285912D02*
X65482511Y-38285912D01*
X65482511Y-38285912D02*
X65339653Y-38214484D01*
X65982511Y-37714484D02*
X65839653Y-37785912D01*
X65839653Y-37785912D02*
X65553939Y-37785912D01*
X65553939Y-37785912D02*
X65411082Y-37714484D01*
X65411082Y-37714484D02*
X65339653Y-37643055D01*
X65339653Y-37643055D02*
X65268225Y-37500198D01*
X65268225Y-37500198D02*
X65268225Y-37071626D01*
X65268225Y-37071626D02*
X65339653Y-36928769D01*
X65339653Y-36928769D02*
X65411082Y-36857341D01*
X65411082Y-36857341D02*
X65553939Y-36785912D01*
X65553939Y-36785912D02*
X65839653Y-36785912D01*
X65839653Y-36785912D02*
X65982511Y-36857341D01*
X66696796Y-36785912D02*
X66696796Y-37785912D01*
X66696796Y-36928769D02*
X66768225Y-36857341D01*
X66768225Y-36857341D02*
X66911082Y-36785912D01*
X66911082Y-36785912D02*
X67125368Y-36785912D01*
X67125368Y-36785912D02*
X67268225Y-36857341D01*
X67268225Y-36857341D02*
X67339654Y-37000198D01*
X67339654Y-37000198D02*
X67339654Y-37785912D01*
X68625368Y-37714484D02*
X68482511Y-37785912D01*
X68482511Y-37785912D02*
X68196797Y-37785912D01*
X68196797Y-37785912D02*
X68053939Y-37714484D01*
X68053939Y-37714484D02*
X67982511Y-37571626D01*
X67982511Y-37571626D02*
X67982511Y-37000198D01*
X67982511Y-37000198D02*
X68053939Y-36857341D01*
X68053939Y-36857341D02*
X68196797Y-36785912D01*
X68196797Y-36785912D02*
X68482511Y-36785912D01*
X68482511Y-36785912D02*
X68625368Y-36857341D01*
X68625368Y-36857341D02*
X68696797Y-37000198D01*
X68696797Y-37000198D02*
X68696797Y-37143055D01*
X68696797Y-37143055D02*
X67982511Y-37285912D01*
X69982511Y-37785912D02*
X69982511Y-36285912D01*
X69982511Y-37714484D02*
X69839653Y-37785912D01*
X69839653Y-37785912D02*
X69553939Y-37785912D01*
X69553939Y-37785912D02*
X69411082Y-37714484D01*
X69411082Y-37714484D02*
X69339653Y-37643055D01*
X69339653Y-37643055D02*
X69268225Y-37500198D01*
X69268225Y-37500198D02*
X69268225Y-37071626D01*
X69268225Y-37071626D02*
X69339653Y-36928769D01*
X69339653Y-36928769D02*
X69411082Y-36857341D01*
X69411082Y-36857341D02*
X69553939Y-36785912D01*
X69553939Y-36785912D02*
X69839653Y-36785912D01*
X69839653Y-36785912D02*
X69982511Y-36857341D01*
X71839653Y-37785912D02*
X71839653Y-36285912D01*
X71839653Y-36857341D02*
X71982511Y-36785912D01*
X71982511Y-36785912D02*
X72268225Y-36785912D01*
X72268225Y-36785912D02*
X72411082Y-36857341D01*
X72411082Y-36857341D02*
X72482511Y-36928769D01*
X72482511Y-36928769D02*
X72553939Y-37071626D01*
X72553939Y-37071626D02*
X72553939Y-37500198D01*
X72553939Y-37500198D02*
X72482511Y-37643055D01*
X72482511Y-37643055D02*
X72411082Y-37714484D01*
X72411082Y-37714484D02*
X72268225Y-37785912D01*
X72268225Y-37785912D02*
X71982511Y-37785912D01*
X71982511Y-37785912D02*
X71839653Y-37714484D01*
X73053939Y-36785912D02*
X73411082Y-37785912D01*
X73768225Y-36785912D02*
X73411082Y-37785912D01*
X73411082Y-37785912D02*
X73268225Y-38143055D01*
X73268225Y-38143055D02*
X73196796Y-38214484D01*
X73196796Y-38214484D02*
X73053939Y-38285912D01*
X75339653Y-36785912D02*
X76125368Y-36785912D01*
X76125368Y-36785912D02*
X75339653Y-37785912D01*
X75339653Y-37785912D02*
X76125368Y-37785912D01*
X76696796Y-37785912D02*
X76696796Y-36285912D01*
X76696796Y-36285912D02*
X77053939Y-36285912D01*
X77053939Y-36285912D02*
X77268225Y-36357341D01*
X77268225Y-36357341D02*
X77411082Y-36500198D01*
X77411082Y-36500198D02*
X77482511Y-36643055D01*
X77482511Y-36643055D02*
X77553939Y-36928769D01*
X77553939Y-36928769D02*
X77553939Y-37143055D01*
X77553939Y-37143055D02*
X77482511Y-37428769D01*
X77482511Y-37428769D02*
X77411082Y-37571626D01*
X77411082Y-37571626D02*
X77268225Y-37714484D01*
X77268225Y-37714484D02*
X77053939Y-37785912D01*
X77053939Y-37785912D02*
X76696796Y-37785912D01*
X78768225Y-37714484D02*
X78625368Y-37785912D01*
X78625368Y-37785912D02*
X78339654Y-37785912D01*
X78339654Y-37785912D02*
X78196796Y-37714484D01*
X78196796Y-37714484D02*
X78125368Y-37571626D01*
X78125368Y-37571626D02*
X78125368Y-37000198D01*
X78125368Y-37000198D02*
X78196796Y-36857341D01*
X78196796Y-36857341D02*
X78339654Y-36785912D01*
X78339654Y-36785912D02*
X78625368Y-36785912D01*
X78625368Y-36785912D02*
X78768225Y-36857341D01*
X78768225Y-36857341D02*
X78839654Y-37000198D01*
X78839654Y-37000198D02*
X78839654Y-37143055D01*
X78839654Y-37143055D02*
X78125368Y-37285912D01*
X80125368Y-37714484D02*
X79982510Y-37785912D01*
X79982510Y-37785912D02*
X79696796Y-37785912D01*
X79696796Y-37785912D02*
X79553939Y-37714484D01*
X79553939Y-37714484D02*
X79482510Y-37643055D01*
X79482510Y-37643055D02*
X79411082Y-37500198D01*
X79411082Y-37500198D02*
X79411082Y-37071626D01*
X79411082Y-37071626D02*
X79482510Y-36928769D01*
X79482510Y-36928769D02*
X79553939Y-36857341D01*
X79553939Y-36857341D02*
X79696796Y-36785912D01*
X79696796Y-36785912D02*
X79982510Y-36785912D01*
X79982510Y-36785912D02*
X80125368Y-36857341D01*
X80768224Y-37785912D02*
X80768224Y-36285912D01*
X81411082Y-37785912D02*
X81411082Y-37000198D01*
X81411082Y-37000198D02*
X81339653Y-36857341D01*
X81339653Y-36857341D02*
X81196796Y-36785912D01*
X81196796Y-36785912D02*
X80982510Y-36785912D01*
X80982510Y-36785912D02*
X80839653Y-36857341D01*
X80839653Y-36857341D02*
X80768224Y-36928769D01*
X82125367Y-36785912D02*
X82125367Y-37785912D01*
X82125367Y-36928769D02*
X82196796Y-36857341D01*
X82196796Y-36857341D02*
X82339653Y-36785912D01*
X82339653Y-36785912D02*
X82553939Y-36785912D01*
X82553939Y-36785912D02*
X82696796Y-36857341D01*
X82696796Y-36857341D02*
X82768225Y-37000198D01*
X82768225Y-37000198D02*
X82768225Y-37785912D01*
X83696796Y-37785912D02*
X83553939Y-37714484D01*
X83553939Y-37714484D02*
X83482510Y-37643055D01*
X83482510Y-37643055D02*
X83411082Y-37500198D01*
X83411082Y-37500198D02*
X83411082Y-37071626D01*
X83411082Y-37071626D02*
X83482510Y-36928769D01*
X83482510Y-36928769D02*
X83553939Y-36857341D01*
X83553939Y-36857341D02*
X83696796Y-36785912D01*
X83696796Y-36785912D02*
X83911082Y-36785912D01*
X83911082Y-36785912D02*
X84053939Y-36857341D01*
X84053939Y-36857341D02*
X84125368Y-36928769D01*
X84125368Y-36928769D02*
X84196796Y-37071626D01*
X84196796Y-37071626D02*
X84196796Y-37500198D01*
X84196796Y-37500198D02*
X84125368Y-37643055D01*
X84125368Y-37643055D02*
X84053939Y-37714484D01*
X84053939Y-37714484D02*
X83911082Y-37785912D01*
X83911082Y-37785912D02*
X83696796Y-37785912D01*
X59411082Y-40129400D02*
X59625368Y-40200828D01*
X59625368Y-40200828D02*
X59982510Y-40200828D01*
X59982510Y-40200828D02*
X60125368Y-40129400D01*
X60125368Y-40129400D02*
X60196796Y-40057971D01*
X60196796Y-40057971D02*
X60268225Y-39915114D01*
X60268225Y-39915114D02*
X60268225Y-39772257D01*
X60268225Y-39772257D02*
X60196796Y-39629400D01*
X60196796Y-39629400D02*
X60125368Y-39557971D01*
X60125368Y-39557971D02*
X59982510Y-39486542D01*
X59982510Y-39486542D02*
X59696796Y-39415114D01*
X59696796Y-39415114D02*
X59553939Y-39343685D01*
X59553939Y-39343685D02*
X59482510Y-39272257D01*
X59482510Y-39272257D02*
X59411082Y-39129400D01*
X59411082Y-39129400D02*
X59411082Y-38986542D01*
X59411082Y-38986542D02*
X59482510Y-38843685D01*
X59482510Y-38843685D02*
X59553939Y-38772257D01*
X59553939Y-38772257D02*
X59696796Y-38700828D01*
X59696796Y-38700828D02*
X60053939Y-38700828D01*
X60053939Y-38700828D02*
X60268225Y-38772257D01*
X60911081Y-39200828D02*
X60911081Y-40700828D01*
X60911081Y-39272257D02*
X61053939Y-39200828D01*
X61053939Y-39200828D02*
X61339653Y-39200828D01*
X61339653Y-39200828D02*
X61482510Y-39272257D01*
X61482510Y-39272257D02*
X61553939Y-39343685D01*
X61553939Y-39343685D02*
X61625367Y-39486542D01*
X61625367Y-39486542D02*
X61625367Y-39915114D01*
X61625367Y-39915114D02*
X61553939Y-40057971D01*
X61553939Y-40057971D02*
X61482510Y-40129400D01*
X61482510Y-40129400D02*
X61339653Y-40200828D01*
X61339653Y-40200828D02*
X61053939Y-40200828D01*
X61053939Y-40200828D02*
X60911081Y-40129400D01*
X62482510Y-40200828D02*
X62339653Y-40129400D01*
X62339653Y-40129400D02*
X62268224Y-40057971D01*
X62268224Y-40057971D02*
X62196796Y-39915114D01*
X62196796Y-39915114D02*
X62196796Y-39486542D01*
X62196796Y-39486542D02*
X62268224Y-39343685D01*
X62268224Y-39343685D02*
X62339653Y-39272257D01*
X62339653Y-39272257D02*
X62482510Y-39200828D01*
X62482510Y-39200828D02*
X62696796Y-39200828D01*
X62696796Y-39200828D02*
X62839653Y-39272257D01*
X62839653Y-39272257D02*
X62911082Y-39343685D01*
X62911082Y-39343685D02*
X62982510Y-39486542D01*
X62982510Y-39486542D02*
X62982510Y-39915114D01*
X62982510Y-39915114D02*
X62911082Y-40057971D01*
X62911082Y-40057971D02*
X62839653Y-40129400D01*
X62839653Y-40129400D02*
X62696796Y-40200828D01*
X62696796Y-40200828D02*
X62482510Y-40200828D01*
X63625367Y-39200828D02*
X63625367Y-40200828D01*
X63625367Y-39343685D02*
X63696796Y-39272257D01*
X63696796Y-39272257D02*
X63839653Y-39200828D01*
X63839653Y-39200828D02*
X64053939Y-39200828D01*
X64053939Y-39200828D02*
X64196796Y-39272257D01*
X64196796Y-39272257D02*
X64268225Y-39415114D01*
X64268225Y-39415114D02*
X64268225Y-40200828D01*
X64911082Y-40129400D02*
X65053939Y-40200828D01*
X65053939Y-40200828D02*
X65339653Y-40200828D01*
X65339653Y-40200828D02*
X65482510Y-40129400D01*
X65482510Y-40129400D02*
X65553939Y-39986542D01*
X65553939Y-39986542D02*
X65553939Y-39915114D01*
X65553939Y-39915114D02*
X65482510Y-39772257D01*
X65482510Y-39772257D02*
X65339653Y-39700828D01*
X65339653Y-39700828D02*
X65125368Y-39700828D01*
X65125368Y-39700828D02*
X64982510Y-39629400D01*
X64982510Y-39629400D02*
X64911082Y-39486542D01*
X64911082Y-39486542D02*
X64911082Y-39415114D01*
X64911082Y-39415114D02*
X64982510Y-39272257D01*
X64982510Y-39272257D02*
X65125368Y-39200828D01*
X65125368Y-39200828D02*
X65339653Y-39200828D01*
X65339653Y-39200828D02*
X65482510Y-39272257D01*
X66411082Y-40200828D02*
X66268225Y-40129400D01*
X66268225Y-40129400D02*
X66196796Y-40057971D01*
X66196796Y-40057971D02*
X66125368Y-39915114D01*
X66125368Y-39915114D02*
X66125368Y-39486542D01*
X66125368Y-39486542D02*
X66196796Y-39343685D01*
X66196796Y-39343685D02*
X66268225Y-39272257D01*
X66268225Y-39272257D02*
X66411082Y-39200828D01*
X66411082Y-39200828D02*
X66625368Y-39200828D01*
X66625368Y-39200828D02*
X66768225Y-39272257D01*
X66768225Y-39272257D02*
X66839654Y-39343685D01*
X66839654Y-39343685D02*
X66911082Y-39486542D01*
X66911082Y-39486542D02*
X66911082Y-39915114D01*
X66911082Y-39915114D02*
X66839654Y-40057971D01*
X66839654Y-40057971D02*
X66768225Y-40129400D01*
X66768225Y-40129400D02*
X66625368Y-40200828D01*
X66625368Y-40200828D02*
X66411082Y-40200828D01*
X67553939Y-40200828D02*
X67553939Y-39200828D01*
X67553939Y-39486542D02*
X67625368Y-39343685D01*
X67625368Y-39343685D02*
X67696797Y-39272257D01*
X67696797Y-39272257D02*
X67839654Y-39200828D01*
X67839654Y-39200828D02*
X67982511Y-39200828D01*
X69053939Y-40129400D02*
X68911082Y-40200828D01*
X68911082Y-40200828D02*
X68625368Y-40200828D01*
X68625368Y-40200828D02*
X68482510Y-40129400D01*
X68482510Y-40129400D02*
X68411082Y-39986542D01*
X68411082Y-39986542D02*
X68411082Y-39415114D01*
X68411082Y-39415114D02*
X68482510Y-39272257D01*
X68482510Y-39272257D02*
X68625368Y-39200828D01*
X68625368Y-39200828D02*
X68911082Y-39200828D01*
X68911082Y-39200828D02*
X69053939Y-39272257D01*
X69053939Y-39272257D02*
X69125368Y-39415114D01*
X69125368Y-39415114D02*
X69125368Y-39557971D01*
X69125368Y-39557971D02*
X68411082Y-39700828D01*
X70411082Y-40200828D02*
X70411082Y-38700828D01*
X70411082Y-40129400D02*
X70268224Y-40200828D01*
X70268224Y-40200828D02*
X69982510Y-40200828D01*
X69982510Y-40200828D02*
X69839653Y-40129400D01*
X69839653Y-40129400D02*
X69768224Y-40057971D01*
X69768224Y-40057971D02*
X69696796Y-39915114D01*
X69696796Y-39915114D02*
X69696796Y-39486542D01*
X69696796Y-39486542D02*
X69768224Y-39343685D01*
X69768224Y-39343685D02*
X69839653Y-39272257D01*
X69839653Y-39272257D02*
X69982510Y-39200828D01*
X69982510Y-39200828D02*
X70268224Y-39200828D01*
X70268224Y-39200828D02*
X70411082Y-39272257D01*
X72268224Y-40200828D02*
X72268224Y-38700828D01*
X72268224Y-39272257D02*
X72411082Y-39200828D01*
X72411082Y-39200828D02*
X72696796Y-39200828D01*
X72696796Y-39200828D02*
X72839653Y-39272257D01*
X72839653Y-39272257D02*
X72911082Y-39343685D01*
X72911082Y-39343685D02*
X72982510Y-39486542D01*
X72982510Y-39486542D02*
X72982510Y-39915114D01*
X72982510Y-39915114D02*
X72911082Y-40057971D01*
X72911082Y-40057971D02*
X72839653Y-40129400D01*
X72839653Y-40129400D02*
X72696796Y-40200828D01*
X72696796Y-40200828D02*
X72411082Y-40200828D01*
X72411082Y-40200828D02*
X72268224Y-40129400D01*
X73482510Y-39200828D02*
X73839653Y-40200828D01*
X74196796Y-39200828D02*
X73839653Y-40200828D01*
X73839653Y-40200828D02*
X73696796Y-40557971D01*
X73696796Y-40557971D02*
X73625367Y-40629400D01*
X73625367Y-40629400D02*
X73482510Y-40700828D01*
X75911081Y-40200828D02*
X75911081Y-38700828D01*
X75911081Y-38700828D02*
X76482510Y-38700828D01*
X76482510Y-38700828D02*
X76625367Y-38772257D01*
X76625367Y-38772257D02*
X76696796Y-38843685D01*
X76696796Y-38843685D02*
X76768224Y-38986542D01*
X76768224Y-38986542D02*
X76768224Y-39200828D01*
X76768224Y-39200828D02*
X76696796Y-39343685D01*
X76696796Y-39343685D02*
X76625367Y-39415114D01*
X76625367Y-39415114D02*
X76482510Y-39486542D01*
X76482510Y-39486542D02*
X75911081Y-39486542D01*
X78268224Y-40057971D02*
X78196796Y-40129400D01*
X78196796Y-40129400D02*
X77982510Y-40200828D01*
X77982510Y-40200828D02*
X77839653Y-40200828D01*
X77839653Y-40200828D02*
X77625367Y-40129400D01*
X77625367Y-40129400D02*
X77482510Y-39986542D01*
X77482510Y-39986542D02*
X77411081Y-39843685D01*
X77411081Y-39843685D02*
X77339653Y-39557971D01*
X77339653Y-39557971D02*
X77339653Y-39343685D01*
X77339653Y-39343685D02*
X77411081Y-39057971D01*
X77411081Y-39057971D02*
X77482510Y-38915114D01*
X77482510Y-38915114D02*
X77625367Y-38772257D01*
X77625367Y-38772257D02*
X77839653Y-38700828D01*
X77839653Y-38700828D02*
X77982510Y-38700828D01*
X77982510Y-38700828D02*
X78196796Y-38772257D01*
X78196796Y-38772257D02*
X78268224Y-38843685D01*
X79411081Y-39415114D02*
X79625367Y-39486542D01*
X79625367Y-39486542D02*
X79696796Y-39557971D01*
X79696796Y-39557971D02*
X79768224Y-39700828D01*
X79768224Y-39700828D02*
X79768224Y-39915114D01*
X79768224Y-39915114D02*
X79696796Y-40057971D01*
X79696796Y-40057971D02*
X79625367Y-40129400D01*
X79625367Y-40129400D02*
X79482510Y-40200828D01*
X79482510Y-40200828D02*
X78911081Y-40200828D01*
X78911081Y-40200828D02*
X78911081Y-38700828D01*
X78911081Y-38700828D02*
X79411081Y-38700828D01*
X79411081Y-38700828D02*
X79553939Y-38772257D01*
X79553939Y-38772257D02*
X79625367Y-38843685D01*
X79625367Y-38843685D02*
X79696796Y-38986542D01*
X79696796Y-38986542D02*
X79696796Y-39129400D01*
X79696796Y-39129400D02*
X79625367Y-39272257D01*
X79625367Y-39272257D02*
X79553939Y-39343685D01*
X79553939Y-39343685D02*
X79411081Y-39415114D01*
X79411081Y-39415114D02*
X78911081Y-39415114D01*
X80268224Y-39200828D02*
X80553939Y-40200828D01*
X80553939Y-40200828D02*
X80839653Y-39486542D01*
X80839653Y-39486542D02*
X81125367Y-40200828D01*
X81125367Y-40200828D02*
X81411081Y-39200828D01*
X82625368Y-40200828D02*
X82625368Y-39415114D01*
X82625368Y-39415114D02*
X82553939Y-39272257D01*
X82553939Y-39272257D02*
X82411082Y-39200828D01*
X82411082Y-39200828D02*
X82125368Y-39200828D01*
X82125368Y-39200828D02*
X81982510Y-39272257D01*
X82625368Y-40129400D02*
X82482510Y-40200828D01*
X82482510Y-40200828D02*
X82125368Y-40200828D01*
X82125368Y-40200828D02*
X81982510Y-40129400D01*
X81982510Y-40129400D02*
X81911082Y-39986542D01*
X81911082Y-39986542D02*
X81911082Y-39843685D01*
X81911082Y-39843685D02*
X81982510Y-39700828D01*
X81982510Y-39700828D02*
X82125368Y-39629400D01*
X82125368Y-39629400D02*
X82482510Y-39629400D01*
X82482510Y-39629400D02*
X82625368Y-39557971D01*
X83196796Y-39200828D02*
X83553939Y-40200828D01*
X83911082Y-39200828D02*
X83553939Y-40200828D01*
X83553939Y-40200828D02*
X83411082Y-40557971D01*
X83411082Y-40557971D02*
X83339653Y-40629400D01*
X83339653Y-40629400D02*
X83196796Y-40700828D01*
X84696796Y-40057971D02*
X84768225Y-40129400D01*
X84768225Y-40129400D02*
X84696796Y-40200828D01*
X84696796Y-40200828D02*
X84625368Y-40129400D01*
X84625368Y-40129400D02*
X84696796Y-40057971D01*
X84696796Y-40057971D02*
X84696796Y-40200828D01*
X84411082Y-38772257D02*
X84553939Y-38700828D01*
X84553939Y-38700828D02*
X84911082Y-38700828D01*
X84911082Y-38700828D02*
X85053939Y-38772257D01*
X85053939Y-38772257D02*
X85125368Y-38915114D01*
X85125368Y-38915114D02*
X85125368Y-39057971D01*
X85125368Y-39057971D02*
X85053939Y-39200828D01*
X85053939Y-39200828D02*
X84982510Y-39272257D01*
X84982510Y-39272257D02*
X84839653Y-39343685D01*
X84839653Y-39343685D02*
X84768225Y-39415114D01*
X84768225Y-39415114D02*
X84696796Y-39557971D01*
X84696796Y-39557971D02*
X84696796Y-39629400D01*
X66467510Y-43996828D02*
X66467510Y-42496828D01*
X66467510Y-42496828D02*
X67038939Y-42496828D01*
X67038939Y-42496828D02*
X67181796Y-42568257D01*
X67181796Y-42568257D02*
X67253225Y-42639685D01*
X67253225Y-42639685D02*
X67324653Y-42782542D01*
X67324653Y-42782542D02*
X67324653Y-42996828D01*
X67324653Y-42996828D02*
X67253225Y-43139685D01*
X67253225Y-43139685D02*
X67181796Y-43211114D01*
X67181796Y-43211114D02*
X67038939Y-43282542D01*
X67038939Y-43282542D02*
X66467510Y-43282542D01*
X68253225Y-42496828D02*
X68538939Y-42496828D01*
X68538939Y-42496828D02*
X68681796Y-42568257D01*
X68681796Y-42568257D02*
X68824653Y-42711114D01*
X68824653Y-42711114D02*
X68896082Y-42996828D01*
X68896082Y-42996828D02*
X68896082Y-43496828D01*
X68896082Y-43496828D02*
X68824653Y-43782542D01*
X68824653Y-43782542D02*
X68681796Y-43925400D01*
X68681796Y-43925400D02*
X68538939Y-43996828D01*
X68538939Y-43996828D02*
X68253225Y-43996828D01*
X68253225Y-43996828D02*
X68110368Y-43925400D01*
X68110368Y-43925400D02*
X67967510Y-43782542D01*
X67967510Y-43782542D02*
X67896082Y-43496828D01*
X67896082Y-43496828D02*
X67896082Y-42996828D01*
X67896082Y-42996828D02*
X67967510Y-42711114D01*
X67967510Y-42711114D02*
X68110368Y-42568257D01*
X68110368Y-42568257D02*
X68253225Y-42496828D01*
X69467511Y-43925400D02*
X69681797Y-43996828D01*
X69681797Y-43996828D02*
X70038939Y-43996828D01*
X70038939Y-43996828D02*
X70181797Y-43925400D01*
X70181797Y-43925400D02*
X70253225Y-43853971D01*
X70253225Y-43853971D02*
X70324654Y-43711114D01*
X70324654Y-43711114D02*
X70324654Y-43568257D01*
X70324654Y-43568257D02*
X70253225Y-43425400D01*
X70253225Y-43425400D02*
X70181797Y-43353971D01*
X70181797Y-43353971D02*
X70038939Y-43282542D01*
X70038939Y-43282542D02*
X69753225Y-43211114D01*
X69753225Y-43211114D02*
X69610368Y-43139685D01*
X69610368Y-43139685D02*
X69538939Y-43068257D01*
X69538939Y-43068257D02*
X69467511Y-42925400D01*
X69467511Y-42925400D02*
X69467511Y-42782542D01*
X69467511Y-42782542D02*
X69538939Y-42639685D01*
X69538939Y-42639685D02*
X69610368Y-42568257D01*
X69610368Y-42568257D02*
X69753225Y-42496828D01*
X69753225Y-42496828D02*
X70110368Y-42496828D01*
X70110368Y-42496828D02*
X70324654Y-42568257D01*
X70967510Y-43996828D02*
X70967510Y-42496828D01*
X71467511Y-42496828D02*
X72324654Y-42496828D01*
X71896082Y-43996828D02*
X71896082Y-42496828D01*
X72824653Y-43996828D02*
X72824653Y-42496828D01*
X73324654Y-42496828D02*
X73824654Y-43996828D01*
X73824654Y-43996828D02*
X74324654Y-42496828D01*
X74824653Y-43211114D02*
X75324653Y-43211114D01*
X75538939Y-43996828D02*
X74824653Y-43996828D01*
X74824653Y-43996828D02*
X74824653Y-42496828D01*
X74824653Y-42496828D02*
X75538939Y-42496828D01*
X77253225Y-43925400D02*
X77467511Y-43996828D01*
X77467511Y-43996828D02*
X77824653Y-43996828D01*
X77824653Y-43996828D02*
X77967511Y-43925400D01*
X77967511Y-43925400D02*
X78038939Y-43853971D01*
X78038939Y-43853971D02*
X78110368Y-43711114D01*
X78110368Y-43711114D02*
X78110368Y-43568257D01*
X78110368Y-43568257D02*
X78038939Y-43425400D01*
X78038939Y-43425400D02*
X77967511Y-43353971D01*
X77967511Y-43353971D02*
X77824653Y-43282542D01*
X77824653Y-43282542D02*
X77538939Y-43211114D01*
X77538939Y-43211114D02*
X77396082Y-43139685D01*
X77396082Y-43139685D02*
X77324653Y-43068257D01*
X77324653Y-43068257D02*
X77253225Y-42925400D01*
X77253225Y-42925400D02*
X77253225Y-42782542D01*
X77253225Y-42782542D02*
X77324653Y-42639685D01*
X77324653Y-42639685D02*
X77396082Y-42568257D01*
X77396082Y-42568257D02*
X77538939Y-42496828D01*
X77538939Y-42496828D02*
X77896082Y-42496828D01*
X77896082Y-42496828D02*
X78110368Y-42568257D01*
X78753224Y-43996828D02*
X78753224Y-42496828D01*
X79467510Y-43996828D02*
X79467510Y-42496828D01*
X79467510Y-42496828D02*
X79824653Y-42496828D01*
X79824653Y-42496828D02*
X80038939Y-42568257D01*
X80038939Y-42568257D02*
X80181796Y-42711114D01*
X80181796Y-42711114D02*
X80253225Y-42853971D01*
X80253225Y-42853971D02*
X80324653Y-43139685D01*
X80324653Y-43139685D02*
X80324653Y-43353971D01*
X80324653Y-43353971D02*
X80253225Y-43639685D01*
X80253225Y-43639685D02*
X80181796Y-43782542D01*
X80181796Y-43782542D02*
X80038939Y-43925400D01*
X80038939Y-43925400D02*
X79824653Y-43996828D01*
X79824653Y-43996828D02*
X79467510Y-43996828D01*
X80967510Y-43211114D02*
X81467510Y-43211114D01*
X81681796Y-43996828D02*
X80967510Y-43996828D01*
X80967510Y-43996828D02*
X80967510Y-42496828D01*
X80967510Y-42496828D02*
X81681796Y-42496828D01*
X80554510Y-34800828D02*
X80554510Y-33300828D01*
X80554510Y-33300828D02*
X81125939Y-33300828D01*
X81125939Y-33300828D02*
X81268796Y-33372257D01*
X81268796Y-33372257D02*
X81340225Y-33443685D01*
X81340225Y-33443685D02*
X81411653Y-33586542D01*
X81411653Y-33586542D02*
X81411653Y-33800828D01*
X81411653Y-33800828D02*
X81340225Y-33943685D01*
X81340225Y-33943685D02*
X81268796Y-34015114D01*
X81268796Y-34015114D02*
X81125939Y-34086542D01*
X81125939Y-34086542D02*
X80554510Y-34086542D01*
X82054510Y-34800828D02*
X82054510Y-33300828D01*
X82054510Y-33300828D02*
X82411653Y-33300828D01*
X82411653Y-33300828D02*
X82625939Y-33372257D01*
X82625939Y-33372257D02*
X82768796Y-33515114D01*
X82768796Y-33515114D02*
X82840225Y-33657971D01*
X82840225Y-33657971D02*
X82911653Y-33943685D01*
X82911653Y-33943685D02*
X82911653Y-34157971D01*
X82911653Y-34157971D02*
X82840225Y-34443685D01*
X82840225Y-34443685D02*
X82768796Y-34586542D01*
X82768796Y-34586542D02*
X82625939Y-34729400D01*
X82625939Y-34729400D02*
X82411653Y-34800828D01*
X82411653Y-34800828D02*
X82054510Y-34800828D01*
X84054510Y-34015114D02*
X84268796Y-34086542D01*
X84268796Y-34086542D02*
X84340225Y-34157971D01*
X84340225Y-34157971D02*
X84411653Y-34300828D01*
X84411653Y-34300828D02*
X84411653Y-34515114D01*
X84411653Y-34515114D02*
X84340225Y-34657971D01*
X84340225Y-34657971D02*
X84268796Y-34729400D01*
X84268796Y-34729400D02*
X84125939Y-34800828D01*
X84125939Y-34800828D02*
X83554510Y-34800828D01*
X83554510Y-34800828D02*
X83554510Y-33300828D01*
X83554510Y-33300828D02*
X84054510Y-33300828D01*
X84054510Y-33300828D02*
X84197368Y-33372257D01*
X84197368Y-33372257D02*
X84268796Y-33443685D01*
X84268796Y-33443685D02*
X84340225Y-33586542D01*
X84340225Y-33586542D02*
X84340225Y-33729400D01*
X84340225Y-33729400D02*
X84268796Y-33872257D01*
X84268796Y-33872257D02*
X84197368Y-33943685D01*
X84197368Y-33943685D02*
X84054510Y-34015114D01*
X84054510Y-34015114D02*
X83554510Y-34015114D01*
X84911653Y-33800828D02*
X85268796Y-34800828D01*
X85268796Y-34800828D02*
X85625939Y-33800828D01*
X86983082Y-34800828D02*
X86125939Y-34800828D01*
X86554510Y-34800828D02*
X86554510Y-33300828D01*
X86554510Y-33300828D02*
X86411653Y-33515114D01*
X86411653Y-33515114D02*
X86268796Y-33657971D01*
X86268796Y-33657971D02*
X86125939Y-33729400D01*
X97093348Y-45868204D02*
X97190922Y-45894349D01*
X97190922Y-45894349D02*
X97324209Y-45982352D01*
X97324209Y-45982352D02*
X97502781Y-46291647D01*
X97502781Y-46291647D02*
X97512350Y-46451079D01*
X97512350Y-46451079D02*
X97486205Y-46548652D01*
X97486205Y-46548652D02*
X97398202Y-46681940D01*
X97398202Y-46681940D02*
X97274484Y-46753369D01*
X97274484Y-46753369D02*
X97053193Y-46798652D01*
X97053193Y-46798652D02*
X95882314Y-46484916D01*
X95882314Y-46484916D02*
X96346600Y-47289083D01*
X98109923Y-47343249D02*
X98181352Y-47466967D01*
X98181352Y-47466967D02*
X98190921Y-47626399D01*
X98190921Y-47626399D02*
X98164777Y-47723972D01*
X98164777Y-47723972D02*
X98076773Y-47857260D01*
X98076773Y-47857260D02*
X97865052Y-48061976D01*
X97865052Y-48061976D02*
X97555757Y-48240547D01*
X97555757Y-48240547D02*
X97272607Y-48321545D01*
X97272607Y-48321545D02*
X97113174Y-48331115D01*
X97113174Y-48331115D02*
X97015601Y-48304970D01*
X97015601Y-48304970D02*
X96882314Y-48216967D01*
X96882314Y-48216967D02*
X96810885Y-48093249D01*
X96810885Y-48093249D02*
X96801315Y-47933817D01*
X96801315Y-47933817D02*
X96827460Y-47836243D01*
X96827460Y-47836243D02*
X96915464Y-47702956D01*
X96915464Y-47702956D02*
X97127185Y-47498240D01*
X97127185Y-47498240D02*
X97436480Y-47319668D01*
X97436480Y-47319668D02*
X97719630Y-47238670D01*
X97719630Y-47238670D02*
X97879062Y-47229101D01*
X97879062Y-47229101D02*
X97976636Y-47255245D01*
X97976636Y-47255245D02*
X98109923Y-47343249D01*
X98824209Y-48580428D02*
X98895637Y-48704146D01*
X98895637Y-48704146D02*
X98905207Y-48863578D01*
X98905207Y-48863578D02*
X98879062Y-48961151D01*
X98879062Y-48961151D02*
X98791059Y-49094439D01*
X98791059Y-49094439D02*
X98579337Y-49299155D01*
X98579337Y-49299155D02*
X98270042Y-49477726D01*
X98270042Y-49477726D02*
X97986892Y-49558724D01*
X97986892Y-49558724D02*
X97827460Y-49568294D01*
X97827460Y-49568294D02*
X97729887Y-49542149D01*
X97729887Y-49542149D02*
X97596599Y-49454146D01*
X97596599Y-49454146D02*
X97525171Y-49330428D01*
X97525171Y-49330428D02*
X97515601Y-49170995D01*
X97515601Y-49170995D02*
X97541746Y-49073422D01*
X97541746Y-49073422D02*
X97629749Y-48940135D01*
X97629749Y-48940135D02*
X97841471Y-48735419D01*
X97841471Y-48735419D02*
X98150766Y-48556847D01*
X98150766Y-48556847D02*
X98433916Y-48475849D01*
X98433916Y-48475849D02*
X98593348Y-48466279D01*
X98593348Y-48466279D02*
X98690921Y-48492424D01*
X98690921Y-48492424D02*
X98824209Y-48580428D01*
X98432038Y-50044026D02*
X98789181Y-50662616D01*
X97989456Y-50134594D02*
X99538494Y-49817606D01*
X99538494Y-49817606D02*
X98489456Y-51000619D01*
X99310884Y-52423375D02*
X100609923Y-51673375D01*
X100609923Y-51673375D02*
X99932038Y-52642102D01*
X99932038Y-52642102D02*
X101109923Y-52539400D01*
X101109923Y-52539400D02*
X99810884Y-53289400D01*
X100503467Y-53631845D02*
X100860610Y-54250435D01*
X100060885Y-53722413D02*
X101609923Y-53405426D01*
X101609923Y-53405426D02*
X100560885Y-54588439D01*
X102038494Y-54147733D02*
X101239456Y-55763758D01*
X102538494Y-55013758D02*
X100739456Y-54897733D01*
X101648888Y-56187201D02*
X101622743Y-56284774D01*
X101622743Y-56284774D02*
X101525170Y-56258630D01*
X101525170Y-56258630D02*
X101551315Y-56161057D01*
X101551315Y-56161057D02*
X101648888Y-56187201D01*
X101648888Y-56187201D02*
X101525170Y-56258630D01*
X102020042Y-55972915D02*
X102726635Y-55482485D01*
X102726635Y-55482485D02*
X102824208Y-55508630D01*
X102824208Y-55508630D02*
X102798063Y-55606203D01*
X102798063Y-55606203D02*
X102020042Y-55972915D01*
X102020042Y-55972915D02*
X102824208Y-55508630D01*
D10*
X94947438Y-70238095D02*
X94947438Y-68904761D01*
X97042676Y-68333333D02*
X97042676Y-70238095D01*
X97042676Y-70238095D02*
X93042676Y-70238095D01*
X93042676Y-70238095D02*
X93042676Y-68333333D01*
X96852200Y-66809523D02*
X97042676Y-66238094D01*
X97042676Y-66238094D02*
X97042676Y-65285713D01*
X97042676Y-65285713D02*
X96852200Y-64904761D01*
X96852200Y-64904761D02*
X96661723Y-64714285D01*
X96661723Y-64714285D02*
X96280771Y-64523808D01*
X96280771Y-64523808D02*
X95899819Y-64523808D01*
X95899819Y-64523808D02*
X95518866Y-64714285D01*
X95518866Y-64714285D02*
X95328390Y-64904761D01*
X95328390Y-64904761D02*
X95137914Y-65285713D01*
X95137914Y-65285713D02*
X94947438Y-66047618D01*
X94947438Y-66047618D02*
X94756961Y-66428570D01*
X94756961Y-66428570D02*
X94566485Y-66619047D01*
X94566485Y-66619047D02*
X94185533Y-66809523D01*
X94185533Y-66809523D02*
X93804580Y-66809523D01*
X93804580Y-66809523D02*
X93423628Y-66619047D01*
X93423628Y-66619047D02*
X93233152Y-66428570D01*
X93233152Y-66428570D02*
X93042676Y-66047618D01*
X93042676Y-66047618D02*
X93042676Y-65095237D01*
X93042676Y-65095237D02*
X93233152Y-64523808D01*
X96661723Y-60523808D02*
X96852200Y-60714284D01*
X96852200Y-60714284D02*
X97042676Y-61285713D01*
X97042676Y-61285713D02*
X97042676Y-61666665D01*
X97042676Y-61666665D02*
X96852200Y-62238094D01*
X96852200Y-62238094D02*
X96471247Y-62619046D01*
X96471247Y-62619046D02*
X96090295Y-62809523D01*
X96090295Y-62809523D02*
X95328390Y-62999999D01*
X95328390Y-62999999D02*
X94756961Y-62999999D01*
X94756961Y-62999999D02*
X93995057Y-62809523D01*
X93995057Y-62809523D02*
X93614104Y-62619046D01*
X93614104Y-62619046D02*
X93233152Y-62238094D01*
X93233152Y-62238094D02*
X93042676Y-61666665D01*
X93042676Y-61666665D02*
X93042676Y-61285713D01*
X93042676Y-61285713D02*
X93233152Y-60714284D01*
X93233152Y-60714284D02*
X93423628Y-60523808D01*
X95518866Y-58809523D02*
X95518866Y-55761904D01*
X97042676Y-57285713D02*
X93995057Y-57285713D01*
X51932561Y-54081904D02*
X51932561Y-55415238D01*
X49837323Y-55986666D02*
X49837323Y-54081904D01*
X49837323Y-54081904D02*
X53837323Y-54081904D01*
X53837323Y-54081904D02*
X53837323Y-55986666D01*
X50027800Y-57510476D02*
X49837323Y-58081905D01*
X49837323Y-58081905D02*
X49837323Y-59034286D01*
X49837323Y-59034286D02*
X50027800Y-59415238D01*
X50027800Y-59415238D02*
X50218276Y-59605714D01*
X50218276Y-59605714D02*
X50599228Y-59796191D01*
X50599228Y-59796191D02*
X50980180Y-59796191D01*
X50980180Y-59796191D02*
X51361133Y-59605714D01*
X51361133Y-59605714D02*
X51551609Y-59415238D01*
X51551609Y-59415238D02*
X51742085Y-59034286D01*
X51742085Y-59034286D02*
X51932561Y-58272381D01*
X51932561Y-58272381D02*
X52123038Y-57891429D01*
X52123038Y-57891429D02*
X52313514Y-57700952D01*
X52313514Y-57700952D02*
X52694466Y-57510476D01*
X52694466Y-57510476D02*
X53075419Y-57510476D01*
X53075419Y-57510476D02*
X53456371Y-57700952D01*
X53456371Y-57700952D02*
X53646847Y-57891429D01*
X53646847Y-57891429D02*
X53837323Y-58272381D01*
X53837323Y-58272381D02*
X53837323Y-59224762D01*
X53837323Y-59224762D02*
X53646847Y-59796191D01*
X50218276Y-63796191D02*
X50027800Y-63605715D01*
X50027800Y-63605715D02*
X49837323Y-63034286D01*
X49837323Y-63034286D02*
X49837323Y-62653334D01*
X49837323Y-62653334D02*
X50027800Y-62081905D01*
X50027800Y-62081905D02*
X50408752Y-61700953D01*
X50408752Y-61700953D02*
X50789704Y-61510476D01*
X50789704Y-61510476D02*
X51551609Y-61320000D01*
X51551609Y-61320000D02*
X52123038Y-61320000D01*
X52123038Y-61320000D02*
X52884942Y-61510476D01*
X52884942Y-61510476D02*
X53265895Y-61700953D01*
X53265895Y-61700953D02*
X53646847Y-62081905D01*
X53646847Y-62081905D02*
X53837323Y-62653334D01*
X53837323Y-62653334D02*
X53837323Y-63034286D01*
X53837323Y-63034286D02*
X53646847Y-63605715D01*
X53646847Y-63605715D02*
X53456371Y-63796191D01*
X51361133Y-65510476D02*
X51361133Y-68558096D01*
X49837323Y-67034286D02*
X52884942Y-67034286D01*
X80633333Y-80654819D02*
X80300000Y-80178628D01*
X80061905Y-80654819D02*
X80061905Y-79654819D01*
X80061905Y-79654819D02*
X80442857Y-79654819D01*
X80442857Y-79654819D02*
X80538095Y-79702438D01*
X80538095Y-79702438D02*
X80585714Y-79750057D01*
X80585714Y-79750057D02*
X80633333Y-79845295D01*
X80633333Y-79845295D02*
X80633333Y-79988152D01*
X80633333Y-79988152D02*
X80585714Y-80083390D01*
X80585714Y-80083390D02*
X80538095Y-80131009D01*
X80538095Y-80131009D02*
X80442857Y-80178628D01*
X80442857Y-80178628D02*
X80061905Y-80178628D01*
X81014286Y-79750057D02*
X81061905Y-79702438D01*
X81061905Y-79702438D02*
X81157143Y-79654819D01*
X81157143Y-79654819D02*
X81395238Y-79654819D01*
X81395238Y-79654819D02*
X81490476Y-79702438D01*
X81490476Y-79702438D02*
X81538095Y-79750057D01*
X81538095Y-79750057D02*
X81585714Y-79845295D01*
X81585714Y-79845295D02*
X81585714Y-79940533D01*
X81585714Y-79940533D02*
X81538095Y-80083390D01*
X81538095Y-80083390D02*
X80966667Y-80654819D01*
X80966667Y-80654819D02*
X81585714Y-80654819D01*
X53666666Y-85454819D02*
X53666666Y-86169104D01*
X53666666Y-86169104D02*
X53619047Y-86311961D01*
X53619047Y-86311961D02*
X53523809Y-86407200D01*
X53523809Y-86407200D02*
X53380952Y-86454819D01*
X53380952Y-86454819D02*
X53285714Y-86454819D01*
X54095238Y-85550057D02*
X54142857Y-85502438D01*
X54142857Y-85502438D02*
X54238095Y-85454819D01*
X54238095Y-85454819D02*
X54476190Y-85454819D01*
X54476190Y-85454819D02*
X54571428Y-85502438D01*
X54571428Y-85502438D02*
X54619047Y-85550057D01*
X54619047Y-85550057D02*
X54666666Y-85645295D01*
X54666666Y-85645295D02*
X54666666Y-85740533D01*
X54666666Y-85740533D02*
X54619047Y-85883390D01*
X54619047Y-85883390D02*
X54047619Y-86454819D01*
X54047619Y-86454819D02*
X54666666Y-86454819D01*
X90598666Y-85454819D02*
X90598666Y-86169104D01*
X90598666Y-86169104D02*
X90551047Y-86311961D01*
X90551047Y-86311961D02*
X90455809Y-86407200D01*
X90455809Y-86407200D02*
X90312952Y-86454819D01*
X90312952Y-86454819D02*
X90217714Y-86454819D01*
X91598666Y-86454819D02*
X91027238Y-86454819D01*
X91312952Y-86454819D02*
X91312952Y-85454819D01*
X91312952Y-85454819D02*
X91217714Y-85597676D01*
X91217714Y-85597676D02*
X91122476Y-85692914D01*
X91122476Y-85692914D02*
X91027238Y-85740533D01*
X67283333Y-88359580D02*
X67235714Y-88407200D01*
X67235714Y-88407200D02*
X67092857Y-88454819D01*
X67092857Y-88454819D02*
X66997619Y-88454819D01*
X66997619Y-88454819D02*
X66854762Y-88407200D01*
X66854762Y-88407200D02*
X66759524Y-88311961D01*
X66759524Y-88311961D02*
X66711905Y-88216723D01*
X66711905Y-88216723D02*
X66664286Y-88026247D01*
X66664286Y-88026247D02*
X66664286Y-87883390D01*
X66664286Y-87883390D02*
X66711905Y-87692914D01*
X66711905Y-87692914D02*
X66759524Y-87597676D01*
X66759524Y-87597676D02*
X66854762Y-87502438D01*
X66854762Y-87502438D02*
X66997619Y-87454819D01*
X66997619Y-87454819D02*
X67092857Y-87454819D01*
X67092857Y-87454819D02*
X67235714Y-87502438D01*
X67235714Y-87502438D02*
X67283333Y-87550057D01*
X68235714Y-88454819D02*
X67664286Y-88454819D01*
X67950000Y-88454819D02*
X67950000Y-87454819D01*
X67950000Y-87454819D02*
X67854762Y-87597676D01*
X67854762Y-87597676D02*
X67759524Y-87692914D01*
X67759524Y-87692914D02*
X67664286Y-87740533D01*
X75683333Y-80059580D02*
X75635714Y-80107200D01*
X75635714Y-80107200D02*
X75492857Y-80154819D01*
X75492857Y-80154819D02*
X75397619Y-80154819D01*
X75397619Y-80154819D02*
X75254762Y-80107200D01*
X75254762Y-80107200D02*
X75159524Y-80011961D01*
X75159524Y-80011961D02*
X75111905Y-79916723D01*
X75111905Y-79916723D02*
X75064286Y-79726247D01*
X75064286Y-79726247D02*
X75064286Y-79583390D01*
X75064286Y-79583390D02*
X75111905Y-79392914D01*
X75111905Y-79392914D02*
X75159524Y-79297676D01*
X75159524Y-79297676D02*
X75254762Y-79202438D01*
X75254762Y-79202438D02*
X75397619Y-79154819D01*
X75397619Y-79154819D02*
X75492857Y-79154819D01*
X75492857Y-79154819D02*
X75635714Y-79202438D01*
X75635714Y-79202438D02*
X75683333Y-79250057D01*
X76064286Y-79250057D02*
X76111905Y-79202438D01*
X76111905Y-79202438D02*
X76207143Y-79154819D01*
X76207143Y-79154819D02*
X76445238Y-79154819D01*
X76445238Y-79154819D02*
X76540476Y-79202438D01*
X76540476Y-79202438D02*
X76588095Y-79250057D01*
X76588095Y-79250057D02*
X76635714Y-79345295D01*
X76635714Y-79345295D02*
X76635714Y-79440533D01*
X76635714Y-79440533D02*
X76588095Y-79583390D01*
X76588095Y-79583390D02*
X76016667Y-80154819D01*
X76016667Y-80154819D02*
X76635714Y-80154819D01*
X80933333Y-84054819D02*
X80600000Y-83578628D01*
X80361905Y-84054819D02*
X80361905Y-83054819D01*
X80361905Y-83054819D02*
X80742857Y-83054819D01*
X80742857Y-83054819D02*
X80838095Y-83102438D01*
X80838095Y-83102438D02*
X80885714Y-83150057D01*
X80885714Y-83150057D02*
X80933333Y-83245295D01*
X80933333Y-83245295D02*
X80933333Y-83388152D01*
X80933333Y-83388152D02*
X80885714Y-83483390D01*
X80885714Y-83483390D02*
X80838095Y-83531009D01*
X80838095Y-83531009D02*
X80742857Y-83578628D01*
X80742857Y-83578628D02*
X80361905Y-83578628D01*
X81885714Y-84054819D02*
X81314286Y-84054819D01*
X81600000Y-84054819D02*
X81600000Y-83054819D01*
X81600000Y-83054819D02*
X81504762Y-83197676D01*
X81504762Y-83197676D02*
X81409524Y-83292914D01*
X81409524Y-83292914D02*
X81314286Y-83340533D01*
%TO.C,R2*%
D15*
X80814564Y-77765000D02*
X80360436Y-77765000D01*
X80814564Y-79235000D02*
X80360436Y-79235000D01*
%TO.C,U1*%
X59890000Y-76320000D02*
X59890000Y-65200000D01*
X61890000Y-76320000D02*
X59890000Y-76320000D01*
X61890000Y-80720000D02*
X61890000Y-76320000D01*
X64130000Y-67480000D02*
X64130000Y-65200000D01*
X64130000Y-67480000D02*
X69890000Y-67480000D01*
X64845000Y-80720000D02*
X64845000Y-82600000D01*
X65355000Y-80720000D02*
X65355000Y-82600000D01*
X66755000Y-80720000D02*
X66755000Y-82600000D01*
X67265000Y-80720000D02*
X67265000Y-82600000D01*
X68665000Y-80720000D02*
X68665000Y-82600000D01*
X69175000Y-80720000D02*
X69175000Y-82600000D01*
X69890000Y-67480000D02*
X69890000Y-65200000D01*
X72130000Y-76320000D02*
X74130000Y-76320000D01*
X72130000Y-80720000D02*
X61890000Y-80720000D01*
X72130000Y-80720000D02*
X72130000Y-76320000D01*
X74130000Y-76320000D02*
X74130000Y-65200000D01*
%TO.C,J2*%
X55080000Y-87380000D02*
X55080000Y-86000000D01*
X56460000Y-87380000D02*
X55080000Y-87380000D01*
X57730000Y-84620000D02*
X62920000Y-84620000D01*
X57730000Y-87380000D02*
X57730000Y-84620000D01*
X57730000Y-87380000D02*
X62920000Y-87380000D01*
X62920000Y-87380000D02*
X62920000Y-84620000D01*
%TO.C,J1*%
X76580000Y-84620000D02*
X76580000Y-87380000D01*
X86850000Y-84620000D02*
X76580000Y-84620000D01*
X86850000Y-84620000D02*
X86850000Y-87380000D01*
X86850000Y-87380000D02*
X76580000Y-87380000D01*
X88120000Y-84620000D02*
X89500000Y-84620000D01*
X89500000Y-84620000D02*
X89500000Y-86000000D01*
%TO.C,C1*%
X67175748Y-85498000D02*
X67698252Y-85498000D01*
X67175748Y-86968000D02*
X67698252Y-86968000D01*
%TO.C,C2*%
X75084000Y-82430252D02*
X75084000Y-81907748D01*
X76554000Y-82430252D02*
X76554000Y-81907748D01*
%TO.C,R1*%
X80372936Y-81265000D02*
X80827064Y-81265000D01*
X80372936Y-82735000D02*
X80827064Y-82735000D01*
%TD*%
M02*
