%TF.GenerationSoftware,KiCad,Pcbnew,10.0.4*%
%TF.CreationDate,2026-07-27T21:32:22+02:00*%
%TF.ProjectId,pdb,7064622e-6b69-4636-9164-5f7063625858,rev?*%
%TF.SameCoordinates,Original*%
%TF.FileFunction,Legend,Bot*%
%TF.FilePolarity,Positive*%
%FSLAX46Y46*%
G04 Gerber Fmt 4.6, Leading zero omitted, Abs format (unit mm)*
G04 Created by KiCad (PCBNEW 10.0.4) date 2026-07-27 21:32:22*
%MOMM*%
%LPD*%
G01*
G04 APERTURE LIST*
%ADD10C,0.150000*%
%ADD11C,0.300000*%
%ADD12C,0.400000*%
%ADD13C,0.125000*%
%ADD14C,0.200000*%
%ADD15C,0.120000*%
G04 APERTURE END LIST*
D10*
X177002200Y-166007200D02*
X285002200Y-166007200D01*
X285002200Y-198007200D01*
X177002200Y-198007200D01*
X177002200Y-166007200D01*
X10000000Y-10000000D02*
X287002200Y-10000000D01*
X287002200Y-200007200D01*
X10000000Y-200007200D01*
X10000000Y-10000000D01*
X12000000Y-12000000D02*
X285002200Y-12000000D01*
X285002200Y-198007200D01*
X12000000Y-198007200D01*
X12000000Y-12000000D01*
X60000000Y-12000000D02*
X60000000Y-10000000D01*
X110000000Y-12000000D02*
X110000000Y-10000000D01*
X160000000Y-12000000D02*
X160000000Y-10000000D01*
X210000000Y-12000000D02*
X210000000Y-10000000D01*
X260000000Y-12000000D02*
X260000000Y-10000000D01*
X36089160Y-11593604D02*
X35346303Y-11593604D01*
X35717731Y-11593604D02*
X35717731Y-10293604D01*
X35717731Y-10293604D02*
X35593922Y-10479319D01*
X35593922Y-10479319D02*
X35470112Y-10603128D01*
X35470112Y-10603128D02*
X35346303Y-10665033D01*
X85346303Y-10417414D02*
X85408207Y-10355509D01*
X85408207Y-10355509D02*
X85532017Y-10293604D01*
X85532017Y-10293604D02*
X85841541Y-10293604D01*
X85841541Y-10293604D02*
X85965350Y-10355509D01*
X85965350Y-10355509D02*
X86027255Y-10417414D01*
X86027255Y-10417414D02*
X86089160Y-10541223D01*
X86089160Y-10541223D02*
X86089160Y-10665033D01*
X86089160Y-10665033D02*
X86027255Y-10850747D01*
X86027255Y-10850747D02*
X85284398Y-11593604D01*
X85284398Y-11593604D02*
X86089160Y-11593604D01*
X135284398Y-10293604D02*
X136089160Y-10293604D01*
X136089160Y-10293604D02*
X135655826Y-10788842D01*
X135655826Y-10788842D02*
X135841541Y-10788842D01*
X135841541Y-10788842D02*
X135965350Y-10850747D01*
X135965350Y-10850747D02*
X136027255Y-10912652D01*
X136027255Y-10912652D02*
X136089160Y-11036461D01*
X136089160Y-11036461D02*
X136089160Y-11345985D01*
X136089160Y-11345985D02*
X136027255Y-11469795D01*
X136027255Y-11469795D02*
X135965350Y-11531700D01*
X135965350Y-11531700D02*
X135841541Y-11593604D01*
X135841541Y-11593604D02*
X135470112Y-11593604D01*
X135470112Y-11593604D02*
X135346303Y-11531700D01*
X135346303Y-11531700D02*
X135284398Y-11469795D01*
X185965350Y-10726938D02*
X185965350Y-11593604D01*
X185655826Y-10231700D02*
X185346303Y-11160271D01*
X185346303Y-11160271D02*
X186151064Y-11160271D01*
X236027255Y-10293604D02*
X235408207Y-10293604D01*
X235408207Y-10293604D02*
X235346303Y-10912652D01*
X235346303Y-10912652D02*
X235408207Y-10850747D01*
X235408207Y-10850747D02*
X235532017Y-10788842D01*
X235532017Y-10788842D02*
X235841541Y-10788842D01*
X235841541Y-10788842D02*
X235965350Y-10850747D01*
X235965350Y-10850747D02*
X236027255Y-10912652D01*
X236027255Y-10912652D02*
X236089160Y-11036461D01*
X236089160Y-11036461D02*
X236089160Y-11345985D01*
X236089160Y-11345985D02*
X236027255Y-11469795D01*
X236027255Y-11469795D02*
X235965350Y-11531700D01*
X235965350Y-11531700D02*
X235841541Y-11593604D01*
X235841541Y-11593604D02*
X235532017Y-11593604D01*
X235532017Y-11593604D02*
X235408207Y-11531700D01*
X235408207Y-11531700D02*
X235346303Y-11469795D01*
X285965350Y-10293604D02*
X285717731Y-10293604D01*
X285717731Y-10293604D02*
X285593922Y-10355509D01*
X285593922Y-10355509D02*
X285532017Y-10417414D01*
X285532017Y-10417414D02*
X285408207Y-10603128D01*
X285408207Y-10603128D02*
X285346303Y-10850747D01*
X285346303Y-10850747D02*
X285346303Y-11345985D01*
X285346303Y-11345985D02*
X285408207Y-11469795D01*
X285408207Y-11469795D02*
X285470112Y-11531700D01*
X285470112Y-11531700D02*
X285593922Y-11593604D01*
X285593922Y-11593604D02*
X285841541Y-11593604D01*
X285841541Y-11593604D02*
X285965350Y-11531700D01*
X285965350Y-11531700D02*
X286027255Y-11469795D01*
X286027255Y-11469795D02*
X286089160Y-11345985D01*
X286089160Y-11345985D02*
X286089160Y-11036461D01*
X286089160Y-11036461D02*
X286027255Y-10912652D01*
X286027255Y-10912652D02*
X285965350Y-10850747D01*
X285965350Y-10850747D02*
X285841541Y-10788842D01*
X285841541Y-10788842D02*
X285593922Y-10788842D01*
X285593922Y-10788842D02*
X285470112Y-10850747D01*
X285470112Y-10850747D02*
X285408207Y-10912652D01*
X285408207Y-10912652D02*
X285346303Y-11036461D01*
X60000000Y-198007200D02*
X60000000Y-200007200D01*
X110000000Y-198007200D02*
X110000000Y-200007200D01*
X160000000Y-198007200D02*
X160000000Y-200007200D01*
X210000000Y-198007200D02*
X210000000Y-200007200D01*
X260000000Y-198007200D02*
X260000000Y-200007200D01*
X36089160Y-199600804D02*
X35346303Y-199600804D01*
X35717731Y-199600804D02*
X35717731Y-198300804D01*
X35717731Y-198300804D02*
X35593922Y-198486519D01*
X35593922Y-198486519D02*
X35470112Y-198610328D01*
X35470112Y-198610328D02*
X35346303Y-198672233D01*
X85346303Y-198424614D02*
X85408207Y-198362709D01*
X85408207Y-198362709D02*
X85532017Y-198300804D01*
X85532017Y-198300804D02*
X85841541Y-198300804D01*
X85841541Y-198300804D02*
X85965350Y-198362709D01*
X85965350Y-198362709D02*
X86027255Y-198424614D01*
X86027255Y-198424614D02*
X86089160Y-198548423D01*
X86089160Y-198548423D02*
X86089160Y-198672233D01*
X86089160Y-198672233D02*
X86027255Y-198857947D01*
X86027255Y-198857947D02*
X85284398Y-199600804D01*
X85284398Y-199600804D02*
X86089160Y-199600804D01*
X135284398Y-198300804D02*
X136089160Y-198300804D01*
X136089160Y-198300804D02*
X135655826Y-198796042D01*
X135655826Y-198796042D02*
X135841541Y-198796042D01*
X135841541Y-198796042D02*
X135965350Y-198857947D01*
X135965350Y-198857947D02*
X136027255Y-198919852D01*
X136027255Y-198919852D02*
X136089160Y-199043661D01*
X136089160Y-199043661D02*
X136089160Y-199353185D01*
X136089160Y-199353185D02*
X136027255Y-199476995D01*
X136027255Y-199476995D02*
X135965350Y-199538900D01*
X135965350Y-199538900D02*
X135841541Y-199600804D01*
X135841541Y-199600804D02*
X135470112Y-199600804D01*
X135470112Y-199600804D02*
X135346303Y-199538900D01*
X135346303Y-199538900D02*
X135284398Y-199476995D01*
X185965350Y-198734138D02*
X185965350Y-199600804D01*
X185655826Y-198238900D02*
X185346303Y-199167471D01*
X185346303Y-199167471D02*
X186151064Y-199167471D01*
X236027255Y-198300804D02*
X235408207Y-198300804D01*
X235408207Y-198300804D02*
X235346303Y-198919852D01*
X235346303Y-198919852D02*
X235408207Y-198857947D01*
X235408207Y-198857947D02*
X235532017Y-198796042D01*
X235532017Y-198796042D02*
X235841541Y-198796042D01*
X235841541Y-198796042D02*
X235965350Y-198857947D01*
X235965350Y-198857947D02*
X236027255Y-198919852D01*
X236027255Y-198919852D02*
X236089160Y-199043661D01*
X236089160Y-199043661D02*
X236089160Y-199353185D01*
X236089160Y-199353185D02*
X236027255Y-199476995D01*
X236027255Y-199476995D02*
X235965350Y-199538900D01*
X235965350Y-199538900D02*
X235841541Y-199600804D01*
X235841541Y-199600804D02*
X235532017Y-199600804D01*
X235532017Y-199600804D02*
X235408207Y-199538900D01*
X235408207Y-199538900D02*
X235346303Y-199476995D01*
X285965350Y-198300804D02*
X285717731Y-198300804D01*
X285717731Y-198300804D02*
X285593922Y-198362709D01*
X285593922Y-198362709D02*
X285532017Y-198424614D01*
X285532017Y-198424614D02*
X285408207Y-198610328D01*
X285408207Y-198610328D02*
X285346303Y-198857947D01*
X285346303Y-198857947D02*
X285346303Y-199353185D01*
X285346303Y-199353185D02*
X285408207Y-199476995D01*
X285408207Y-199476995D02*
X285470112Y-199538900D01*
X285470112Y-199538900D02*
X285593922Y-199600804D01*
X285593922Y-199600804D02*
X285841541Y-199600804D01*
X285841541Y-199600804D02*
X285965350Y-199538900D01*
X285965350Y-199538900D02*
X286027255Y-199476995D01*
X286027255Y-199476995D02*
X286089160Y-199353185D01*
X286089160Y-199353185D02*
X286089160Y-199043661D01*
X286089160Y-199043661D02*
X286027255Y-198919852D01*
X286027255Y-198919852D02*
X285965350Y-198857947D01*
X285965350Y-198857947D02*
X285841541Y-198796042D01*
X285841541Y-198796042D02*
X285593922Y-198796042D01*
X285593922Y-198796042D02*
X285470112Y-198857947D01*
X285470112Y-198857947D02*
X285408207Y-198919852D01*
X285408207Y-198919852D02*
X285346303Y-199043661D01*
X10000000Y-60000000D02*
X12000000Y-60000000D01*
X10000000Y-110000000D02*
X12000000Y-110000000D01*
X10000000Y-160000000D02*
X12000000Y-160000000D01*
X10690476Y-35222176D02*
X11309523Y-35222176D01*
X10566666Y-35593604D02*
X10999999Y-34293604D01*
X10999999Y-34293604D02*
X11433333Y-35593604D01*
X11092857Y-84912652D02*
X11278571Y-84974557D01*
X11278571Y-84974557D02*
X11340476Y-85036461D01*
X11340476Y-85036461D02*
X11402380Y-85160271D01*
X11402380Y-85160271D02*
X11402380Y-85345985D01*
X11402380Y-85345985D02*
X11340476Y-85469795D01*
X11340476Y-85469795D02*
X11278571Y-85531700D01*
X11278571Y-85531700D02*
X11154761Y-85593604D01*
X11154761Y-85593604D02*
X10659523Y-85593604D01*
X10659523Y-85593604D02*
X10659523Y-84293604D01*
X10659523Y-84293604D02*
X11092857Y-84293604D01*
X11092857Y-84293604D02*
X11216666Y-84355509D01*
X11216666Y-84355509D02*
X11278571Y-84417414D01*
X11278571Y-84417414D02*
X11340476Y-84541223D01*
X11340476Y-84541223D02*
X11340476Y-84665033D01*
X11340476Y-84665033D02*
X11278571Y-84788842D01*
X11278571Y-84788842D02*
X11216666Y-84850747D01*
X11216666Y-84850747D02*
X11092857Y-84912652D01*
X11092857Y-84912652D02*
X10659523Y-84912652D01*
X11402380Y-135469795D02*
X11340476Y-135531700D01*
X11340476Y-135531700D02*
X11154761Y-135593604D01*
X11154761Y-135593604D02*
X11030952Y-135593604D01*
X11030952Y-135593604D02*
X10845238Y-135531700D01*
X10845238Y-135531700D02*
X10721428Y-135407890D01*
X10721428Y-135407890D02*
X10659523Y-135284080D01*
X10659523Y-135284080D02*
X10597619Y-135036461D01*
X10597619Y-135036461D02*
X10597619Y-134850747D01*
X10597619Y-134850747D02*
X10659523Y-134603128D01*
X10659523Y-134603128D02*
X10721428Y-134479319D01*
X10721428Y-134479319D02*
X10845238Y-134355509D01*
X10845238Y-134355509D02*
X11030952Y-134293604D01*
X11030952Y-134293604D02*
X11154761Y-134293604D01*
X11154761Y-134293604D02*
X11340476Y-134355509D01*
X11340476Y-134355509D02*
X11402380Y-134417414D01*
X10659523Y-185593604D02*
X10659523Y-184293604D01*
X10659523Y-184293604D02*
X10969047Y-184293604D01*
X10969047Y-184293604D02*
X11154761Y-184355509D01*
X11154761Y-184355509D02*
X11278571Y-184479319D01*
X11278571Y-184479319D02*
X11340476Y-184603128D01*
X11340476Y-184603128D02*
X11402380Y-184850747D01*
X11402380Y-184850747D02*
X11402380Y-185036461D01*
X11402380Y-185036461D02*
X11340476Y-185284080D01*
X11340476Y-185284080D02*
X11278571Y-185407890D01*
X11278571Y-185407890D02*
X11154761Y-185531700D01*
X11154761Y-185531700D02*
X10969047Y-185593604D01*
X10969047Y-185593604D02*
X10659523Y-185593604D01*
X287002200Y-60000000D02*
X285002200Y-60000000D01*
X287002200Y-110000000D02*
X285002200Y-110000000D01*
X287002200Y-160000000D02*
X285002200Y-160000000D01*
X285692676Y-35222176D02*
X286311723Y-35222176D01*
X285568866Y-35593604D02*
X286002199Y-34293604D01*
X286002199Y-34293604D02*
X286435533Y-35593604D01*
X286095057Y-84912652D02*
X286280771Y-84974557D01*
X286280771Y-84974557D02*
X286342676Y-85036461D01*
X286342676Y-85036461D02*
X286404580Y-85160271D01*
X286404580Y-85160271D02*
X286404580Y-85345985D01*
X286404580Y-85345985D02*
X286342676Y-85469795D01*
X286342676Y-85469795D02*
X286280771Y-85531700D01*
X286280771Y-85531700D02*
X286156961Y-85593604D01*
X286156961Y-85593604D02*
X285661723Y-85593604D01*
X285661723Y-85593604D02*
X285661723Y-84293604D01*
X285661723Y-84293604D02*
X286095057Y-84293604D01*
X286095057Y-84293604D02*
X286218866Y-84355509D01*
X286218866Y-84355509D02*
X286280771Y-84417414D01*
X286280771Y-84417414D02*
X286342676Y-84541223D01*
X286342676Y-84541223D02*
X286342676Y-84665033D01*
X286342676Y-84665033D02*
X286280771Y-84788842D01*
X286280771Y-84788842D02*
X286218866Y-84850747D01*
X286218866Y-84850747D02*
X286095057Y-84912652D01*
X286095057Y-84912652D02*
X285661723Y-84912652D01*
X286404580Y-135469795D02*
X286342676Y-135531700D01*
X286342676Y-135531700D02*
X286156961Y-135593604D01*
X286156961Y-135593604D02*
X286033152Y-135593604D01*
X286033152Y-135593604D02*
X285847438Y-135531700D01*
X285847438Y-135531700D02*
X285723628Y-135407890D01*
X285723628Y-135407890D02*
X285661723Y-135284080D01*
X285661723Y-135284080D02*
X285599819Y-135036461D01*
X285599819Y-135036461D02*
X285599819Y-134850747D01*
X285599819Y-134850747D02*
X285661723Y-134603128D01*
X285661723Y-134603128D02*
X285723628Y-134479319D01*
X285723628Y-134479319D02*
X285847438Y-134355509D01*
X285847438Y-134355509D02*
X286033152Y-134293604D01*
X286033152Y-134293604D02*
X286156961Y-134293604D01*
X286156961Y-134293604D02*
X286342676Y-134355509D01*
X286342676Y-134355509D02*
X286404580Y-134417414D01*
X285661723Y-185593604D02*
X285661723Y-184293604D01*
X285661723Y-184293604D02*
X285971247Y-184293604D01*
X285971247Y-184293604D02*
X286156961Y-184355509D01*
X286156961Y-184355509D02*
X286280771Y-184479319D01*
X286280771Y-184479319D02*
X286342676Y-184603128D01*
X286342676Y-184603128D02*
X286404580Y-184850747D01*
X286404580Y-184850747D02*
X286404580Y-185036461D01*
X286404580Y-185036461D02*
X286342676Y-185284080D01*
X286342676Y-185284080D02*
X286280771Y-185407890D01*
X286280771Y-185407890D02*
X286156961Y-185531700D01*
X286156961Y-185531700D02*
X285971247Y-185593604D01*
X285971247Y-185593604D02*
X285661723Y-185593604D01*
X200458026Y-193793328D02*
X200458026Y-192293328D01*
X200458026Y-192293328D02*
X200815169Y-192293328D01*
X200815169Y-192293328D02*
X201029455Y-192364757D01*
X201029455Y-192364757D02*
X201172312Y-192507614D01*
X201172312Y-192507614D02*
X201243741Y-192650471D01*
X201243741Y-192650471D02*
X201315169Y-192936185D01*
X201315169Y-192936185D02*
X201315169Y-193150471D01*
X201315169Y-193150471D02*
X201243741Y-193436185D01*
X201243741Y-193436185D02*
X201172312Y-193579042D01*
X201172312Y-193579042D02*
X201029455Y-193721900D01*
X201029455Y-193721900D02*
X200815169Y-193793328D01*
X200815169Y-193793328D02*
X200458026Y-193793328D01*
X202600884Y-193793328D02*
X202600884Y-193007614D01*
X202600884Y-193007614D02*
X202529455Y-192864757D01*
X202529455Y-192864757D02*
X202386598Y-192793328D01*
X202386598Y-192793328D02*
X202100884Y-192793328D01*
X202100884Y-192793328D02*
X201958026Y-192864757D01*
X202600884Y-193721900D02*
X202458026Y-193793328D01*
X202458026Y-193793328D02*
X202100884Y-193793328D01*
X202100884Y-193793328D02*
X201958026Y-193721900D01*
X201958026Y-193721900D02*
X201886598Y-193579042D01*
X201886598Y-193579042D02*
X201886598Y-193436185D01*
X201886598Y-193436185D02*
X201958026Y-193293328D01*
X201958026Y-193293328D02*
X202100884Y-193221900D01*
X202100884Y-193221900D02*
X202458026Y-193221900D01*
X202458026Y-193221900D02*
X202600884Y-193150471D01*
X203100884Y-192793328D02*
X203672312Y-192793328D01*
X203315169Y-192293328D02*
X203315169Y-193579042D01*
X203315169Y-193579042D02*
X203386598Y-193721900D01*
X203386598Y-193721900D02*
X203529455Y-193793328D01*
X203529455Y-193793328D02*
X203672312Y-193793328D01*
X204743741Y-193721900D02*
X204600884Y-193793328D01*
X204600884Y-193793328D02*
X204315170Y-193793328D01*
X204315170Y-193793328D02*
X204172312Y-193721900D01*
X204172312Y-193721900D02*
X204100884Y-193579042D01*
X204100884Y-193579042D02*
X204100884Y-193007614D01*
X204100884Y-193007614D02*
X204172312Y-192864757D01*
X204172312Y-192864757D02*
X204315170Y-192793328D01*
X204315170Y-192793328D02*
X204600884Y-192793328D01*
X204600884Y-192793328D02*
X204743741Y-192864757D01*
X204743741Y-192864757D02*
X204815170Y-193007614D01*
X204815170Y-193007614D02*
X204815170Y-193150471D01*
X204815170Y-193150471D02*
X204100884Y-193293328D01*
X205458026Y-193650471D02*
X205529455Y-193721900D01*
X205529455Y-193721900D02*
X205458026Y-193793328D01*
X205458026Y-193793328D02*
X205386598Y-193721900D01*
X205386598Y-193721900D02*
X205458026Y-193650471D01*
X205458026Y-193650471D02*
X205458026Y-193793328D01*
X205458026Y-192864757D02*
X205529455Y-192936185D01*
X205529455Y-192936185D02*
X205458026Y-193007614D01*
X205458026Y-193007614D02*
X205386598Y-192936185D01*
X205386598Y-192936185D02*
X205458026Y-192864757D01*
X205458026Y-192864757D02*
X205458026Y-193007614D01*
X177002200Y-194507200D02*
X285002200Y-194507200D01*
X178458026Y-196593328D02*
X178458026Y-195093328D01*
X179315169Y-196593328D02*
X178672312Y-195736185D01*
X179315169Y-195093328D02*
X178458026Y-195950471D01*
X179958026Y-196593328D02*
X179958026Y-195593328D01*
X179958026Y-195093328D02*
X179886598Y-195164757D01*
X179886598Y-195164757D02*
X179958026Y-195236185D01*
X179958026Y-195236185D02*
X180029455Y-195164757D01*
X180029455Y-195164757D02*
X179958026Y-195093328D01*
X179958026Y-195093328D02*
X179958026Y-195236185D01*
X181529455Y-196450471D02*
X181458027Y-196521900D01*
X181458027Y-196521900D02*
X181243741Y-196593328D01*
X181243741Y-196593328D02*
X181100884Y-196593328D01*
X181100884Y-196593328D02*
X180886598Y-196521900D01*
X180886598Y-196521900D02*
X180743741Y-196379042D01*
X180743741Y-196379042D02*
X180672312Y-196236185D01*
X180672312Y-196236185D02*
X180600884Y-195950471D01*
X180600884Y-195950471D02*
X180600884Y-195736185D01*
X180600884Y-195736185D02*
X180672312Y-195450471D01*
X180672312Y-195450471D02*
X180743741Y-195307614D01*
X180743741Y-195307614D02*
X180886598Y-195164757D01*
X180886598Y-195164757D02*
X181100884Y-195093328D01*
X181100884Y-195093328D02*
X181243741Y-195093328D01*
X181243741Y-195093328D02*
X181458027Y-195164757D01*
X181458027Y-195164757D02*
X181529455Y-195236185D01*
X182815170Y-196593328D02*
X182815170Y-195807614D01*
X182815170Y-195807614D02*
X182743741Y-195664757D01*
X182743741Y-195664757D02*
X182600884Y-195593328D01*
X182600884Y-195593328D02*
X182315170Y-195593328D01*
X182315170Y-195593328D02*
X182172312Y-195664757D01*
X182815170Y-196521900D02*
X182672312Y-196593328D01*
X182672312Y-196593328D02*
X182315170Y-196593328D01*
X182315170Y-196593328D02*
X182172312Y-196521900D01*
X182172312Y-196521900D02*
X182100884Y-196379042D01*
X182100884Y-196379042D02*
X182100884Y-196236185D01*
X182100884Y-196236185D02*
X182172312Y-196093328D01*
X182172312Y-196093328D02*
X182315170Y-196021900D01*
X182315170Y-196021900D02*
X182672312Y-196021900D01*
X182672312Y-196021900D02*
X182815170Y-195950471D01*
X184172313Y-196593328D02*
X184172313Y-195093328D01*
X184172313Y-196521900D02*
X184029455Y-196593328D01*
X184029455Y-196593328D02*
X183743741Y-196593328D01*
X183743741Y-196593328D02*
X183600884Y-196521900D01*
X183600884Y-196521900D02*
X183529455Y-196450471D01*
X183529455Y-196450471D02*
X183458027Y-196307614D01*
X183458027Y-196307614D02*
X183458027Y-195879042D01*
X183458027Y-195879042D02*
X183529455Y-195736185D01*
X183529455Y-195736185D02*
X183600884Y-195664757D01*
X183600884Y-195664757D02*
X183743741Y-195593328D01*
X183743741Y-195593328D02*
X184029455Y-195593328D01*
X184029455Y-195593328D02*
X184172313Y-195664757D01*
X186029455Y-195807614D02*
X186529455Y-195807614D01*
X186743741Y-196593328D02*
X186029455Y-196593328D01*
X186029455Y-196593328D02*
X186029455Y-195093328D01*
X186029455Y-195093328D02*
X186743741Y-195093328D01*
X187386598Y-196450471D02*
X187458027Y-196521900D01*
X187458027Y-196521900D02*
X187386598Y-196593328D01*
X187386598Y-196593328D02*
X187315170Y-196521900D01*
X187315170Y-196521900D02*
X187386598Y-196450471D01*
X187386598Y-196450471D02*
X187386598Y-196593328D01*
X188100884Y-196593328D02*
X188100884Y-195093328D01*
X188100884Y-195093328D02*
X188458027Y-195093328D01*
X188458027Y-195093328D02*
X188672313Y-195164757D01*
X188672313Y-195164757D02*
X188815170Y-195307614D01*
X188815170Y-195307614D02*
X188886599Y-195450471D01*
X188886599Y-195450471D02*
X188958027Y-195736185D01*
X188958027Y-195736185D02*
X188958027Y-195950471D01*
X188958027Y-195950471D02*
X188886599Y-196236185D01*
X188886599Y-196236185D02*
X188815170Y-196379042D01*
X188815170Y-196379042D02*
X188672313Y-196521900D01*
X188672313Y-196521900D02*
X188458027Y-196593328D01*
X188458027Y-196593328D02*
X188100884Y-196593328D01*
X189600884Y-196450471D02*
X189672313Y-196521900D01*
X189672313Y-196521900D02*
X189600884Y-196593328D01*
X189600884Y-196593328D02*
X189529456Y-196521900D01*
X189529456Y-196521900D02*
X189600884Y-196450471D01*
X189600884Y-196450471D02*
X189600884Y-196593328D01*
X190243742Y-196164757D02*
X190958028Y-196164757D01*
X190100885Y-196593328D02*
X190600885Y-195093328D01*
X190600885Y-195093328D02*
X191100885Y-196593328D01*
X191600884Y-196450471D02*
X191672313Y-196521900D01*
X191672313Y-196521900D02*
X191600884Y-196593328D01*
X191600884Y-196593328D02*
X191529456Y-196521900D01*
X191529456Y-196521900D02*
X191600884Y-196450471D01*
X191600884Y-196450471D02*
X191600884Y-196593328D01*
X194243742Y-196593328D02*
X193386599Y-196593328D01*
X193815170Y-196593328D02*
X193815170Y-195093328D01*
X193815170Y-195093328D02*
X193672313Y-195307614D01*
X193672313Y-195307614D02*
X193529456Y-195450471D01*
X193529456Y-195450471D02*
X193386599Y-195521900D01*
X195172313Y-195093328D02*
X195315170Y-195093328D01*
X195315170Y-195093328D02*
X195458027Y-195164757D01*
X195458027Y-195164757D02*
X195529456Y-195236185D01*
X195529456Y-195236185D02*
X195600884Y-195379042D01*
X195600884Y-195379042D02*
X195672313Y-195664757D01*
X195672313Y-195664757D02*
X195672313Y-196021900D01*
X195672313Y-196021900D02*
X195600884Y-196307614D01*
X195600884Y-196307614D02*
X195529456Y-196450471D01*
X195529456Y-196450471D02*
X195458027Y-196521900D01*
X195458027Y-196521900D02*
X195315170Y-196593328D01*
X195315170Y-196593328D02*
X195172313Y-196593328D01*
X195172313Y-196593328D02*
X195029456Y-196521900D01*
X195029456Y-196521900D02*
X194958027Y-196450471D01*
X194958027Y-196450471D02*
X194886598Y-196307614D01*
X194886598Y-196307614D02*
X194815170Y-196021900D01*
X194815170Y-196021900D02*
X194815170Y-195664757D01*
X194815170Y-195664757D02*
X194886598Y-195379042D01*
X194886598Y-195379042D02*
X194958027Y-195236185D01*
X194958027Y-195236185D02*
X195029456Y-195164757D01*
X195029456Y-195164757D02*
X195172313Y-195093328D01*
X196315169Y-196450471D02*
X196386598Y-196521900D01*
X196386598Y-196521900D02*
X196315169Y-196593328D01*
X196315169Y-196593328D02*
X196243741Y-196521900D01*
X196243741Y-196521900D02*
X196315169Y-196450471D01*
X196315169Y-196450471D02*
X196315169Y-196593328D01*
X197315170Y-195093328D02*
X197458027Y-195093328D01*
X197458027Y-195093328D02*
X197600884Y-195164757D01*
X197600884Y-195164757D02*
X197672313Y-195236185D01*
X197672313Y-195236185D02*
X197743741Y-195379042D01*
X197743741Y-195379042D02*
X197815170Y-195664757D01*
X197815170Y-195664757D02*
X197815170Y-196021900D01*
X197815170Y-196021900D02*
X197743741Y-196307614D01*
X197743741Y-196307614D02*
X197672313Y-196450471D01*
X197672313Y-196450471D02*
X197600884Y-196521900D01*
X197600884Y-196521900D02*
X197458027Y-196593328D01*
X197458027Y-196593328D02*
X197315170Y-196593328D01*
X197315170Y-196593328D02*
X197172313Y-196521900D01*
X197172313Y-196521900D02*
X197100884Y-196450471D01*
X197100884Y-196450471D02*
X197029455Y-196307614D01*
X197029455Y-196307614D02*
X196958027Y-196021900D01*
X196958027Y-196021900D02*
X196958027Y-195664757D01*
X196958027Y-195664757D02*
X197029455Y-195379042D01*
X197029455Y-195379042D02*
X197100884Y-195236185D01*
X197100884Y-195236185D02*
X197172313Y-195164757D01*
X197172313Y-195164757D02*
X197315170Y-195093328D01*
X198458026Y-196450471D02*
X198529455Y-196521900D01*
X198529455Y-196521900D02*
X198458026Y-196593328D01*
X198458026Y-196593328D02*
X198386598Y-196521900D01*
X198386598Y-196521900D02*
X198458026Y-196450471D01*
X198458026Y-196450471D02*
X198458026Y-196593328D01*
X199815170Y-195593328D02*
X199815170Y-196593328D01*
X199458027Y-195021900D02*
X199100884Y-196093328D01*
X199100884Y-196093328D02*
X200029455Y-196093328D01*
X177002200Y-191507200D02*
X285002200Y-191507200D01*
D11*
X264413853Y-193785528D02*
X263913853Y-193071242D01*
X263556710Y-193785528D02*
X263556710Y-192285528D01*
X263556710Y-192285528D02*
X264128139Y-192285528D01*
X264128139Y-192285528D02*
X264270996Y-192356957D01*
X264270996Y-192356957D02*
X264342425Y-192428385D01*
X264342425Y-192428385D02*
X264413853Y-192571242D01*
X264413853Y-192571242D02*
X264413853Y-192785528D01*
X264413853Y-192785528D02*
X264342425Y-192928385D01*
X264342425Y-192928385D02*
X264270996Y-192999814D01*
X264270996Y-192999814D02*
X264128139Y-193071242D01*
X264128139Y-193071242D02*
X263556710Y-193071242D01*
X265628139Y-193714100D02*
X265485282Y-193785528D01*
X265485282Y-193785528D02*
X265199568Y-193785528D01*
X265199568Y-193785528D02*
X265056710Y-193714100D01*
X265056710Y-193714100D02*
X264985282Y-193571242D01*
X264985282Y-193571242D02*
X264985282Y-192999814D01*
X264985282Y-192999814D02*
X265056710Y-192856957D01*
X265056710Y-192856957D02*
X265199568Y-192785528D01*
X265199568Y-192785528D02*
X265485282Y-192785528D01*
X265485282Y-192785528D02*
X265628139Y-192856957D01*
X265628139Y-192856957D02*
X265699568Y-192999814D01*
X265699568Y-192999814D02*
X265699568Y-193142671D01*
X265699568Y-193142671D02*
X264985282Y-193285528D01*
X266199567Y-192785528D02*
X266556710Y-193785528D01*
X266556710Y-193785528D02*
X266913853Y-192785528D01*
X267485281Y-193642671D02*
X267556710Y-193714100D01*
X267556710Y-193714100D02*
X267485281Y-193785528D01*
X267485281Y-193785528D02*
X267413853Y-193714100D01*
X267413853Y-193714100D02*
X267485281Y-193642671D01*
X267485281Y-193642671D02*
X267485281Y-193785528D01*
X267485281Y-192856957D02*
X267556710Y-192928385D01*
X267556710Y-192928385D02*
X267485281Y-192999814D01*
X267485281Y-192999814D02*
X267413853Y-192928385D01*
X267413853Y-192928385D02*
X267485281Y-192856957D01*
X267485281Y-192856957D02*
X267485281Y-192999814D01*
D10*
X178386598Y-193721900D02*
X178600884Y-193793328D01*
X178600884Y-193793328D02*
X178958026Y-193793328D01*
X178958026Y-193793328D02*
X179100884Y-193721900D01*
X179100884Y-193721900D02*
X179172312Y-193650471D01*
X179172312Y-193650471D02*
X179243741Y-193507614D01*
X179243741Y-193507614D02*
X179243741Y-193364757D01*
X179243741Y-193364757D02*
X179172312Y-193221900D01*
X179172312Y-193221900D02*
X179100884Y-193150471D01*
X179100884Y-193150471D02*
X178958026Y-193079042D01*
X178958026Y-193079042D02*
X178672312Y-193007614D01*
X178672312Y-193007614D02*
X178529455Y-192936185D01*
X178529455Y-192936185D02*
X178458026Y-192864757D01*
X178458026Y-192864757D02*
X178386598Y-192721900D01*
X178386598Y-192721900D02*
X178386598Y-192579042D01*
X178386598Y-192579042D02*
X178458026Y-192436185D01*
X178458026Y-192436185D02*
X178529455Y-192364757D01*
X178529455Y-192364757D02*
X178672312Y-192293328D01*
X178672312Y-192293328D02*
X179029455Y-192293328D01*
X179029455Y-192293328D02*
X179243741Y-192364757D01*
X179886597Y-193793328D02*
X179886597Y-192793328D01*
X179886597Y-192293328D02*
X179815169Y-192364757D01*
X179815169Y-192364757D02*
X179886597Y-192436185D01*
X179886597Y-192436185D02*
X179958026Y-192364757D01*
X179958026Y-192364757D02*
X179886597Y-192293328D01*
X179886597Y-192293328D02*
X179886597Y-192436185D01*
X180458026Y-192793328D02*
X181243741Y-192793328D01*
X181243741Y-192793328D02*
X180458026Y-193793328D01*
X180458026Y-193793328D02*
X181243741Y-193793328D01*
X182386598Y-193721900D02*
X182243741Y-193793328D01*
X182243741Y-193793328D02*
X181958027Y-193793328D01*
X181958027Y-193793328D02*
X181815169Y-193721900D01*
X181815169Y-193721900D02*
X181743741Y-193579042D01*
X181743741Y-193579042D02*
X181743741Y-193007614D01*
X181743741Y-193007614D02*
X181815169Y-192864757D01*
X181815169Y-192864757D02*
X181958027Y-192793328D01*
X181958027Y-192793328D02*
X182243741Y-192793328D01*
X182243741Y-192793328D02*
X182386598Y-192864757D01*
X182386598Y-192864757D02*
X182458027Y-193007614D01*
X182458027Y-193007614D02*
X182458027Y-193150471D01*
X182458027Y-193150471D02*
X181743741Y-193293328D01*
X183100883Y-193650471D02*
X183172312Y-193721900D01*
X183172312Y-193721900D02*
X183100883Y-193793328D01*
X183100883Y-193793328D02*
X183029455Y-193721900D01*
X183029455Y-193721900D02*
X183100883Y-193650471D01*
X183100883Y-193650471D02*
X183100883Y-193793328D01*
X183100883Y-192864757D02*
X183172312Y-192936185D01*
X183172312Y-192936185D02*
X183100883Y-193007614D01*
X183100883Y-193007614D02*
X183029455Y-192936185D01*
X183029455Y-192936185D02*
X183100883Y-192864757D01*
X183100883Y-192864757D02*
X183100883Y-193007614D01*
X184886598Y-193364757D02*
X185600884Y-193364757D01*
X184743741Y-193793328D02*
X185243741Y-192293328D01*
X185243741Y-192293328D02*
X185743741Y-193793328D01*
X186886598Y-192793328D02*
X186886598Y-193793328D01*
X186529455Y-192221900D02*
X186172312Y-193293328D01*
X186172312Y-193293328D02*
X187100883Y-193293328D01*
X263458026Y-196593328D02*
X263458026Y-195093328D01*
X264815170Y-196593328D02*
X264815170Y-195093328D01*
X264815170Y-196521900D02*
X264672312Y-196593328D01*
X264672312Y-196593328D02*
X264386598Y-196593328D01*
X264386598Y-196593328D02*
X264243741Y-196521900D01*
X264243741Y-196521900D02*
X264172312Y-196450471D01*
X264172312Y-196450471D02*
X264100884Y-196307614D01*
X264100884Y-196307614D02*
X264100884Y-195879042D01*
X264100884Y-195879042D02*
X264172312Y-195736185D01*
X264172312Y-195736185D02*
X264243741Y-195664757D01*
X264243741Y-195664757D02*
X264386598Y-195593328D01*
X264386598Y-195593328D02*
X264672312Y-195593328D01*
X264672312Y-195593328D02*
X264815170Y-195664757D01*
X265529455Y-196450471D02*
X265600884Y-196521900D01*
X265600884Y-196521900D02*
X265529455Y-196593328D01*
X265529455Y-196593328D02*
X265458027Y-196521900D01*
X265458027Y-196521900D02*
X265529455Y-196450471D01*
X265529455Y-196450471D02*
X265529455Y-196593328D01*
X265529455Y-195664757D02*
X265600884Y-195736185D01*
X265600884Y-195736185D02*
X265529455Y-195807614D01*
X265529455Y-195807614D02*
X265458027Y-195736185D01*
X265458027Y-195736185D02*
X265529455Y-195664757D01*
X265529455Y-195664757D02*
X265529455Y-195807614D01*
X268029456Y-195093328D02*
X267743741Y-195093328D01*
X267743741Y-195093328D02*
X267600884Y-195164757D01*
X267600884Y-195164757D02*
X267529456Y-195236185D01*
X267529456Y-195236185D02*
X267386598Y-195450471D01*
X267386598Y-195450471D02*
X267315170Y-195736185D01*
X267315170Y-195736185D02*
X267315170Y-196307614D01*
X267315170Y-196307614D02*
X267386598Y-196450471D01*
X267386598Y-196450471D02*
X267458027Y-196521900D01*
X267458027Y-196521900D02*
X267600884Y-196593328D01*
X267600884Y-196593328D02*
X267886598Y-196593328D01*
X267886598Y-196593328D02*
X268029456Y-196521900D01*
X268029456Y-196521900D02*
X268100884Y-196450471D01*
X268100884Y-196450471D02*
X268172313Y-196307614D01*
X268172313Y-196307614D02*
X268172313Y-195950471D01*
X268172313Y-195950471D02*
X268100884Y-195807614D01*
X268100884Y-195807614D02*
X268029456Y-195736185D01*
X268029456Y-195736185D02*
X267886598Y-195664757D01*
X267886598Y-195664757D02*
X267600884Y-195664757D01*
X267600884Y-195664757D02*
X267458027Y-195736185D01*
X267458027Y-195736185D02*
X267386598Y-195807614D01*
X267386598Y-195807614D02*
X267315170Y-195950471D01*
X269886598Y-195021900D02*
X268600884Y-196950471D01*
X270458027Y-196593328D02*
X270743741Y-196593328D01*
X270743741Y-196593328D02*
X270886598Y-196521900D01*
X270886598Y-196521900D02*
X270958027Y-196450471D01*
X270958027Y-196450471D02*
X271100884Y-196236185D01*
X271100884Y-196236185D02*
X271172313Y-195950471D01*
X271172313Y-195950471D02*
X271172313Y-195379042D01*
X271172313Y-195379042D02*
X271100884Y-195236185D01*
X271100884Y-195236185D02*
X271029456Y-195164757D01*
X271029456Y-195164757D02*
X270886598Y-195093328D01*
X270886598Y-195093328D02*
X270600884Y-195093328D01*
X270600884Y-195093328D02*
X270458027Y-195164757D01*
X270458027Y-195164757D02*
X270386598Y-195236185D01*
X270386598Y-195236185D02*
X270315170Y-195379042D01*
X270315170Y-195379042D02*
X270315170Y-195736185D01*
X270315170Y-195736185D02*
X270386598Y-195879042D01*
X270386598Y-195879042D02*
X270458027Y-195950471D01*
X270458027Y-195950471D02*
X270600884Y-196021900D01*
X270600884Y-196021900D02*
X270886598Y-196021900D01*
X270886598Y-196021900D02*
X271029456Y-195950471D01*
X271029456Y-195950471D02*
X271100884Y-195879042D01*
X271100884Y-195879042D02*
X271172313Y-195736185D01*
X177002200Y-187507200D02*
X285002200Y-187507200D01*
D12*
X178693928Y-188211638D02*
X179836785Y-188211638D01*
X179015357Y-190211638D02*
X179265357Y-188211638D01*
X180253452Y-190211638D02*
X180420119Y-188878304D01*
X180503452Y-188211638D02*
X180396309Y-188306876D01*
X180396309Y-188306876D02*
X180479643Y-188402114D01*
X180479643Y-188402114D02*
X180586786Y-188306876D01*
X180586786Y-188306876D02*
X180503452Y-188211638D01*
X180503452Y-188211638D02*
X180479643Y-188402114D01*
X181086786Y-188878304D02*
X181848690Y-188878304D01*
X181455833Y-188211638D02*
X181241548Y-189925923D01*
X181241548Y-189925923D02*
X181312976Y-190116400D01*
X181312976Y-190116400D02*
X181491548Y-190211638D01*
X181491548Y-190211638D02*
X181682024Y-190211638D01*
X182634405Y-190211638D02*
X182455833Y-190116400D01*
X182455833Y-190116400D02*
X182384405Y-189925923D01*
X182384405Y-189925923D02*
X182598690Y-188211638D01*
X184170119Y-190116400D02*
X183967738Y-190211638D01*
X183967738Y-190211638D02*
X183586785Y-190211638D01*
X183586785Y-190211638D02*
X183408214Y-190116400D01*
X183408214Y-190116400D02*
X183336785Y-189925923D01*
X183336785Y-189925923D02*
X183432024Y-189164019D01*
X183432024Y-189164019D02*
X183551071Y-188973542D01*
X183551071Y-188973542D02*
X183753452Y-188878304D01*
X183753452Y-188878304D02*
X184134404Y-188878304D01*
X184134404Y-188878304D02*
X184312976Y-188973542D01*
X184312976Y-188973542D02*
X184384404Y-189164019D01*
X184384404Y-189164019D02*
X184360595Y-189354495D01*
X184360595Y-189354495D02*
X183384404Y-189544971D01*
X185134405Y-190021161D02*
X185217738Y-190116400D01*
X185217738Y-190116400D02*
X185110595Y-190211638D01*
X185110595Y-190211638D02*
X185027262Y-190116400D01*
X185027262Y-190116400D02*
X185134405Y-190021161D01*
X185134405Y-190021161D02*
X185110595Y-190211638D01*
X185265357Y-188973542D02*
X185348690Y-189068780D01*
X185348690Y-189068780D02*
X185241548Y-189164019D01*
X185241548Y-189164019D02*
X185158214Y-189068780D01*
X185158214Y-189068780D02*
X185265357Y-188973542D01*
X185265357Y-188973542D02*
X185241548Y-189164019D01*
X187586786Y-190211638D02*
X187836786Y-188211638D01*
X187836786Y-188211638D02*
X188598691Y-188211638D01*
X188598691Y-188211638D02*
X188777262Y-188306876D01*
X188777262Y-188306876D02*
X188860596Y-188402114D01*
X188860596Y-188402114D02*
X188932024Y-188592590D01*
X188932024Y-188592590D02*
X188896310Y-188878304D01*
X188896310Y-188878304D02*
X188777262Y-189068780D01*
X188777262Y-189068780D02*
X188670120Y-189164019D01*
X188670120Y-189164019D02*
X188467739Y-189259257D01*
X188467739Y-189259257D02*
X187705834Y-189259257D01*
X189586786Y-190211638D02*
X189836786Y-188211638D01*
X189836786Y-188211638D02*
X190312977Y-188211638D01*
X190312977Y-188211638D02*
X190586786Y-188306876D01*
X190586786Y-188306876D02*
X190753453Y-188497352D01*
X190753453Y-188497352D02*
X190824881Y-188687828D01*
X190824881Y-188687828D02*
X190872501Y-189068780D01*
X190872501Y-189068780D02*
X190836786Y-189354495D01*
X190836786Y-189354495D02*
X190693929Y-189735447D01*
X190693929Y-189735447D02*
X190574881Y-189925923D01*
X190574881Y-189925923D02*
X190360596Y-190116400D01*
X190360596Y-190116400D02*
X190062977Y-190211638D01*
X190062977Y-190211638D02*
X189586786Y-190211638D01*
X192384405Y-189164019D02*
X192658215Y-189259257D01*
X192658215Y-189259257D02*
X192741548Y-189354495D01*
X192741548Y-189354495D02*
X192812977Y-189544971D01*
X192812977Y-189544971D02*
X192777262Y-189830685D01*
X192777262Y-189830685D02*
X192658215Y-190021161D01*
X192658215Y-190021161D02*
X192551072Y-190116400D01*
X192551072Y-190116400D02*
X192348691Y-190211638D01*
X192348691Y-190211638D02*
X191586786Y-190211638D01*
X191586786Y-190211638D02*
X191836786Y-188211638D01*
X191836786Y-188211638D02*
X192503453Y-188211638D01*
X192503453Y-188211638D02*
X192682024Y-188306876D01*
X192682024Y-188306876D02*
X192765358Y-188402114D01*
X192765358Y-188402114D02*
X192836786Y-188592590D01*
X192836786Y-188592590D02*
X192812977Y-188783066D01*
X192812977Y-188783066D02*
X192693929Y-188973542D01*
X192693929Y-188973542D02*
X192586786Y-189068780D01*
X192586786Y-189068780D02*
X192384405Y-189164019D01*
X192384405Y-189164019D02*
X191717739Y-189164019D01*
X193682024Y-189449733D02*
X195205834Y-189449733D01*
X196062976Y-190211638D02*
X196312976Y-188211638D01*
X196193929Y-189164019D02*
X197336786Y-189164019D01*
X197205833Y-190211638D02*
X197455833Y-188211638D01*
X198932024Y-190116400D02*
X198729643Y-190211638D01*
X198729643Y-190211638D02*
X198348690Y-190211638D01*
X198348690Y-190211638D02*
X198170119Y-190116400D01*
X198170119Y-190116400D02*
X198098690Y-189925923D01*
X198098690Y-189925923D02*
X198193929Y-189164019D01*
X198193929Y-189164019D02*
X198312976Y-188973542D01*
X198312976Y-188973542D02*
X198515357Y-188878304D01*
X198515357Y-188878304D02*
X198896309Y-188878304D01*
X198896309Y-188878304D02*
X199074881Y-188973542D01*
X199074881Y-188973542D02*
X199146309Y-189164019D01*
X199146309Y-189164019D02*
X199122500Y-189354495D01*
X199122500Y-189354495D02*
X198146309Y-189544971D01*
X199682024Y-190211638D02*
X200896310Y-188878304D01*
X199848691Y-188878304D02*
X200729643Y-190211638D01*
X202348691Y-190211638D02*
X202479643Y-189164019D01*
X202479643Y-189164019D02*
X202408215Y-188973542D01*
X202408215Y-188973542D02*
X202229643Y-188878304D01*
X202229643Y-188878304D02*
X201848691Y-188878304D01*
X201848691Y-188878304D02*
X201646310Y-188973542D01*
X202360596Y-190116400D02*
X202158215Y-190211638D01*
X202158215Y-190211638D02*
X201682024Y-190211638D01*
X201682024Y-190211638D02*
X201503453Y-190116400D01*
X201503453Y-190116400D02*
X201432024Y-189925923D01*
X201432024Y-189925923D02*
X201455834Y-189735447D01*
X201455834Y-189735447D02*
X201574882Y-189544971D01*
X201574882Y-189544971D02*
X201777263Y-189449733D01*
X201777263Y-189449733D02*
X202253453Y-189449733D01*
X202253453Y-189449733D02*
X202455834Y-189354495D01*
X203586787Y-190211638D02*
X203408215Y-190116400D01*
X203408215Y-190116400D02*
X203336787Y-189925923D01*
X203336787Y-189925923D02*
X203551072Y-188211638D01*
X204348691Y-190211638D02*
X204515358Y-188878304D01*
X204598691Y-188211638D02*
X204491548Y-188306876D01*
X204491548Y-188306876D02*
X204574882Y-188402114D01*
X204574882Y-188402114D02*
X204682025Y-188306876D01*
X204682025Y-188306876D02*
X204598691Y-188211638D01*
X204598691Y-188211638D02*
X204574882Y-188402114D01*
X205182025Y-188878304D02*
X205943929Y-188878304D01*
X205301072Y-190211638D02*
X205515358Y-188497352D01*
X205515358Y-188497352D02*
X205634406Y-188306876D01*
X205634406Y-188306876D02*
X205836787Y-188211638D01*
X205836787Y-188211638D02*
X206027263Y-188211638D01*
X206324882Y-188878304D02*
X207086786Y-188878304D01*
X206693929Y-188211638D02*
X206479644Y-189925923D01*
X206479644Y-189925923D02*
X206551072Y-190116400D01*
X206551072Y-190116400D02*
X206729644Y-190211638D01*
X206729644Y-190211638D02*
X206920120Y-190211638D01*
D10*
X178958026Y-185607614D02*
X178458026Y-185607614D01*
X178458026Y-186393328D02*
X178458026Y-184893328D01*
X178458026Y-184893328D02*
X179172312Y-184893328D01*
X179743740Y-186393328D02*
X179743740Y-185393328D01*
X179743740Y-184893328D02*
X179672312Y-184964757D01*
X179672312Y-184964757D02*
X179743740Y-185036185D01*
X179743740Y-185036185D02*
X179815169Y-184964757D01*
X179815169Y-184964757D02*
X179743740Y-184893328D01*
X179743740Y-184893328D02*
X179743740Y-185036185D01*
X180672312Y-186393328D02*
X180529455Y-186321900D01*
X180529455Y-186321900D02*
X180458026Y-186179042D01*
X180458026Y-186179042D02*
X180458026Y-184893328D01*
X181815169Y-186321900D02*
X181672312Y-186393328D01*
X181672312Y-186393328D02*
X181386598Y-186393328D01*
X181386598Y-186393328D02*
X181243740Y-186321900D01*
X181243740Y-186321900D02*
X181172312Y-186179042D01*
X181172312Y-186179042D02*
X181172312Y-185607614D01*
X181172312Y-185607614D02*
X181243740Y-185464757D01*
X181243740Y-185464757D02*
X181386598Y-185393328D01*
X181386598Y-185393328D02*
X181672312Y-185393328D01*
X181672312Y-185393328D02*
X181815169Y-185464757D01*
X181815169Y-185464757D02*
X181886598Y-185607614D01*
X181886598Y-185607614D02*
X181886598Y-185750471D01*
X181886598Y-185750471D02*
X181172312Y-185893328D01*
X182529454Y-186250471D02*
X182600883Y-186321900D01*
X182600883Y-186321900D02*
X182529454Y-186393328D01*
X182529454Y-186393328D02*
X182458026Y-186321900D01*
X182458026Y-186321900D02*
X182529454Y-186250471D01*
X182529454Y-186250471D02*
X182529454Y-186393328D01*
X182529454Y-185464757D02*
X182600883Y-185536185D01*
X182600883Y-185536185D02*
X182529454Y-185607614D01*
X182529454Y-185607614D02*
X182458026Y-185536185D01*
X182458026Y-185536185D02*
X182529454Y-185464757D01*
X182529454Y-185464757D02*
X182529454Y-185607614D01*
X184386597Y-185393328D02*
X184386597Y-186893328D01*
X184386597Y-185464757D02*
X184529455Y-185393328D01*
X184529455Y-185393328D02*
X184815169Y-185393328D01*
X184815169Y-185393328D02*
X184958026Y-185464757D01*
X184958026Y-185464757D02*
X185029455Y-185536185D01*
X185029455Y-185536185D02*
X185100883Y-185679042D01*
X185100883Y-185679042D02*
X185100883Y-186107614D01*
X185100883Y-186107614D02*
X185029455Y-186250471D01*
X185029455Y-186250471D02*
X184958026Y-186321900D01*
X184958026Y-186321900D02*
X184815169Y-186393328D01*
X184815169Y-186393328D02*
X184529455Y-186393328D01*
X184529455Y-186393328D02*
X184386597Y-186321900D01*
X186386598Y-186393328D02*
X186386598Y-184893328D01*
X186386598Y-186321900D02*
X186243740Y-186393328D01*
X186243740Y-186393328D02*
X185958026Y-186393328D01*
X185958026Y-186393328D02*
X185815169Y-186321900D01*
X185815169Y-186321900D02*
X185743740Y-186250471D01*
X185743740Y-186250471D02*
X185672312Y-186107614D01*
X185672312Y-186107614D02*
X185672312Y-185679042D01*
X185672312Y-185679042D02*
X185743740Y-185536185D01*
X185743740Y-185536185D02*
X185815169Y-185464757D01*
X185815169Y-185464757D02*
X185958026Y-185393328D01*
X185958026Y-185393328D02*
X186243740Y-185393328D01*
X186243740Y-185393328D02*
X186386598Y-185464757D01*
X187100883Y-186393328D02*
X187100883Y-184893328D01*
X187100883Y-185464757D02*
X187243741Y-185393328D01*
X187243741Y-185393328D02*
X187529455Y-185393328D01*
X187529455Y-185393328D02*
X187672312Y-185464757D01*
X187672312Y-185464757D02*
X187743741Y-185536185D01*
X187743741Y-185536185D02*
X187815169Y-185679042D01*
X187815169Y-185679042D02*
X187815169Y-186107614D01*
X187815169Y-186107614D02*
X187743741Y-186250471D01*
X187743741Y-186250471D02*
X187672312Y-186321900D01*
X187672312Y-186321900D02*
X187529455Y-186393328D01*
X187529455Y-186393328D02*
X187243741Y-186393328D01*
X187243741Y-186393328D02*
X187100883Y-186321900D01*
X188458026Y-186250471D02*
X188529455Y-186321900D01*
X188529455Y-186321900D02*
X188458026Y-186393328D01*
X188458026Y-186393328D02*
X188386598Y-186321900D01*
X188386598Y-186321900D02*
X188458026Y-186250471D01*
X188458026Y-186250471D02*
X188458026Y-186393328D01*
X189172312Y-186393328D02*
X189172312Y-184893328D01*
X189315170Y-185821900D02*
X189743741Y-186393328D01*
X189743741Y-185393328D02*
X189172312Y-185964757D01*
X190386598Y-186393328D02*
X190386598Y-185393328D01*
X190386598Y-184893328D02*
X190315170Y-184964757D01*
X190315170Y-184964757D02*
X190386598Y-185036185D01*
X190386598Y-185036185D02*
X190458027Y-184964757D01*
X190458027Y-184964757D02*
X190386598Y-184893328D01*
X190386598Y-184893328D02*
X190386598Y-185036185D01*
X191743742Y-186321900D02*
X191600884Y-186393328D01*
X191600884Y-186393328D02*
X191315170Y-186393328D01*
X191315170Y-186393328D02*
X191172313Y-186321900D01*
X191172313Y-186321900D02*
X191100884Y-186250471D01*
X191100884Y-186250471D02*
X191029456Y-186107614D01*
X191029456Y-186107614D02*
X191029456Y-185679042D01*
X191029456Y-185679042D02*
X191100884Y-185536185D01*
X191100884Y-185536185D02*
X191172313Y-185464757D01*
X191172313Y-185464757D02*
X191315170Y-185393328D01*
X191315170Y-185393328D02*
X191600884Y-185393328D01*
X191600884Y-185393328D02*
X191743742Y-185464757D01*
X193029456Y-186393328D02*
X193029456Y-185607614D01*
X193029456Y-185607614D02*
X192958027Y-185464757D01*
X192958027Y-185464757D02*
X192815170Y-185393328D01*
X192815170Y-185393328D02*
X192529456Y-185393328D01*
X192529456Y-185393328D02*
X192386598Y-185464757D01*
X193029456Y-186321900D02*
X192886598Y-186393328D01*
X192886598Y-186393328D02*
X192529456Y-186393328D01*
X192529456Y-186393328D02*
X192386598Y-186321900D01*
X192386598Y-186321900D02*
X192315170Y-186179042D01*
X192315170Y-186179042D02*
X192315170Y-186036185D01*
X192315170Y-186036185D02*
X192386598Y-185893328D01*
X192386598Y-185893328D02*
X192529456Y-185821900D01*
X192529456Y-185821900D02*
X192886598Y-185821900D01*
X192886598Y-185821900D02*
X193029456Y-185750471D01*
X194386599Y-186393328D02*
X194386599Y-184893328D01*
X194386599Y-186321900D02*
X194243741Y-186393328D01*
X194243741Y-186393328D02*
X193958027Y-186393328D01*
X193958027Y-186393328D02*
X193815170Y-186321900D01*
X193815170Y-186321900D02*
X193743741Y-186250471D01*
X193743741Y-186250471D02*
X193672313Y-186107614D01*
X193672313Y-186107614D02*
X193672313Y-185679042D01*
X193672313Y-185679042D02*
X193743741Y-185536185D01*
X193743741Y-185536185D02*
X193815170Y-185464757D01*
X193815170Y-185464757D02*
X193958027Y-185393328D01*
X193958027Y-185393328D02*
X194243741Y-185393328D01*
X194243741Y-185393328D02*
X194386599Y-185464757D01*
X194743742Y-186536185D02*
X195886599Y-186536185D01*
X196243741Y-185393328D02*
X196243741Y-186893328D01*
X196243741Y-185464757D02*
X196386599Y-185393328D01*
X196386599Y-185393328D02*
X196672313Y-185393328D01*
X196672313Y-185393328D02*
X196815170Y-185464757D01*
X196815170Y-185464757D02*
X196886599Y-185536185D01*
X196886599Y-185536185D02*
X196958027Y-185679042D01*
X196958027Y-185679042D02*
X196958027Y-186107614D01*
X196958027Y-186107614D02*
X196886599Y-186250471D01*
X196886599Y-186250471D02*
X196815170Y-186321900D01*
X196815170Y-186321900D02*
X196672313Y-186393328D01*
X196672313Y-186393328D02*
X196386599Y-186393328D01*
X196386599Y-186393328D02*
X196243741Y-186321900D01*
X198243742Y-186321900D02*
X198100884Y-186393328D01*
X198100884Y-186393328D02*
X197815170Y-186393328D01*
X197815170Y-186393328D02*
X197672313Y-186321900D01*
X197672313Y-186321900D02*
X197600884Y-186250471D01*
X197600884Y-186250471D02*
X197529456Y-186107614D01*
X197529456Y-186107614D02*
X197529456Y-185679042D01*
X197529456Y-185679042D02*
X197600884Y-185536185D01*
X197600884Y-185536185D02*
X197672313Y-185464757D01*
X197672313Y-185464757D02*
X197815170Y-185393328D01*
X197815170Y-185393328D02*
X198100884Y-185393328D01*
X198100884Y-185393328D02*
X198243742Y-185464757D01*
X198886598Y-186393328D02*
X198886598Y-184893328D01*
X198886598Y-185464757D02*
X199029456Y-185393328D01*
X199029456Y-185393328D02*
X199315170Y-185393328D01*
X199315170Y-185393328D02*
X199458027Y-185464757D01*
X199458027Y-185464757D02*
X199529456Y-185536185D01*
X199529456Y-185536185D02*
X199600884Y-185679042D01*
X199600884Y-185679042D02*
X199600884Y-186107614D01*
X199600884Y-186107614D02*
X199529456Y-186250471D01*
X199529456Y-186250471D02*
X199458027Y-186321900D01*
X199458027Y-186321900D02*
X199315170Y-186393328D01*
X199315170Y-186393328D02*
X199029456Y-186393328D01*
X199029456Y-186393328D02*
X198886598Y-186321900D01*
X177002200Y-181507200D02*
X285002200Y-181507200D01*
X178386598Y-183621900D02*
X178600884Y-183693328D01*
X178600884Y-183693328D02*
X178958026Y-183693328D01*
X178958026Y-183693328D02*
X179100884Y-183621900D01*
X179100884Y-183621900D02*
X179172312Y-183550471D01*
X179172312Y-183550471D02*
X179243741Y-183407614D01*
X179243741Y-183407614D02*
X179243741Y-183264757D01*
X179243741Y-183264757D02*
X179172312Y-183121900D01*
X179172312Y-183121900D02*
X179100884Y-183050471D01*
X179100884Y-183050471D02*
X178958026Y-182979042D01*
X178958026Y-182979042D02*
X178672312Y-182907614D01*
X178672312Y-182907614D02*
X178529455Y-182836185D01*
X178529455Y-182836185D02*
X178458026Y-182764757D01*
X178458026Y-182764757D02*
X178386598Y-182621900D01*
X178386598Y-182621900D02*
X178386598Y-182479042D01*
X178386598Y-182479042D02*
X178458026Y-182336185D01*
X178458026Y-182336185D02*
X178529455Y-182264757D01*
X178529455Y-182264757D02*
X178672312Y-182193328D01*
X178672312Y-182193328D02*
X179029455Y-182193328D01*
X179029455Y-182193328D02*
X179243741Y-182264757D01*
X179886597Y-183693328D02*
X179886597Y-182193328D01*
X180529455Y-183693328D02*
X180529455Y-182907614D01*
X180529455Y-182907614D02*
X180458026Y-182764757D01*
X180458026Y-182764757D02*
X180315169Y-182693328D01*
X180315169Y-182693328D02*
X180100883Y-182693328D01*
X180100883Y-182693328D02*
X179958026Y-182764757D01*
X179958026Y-182764757D02*
X179886597Y-182836185D01*
X181815169Y-183621900D02*
X181672312Y-183693328D01*
X181672312Y-183693328D02*
X181386598Y-183693328D01*
X181386598Y-183693328D02*
X181243740Y-183621900D01*
X181243740Y-183621900D02*
X181172312Y-183479042D01*
X181172312Y-183479042D02*
X181172312Y-182907614D01*
X181172312Y-182907614D02*
X181243740Y-182764757D01*
X181243740Y-182764757D02*
X181386598Y-182693328D01*
X181386598Y-182693328D02*
X181672312Y-182693328D01*
X181672312Y-182693328D02*
X181815169Y-182764757D01*
X181815169Y-182764757D02*
X181886598Y-182907614D01*
X181886598Y-182907614D02*
X181886598Y-183050471D01*
X181886598Y-183050471D02*
X181172312Y-183193328D01*
X183100883Y-183621900D02*
X182958026Y-183693328D01*
X182958026Y-183693328D02*
X182672312Y-183693328D01*
X182672312Y-183693328D02*
X182529454Y-183621900D01*
X182529454Y-183621900D02*
X182458026Y-183479042D01*
X182458026Y-183479042D02*
X182458026Y-182907614D01*
X182458026Y-182907614D02*
X182529454Y-182764757D01*
X182529454Y-182764757D02*
X182672312Y-182693328D01*
X182672312Y-182693328D02*
X182958026Y-182693328D01*
X182958026Y-182693328D02*
X183100883Y-182764757D01*
X183100883Y-182764757D02*
X183172312Y-182907614D01*
X183172312Y-182907614D02*
X183172312Y-183050471D01*
X183172312Y-183050471D02*
X182458026Y-183193328D01*
X183600883Y-182693328D02*
X184172311Y-182693328D01*
X183815168Y-182193328D02*
X183815168Y-183479042D01*
X183815168Y-183479042D02*
X183886597Y-183621900D01*
X183886597Y-183621900D02*
X184029454Y-183693328D01*
X184029454Y-183693328D02*
X184172311Y-183693328D01*
X184672311Y-183550471D02*
X184743740Y-183621900D01*
X184743740Y-183621900D02*
X184672311Y-183693328D01*
X184672311Y-183693328D02*
X184600883Y-183621900D01*
X184600883Y-183621900D02*
X184672311Y-183550471D01*
X184672311Y-183550471D02*
X184672311Y-183693328D01*
X184672311Y-182764757D02*
X184743740Y-182836185D01*
X184743740Y-182836185D02*
X184672311Y-182907614D01*
X184672311Y-182907614D02*
X184600883Y-182836185D01*
X184600883Y-182836185D02*
X184672311Y-182764757D01*
X184672311Y-182764757D02*
X184672311Y-182907614D01*
X197002200Y-191507200D02*
X197002200Y-194507200D01*
X261002200Y-191507200D02*
X261002200Y-198007200D01*
D13*
X78776134Y-70060792D02*
X78776134Y-70094464D01*
X78776134Y-70094464D02*
X78809806Y-70094464D01*
X78809806Y-70094464D02*
X78809806Y-70060792D01*
X78809806Y-70060792D02*
X78776134Y-70060792D01*
X78776134Y-70060792D02*
X78809806Y-70094464D01*
X78590940Y-69875598D02*
X78590940Y-69909269D01*
X78590940Y-69909269D02*
X78624611Y-69909269D01*
X78624611Y-69909269D02*
X78624611Y-69875598D01*
X78624611Y-69875598D02*
X78590940Y-69875598D01*
X78590940Y-69875598D02*
X78624611Y-69909269D01*
X78809806Y-70363838D02*
X78776135Y-70363838D01*
X78776135Y-70363838D02*
X78691955Y-70347002D01*
X78691955Y-70347002D02*
X78641448Y-70330166D01*
X78641448Y-70330166D02*
X78574104Y-70296494D01*
X78574104Y-70296494D02*
X78473089Y-70229151D01*
X78473089Y-70229151D02*
X78405745Y-70161807D01*
X78405745Y-70161807D02*
X78338402Y-70060792D01*
X78338402Y-70060792D02*
X78304730Y-69993449D01*
X78304730Y-69993449D02*
X78287894Y-69942941D01*
X78287894Y-69942941D02*
X78271058Y-69858762D01*
X78271058Y-69858762D02*
X78271058Y-69825090D01*
D11*
X78820489Y-49076828D02*
X78820489Y-47576828D01*
X78820489Y-47576828D02*
X77963346Y-49076828D01*
X77963346Y-49076828D02*
X77963346Y-47576828D01*
X77249060Y-48291114D02*
X76749060Y-48291114D01*
X76534774Y-49076828D02*
X77249060Y-49076828D01*
X77249060Y-49076828D02*
X77249060Y-47576828D01*
X77249060Y-47576828D02*
X76534774Y-47576828D01*
X75106202Y-47648257D02*
X75249060Y-47576828D01*
X75249060Y-47576828D02*
X75463345Y-47576828D01*
X75463345Y-47576828D02*
X75677631Y-47648257D01*
X75677631Y-47648257D02*
X75820488Y-47791114D01*
X75820488Y-47791114D02*
X75891917Y-47933971D01*
X75891917Y-47933971D02*
X75963345Y-48219685D01*
X75963345Y-48219685D02*
X75963345Y-48433971D01*
X75963345Y-48433971D02*
X75891917Y-48719685D01*
X75891917Y-48719685D02*
X75820488Y-48862542D01*
X75820488Y-48862542D02*
X75677631Y-49005400D01*
X75677631Y-49005400D02*
X75463345Y-49076828D01*
X75463345Y-49076828D02*
X75320488Y-49076828D01*
X75320488Y-49076828D02*
X75106202Y-49005400D01*
X75106202Y-49005400D02*
X75034774Y-48933971D01*
X75034774Y-48933971D02*
X75034774Y-48433971D01*
X75034774Y-48433971D02*
X75320488Y-48433971D01*
X74463345Y-48648257D02*
X73749060Y-48648257D01*
X74606202Y-49076828D02*
X74106202Y-47576828D01*
X74106202Y-47576828D02*
X73606202Y-49076828D01*
X73320488Y-47576828D02*
X72463346Y-47576828D01*
X72891917Y-49076828D02*
X72891917Y-47576828D01*
X71963346Y-49076828D02*
X71963346Y-47576828D01*
X71463345Y-47576828D02*
X70963345Y-49076828D01*
X70963345Y-49076828D02*
X70463345Y-47576828D01*
X69963346Y-48291114D02*
X69463346Y-48291114D01*
X69249060Y-49076828D02*
X69963346Y-49076828D01*
X69963346Y-49076828D02*
X69963346Y-47576828D01*
X69963346Y-47576828D02*
X69249060Y-47576828D01*
X67534774Y-49005400D02*
X67320489Y-49076828D01*
X67320489Y-49076828D02*
X66963346Y-49076828D01*
X66963346Y-49076828D02*
X66820489Y-49005400D01*
X66820489Y-49005400D02*
X66749060Y-48933971D01*
X66749060Y-48933971D02*
X66677631Y-48791114D01*
X66677631Y-48791114D02*
X66677631Y-48648257D01*
X66677631Y-48648257D02*
X66749060Y-48505400D01*
X66749060Y-48505400D02*
X66820489Y-48433971D01*
X66820489Y-48433971D02*
X66963346Y-48362542D01*
X66963346Y-48362542D02*
X67249060Y-48291114D01*
X67249060Y-48291114D02*
X67391917Y-48219685D01*
X67391917Y-48219685D02*
X67463346Y-48148257D01*
X67463346Y-48148257D02*
X67534774Y-48005400D01*
X67534774Y-48005400D02*
X67534774Y-47862542D01*
X67534774Y-47862542D02*
X67463346Y-47719685D01*
X67463346Y-47719685D02*
X67391917Y-47648257D01*
X67391917Y-47648257D02*
X67249060Y-47576828D01*
X67249060Y-47576828D02*
X66891917Y-47576828D01*
X66891917Y-47576828D02*
X66677631Y-47648257D01*
X66034775Y-49076828D02*
X66034775Y-47576828D01*
X65320489Y-49076828D02*
X65320489Y-47576828D01*
X65320489Y-47576828D02*
X64963346Y-47576828D01*
X64963346Y-47576828D02*
X64749060Y-47648257D01*
X64749060Y-47648257D02*
X64606203Y-47791114D01*
X64606203Y-47791114D02*
X64534774Y-47933971D01*
X64534774Y-47933971D02*
X64463346Y-48219685D01*
X64463346Y-48219685D02*
X64463346Y-48433971D01*
X64463346Y-48433971D02*
X64534774Y-48719685D01*
X64534774Y-48719685D02*
X64606203Y-48862542D01*
X64606203Y-48862542D02*
X64749060Y-49005400D01*
X64749060Y-49005400D02*
X64963346Y-49076828D01*
X64963346Y-49076828D02*
X65320489Y-49076828D01*
X63820489Y-48291114D02*
X63320489Y-48291114D01*
X63106203Y-49076828D02*
X63820489Y-49076828D01*
X63820489Y-49076828D02*
X63820489Y-47576828D01*
X63820489Y-47576828D02*
X63106203Y-47576828D01*
X46372319Y-43921658D02*
X46280768Y-43964348D01*
X46280768Y-43964348D02*
X46164787Y-44074160D01*
X46164787Y-44074160D02*
X46042637Y-44409765D01*
X46042637Y-44409765D02*
X46060898Y-44568437D01*
X46060898Y-44568437D02*
X46103588Y-44659987D01*
X46103588Y-44659987D02*
X46213400Y-44775968D01*
X46213400Y-44775968D02*
X46347642Y-44824828D01*
X46347642Y-44824828D02*
X46573435Y-44830998D01*
X46573435Y-44830998D02*
X47672046Y-44318707D01*
X47672046Y-44318707D02*
X47354456Y-45191279D01*
X45627327Y-45550820D02*
X45578467Y-45685061D01*
X45578467Y-45685061D02*
X45596728Y-45843733D01*
X45596728Y-45843733D02*
X45639418Y-45935284D01*
X45639418Y-45935284D02*
X45749230Y-46051265D01*
X45749230Y-46051265D02*
X45993284Y-46216106D01*
X45993284Y-46216106D02*
X46328888Y-46338256D01*
X46328888Y-46338256D02*
X46621802Y-46368855D01*
X46621802Y-46368855D02*
X46780474Y-46350594D01*
X46780474Y-46350594D02*
X46872025Y-46307903D01*
X46872025Y-46307903D02*
X46988006Y-46198092D01*
X46988006Y-46198092D02*
X47036866Y-46063850D01*
X47036866Y-46063850D02*
X47018605Y-45905178D01*
X47018605Y-45905178D02*
X46975914Y-45813627D01*
X46975914Y-45813627D02*
X46866102Y-45697646D01*
X46866102Y-45697646D02*
X46622048Y-45532805D01*
X46622048Y-45532805D02*
X46286444Y-45410655D01*
X46286444Y-45410655D02*
X45993530Y-45380056D01*
X45993530Y-45380056D02*
X45834858Y-45398317D01*
X45834858Y-45398317D02*
X45743308Y-45441008D01*
X45743308Y-45441008D02*
X45627327Y-45550820D01*
X45138727Y-46893237D02*
X45089867Y-47027479D01*
X45089867Y-47027479D02*
X45108127Y-47186151D01*
X45108127Y-47186151D02*
X45150818Y-47277702D01*
X45150818Y-47277702D02*
X45260630Y-47393683D01*
X45260630Y-47393683D02*
X45504684Y-47558524D01*
X45504684Y-47558524D02*
X45840288Y-47680674D01*
X45840288Y-47680674D02*
X46133202Y-47711273D01*
X46133202Y-47711273D02*
X46291874Y-47693012D01*
X46291874Y-47693012D02*
X46383425Y-47650321D01*
X46383425Y-47650321D02*
X46499406Y-47540509D01*
X46499406Y-47540509D02*
X46548266Y-47406267D01*
X46548266Y-47406267D02*
X46530005Y-47247596D01*
X46530005Y-47247596D02*
X46487314Y-47156045D01*
X46487314Y-47156045D02*
X46377502Y-47040064D01*
X46377502Y-47040064D02*
X46133448Y-46875223D01*
X46133448Y-46875223D02*
X45797844Y-46753073D01*
X45797844Y-46753073D02*
X45504930Y-46722474D01*
X45504930Y-46722474D02*
X45346258Y-46740735D01*
X45346258Y-46740735D02*
X45254708Y-46783425D01*
X45254708Y-46783425D02*
X45138727Y-46893237D01*
X45779090Y-48266501D02*
X45534790Y-48937710D01*
X46230676Y-48278839D02*
X44650127Y-48235655D01*
X44650127Y-48235655D02*
X45888655Y-49218531D01*
X45326765Y-50762312D02*
X43917226Y-50249282D01*
X43917226Y-50249282D02*
X44753030Y-51085578D01*
X44753030Y-51085578D02*
X43575206Y-51188974D01*
X43575206Y-51188974D02*
X44984745Y-51702004D01*
X44362150Y-52159513D02*
X44117849Y-52830722D01*
X44813735Y-52171851D02*
X43233186Y-52128667D01*
X43233186Y-52128667D02*
X44471715Y-53111544D01*
X42940026Y-52934118D02*
X44007545Y-54386840D01*
X42598006Y-53873810D02*
X44349565Y-53447148D01*
X43677863Y-54874947D02*
X43720554Y-54966498D01*
X43720554Y-54966498D02*
X43812105Y-54923807D01*
X43812105Y-54923807D02*
X43769414Y-54832256D01*
X43769414Y-54832256D02*
X43677863Y-54874947D01*
X43677863Y-54874947D02*
X43812105Y-54923807D01*
X43275138Y-54728367D02*
X42494117Y-54368086D01*
X42494117Y-54368086D02*
X42402566Y-54410777D01*
X42402566Y-54410777D02*
X42445257Y-54502328D01*
X42445257Y-54502328D02*
X43275138Y-54728367D01*
X43275138Y-54728367D02*
X42402566Y-54410777D01*
D10*
X56027438Y-59721904D02*
X56027438Y-61055238D01*
X58122676Y-61626666D02*
X58122676Y-59721904D01*
X58122676Y-59721904D02*
X54122676Y-59721904D01*
X54122676Y-59721904D02*
X54122676Y-61626666D01*
X57932200Y-63150476D02*
X58122676Y-63721905D01*
X58122676Y-63721905D02*
X58122676Y-64674286D01*
X58122676Y-64674286D02*
X57932200Y-65055238D01*
X57932200Y-65055238D02*
X57741723Y-65245714D01*
X57741723Y-65245714D02*
X57360771Y-65436191D01*
X57360771Y-65436191D02*
X56979819Y-65436191D01*
X56979819Y-65436191D02*
X56598866Y-65245714D01*
X56598866Y-65245714D02*
X56408390Y-65055238D01*
X56408390Y-65055238D02*
X56217914Y-64674286D01*
X56217914Y-64674286D02*
X56027438Y-63912381D01*
X56027438Y-63912381D02*
X55836961Y-63531429D01*
X55836961Y-63531429D02*
X55646485Y-63340952D01*
X55646485Y-63340952D02*
X55265533Y-63150476D01*
X55265533Y-63150476D02*
X54884580Y-63150476D01*
X54884580Y-63150476D02*
X54503628Y-63340952D01*
X54503628Y-63340952D02*
X54313152Y-63531429D01*
X54313152Y-63531429D02*
X54122676Y-63912381D01*
X54122676Y-63912381D02*
X54122676Y-64864762D01*
X54122676Y-64864762D02*
X54313152Y-65436191D01*
X57741723Y-69436191D02*
X57932200Y-69245715D01*
X57932200Y-69245715D02*
X58122676Y-68674286D01*
X58122676Y-68674286D02*
X58122676Y-68293334D01*
X58122676Y-68293334D02*
X57932200Y-67721905D01*
X57932200Y-67721905D02*
X57551247Y-67340953D01*
X57551247Y-67340953D02*
X57170295Y-67150476D01*
X57170295Y-67150476D02*
X56408390Y-66960000D01*
X56408390Y-66960000D02*
X55836961Y-66960000D01*
X55836961Y-66960000D02*
X55075057Y-67150476D01*
X55075057Y-67150476D02*
X54694104Y-67340953D01*
X54694104Y-67340953D02*
X54313152Y-67721905D01*
X54313152Y-67721905D02*
X54122676Y-68293334D01*
X54122676Y-68293334D02*
X54122676Y-68674286D01*
X54122676Y-68674286D02*
X54313152Y-69245715D01*
X54313152Y-69245715D02*
X54503628Y-69436191D01*
X56598866Y-71150476D02*
X56598866Y-74198096D01*
X99934508Y-69755987D02*
X100216253Y-69151782D01*
X99387536Y-68450094D02*
X98985043Y-69313244D01*
X98985043Y-69313244D02*
X100797658Y-70158481D01*
X100797658Y-70158481D02*
X101200152Y-69295331D01*
X99795846Y-67799823D02*
X99830279Y-67500629D01*
X99830279Y-67500629D02*
X100031526Y-67069053D01*
X100031526Y-67069053D02*
X100198340Y-66936673D01*
X100198340Y-66936673D02*
X100324904Y-66890607D01*
X100324904Y-66890607D02*
X100537784Y-66884791D01*
X100537784Y-66884791D02*
X100710414Y-66965290D01*
X100710414Y-66965290D02*
X100842794Y-67132103D01*
X100842794Y-67132103D02*
X100888860Y-67258668D01*
X100888860Y-67258668D02*
X100894676Y-67471547D01*
X100894676Y-67471547D02*
X100819994Y-67857057D01*
X100819994Y-67857057D02*
X100825810Y-68069936D01*
X100825810Y-68069936D02*
X100871876Y-68196500D01*
X100871876Y-68196500D02*
X101004257Y-68363314D01*
X101004257Y-68363314D02*
X101176887Y-68443813D01*
X101176887Y-68443813D02*
X101389766Y-68437996D01*
X101389766Y-68437996D02*
X101516330Y-68391931D01*
X101516330Y-68391931D02*
X101683144Y-68259550D01*
X101683144Y-68259550D02*
X101884391Y-67827975D01*
X101884391Y-67827975D02*
X101918824Y-67528781D01*
X101210390Y-64991676D02*
X101083826Y-65037742D01*
X101083826Y-65037742D02*
X100876763Y-65256438D01*
X100876763Y-65256438D02*
X100796264Y-65429068D01*
X100796264Y-65429068D02*
X100761831Y-65728262D01*
X100761831Y-65728262D02*
X100853962Y-65981391D01*
X100853962Y-65981391D02*
X100986343Y-66148205D01*
X100986343Y-66148205D02*
X101291354Y-66395517D01*
X101291354Y-66395517D02*
X101550299Y-66516265D01*
X101550299Y-66516265D02*
X101935808Y-66590948D01*
X101935808Y-66590948D02*
X102148688Y-66585131D01*
X102148688Y-66585131D02*
X102401816Y-66493000D01*
X102401816Y-66493000D02*
X102608879Y-66274304D01*
X102608879Y-66274304D02*
X102689378Y-66101674D01*
X102689378Y-66101674D02*
X102723811Y-65802480D01*
X102723811Y-65802480D02*
X102677746Y-65675916D01*
X102090524Y-64456337D02*
X102734514Y-63075297D01*
X75014895Y-84334856D02*
X75014895Y-83858666D01*
X74729180Y-84430094D02*
X75729180Y-84096761D01*
X75729180Y-84096761D02*
X74729180Y-83763428D01*
X74824419Y-82858666D02*
X74776800Y-82906285D01*
X74776800Y-82906285D02*
X74729180Y-83049142D01*
X74729180Y-83049142D02*
X74729180Y-83144380D01*
X74729180Y-83144380D02*
X74776800Y-83287237D01*
X74776800Y-83287237D02*
X74872038Y-83382475D01*
X74872038Y-83382475D02*
X74967276Y-83430094D01*
X74967276Y-83430094D02*
X75157752Y-83477713D01*
X75157752Y-83477713D02*
X75300609Y-83477713D01*
X75300609Y-83477713D02*
X75491085Y-83430094D01*
X75491085Y-83430094D02*
X75586323Y-83382475D01*
X75586323Y-83382475D02*
X75681561Y-83287237D01*
X75681561Y-83287237D02*
X75729180Y-83144380D01*
X75729180Y-83144380D02*
X75729180Y-83049142D01*
X75729180Y-83049142D02*
X75681561Y-82906285D01*
X75681561Y-82906285D02*
X75633942Y-82858666D01*
X74776800Y-82477713D02*
X74729180Y-82334856D01*
X74729180Y-82334856D02*
X74729180Y-82096761D01*
X74729180Y-82096761D02*
X74776800Y-82001523D01*
X74776800Y-82001523D02*
X74824419Y-81953904D01*
X74824419Y-81953904D02*
X74919657Y-81906285D01*
X74919657Y-81906285D02*
X75014895Y-81906285D01*
X75014895Y-81906285D02*
X75110133Y-81953904D01*
X75110133Y-81953904D02*
X75157752Y-82001523D01*
X75157752Y-82001523D02*
X75205371Y-82096761D01*
X75205371Y-82096761D02*
X75252990Y-82287237D01*
X75252990Y-82287237D02*
X75300609Y-82382475D01*
X75300609Y-82382475D02*
X75348228Y-82430094D01*
X75348228Y-82430094D02*
X75443466Y-82477713D01*
X75443466Y-82477713D02*
X75538704Y-82477713D01*
X75538704Y-82477713D02*
X75633942Y-82430094D01*
X75633942Y-82430094D02*
X75681561Y-82382475D01*
X75681561Y-82382475D02*
X75729180Y-82287237D01*
X75729180Y-82287237D02*
X75729180Y-82049142D01*
X75729180Y-82049142D02*
X75681561Y-81906285D01*
X75729180Y-81572951D02*
X75729180Y-80906285D01*
X75729180Y-80906285D02*
X74729180Y-81334856D01*
X75729180Y-80620570D02*
X75729180Y-79953904D01*
X75729180Y-79953904D02*
X74729180Y-80382475D01*
X75729180Y-79382475D02*
X75729180Y-79287237D01*
X75729180Y-79287237D02*
X75681561Y-79191999D01*
X75681561Y-79191999D02*
X75633942Y-79144380D01*
X75633942Y-79144380D02*
X75538704Y-79096761D01*
X75538704Y-79096761D02*
X75348228Y-79049142D01*
X75348228Y-79049142D02*
X75110133Y-79049142D01*
X75110133Y-79049142D02*
X74919657Y-79096761D01*
X74919657Y-79096761D02*
X74824419Y-79144380D01*
X74824419Y-79144380D02*
X74776800Y-79191999D01*
X74776800Y-79191999D02*
X74729180Y-79287237D01*
X74729180Y-79287237D02*
X74729180Y-79382475D01*
X74729180Y-79382475D02*
X74776800Y-79477713D01*
X74776800Y-79477713D02*
X74824419Y-79525332D01*
X74824419Y-79525332D02*
X74919657Y-79572951D01*
X74919657Y-79572951D02*
X75110133Y-79620570D01*
X75110133Y-79620570D02*
X75348228Y-79620570D01*
X75348228Y-79620570D02*
X75538704Y-79572951D01*
X75538704Y-79572951D02*
X75633942Y-79525332D01*
X75633942Y-79525332D02*
X75681561Y-79477713D01*
X75681561Y-79477713D02*
X75729180Y-79382475D01*
X74729180Y-78715808D02*
X75395847Y-78191999D01*
X75395847Y-78715808D02*
X74729180Y-78191999D01*
X74824419Y-77239618D02*
X74776800Y-77287237D01*
X74776800Y-77287237D02*
X74729180Y-77430094D01*
X74729180Y-77430094D02*
X74729180Y-77525332D01*
X74729180Y-77525332D02*
X74776800Y-77668189D01*
X74776800Y-77668189D02*
X74872038Y-77763427D01*
X74872038Y-77763427D02*
X74967276Y-77811046D01*
X74967276Y-77811046D02*
X75157752Y-77858665D01*
X75157752Y-77858665D02*
X75300609Y-77858665D01*
X75300609Y-77858665D02*
X75491085Y-77811046D01*
X75491085Y-77811046D02*
X75586323Y-77763427D01*
X75586323Y-77763427D02*
X75681561Y-77668189D01*
X75681561Y-77668189D02*
X75729180Y-77525332D01*
X75729180Y-77525332D02*
X75729180Y-77430094D01*
X75729180Y-77430094D02*
X75681561Y-77287237D01*
X75681561Y-77287237D02*
X75633942Y-77239618D01*
X75252990Y-76477713D02*
X75205371Y-76334856D01*
X75205371Y-76334856D02*
X75157752Y-76287237D01*
X75157752Y-76287237D02*
X75062514Y-76239618D01*
X75062514Y-76239618D02*
X74919657Y-76239618D01*
X74919657Y-76239618D02*
X74824419Y-76287237D01*
X74824419Y-76287237D02*
X74776800Y-76334856D01*
X74776800Y-76334856D02*
X74729180Y-76430094D01*
X74729180Y-76430094D02*
X74729180Y-76811046D01*
X74729180Y-76811046D02*
X75729180Y-76811046D01*
X75729180Y-76811046D02*
X75729180Y-76477713D01*
X75729180Y-76477713D02*
X75681561Y-76382475D01*
X75681561Y-76382475D02*
X75633942Y-76334856D01*
X75633942Y-76334856D02*
X75538704Y-76287237D01*
X75538704Y-76287237D02*
X75443466Y-76287237D01*
X75443466Y-76287237D02*
X75348228Y-76334856D01*
X75348228Y-76334856D02*
X75300609Y-76382475D01*
X75300609Y-76382475D02*
X75252990Y-76477713D01*
X75252990Y-76477713D02*
X75252990Y-76811046D01*
X75110133Y-75811046D02*
X75110133Y-75049142D01*
X75633942Y-74620570D02*
X75681561Y-74572951D01*
X75681561Y-74572951D02*
X75729180Y-74477713D01*
X75729180Y-74477713D02*
X75729180Y-74239618D01*
X75729180Y-74239618D02*
X75681561Y-74144380D01*
X75681561Y-74144380D02*
X75633942Y-74096761D01*
X75633942Y-74096761D02*
X75538704Y-74049142D01*
X75538704Y-74049142D02*
X75443466Y-74049142D01*
X75443466Y-74049142D02*
X75300609Y-74096761D01*
X75300609Y-74096761D02*
X74729180Y-74668189D01*
X74729180Y-74668189D02*
X74729180Y-74049142D01*
X75729180Y-73430094D02*
X75729180Y-73334856D01*
X75729180Y-73334856D02*
X75681561Y-73239618D01*
X75681561Y-73239618D02*
X75633942Y-73191999D01*
X75633942Y-73191999D02*
X75538704Y-73144380D01*
X75538704Y-73144380D02*
X75348228Y-73096761D01*
X75348228Y-73096761D02*
X75110133Y-73096761D01*
X75110133Y-73096761D02*
X74919657Y-73144380D01*
X74919657Y-73144380D02*
X74824419Y-73191999D01*
X74824419Y-73191999D02*
X74776800Y-73239618D01*
X74776800Y-73239618D02*
X74729180Y-73334856D01*
X74729180Y-73334856D02*
X74729180Y-73430094D01*
X74729180Y-73430094D02*
X74776800Y-73525332D01*
X74776800Y-73525332D02*
X74824419Y-73572951D01*
X74824419Y-73572951D02*
X74919657Y-73620570D01*
X74919657Y-73620570D02*
X75110133Y-73668189D01*
X75110133Y-73668189D02*
X75348228Y-73668189D01*
X75348228Y-73668189D02*
X75538704Y-73620570D01*
X75538704Y-73620570D02*
X75633942Y-73572951D01*
X75633942Y-73572951D02*
X75681561Y-73525332D01*
X75681561Y-73525332D02*
X75729180Y-73430094D01*
X75729180Y-72477713D02*
X75729180Y-72382475D01*
X75729180Y-72382475D02*
X75681561Y-72287237D01*
X75681561Y-72287237D02*
X75633942Y-72239618D01*
X75633942Y-72239618D02*
X75538704Y-72191999D01*
X75538704Y-72191999D02*
X75348228Y-72144380D01*
X75348228Y-72144380D02*
X75110133Y-72144380D01*
X75110133Y-72144380D02*
X74919657Y-72191999D01*
X74919657Y-72191999D02*
X74824419Y-72239618D01*
X74824419Y-72239618D02*
X74776800Y-72287237D01*
X74776800Y-72287237D02*
X74729180Y-72382475D01*
X74729180Y-72382475D02*
X74729180Y-72477713D01*
X74729180Y-72477713D02*
X74776800Y-72572951D01*
X74776800Y-72572951D02*
X74824419Y-72620570D01*
X74824419Y-72620570D02*
X74919657Y-72668189D01*
X74919657Y-72668189D02*
X75110133Y-72715808D01*
X75110133Y-72715808D02*
X75348228Y-72715808D01*
X75348228Y-72715808D02*
X75538704Y-72668189D01*
X75538704Y-72668189D02*
X75633942Y-72620570D01*
X75633942Y-72620570D02*
X75681561Y-72572951D01*
X75681561Y-72572951D02*
X75729180Y-72477713D01*
X75729180Y-71715808D02*
X74919657Y-71715808D01*
X74919657Y-71715808D02*
X74824419Y-71668189D01*
X74824419Y-71668189D02*
X74776800Y-71620570D01*
X74776800Y-71620570D02*
X74729180Y-71525332D01*
X74729180Y-71525332D02*
X74729180Y-71334856D01*
X74729180Y-71334856D02*
X74776800Y-71239618D01*
X74776800Y-71239618D02*
X74824419Y-71191999D01*
X74824419Y-71191999D02*
X74919657Y-71144380D01*
X74919657Y-71144380D02*
X75729180Y-71144380D01*
X75110133Y-70668189D02*
X75110133Y-69906285D01*
X74729180Y-69430094D02*
X75729180Y-69430094D01*
X75729180Y-69430094D02*
X75729180Y-69049142D01*
X75729180Y-69049142D02*
X75681561Y-68953904D01*
X75681561Y-68953904D02*
X75633942Y-68906285D01*
X75633942Y-68906285D02*
X75538704Y-68858666D01*
X75538704Y-68858666D02*
X75395847Y-68858666D01*
X75395847Y-68858666D02*
X75300609Y-68906285D01*
X75300609Y-68906285D02*
X75252990Y-68953904D01*
X75252990Y-68953904D02*
X75205371Y-69049142D01*
X75205371Y-69049142D02*
X75205371Y-69430094D01*
X74776800Y-68477713D02*
X74729180Y-68334856D01*
X74729180Y-68334856D02*
X74729180Y-68096761D01*
X74729180Y-68096761D02*
X74776800Y-68001523D01*
X74776800Y-68001523D02*
X74824419Y-67953904D01*
X74824419Y-67953904D02*
X74919657Y-67906285D01*
X74919657Y-67906285D02*
X75014895Y-67906285D01*
X75014895Y-67906285D02*
X75110133Y-67953904D01*
X75110133Y-67953904D02*
X75157752Y-68001523D01*
X75157752Y-68001523D02*
X75205371Y-68096761D01*
X75205371Y-68096761D02*
X75252990Y-68287237D01*
X75252990Y-68287237D02*
X75300609Y-68382475D01*
X75300609Y-68382475D02*
X75348228Y-68430094D01*
X75348228Y-68430094D02*
X75443466Y-68477713D01*
X75443466Y-68477713D02*
X75538704Y-68477713D01*
X75538704Y-68477713D02*
X75633942Y-68430094D01*
X75633942Y-68430094D02*
X75681561Y-68382475D01*
X75681561Y-68382475D02*
X75729180Y-68287237D01*
X75729180Y-68287237D02*
X75729180Y-68049142D01*
X75729180Y-68049142D02*
X75681561Y-67906285D01*
X75252990Y-67144380D02*
X75252990Y-67477713D01*
X74729180Y-67477713D02*
X75729180Y-67477713D01*
X75729180Y-67477713D02*
X75729180Y-67001523D01*
X57766666Y-82154819D02*
X58099999Y-81678628D01*
X58338094Y-82154819D02*
X58338094Y-81154819D01*
X58338094Y-81154819D02*
X57957142Y-81154819D01*
X57957142Y-81154819D02*
X57861904Y-81202438D01*
X57861904Y-81202438D02*
X57814285Y-81250057D01*
X57814285Y-81250057D02*
X57766666Y-81345295D01*
X57766666Y-81345295D02*
X57766666Y-81488152D01*
X57766666Y-81488152D02*
X57814285Y-81583390D01*
X57814285Y-81583390D02*
X57861904Y-81631009D01*
X57861904Y-81631009D02*
X57957142Y-81678628D01*
X57957142Y-81678628D02*
X58338094Y-81678628D01*
X57433332Y-81154819D02*
X56814285Y-81154819D01*
X56814285Y-81154819D02*
X57147618Y-81535771D01*
X57147618Y-81535771D02*
X57004761Y-81535771D01*
X57004761Y-81535771D02*
X56909523Y-81583390D01*
X56909523Y-81583390D02*
X56861904Y-81631009D01*
X56861904Y-81631009D02*
X56814285Y-81726247D01*
X56814285Y-81726247D02*
X56814285Y-81964342D01*
X56814285Y-81964342D02*
X56861904Y-82059580D01*
X56861904Y-82059580D02*
X56909523Y-82107200D01*
X56909523Y-82107200D02*
X57004761Y-82154819D01*
X57004761Y-82154819D02*
X57290475Y-82154819D01*
X57290475Y-82154819D02*
X57385713Y-82107200D01*
X57385713Y-82107200D02*
X57433332Y-82059580D01*
X62954819Y-60839286D02*
X62954819Y-61410714D01*
X63954819Y-61125000D02*
X62954819Y-61125000D01*
X63954819Y-61744048D02*
X62954819Y-61744048D01*
X63431009Y-61744048D02*
X63431009Y-62315476D01*
X63954819Y-62315476D02*
X62954819Y-62315476D01*
X63954819Y-63315476D02*
X63954819Y-62744048D01*
X63954819Y-63029762D02*
X62954819Y-63029762D01*
X62954819Y-63029762D02*
X63097676Y-62934524D01*
X63097676Y-62934524D02*
X63192914Y-62839286D01*
X63192914Y-62839286D02*
X63240533Y-62744048D01*
X65166666Y-89359580D02*
X65214285Y-89407200D01*
X65214285Y-89407200D02*
X65357142Y-89454819D01*
X65357142Y-89454819D02*
X65452380Y-89454819D01*
X65452380Y-89454819D02*
X65595237Y-89407200D01*
X65595237Y-89407200D02*
X65690475Y-89311961D01*
X65690475Y-89311961D02*
X65738094Y-89216723D01*
X65738094Y-89216723D02*
X65785713Y-89026247D01*
X65785713Y-89026247D02*
X65785713Y-88883390D01*
X65785713Y-88883390D02*
X65738094Y-88692914D01*
X65738094Y-88692914D02*
X65690475Y-88597676D01*
X65690475Y-88597676D02*
X65595237Y-88502438D01*
X65595237Y-88502438D02*
X65452380Y-88454819D01*
X65452380Y-88454819D02*
X65357142Y-88454819D01*
X65357142Y-88454819D02*
X65214285Y-88502438D01*
X65214285Y-88502438D02*
X65166666Y-88550057D01*
X64309523Y-88788152D02*
X64309523Y-89454819D01*
X64547618Y-88407200D02*
X64785713Y-89121485D01*
X64785713Y-89121485D02*
X64166666Y-89121485D01*
X85866666Y-89109580D02*
X85914285Y-89157200D01*
X85914285Y-89157200D02*
X86057142Y-89204819D01*
X86057142Y-89204819D02*
X86152380Y-89204819D01*
X86152380Y-89204819D02*
X86295237Y-89157200D01*
X86295237Y-89157200D02*
X86390475Y-89061961D01*
X86390475Y-89061961D02*
X86438094Y-88966723D01*
X86438094Y-88966723D02*
X86485713Y-88776247D01*
X86485713Y-88776247D02*
X86485713Y-88633390D01*
X86485713Y-88633390D02*
X86438094Y-88442914D01*
X86438094Y-88442914D02*
X86390475Y-88347676D01*
X86390475Y-88347676D02*
X86295237Y-88252438D01*
X86295237Y-88252438D02*
X86152380Y-88204819D01*
X86152380Y-88204819D02*
X86057142Y-88204819D01*
X86057142Y-88204819D02*
X85914285Y-88252438D01*
X85914285Y-88252438D02*
X85866666Y-88300057D01*
X85533332Y-88204819D02*
X84914285Y-88204819D01*
X84914285Y-88204819D02*
X85247618Y-88585771D01*
X85247618Y-88585771D02*
X85104761Y-88585771D01*
X85104761Y-88585771D02*
X85009523Y-88633390D01*
X85009523Y-88633390D02*
X84961904Y-88681009D01*
X84961904Y-88681009D02*
X84914285Y-88776247D01*
X84914285Y-88776247D02*
X84914285Y-89014342D01*
X84914285Y-89014342D02*
X84961904Y-89109580D01*
X84961904Y-89109580D02*
X85009523Y-89157200D01*
X85009523Y-89157200D02*
X85104761Y-89204819D01*
X85104761Y-89204819D02*
X85390475Y-89204819D01*
X85390475Y-89204819D02*
X85485713Y-89157200D01*
X85485713Y-89157200D02*
X85533332Y-89109580D01*
D14*
X66214285Y-42867219D02*
X65928571Y-42962457D01*
X65928571Y-42962457D02*
X65833333Y-43057695D01*
X65833333Y-43057695D02*
X65738095Y-43248171D01*
X65738095Y-43248171D02*
X65738095Y-43533885D01*
X65738095Y-43533885D02*
X65833333Y-43724361D01*
X65833333Y-43724361D02*
X65928571Y-43819600D01*
X65928571Y-43819600D02*
X66119047Y-43914838D01*
X66119047Y-43914838D02*
X66880952Y-43914838D01*
X66880952Y-43914838D02*
X66880952Y-41914838D01*
X66880952Y-41914838D02*
X66214285Y-41914838D01*
X66214285Y-41914838D02*
X66023809Y-42010076D01*
X66023809Y-42010076D02*
X65928571Y-42105314D01*
X65928571Y-42105314D02*
X65833333Y-42295790D01*
X65833333Y-42295790D02*
X65833333Y-42486266D01*
X65833333Y-42486266D02*
X65928571Y-42676742D01*
X65928571Y-42676742D02*
X66023809Y-42771980D01*
X66023809Y-42771980D02*
X66214285Y-42867219D01*
X66214285Y-42867219D02*
X66880952Y-42867219D01*
X64976190Y-43343409D02*
X64023809Y-43343409D01*
X65166666Y-43914838D02*
X64500000Y-41914838D01*
X64500000Y-41914838D02*
X63833333Y-43914838D01*
X63452380Y-41914838D02*
X62309523Y-41914838D01*
X62880952Y-43914838D02*
X62880952Y-41914838D01*
X61642856Y-43152933D02*
X60119047Y-43152933D01*
%TO.C,R3*%
D15*
X57372936Y-82465000D02*
X57827064Y-82465000D01*
X57372936Y-83935000D02*
X57827064Y-83935000D01*
%TO.C,TH1*%
X64415000Y-61897936D02*
X64415000Y-62352064D01*
X65885000Y-61897936D02*
X65885000Y-62352064D01*
%TO.C,C4*%
X61776248Y-88265000D02*
X62298752Y-88265000D01*
X61776248Y-89735000D02*
X62298752Y-89735000D01*
%TO.C,C3*%
X82883552Y-88063400D02*
X82361048Y-88063400D01*
X82883552Y-89533400D02*
X82361048Y-89533400D01*
%TD*%
M02*
